G04 (created by PCBNEW (2013-03-15 BZR 4003)-stable) date 24-Aug-13 4:32:32 PM*
%MOIN*%
G04 Gerber Fmt 3.4, Leading zero omitted, Abs format*
%FSLAX34Y34*%
G01*
G70*
G90*
G04 APERTURE LIST*
%ADD10C,0*%
%ADD11C,0.00590551*%
%ADD12C,0.07*%
%ADD13C,0.08*%
%ADD14C,0.06*%
%ADD15R,0.06X0.06*%
%ADD16C,0.16*%
%ADD17R,0.16X0.16*%
%ADD18O,0.2X0.13*%
%ADD19C,0.075*%
%ADD20R,0.0299213X0.0645669*%
%ADD21R,0.0322835X0.0322835*%
%ADD22C,0.0591*%
%ADD23C,0.1181*%
%ADD24R,0.0299213X0.0649606*%
%ADD25R,0.0322835X0.0324803*%
%ADD26R,0.0322835X0.0346457*%
%ADD27C,0.3*%
%ADD28C,0.035*%
%ADD29C,0.01*%
%ADD30C,0.03*%
%ADD31C,0.02*%
G04 APERTURE END LIST*
G54D10*
G54D11*
X34547Y-31003D02*
X34547Y-7381D01*
X58169Y-31003D02*
X34547Y-31003D01*
X58169Y-7381D02*
X58169Y-31003D01*
X34547Y-7381D02*
X58169Y-7381D01*
G54D12*
X54319Y-9547D03*
X52569Y-9547D03*
G54D13*
X54819Y-10547D03*
X52069Y-10547D03*
G54D12*
X52569Y-12097D03*
X54319Y-12097D03*
X52944Y-11347D03*
X53944Y-11347D03*
G54D14*
X48507Y-18444D03*
X49507Y-18444D03*
X50507Y-18444D03*
X50787Y-10145D03*
X50787Y-9145D03*
X42519Y-14437D03*
X42519Y-13437D03*
X44488Y-26877D03*
X44488Y-25877D03*
X54429Y-26877D03*
X54429Y-25877D03*
X47618Y-14437D03*
X47618Y-13437D03*
X56084Y-8271D03*
X57084Y-8271D03*
X56084Y-9271D03*
X57084Y-9271D03*
X56084Y-10271D03*
G54D15*
X57084Y-10271D03*
G54D14*
X56084Y-11271D03*
X57084Y-11271D03*
X56084Y-12271D03*
X57084Y-12271D03*
X56084Y-13271D03*
X57084Y-13271D03*
X56084Y-14271D03*
X57084Y-14271D03*
X56084Y-15271D03*
X57084Y-15271D03*
X56084Y-16271D03*
X57084Y-16271D03*
X56084Y-17271D03*
X57084Y-17271D03*
X56084Y-18271D03*
X57084Y-18271D03*
X56084Y-19271D03*
X57084Y-19271D03*
X56084Y-20271D03*
X57084Y-20271D03*
G54D16*
X37795Y-9251D03*
G54D17*
X40195Y-9251D03*
G54D18*
X39045Y-11251D03*
G54D14*
X47047Y-19488D03*
G54D19*
X35150Y-12499D03*
X35150Y-15099D03*
G54D20*
X49606Y-26279D03*
G54D21*
X49299Y-26440D03*
X49299Y-26118D03*
X49913Y-26118D03*
X49913Y-26440D03*
G54D22*
X39763Y-20297D03*
X39763Y-19297D03*
X39763Y-18497D03*
X39763Y-17497D03*
G54D23*
X38713Y-21497D03*
X38713Y-16097D03*
G54D24*
X44980Y-16141D03*
G54D25*
X44673Y-16304D03*
X44673Y-15979D03*
X45287Y-15979D03*
X45287Y-16304D03*
G54D26*
X41146Y-28295D03*
X40824Y-28295D03*
X41146Y-27949D03*
X40824Y-27949D03*
G54D27*
X36122Y-29429D03*
X56594Y-29429D03*
G54D14*
X38937Y-14437D03*
X38937Y-13437D03*
X56084Y-21271D03*
X56084Y-22271D03*
X57084Y-21271D03*
X57084Y-22271D03*
G54D28*
X39675Y-25196D03*
X45472Y-22440D03*
X46023Y-18897D03*
X44685Y-15078D03*
X52460Y-20964D03*
X45472Y-14094D03*
X53740Y-22273D03*
X39980Y-29566D03*
X42401Y-29566D03*
X50885Y-28149D03*
X49212Y-23425D03*
X50295Y-23425D03*
X41240Y-21653D03*
X41240Y-21161D03*
X40748Y-21161D03*
X40748Y-21653D03*
X40748Y-22145D03*
X41240Y-22145D03*
X42322Y-21161D03*
X42322Y-22145D03*
X45974Y-28562D03*
X54330Y-18307D03*
X50492Y-14566D03*
X49350Y-14015D03*
G54D29*
X36787Y-7779D02*
X55592Y-7779D01*
X55592Y-7779D02*
X56084Y-8271D01*
X36787Y-7779D02*
X36023Y-8543D01*
X39675Y-25196D02*
X36318Y-25196D01*
X36023Y-24901D02*
X36023Y-8543D01*
X36318Y-25196D02*
X36023Y-24901D01*
G54D30*
X44685Y-15078D02*
X43161Y-15078D01*
X43161Y-15078D02*
X42519Y-14437D01*
X46023Y-17637D02*
X46023Y-15374D01*
X45728Y-15078D02*
X44685Y-15078D01*
X46023Y-15374D02*
X45728Y-15078D01*
X50507Y-18444D02*
X50507Y-17870D01*
X50275Y-17637D02*
X46023Y-17637D01*
X50507Y-17870D02*
X50275Y-17637D01*
X46023Y-18897D02*
X46023Y-17637D01*
X46023Y-21889D02*
X46023Y-18897D01*
X45472Y-22440D02*
X46023Y-21889D01*
X50507Y-18444D02*
X50507Y-20586D01*
X50507Y-20586D02*
X50885Y-20964D01*
X50885Y-20964D02*
X52460Y-20964D01*
X43858Y-12677D02*
X41574Y-12677D01*
X41279Y-14094D02*
X40943Y-14430D01*
X41279Y-12972D02*
X41279Y-14094D01*
X41574Y-12677D02*
X41279Y-12972D01*
X40943Y-14430D02*
X38937Y-14437D01*
X43858Y-12677D02*
X44173Y-12992D01*
X44173Y-12992D02*
X44173Y-13877D01*
X44173Y-13877D02*
X44389Y-14094D01*
X44389Y-14094D02*
X45472Y-14094D01*
X51633Y-19035D02*
X51633Y-13228D01*
X53740Y-19921D02*
X53287Y-19468D01*
X53740Y-22273D02*
X53740Y-19921D01*
X52066Y-19468D02*
X51633Y-19035D01*
X53287Y-19468D02*
X52066Y-19468D01*
X47657Y-9251D02*
X40195Y-9251D01*
X51633Y-13228D02*
X47657Y-9251D01*
G54D29*
X55639Y-27362D02*
X55639Y-10716D01*
X55639Y-10716D02*
X56084Y-10271D01*
X55639Y-27362D02*
X54596Y-28405D01*
X40452Y-30374D02*
X39980Y-29901D01*
X39980Y-29901D02*
X39980Y-29566D01*
X51496Y-30374D02*
X53464Y-28405D01*
X53464Y-28405D02*
X54596Y-28405D01*
X40452Y-30374D02*
X51496Y-30374D01*
X55000Y-27007D02*
X55000Y-11643D01*
X55356Y-10000D02*
X56084Y-9271D01*
X54566Y-10000D02*
X55356Y-10000D01*
X54222Y-10344D02*
X54566Y-10000D01*
X54222Y-10866D02*
X54222Y-10344D01*
X55000Y-11643D02*
X54222Y-10866D01*
X54438Y-27568D02*
X52962Y-27568D01*
X52962Y-27568D02*
X50964Y-29566D01*
X42401Y-29566D02*
X50964Y-29566D01*
X55000Y-27007D02*
X54438Y-27568D01*
G54D30*
X50885Y-28149D02*
X50885Y-24015D01*
X50885Y-24015D02*
X50295Y-23425D01*
X44488Y-26877D02*
X46543Y-26877D01*
X47814Y-28149D02*
X50885Y-28149D01*
X46543Y-26877D02*
X47814Y-28149D01*
X50295Y-23425D02*
X49212Y-23425D01*
X57084Y-21271D02*
X57084Y-22271D01*
X52569Y-9547D02*
X52569Y-9024D01*
X56584Y-9771D02*
X57084Y-10271D01*
G54D31*
X56584Y-8986D02*
X56584Y-9771D01*
X56368Y-8769D02*
X56584Y-8986D01*
G54D30*
X52824Y-8769D02*
X55649Y-8769D01*
G54D31*
X55649Y-8769D02*
X56368Y-8769D01*
G54D30*
X52569Y-9024D02*
X52824Y-8769D01*
X38713Y-16097D02*
X41166Y-16097D01*
X41170Y-16102D02*
X44173Y-16102D01*
X41166Y-16097D02*
X41170Y-16102D01*
X44980Y-16141D02*
X44980Y-16771D01*
X44980Y-16771D02*
X45000Y-16771D01*
X44980Y-16141D02*
X44980Y-15590D01*
X45000Y-15610D02*
X45000Y-15590D01*
X44980Y-15590D02*
X45000Y-15610D01*
X44673Y-16304D02*
X44375Y-16304D01*
X44375Y-16304D02*
X44173Y-16102D01*
X44673Y-15979D02*
X44296Y-15979D01*
X44296Y-15979D02*
X44173Y-16102D01*
X44173Y-16102D02*
X44094Y-16181D01*
X45287Y-15979D02*
X45287Y-15681D01*
X45196Y-15590D02*
X45000Y-15590D01*
X45287Y-15681D02*
X45196Y-15590D01*
X45000Y-15590D02*
X44251Y-15590D01*
X44094Y-15748D02*
X44094Y-16181D01*
X44251Y-15590D02*
X44094Y-15748D01*
X45287Y-16681D02*
X45287Y-16304D01*
X45196Y-16771D02*
X45287Y-16681D01*
X45000Y-16771D02*
X45196Y-16771D01*
X44094Y-16181D02*
X44094Y-16535D01*
X44330Y-16771D02*
X45000Y-16771D01*
X44094Y-16535D02*
X44330Y-16771D01*
X49913Y-26118D02*
X50173Y-26118D01*
X50173Y-26118D02*
X50393Y-26338D01*
X49913Y-26440D02*
X50291Y-26440D01*
X50291Y-26440D02*
X50393Y-26338D01*
X47405Y-25433D02*
X46970Y-25868D01*
X50393Y-26338D02*
X50393Y-25787D01*
X50393Y-25787D02*
X50039Y-25433D01*
X50039Y-25433D02*
X47405Y-25433D01*
X49299Y-26118D02*
X47582Y-26118D01*
X47582Y-26118D02*
X47401Y-26299D01*
X49299Y-26440D02*
X47543Y-26440D01*
X47543Y-26440D02*
X47401Y-26299D01*
X47401Y-26299D02*
X46970Y-25868D01*
X46970Y-25868D02*
X46960Y-25877D01*
X46960Y-25877D02*
X44488Y-25877D01*
X40824Y-28295D02*
X40461Y-28295D01*
X40461Y-28295D02*
X40114Y-27949D01*
X40824Y-27949D02*
X40114Y-27949D01*
X41227Y-27283D02*
X41893Y-27949D01*
X40114Y-27949D02*
X39960Y-27795D01*
X39960Y-27795D02*
X39960Y-27401D01*
X39960Y-27401D02*
X40078Y-27283D01*
X40078Y-27283D02*
X41227Y-27283D01*
X41146Y-28295D02*
X41546Y-28295D01*
X41546Y-28295D02*
X41893Y-27949D01*
X41146Y-27949D02*
X41893Y-27949D01*
X41893Y-27949D02*
X43192Y-27949D01*
X43192Y-27949D02*
X43425Y-27716D01*
X41146Y-28295D02*
X41146Y-27949D01*
X40824Y-28295D02*
X41146Y-28295D01*
X40824Y-27949D02*
X40824Y-28295D01*
X41146Y-27949D02*
X40824Y-27949D01*
X41240Y-21653D02*
X41240Y-21161D01*
X40748Y-21161D02*
X40748Y-21653D01*
X40748Y-22145D02*
X41240Y-22145D01*
X42322Y-21161D02*
X42322Y-22145D01*
X44488Y-25877D02*
X44488Y-22145D01*
X40198Y-21497D02*
X38713Y-21497D01*
X40354Y-21653D02*
X40198Y-21497D01*
X43996Y-21653D02*
X40354Y-21653D01*
X44488Y-22145D02*
X43996Y-21653D01*
X44488Y-25877D02*
X43748Y-25877D01*
X43748Y-25877D02*
X43425Y-26200D01*
X43425Y-26200D02*
X43425Y-27716D01*
X43425Y-27716D02*
X43740Y-28031D01*
X43740Y-28031D02*
X45718Y-28031D01*
X45718Y-28031D02*
X45974Y-28287D01*
X45974Y-28287D02*
X45974Y-28562D01*
X48507Y-18444D02*
X48507Y-21618D01*
X48507Y-21618D02*
X48976Y-22086D01*
X48976Y-22086D02*
X51594Y-22086D01*
X51594Y-22086D02*
X54429Y-24921D01*
X54429Y-24921D02*
X54429Y-25877D01*
G54D29*
X54330Y-18307D02*
X54330Y-12108D01*
X54330Y-12108D02*
X54319Y-12097D01*
X49350Y-14015D02*
X49940Y-14015D01*
X49940Y-14015D02*
X50492Y-14566D01*
G54D10*
G36*
X56756Y-9721D02*
X56734Y-9721D01*
X56642Y-9759D01*
X56572Y-9830D01*
X56534Y-9922D01*
X56534Y-9943D01*
X56396Y-9805D01*
X56314Y-9771D01*
X56395Y-9738D01*
X56550Y-9583D01*
X56584Y-9501D01*
X56618Y-9582D01*
X56756Y-9721D01*
X56756Y-9721D01*
G37*
G54D29*
X56756Y-9721D02*
X56734Y-9721D01*
X56642Y-9759D01*
X56572Y-9830D01*
X56534Y-9922D01*
X56534Y-9943D01*
X56396Y-9805D01*
X56314Y-9771D01*
X56395Y-9738D01*
X56550Y-9583D01*
X56584Y-9501D01*
X56618Y-9582D01*
X56756Y-9721D01*
G54D10*
G36*
X56854Y-8771D02*
X56773Y-8805D01*
X56618Y-8959D01*
X56584Y-9041D01*
X56551Y-8960D01*
X56396Y-8805D01*
X56314Y-8771D01*
X56395Y-8738D01*
X56550Y-8583D01*
X56584Y-8501D01*
X56618Y-8582D01*
X56772Y-8737D01*
X56854Y-8771D01*
X56854Y-8771D01*
G37*
G54D29*
X56854Y-8771D02*
X56773Y-8805D01*
X56618Y-8959D01*
X56584Y-9041D01*
X56551Y-8960D01*
X56396Y-8805D01*
X56314Y-8771D01*
X56395Y-8738D01*
X56550Y-8583D01*
X56584Y-8501D01*
X56618Y-8582D01*
X56772Y-8737D01*
X56854Y-8771D01*
G54D10*
G36*
X57889Y-28249D02*
X57639Y-27998D01*
X57639Y-22353D01*
X57639Y-21353D01*
X57628Y-21134D01*
X57565Y-20983D01*
X57470Y-20956D01*
X57155Y-21271D01*
X57470Y-21586D01*
X57565Y-21559D01*
X57639Y-21353D01*
X57639Y-22353D01*
X57628Y-22134D01*
X57565Y-21983D01*
X57470Y-21956D01*
X57399Y-22027D01*
X57399Y-21885D01*
X57372Y-21790D01*
X57323Y-21773D01*
X57372Y-21752D01*
X57399Y-21657D01*
X57084Y-21342D01*
X56769Y-21657D01*
X56796Y-21752D01*
X56845Y-21770D01*
X56796Y-21790D01*
X56769Y-21885D01*
X57084Y-22200D01*
X57399Y-21885D01*
X57399Y-22027D01*
X57155Y-22271D01*
X57470Y-22586D01*
X57565Y-22559D01*
X57639Y-22353D01*
X57639Y-27998D01*
X57587Y-27946D01*
X57399Y-27868D01*
X57399Y-22657D01*
X57084Y-22342D01*
X56769Y-22657D01*
X56796Y-22752D01*
X57002Y-22826D01*
X57221Y-22815D01*
X57372Y-22752D01*
X57399Y-22657D01*
X57399Y-27868D01*
X56944Y-27679D01*
X56247Y-27678D01*
X55604Y-27944D01*
X55111Y-28436D01*
X54844Y-29079D01*
X54844Y-29775D01*
X55110Y-30419D01*
X55414Y-30724D01*
X37301Y-30724D01*
X37604Y-30421D01*
X37871Y-29778D01*
X37872Y-29082D01*
X37606Y-28439D01*
X37114Y-27946D01*
X36471Y-27679D01*
X35775Y-27678D01*
X35132Y-27944D01*
X34826Y-28249D01*
X34826Y-15645D01*
X35051Y-15728D01*
X35299Y-15718D01*
X35483Y-15642D01*
X35520Y-15539D01*
X35150Y-15169D01*
X35145Y-15175D01*
X35074Y-15104D01*
X35080Y-15099D01*
X35074Y-15093D01*
X35145Y-15022D01*
X35150Y-15028D01*
X35520Y-14658D01*
X35483Y-14555D01*
X35250Y-14469D01*
X35002Y-14479D01*
X34826Y-14552D01*
X34826Y-13045D01*
X35051Y-13128D01*
X35299Y-13118D01*
X35483Y-13042D01*
X35520Y-12939D01*
X35150Y-12569D01*
X35145Y-12575D01*
X35074Y-12504D01*
X35080Y-12499D01*
X35074Y-12493D01*
X35145Y-12422D01*
X35150Y-12428D01*
X35520Y-12058D01*
X35483Y-11955D01*
X35250Y-11869D01*
X35002Y-11879D01*
X34826Y-11952D01*
X34826Y-7661D01*
X36481Y-7661D01*
X35811Y-8331D01*
X35746Y-8428D01*
X35723Y-8543D01*
X35723Y-12237D01*
X35694Y-12166D01*
X35591Y-12129D01*
X35221Y-12499D01*
X35591Y-12868D01*
X35694Y-12832D01*
X35723Y-12752D01*
X35723Y-14837D01*
X35694Y-14766D01*
X35591Y-14729D01*
X35221Y-15099D01*
X35591Y-15468D01*
X35694Y-15432D01*
X35723Y-15352D01*
X35723Y-24901D01*
X35746Y-25016D01*
X35811Y-25113D01*
X36106Y-25408D01*
X36204Y-25474D01*
X36318Y-25496D01*
X39374Y-25496D01*
X39434Y-25556D01*
X39590Y-25621D01*
X39759Y-25621D01*
X39915Y-25557D01*
X40035Y-25437D01*
X40100Y-25281D01*
X40100Y-25112D01*
X40075Y-25053D01*
X40075Y-20680D01*
X39763Y-20368D01*
X39693Y-20439D01*
X39693Y-20297D01*
X39381Y-19985D01*
X39286Y-20012D01*
X39213Y-20216D01*
X39224Y-20433D01*
X39286Y-20582D01*
X39381Y-20609D01*
X39693Y-20297D01*
X39693Y-20439D01*
X39451Y-20680D01*
X39478Y-20775D01*
X39683Y-20847D01*
X39899Y-20836D01*
X40048Y-20775D01*
X40075Y-20680D01*
X40075Y-25053D01*
X40035Y-24956D01*
X39916Y-24836D01*
X39760Y-24771D01*
X39591Y-24771D01*
X39557Y-24785D01*
X39557Y-21648D01*
X39550Y-21314D01*
X39435Y-21035D01*
X39309Y-20972D01*
X39239Y-21043D01*
X39239Y-20901D01*
X39176Y-20776D01*
X38864Y-20654D01*
X38530Y-20660D01*
X38251Y-20776D01*
X38188Y-20901D01*
X38713Y-21426D01*
X39239Y-20901D01*
X39239Y-21043D01*
X38784Y-21497D01*
X39309Y-22022D01*
X39435Y-21960D01*
X39557Y-21648D01*
X39557Y-24785D01*
X39434Y-24836D01*
X39374Y-24896D01*
X39239Y-24896D01*
X39239Y-22093D01*
X38713Y-21568D01*
X38643Y-21639D01*
X38643Y-21497D01*
X38117Y-20972D01*
X37992Y-21035D01*
X37870Y-21346D01*
X37876Y-21680D01*
X37992Y-21960D01*
X38117Y-22022D01*
X38643Y-21497D01*
X38643Y-21639D01*
X38188Y-22093D01*
X38251Y-22219D01*
X38562Y-22341D01*
X38896Y-22334D01*
X39176Y-22219D01*
X39239Y-22093D01*
X39239Y-24896D01*
X36443Y-24896D01*
X36323Y-24777D01*
X36323Y-8667D01*
X36911Y-8079D01*
X55468Y-8079D01*
X55539Y-8150D01*
X55534Y-8161D01*
X55534Y-8380D01*
X55618Y-8582D01*
X55772Y-8737D01*
X55854Y-8771D01*
X55773Y-8805D01*
X55618Y-8959D01*
X55534Y-9161D01*
X55534Y-9380D01*
X55539Y-9392D01*
X55232Y-9700D01*
X54906Y-9700D01*
X54919Y-9667D01*
X54919Y-9428D01*
X54828Y-9207D01*
X54660Y-9038D01*
X54439Y-8947D01*
X54201Y-8947D01*
X53980Y-9038D01*
X53811Y-9206D01*
X53719Y-9427D01*
X53719Y-9666D01*
X53810Y-9886D01*
X53979Y-10055D01*
X54055Y-10087D01*
X54010Y-10132D01*
X53945Y-10229D01*
X53922Y-10344D01*
X53922Y-10747D01*
X53826Y-10747D01*
X53605Y-10838D01*
X53436Y-11006D01*
X53432Y-11017D01*
X53367Y-10995D01*
X53015Y-11347D01*
X53367Y-11698D01*
X53431Y-11677D01*
X53435Y-11686D01*
X53604Y-11855D01*
X53746Y-11914D01*
X53719Y-11977D01*
X53719Y-12216D01*
X53810Y-12436D01*
X53979Y-12605D01*
X54030Y-12626D01*
X54030Y-18006D01*
X53970Y-18066D01*
X53905Y-18222D01*
X53905Y-18391D01*
X53970Y-18547D01*
X54089Y-18667D01*
X54245Y-18732D01*
X54414Y-18732D01*
X54571Y-18667D01*
X54690Y-18548D01*
X54700Y-18525D01*
X54700Y-25390D01*
X54510Y-25323D01*
X54292Y-25334D01*
X54165Y-25386D01*
X54165Y-22189D01*
X54140Y-22128D01*
X54140Y-19921D01*
X54109Y-19768D01*
X54109Y-19768D01*
X54080Y-19725D01*
X54023Y-19638D01*
X54023Y-19638D01*
X53570Y-19185D01*
X53440Y-19098D01*
X53415Y-19093D01*
X53296Y-19070D01*
X53296Y-11769D01*
X52944Y-11417D01*
X52939Y-11423D01*
X52868Y-11352D01*
X52874Y-11347D01*
X52868Y-11341D01*
X52939Y-11270D01*
X52944Y-11276D01*
X53296Y-10925D01*
X53262Y-10824D01*
X53174Y-10792D01*
X53174Y-9640D01*
X53164Y-9402D01*
X53092Y-9229D01*
X52992Y-9195D01*
X52921Y-9266D01*
X52921Y-9125D01*
X52887Y-9024D01*
X52663Y-8942D01*
X52425Y-8952D01*
X52251Y-9024D01*
X52218Y-9125D01*
X52569Y-9476D01*
X52921Y-9125D01*
X52921Y-9266D01*
X52640Y-9547D01*
X52992Y-9898D01*
X53092Y-9865D01*
X53174Y-9640D01*
X53174Y-10792D01*
X53038Y-10742D01*
X52800Y-10752D01*
X52665Y-10808D01*
X52719Y-10677D01*
X52719Y-10418D01*
X52621Y-10179D01*
X52588Y-10146D01*
X52714Y-10141D01*
X52887Y-10069D01*
X52921Y-9969D01*
X52569Y-9617D01*
X52564Y-9623D01*
X52493Y-9552D01*
X52499Y-9547D01*
X52147Y-9195D01*
X52047Y-9229D01*
X51965Y-9453D01*
X51975Y-9692D01*
X52047Y-9865D01*
X52143Y-9897D01*
X51941Y-9897D01*
X51702Y-9995D01*
X51519Y-10178D01*
X51419Y-10417D01*
X51419Y-10675D01*
X51518Y-10914D01*
X51701Y-11097D01*
X51940Y-11197D01*
X52198Y-11197D01*
X52389Y-11118D01*
X52340Y-11253D01*
X52350Y-11492D01*
X52365Y-11527D01*
X52251Y-11574D01*
X52218Y-11675D01*
X52569Y-12026D01*
X52575Y-12020D01*
X52646Y-12091D01*
X52640Y-12097D01*
X52992Y-12448D01*
X53092Y-12415D01*
X53174Y-12190D01*
X53164Y-11952D01*
X53149Y-11916D01*
X53262Y-11869D01*
X53296Y-11769D01*
X53296Y-19070D01*
X53287Y-19068D01*
X52921Y-19068D01*
X52921Y-12519D01*
X52569Y-12167D01*
X52499Y-12238D01*
X52499Y-12097D01*
X52147Y-11745D01*
X52047Y-11779D01*
X51965Y-12003D01*
X51975Y-12242D01*
X52047Y-12415D01*
X52147Y-12448D01*
X52499Y-12097D01*
X52499Y-12238D01*
X52218Y-12519D01*
X52251Y-12619D01*
X52476Y-12701D01*
X52714Y-12691D01*
X52887Y-12619D01*
X52921Y-12519D01*
X52921Y-19068D01*
X52232Y-19068D01*
X52033Y-18869D01*
X52033Y-13228D01*
X52033Y-13228D01*
X52003Y-13075D01*
X52003Y-13075D01*
X51916Y-12945D01*
X51916Y-12945D01*
X51342Y-12370D01*
X51342Y-9227D01*
X51331Y-9008D01*
X51268Y-8857D01*
X51173Y-8830D01*
X51102Y-8901D01*
X51102Y-8759D01*
X51075Y-8664D01*
X50869Y-8590D01*
X50650Y-8601D01*
X50499Y-8664D01*
X50472Y-8759D01*
X50787Y-9074D01*
X51102Y-8759D01*
X51102Y-8901D01*
X50858Y-9145D01*
X51173Y-9460D01*
X51268Y-9433D01*
X51342Y-9227D01*
X51342Y-12370D01*
X51337Y-12366D01*
X51337Y-10036D01*
X51253Y-9834D01*
X51099Y-9679D01*
X51023Y-9648D01*
X51075Y-9626D01*
X51102Y-9531D01*
X50787Y-9216D01*
X50716Y-9287D01*
X50716Y-9145D01*
X50401Y-8830D01*
X50306Y-8857D01*
X50232Y-9063D01*
X50243Y-9282D01*
X50306Y-9433D01*
X50401Y-9460D01*
X50716Y-9145D01*
X50716Y-9287D01*
X50472Y-9531D01*
X50499Y-9626D01*
X50554Y-9646D01*
X50476Y-9679D01*
X50321Y-9833D01*
X50237Y-10035D01*
X50237Y-10254D01*
X50320Y-10456D01*
X50475Y-10611D01*
X50677Y-10695D01*
X50896Y-10695D01*
X51098Y-10612D01*
X51253Y-10457D01*
X51337Y-10255D01*
X51337Y-10036D01*
X51337Y-12366D01*
X47940Y-8969D01*
X47810Y-8882D01*
X47785Y-8877D01*
X47657Y-8851D01*
X41245Y-8851D01*
X41245Y-8402D01*
X41207Y-8310D01*
X41137Y-8240D01*
X41045Y-8202D01*
X40945Y-8201D01*
X39345Y-8201D01*
X39253Y-8239D01*
X39183Y-8310D01*
X39145Y-8402D01*
X39145Y-8501D01*
X39145Y-10101D01*
X39183Y-10193D01*
X39253Y-10263D01*
X39345Y-10301D01*
X39444Y-10302D01*
X41044Y-10302D01*
X41136Y-10264D01*
X41207Y-10193D01*
X41245Y-10101D01*
X41245Y-10002D01*
X41245Y-9651D01*
X47491Y-9651D01*
X51233Y-13394D01*
X51233Y-19035D01*
X51259Y-19163D01*
X51264Y-19188D01*
X51351Y-19318D01*
X51784Y-19751D01*
X51784Y-19751D01*
X51913Y-19838D01*
X51913Y-19838D01*
X52066Y-19868D01*
X52066Y-19868D01*
X53121Y-19868D01*
X53340Y-20086D01*
X53340Y-22128D01*
X53315Y-22188D01*
X53315Y-22357D01*
X53379Y-22514D01*
X53499Y-22633D01*
X53655Y-22698D01*
X53824Y-22698D01*
X53980Y-22634D01*
X54100Y-22514D01*
X54165Y-22358D01*
X54165Y-22189D01*
X54165Y-25386D01*
X54141Y-25396D01*
X54113Y-25492D01*
X54429Y-25807D01*
X54434Y-25801D01*
X54505Y-25872D01*
X54499Y-25877D01*
X54505Y-25883D01*
X54434Y-25954D01*
X54429Y-25948D01*
X54358Y-26019D01*
X54358Y-25877D01*
X54043Y-25562D01*
X53947Y-25590D01*
X53874Y-25796D01*
X53885Y-26014D01*
X53947Y-26165D01*
X54043Y-26193D01*
X54358Y-25877D01*
X54358Y-26019D01*
X54113Y-26263D01*
X54141Y-26359D01*
X54196Y-26378D01*
X54117Y-26411D01*
X53963Y-26565D01*
X53879Y-26768D01*
X53879Y-26986D01*
X53962Y-27189D01*
X54042Y-27268D01*
X52962Y-27268D01*
X52885Y-27284D01*
X52885Y-20880D01*
X52821Y-20724D01*
X52701Y-20604D01*
X52545Y-20539D01*
X52376Y-20539D01*
X52315Y-20564D01*
X51051Y-20564D01*
X50907Y-20420D01*
X50907Y-18822D01*
X50973Y-18756D01*
X51057Y-18554D01*
X51057Y-18335D01*
X50974Y-18133D01*
X50917Y-18076D01*
X50917Y-14482D01*
X50852Y-14326D01*
X50733Y-14206D01*
X50577Y-14142D01*
X50491Y-14141D01*
X50153Y-13803D01*
X50055Y-13738D01*
X49940Y-13715D01*
X49651Y-13715D01*
X49591Y-13655D01*
X49435Y-13590D01*
X49266Y-13590D01*
X49109Y-13655D01*
X48990Y-13774D01*
X48925Y-13930D01*
X48925Y-14099D01*
X48989Y-14256D01*
X49109Y-14375D01*
X49265Y-14440D01*
X49434Y-14440D01*
X49590Y-14376D01*
X49651Y-14315D01*
X49816Y-14315D01*
X50067Y-14566D01*
X50067Y-14651D01*
X50131Y-14807D01*
X50251Y-14927D01*
X50407Y-14991D01*
X50576Y-14992D01*
X50732Y-14927D01*
X50852Y-14807D01*
X50917Y-14651D01*
X50917Y-14482D01*
X50917Y-18076D01*
X50907Y-18067D01*
X50907Y-17870D01*
X50882Y-17742D01*
X50877Y-17717D01*
X50877Y-17717D01*
X50790Y-17587D01*
X50558Y-17354D01*
X50428Y-17268D01*
X50403Y-17263D01*
X50275Y-17237D01*
X48172Y-17237D01*
X48172Y-13518D01*
X48161Y-13300D01*
X48099Y-13149D01*
X48004Y-13121D01*
X47933Y-13192D01*
X47933Y-13051D01*
X47905Y-12955D01*
X47699Y-12882D01*
X47481Y-12893D01*
X47330Y-12955D01*
X47302Y-13051D01*
X47618Y-13366D01*
X47933Y-13051D01*
X47933Y-13192D01*
X47688Y-13437D01*
X48004Y-13752D01*
X48099Y-13724D01*
X48172Y-13518D01*
X48172Y-17237D01*
X48168Y-17237D01*
X48168Y-14328D01*
X48084Y-14125D01*
X47930Y-13971D01*
X47854Y-13939D01*
X47905Y-13918D01*
X47933Y-13822D01*
X47618Y-13507D01*
X47547Y-13578D01*
X47547Y-13437D01*
X47232Y-13121D01*
X47136Y-13149D01*
X47063Y-13355D01*
X47074Y-13573D01*
X47136Y-13724D01*
X47232Y-13752D01*
X47547Y-13437D01*
X47547Y-13578D01*
X47302Y-13822D01*
X47330Y-13918D01*
X47385Y-13937D01*
X47306Y-13970D01*
X47152Y-14125D01*
X47068Y-14327D01*
X47068Y-14545D01*
X47151Y-14748D01*
X47306Y-14903D01*
X47508Y-14986D01*
X47727Y-14987D01*
X47929Y-14903D01*
X48084Y-14748D01*
X48168Y-14546D01*
X48168Y-14328D01*
X48168Y-17237D01*
X46423Y-17237D01*
X46423Y-15374D01*
X46398Y-15246D01*
X46393Y-15220D01*
X46393Y-15220D01*
X46306Y-15091D01*
X46306Y-15091D01*
X46011Y-14795D01*
X45897Y-14719D01*
X45897Y-14010D01*
X45832Y-13854D01*
X45713Y-13734D01*
X45557Y-13669D01*
X45388Y-13669D01*
X45327Y-13694D01*
X44573Y-13694D01*
X44573Y-12992D01*
X44573Y-12992D01*
X44542Y-12839D01*
X44542Y-12839D01*
X44456Y-12709D01*
X44456Y-12709D01*
X44141Y-12394D01*
X44011Y-12307D01*
X43985Y-12302D01*
X43858Y-12277D01*
X41574Y-12277D01*
X41447Y-12302D01*
X41421Y-12307D01*
X41291Y-12394D01*
X40996Y-12689D01*
X40909Y-12819D01*
X40904Y-12844D01*
X40879Y-12972D01*
X40879Y-13928D01*
X40777Y-14030D01*
X40275Y-14032D01*
X40275Y-11441D01*
X40275Y-11062D01*
X40245Y-10953D01*
X40067Y-10650D01*
X39785Y-10439D01*
X39445Y-10351D01*
X39095Y-10351D01*
X39095Y-11201D01*
X40231Y-11201D01*
X40275Y-11062D01*
X40275Y-11441D01*
X40231Y-11301D01*
X39095Y-11301D01*
X39095Y-12151D01*
X39445Y-12151D01*
X39785Y-12064D01*
X40067Y-11853D01*
X40245Y-11550D01*
X40275Y-11441D01*
X40275Y-14032D01*
X39491Y-14035D01*
X39491Y-13518D01*
X39480Y-13300D01*
X39418Y-13149D01*
X39322Y-13121D01*
X39252Y-13192D01*
X39252Y-13051D01*
X39224Y-12955D01*
X39018Y-12882D01*
X38995Y-12883D01*
X38995Y-12151D01*
X38995Y-11301D01*
X38995Y-11201D01*
X38995Y-10351D01*
X38846Y-10351D01*
X38846Y-9452D01*
X38843Y-9035D01*
X38689Y-8663D01*
X38542Y-8575D01*
X38471Y-8646D01*
X38471Y-8504D01*
X38383Y-8357D01*
X37996Y-8200D01*
X37578Y-8203D01*
X37207Y-8357D01*
X37118Y-8504D01*
X37795Y-9181D01*
X38471Y-8504D01*
X38471Y-8646D01*
X37865Y-9251D01*
X38542Y-9928D01*
X38689Y-9840D01*
X38846Y-9452D01*
X38846Y-10351D01*
X38645Y-10351D01*
X38471Y-10396D01*
X38471Y-9999D01*
X37795Y-9322D01*
X37724Y-9393D01*
X37724Y-9251D01*
X37047Y-8575D01*
X36900Y-8663D01*
X36743Y-9050D01*
X36746Y-9468D01*
X36900Y-9840D01*
X37047Y-9928D01*
X37724Y-9251D01*
X37724Y-9393D01*
X37118Y-9999D01*
X37207Y-10146D01*
X37594Y-10303D01*
X38011Y-10300D01*
X38383Y-10146D01*
X38471Y-9999D01*
X38471Y-10396D01*
X38304Y-10439D01*
X38023Y-10650D01*
X37844Y-10953D01*
X37815Y-11062D01*
X37859Y-11201D01*
X38995Y-11201D01*
X38995Y-11301D01*
X37859Y-11301D01*
X37815Y-11441D01*
X37844Y-11550D01*
X38023Y-11853D01*
X38304Y-12064D01*
X38645Y-12151D01*
X38995Y-12151D01*
X38995Y-12883D01*
X38800Y-12893D01*
X38649Y-12955D01*
X38621Y-13051D01*
X38937Y-13366D01*
X39252Y-13051D01*
X39252Y-13192D01*
X39007Y-13437D01*
X39322Y-13752D01*
X39418Y-13724D01*
X39491Y-13518D01*
X39491Y-14035D01*
X39313Y-14035D01*
X39248Y-13971D01*
X39173Y-13939D01*
X39224Y-13918D01*
X39252Y-13822D01*
X38937Y-13507D01*
X38866Y-13578D01*
X38866Y-13437D01*
X38551Y-13121D01*
X38455Y-13149D01*
X38382Y-13355D01*
X38393Y-13573D01*
X38455Y-13724D01*
X38551Y-13752D01*
X38866Y-13437D01*
X38866Y-13578D01*
X38621Y-13822D01*
X38649Y-13918D01*
X38704Y-13937D01*
X38625Y-13970D01*
X38471Y-14125D01*
X38387Y-14327D01*
X38386Y-14545D01*
X38470Y-14748D01*
X38625Y-14903D01*
X38827Y-14986D01*
X39045Y-14987D01*
X39248Y-14903D01*
X39316Y-14835D01*
X40941Y-14830D01*
X40943Y-14830D01*
X41096Y-14799D01*
X41226Y-14713D01*
X41562Y-14377D01*
X41562Y-14377D01*
X41649Y-14247D01*
X41649Y-14247D01*
X41649Y-14247D01*
X41679Y-14094D01*
X41679Y-14094D01*
X41679Y-13138D01*
X41740Y-13077D01*
X42089Y-13077D01*
X42133Y-13121D01*
X42038Y-13149D01*
X41964Y-13355D01*
X41975Y-13573D01*
X42038Y-13724D01*
X42133Y-13752D01*
X42448Y-13437D01*
X42443Y-13431D01*
X42514Y-13360D01*
X42519Y-13366D01*
X42525Y-13360D01*
X42595Y-13431D01*
X42590Y-13437D01*
X42905Y-13752D01*
X43000Y-13724D01*
X43074Y-13518D01*
X43063Y-13300D01*
X43000Y-13149D01*
X42905Y-13121D01*
X42950Y-13077D01*
X43692Y-13077D01*
X43773Y-13157D01*
X43773Y-13877D01*
X43798Y-14005D01*
X43803Y-14031D01*
X43890Y-14160D01*
X44106Y-14377D01*
X44106Y-14377D01*
X44193Y-14435D01*
X44236Y-14464D01*
X44236Y-14464D01*
X44389Y-14494D01*
X45327Y-14494D01*
X45387Y-14519D01*
X45556Y-14519D01*
X45712Y-14454D01*
X45832Y-14335D01*
X45897Y-14179D01*
X45897Y-14010D01*
X45897Y-14719D01*
X45881Y-14709D01*
X45856Y-14704D01*
X45728Y-14678D01*
X44829Y-14678D01*
X44769Y-14653D01*
X44600Y-14653D01*
X44540Y-14678D01*
X43327Y-14678D01*
X43074Y-14426D01*
X43069Y-14421D01*
X43069Y-14328D01*
X42986Y-14125D01*
X42831Y-13971D01*
X42756Y-13939D01*
X42807Y-13918D01*
X42834Y-13822D01*
X42519Y-13507D01*
X42448Y-13578D01*
X42204Y-13822D01*
X42231Y-13918D01*
X42287Y-13937D01*
X42208Y-13970D01*
X42053Y-14125D01*
X41969Y-14327D01*
X41969Y-14545D01*
X42053Y-14748D01*
X42207Y-14903D01*
X42409Y-14986D01*
X42503Y-14986D01*
X42878Y-15361D01*
X42878Y-15361D01*
X43008Y-15448D01*
X43008Y-15448D01*
X43033Y-15453D01*
X43161Y-15478D01*
X44540Y-15478D01*
X44600Y-15503D01*
X44769Y-15503D01*
X44829Y-15478D01*
X45562Y-15478D01*
X45623Y-15539D01*
X45623Y-15638D01*
X45590Y-15604D01*
X45498Y-15566D01*
X45399Y-15566D01*
X45337Y-15629D01*
X45337Y-15670D01*
X45271Y-15604D01*
X45179Y-15566D01*
X45131Y-15566D01*
X45076Y-15566D01*
X44984Y-15604D01*
X44980Y-15609D01*
X44976Y-15604D01*
X44884Y-15566D01*
X44829Y-15566D01*
X44781Y-15566D01*
X44689Y-15604D01*
X44623Y-15670D01*
X44623Y-15629D01*
X44560Y-15566D01*
X44462Y-15566D01*
X44370Y-15604D01*
X44299Y-15675D01*
X44261Y-15766D01*
X44261Y-15866D01*
X44261Y-15866D01*
X44324Y-15929D01*
X44371Y-15929D01*
X44370Y-15929D01*
X44299Y-15999D01*
X44261Y-16091D01*
X44261Y-16091D01*
X44261Y-16091D01*
X44261Y-16092D01*
X44261Y-16141D01*
X44261Y-16191D01*
X44261Y-16191D01*
X44261Y-16191D01*
X44261Y-16191D01*
X44299Y-16283D01*
X44370Y-16353D01*
X44371Y-16354D01*
X44324Y-16354D01*
X44261Y-16416D01*
X44261Y-16417D01*
X44261Y-16516D01*
X44299Y-16608D01*
X44370Y-16678D01*
X44462Y-16716D01*
X44560Y-16716D01*
X44623Y-16654D01*
X44623Y-16612D01*
X44689Y-16678D01*
X44781Y-16716D01*
X44829Y-16716D01*
X44884Y-16716D01*
X44976Y-16678D01*
X44980Y-16674D01*
X44984Y-16678D01*
X45076Y-16716D01*
X45131Y-16716D01*
X45179Y-16716D01*
X45271Y-16678D01*
X45337Y-16612D01*
X45337Y-16654D01*
X45399Y-16716D01*
X45498Y-16716D01*
X45590Y-16678D01*
X45623Y-16645D01*
X45623Y-17637D01*
X45623Y-18752D01*
X45598Y-18812D01*
X45598Y-18981D01*
X45623Y-19042D01*
X45623Y-21724D01*
X45292Y-22055D01*
X45232Y-22080D01*
X45112Y-22199D01*
X45047Y-22356D01*
X45047Y-22525D01*
X45111Y-22681D01*
X45231Y-22801D01*
X45387Y-22865D01*
X45556Y-22866D01*
X45712Y-22801D01*
X45832Y-22682D01*
X45857Y-22621D01*
X46306Y-22172D01*
X46306Y-22172D01*
X46393Y-22042D01*
X46393Y-22042D01*
X46393Y-22042D01*
X46423Y-21889D01*
X46423Y-21889D01*
X46423Y-19042D01*
X46448Y-18982D01*
X46448Y-18813D01*
X46423Y-18752D01*
X46423Y-18037D01*
X48198Y-18037D01*
X48192Y-18058D01*
X48507Y-18374D01*
X48823Y-18058D01*
X48816Y-18037D01*
X49137Y-18037D01*
X49041Y-18132D01*
X49010Y-18208D01*
X48989Y-18157D01*
X48893Y-18129D01*
X48578Y-18444D01*
X48893Y-18760D01*
X48989Y-18732D01*
X49008Y-18677D01*
X49041Y-18756D01*
X49195Y-18910D01*
X49397Y-18994D01*
X49616Y-18994D01*
X49819Y-18911D01*
X49973Y-18756D01*
X50007Y-18674D01*
X50041Y-18756D01*
X50107Y-18822D01*
X50107Y-20586D01*
X50133Y-20714D01*
X50138Y-20739D01*
X50225Y-20869D01*
X50602Y-21247D01*
X50602Y-21247D01*
X50732Y-21334D01*
X50732Y-21334D01*
X50758Y-21339D01*
X50885Y-21364D01*
X52315Y-21364D01*
X52375Y-21389D01*
X52544Y-21389D01*
X52701Y-21325D01*
X52820Y-21205D01*
X52885Y-21049D01*
X52885Y-20880D01*
X52885Y-27284D01*
X52847Y-27291D01*
X52750Y-27356D01*
X51310Y-28796D01*
X51310Y-28065D01*
X51285Y-28004D01*
X51285Y-24015D01*
X51255Y-23862D01*
X51255Y-23862D01*
X51226Y-23819D01*
X51168Y-23732D01*
X51168Y-23732D01*
X50680Y-23244D01*
X50655Y-23184D01*
X50536Y-23065D01*
X50380Y-23000D01*
X50211Y-23000D01*
X50150Y-23025D01*
X49357Y-23025D01*
X49297Y-23000D01*
X49128Y-23000D01*
X48972Y-23064D01*
X48852Y-23184D01*
X48823Y-23255D01*
X48823Y-18830D01*
X48507Y-18515D01*
X48437Y-18586D01*
X48437Y-18444D01*
X48121Y-18129D01*
X48026Y-18157D01*
X47953Y-18363D01*
X47964Y-18581D01*
X48026Y-18732D01*
X48121Y-18760D01*
X48437Y-18444D01*
X48437Y-18586D01*
X48192Y-18830D01*
X48220Y-18926D01*
X48426Y-18999D01*
X48644Y-18988D01*
X48795Y-18926D01*
X48823Y-18830D01*
X48823Y-23255D01*
X48787Y-23340D01*
X48787Y-23509D01*
X48852Y-23665D01*
X48971Y-23785D01*
X49127Y-23850D01*
X49296Y-23850D01*
X49357Y-23825D01*
X50129Y-23825D01*
X50485Y-24181D01*
X50485Y-27749D01*
X50324Y-27749D01*
X50324Y-26552D01*
X50324Y-26553D01*
X50262Y-26490D01*
X50216Y-26490D01*
X50286Y-26421D01*
X50324Y-26329D01*
X50324Y-26328D01*
X50324Y-26328D01*
X50324Y-26329D01*
X50324Y-26279D01*
X50324Y-26230D01*
X50324Y-26230D01*
X50324Y-26230D01*
X50324Y-26229D01*
X50286Y-26137D01*
X50216Y-26068D01*
X50262Y-26068D01*
X50324Y-26005D01*
X50324Y-26006D01*
X50324Y-25906D01*
X50286Y-25814D01*
X50216Y-25744D01*
X50124Y-25706D01*
X50025Y-25706D01*
X49963Y-25769D01*
X49963Y-25810D01*
X49897Y-25744D01*
X49805Y-25706D01*
X49757Y-25706D01*
X49702Y-25706D01*
X49610Y-25744D01*
X49606Y-25748D01*
X49602Y-25744D01*
X49510Y-25706D01*
X49455Y-25706D01*
X49407Y-25706D01*
X49315Y-25744D01*
X49249Y-25810D01*
X49249Y-25769D01*
X49186Y-25706D01*
X49088Y-25706D01*
X48996Y-25744D01*
X48925Y-25814D01*
X48887Y-25906D01*
X48887Y-26006D01*
X48887Y-26005D01*
X48950Y-26068D01*
X48995Y-26068D01*
X48925Y-26137D01*
X48887Y-26229D01*
X48887Y-26230D01*
X48887Y-26230D01*
X48887Y-26230D01*
X48887Y-26279D01*
X48887Y-26329D01*
X48887Y-26328D01*
X48887Y-26328D01*
X48887Y-26329D01*
X48925Y-26421D01*
X48995Y-26490D01*
X48950Y-26490D01*
X48887Y-26553D01*
X48887Y-26552D01*
X48887Y-26652D01*
X48925Y-26744D01*
X48996Y-26814D01*
X49088Y-26852D01*
X49186Y-26852D01*
X49249Y-26789D01*
X49249Y-26748D01*
X49315Y-26814D01*
X49407Y-26852D01*
X49455Y-26852D01*
X49510Y-26852D01*
X49602Y-26814D01*
X49606Y-26810D01*
X49610Y-26814D01*
X49702Y-26852D01*
X49757Y-26852D01*
X49805Y-26852D01*
X49897Y-26814D01*
X49963Y-26748D01*
X49963Y-26789D01*
X50025Y-26852D01*
X50124Y-26852D01*
X50216Y-26814D01*
X50286Y-26744D01*
X50324Y-26652D01*
X50324Y-26552D01*
X50324Y-27749D01*
X47980Y-27749D01*
X47597Y-27366D01*
X47597Y-19379D01*
X47513Y-19177D01*
X47359Y-19022D01*
X47157Y-18938D01*
X46938Y-18938D01*
X46736Y-19021D01*
X46581Y-19176D01*
X46497Y-19378D01*
X46497Y-19597D01*
X46580Y-19799D01*
X46735Y-19954D01*
X46937Y-20038D01*
X47156Y-20038D01*
X47358Y-19954D01*
X47513Y-19800D01*
X47597Y-19598D01*
X47597Y-19379D01*
X47597Y-27366D01*
X46826Y-26595D01*
X46696Y-26508D01*
X46670Y-26503D01*
X46543Y-26477D01*
X45042Y-26477D01*
X45042Y-25959D01*
X45032Y-25741D01*
X44969Y-25590D01*
X44874Y-25562D01*
X44803Y-25633D01*
X44803Y-25492D01*
X44776Y-25396D01*
X44569Y-25323D01*
X44351Y-25334D01*
X44200Y-25396D01*
X44172Y-25492D01*
X44488Y-25807D01*
X44803Y-25492D01*
X44803Y-25633D01*
X44558Y-25877D01*
X44874Y-26193D01*
X44969Y-26165D01*
X45042Y-25959D01*
X45042Y-26477D01*
X44866Y-26477D01*
X44800Y-26411D01*
X44724Y-26380D01*
X44776Y-26359D01*
X44803Y-26263D01*
X44488Y-25948D01*
X44417Y-26019D01*
X44417Y-25877D01*
X44102Y-25562D01*
X44006Y-25590D01*
X43933Y-25796D01*
X43944Y-26014D01*
X44006Y-26165D01*
X44102Y-26193D01*
X44417Y-25877D01*
X44417Y-26019D01*
X44172Y-26263D01*
X44200Y-26359D01*
X44255Y-26378D01*
X44177Y-26411D01*
X44022Y-26565D01*
X43938Y-26768D01*
X43938Y-26986D01*
X44021Y-27189D01*
X44176Y-27343D01*
X44378Y-27427D01*
X44597Y-27428D01*
X44799Y-27344D01*
X44865Y-27277D01*
X46377Y-27277D01*
X47532Y-28432D01*
X47532Y-28432D01*
X47618Y-28490D01*
X47661Y-28519D01*
X47661Y-28519D01*
X47814Y-28549D01*
X47814Y-28549D01*
X50740Y-28549D01*
X50800Y-28574D01*
X50969Y-28574D01*
X51126Y-28510D01*
X51245Y-28390D01*
X51310Y-28234D01*
X51310Y-28065D01*
X51310Y-28796D01*
X50840Y-29266D01*
X42702Y-29266D01*
X42642Y-29206D01*
X42486Y-29142D01*
X42317Y-29141D01*
X42161Y-29206D01*
X42041Y-29325D01*
X41976Y-29482D01*
X41976Y-29651D01*
X42041Y-29807D01*
X42160Y-29927D01*
X42316Y-29991D01*
X42485Y-29992D01*
X42642Y-29927D01*
X42702Y-29866D01*
X50964Y-29866D01*
X50964Y-29866D01*
X51079Y-29844D01*
X51079Y-29844D01*
X51176Y-29779D01*
X53086Y-27868D01*
X54438Y-27868D01*
X54438Y-27868D01*
X54553Y-27846D01*
X54553Y-27846D01*
X54651Y-27781D01*
X55212Y-27220D01*
X55212Y-27220D01*
X55277Y-27122D01*
X55299Y-27007D01*
X55300Y-27007D01*
X55300Y-11643D01*
X55299Y-11643D01*
X55277Y-11528D01*
X55212Y-11431D01*
X55212Y-11431D01*
X54969Y-11188D01*
X55187Y-11098D01*
X55339Y-10946D01*
X55339Y-27237D01*
X54472Y-28105D01*
X53464Y-28105D01*
X53349Y-28128D01*
X53252Y-28193D01*
X51371Y-30074D01*
X41558Y-30074D01*
X41558Y-28419D01*
X41558Y-28408D01*
X41495Y-28345D01*
X41422Y-28345D01*
X41449Y-28334D01*
X41520Y-28264D01*
X41550Y-28190D01*
X41558Y-28183D01*
X41558Y-28171D01*
X41558Y-28122D01*
X41558Y-28072D01*
X41558Y-28061D01*
X41550Y-28053D01*
X41520Y-27980D01*
X41449Y-27910D01*
X41422Y-27899D01*
X41495Y-27899D01*
X41558Y-27836D01*
X41558Y-27825D01*
X41558Y-27726D01*
X41520Y-27634D01*
X41449Y-27563D01*
X41357Y-27525D01*
X41259Y-27525D01*
X41196Y-27588D01*
X41196Y-27633D01*
X41126Y-27563D01*
X41034Y-27525D01*
X40985Y-27525D01*
X40935Y-27525D01*
X40844Y-27563D01*
X40774Y-27633D01*
X40774Y-27588D01*
X40711Y-27525D01*
X40613Y-27525D01*
X40521Y-27563D01*
X40450Y-27634D01*
X40412Y-27726D01*
X40412Y-27825D01*
X40412Y-27836D01*
X40475Y-27899D01*
X40548Y-27899D01*
X40521Y-27910D01*
X40450Y-27980D01*
X40420Y-28053D01*
X40412Y-28061D01*
X40412Y-28072D01*
X40412Y-28122D01*
X40412Y-28171D01*
X40412Y-28183D01*
X40420Y-28190D01*
X40450Y-28264D01*
X40521Y-28334D01*
X40548Y-28345D01*
X40475Y-28345D01*
X40412Y-28408D01*
X40412Y-28419D01*
X40412Y-28518D01*
X40450Y-28610D01*
X40521Y-28680D01*
X40613Y-28718D01*
X40711Y-28718D01*
X40774Y-28656D01*
X40774Y-28611D01*
X40844Y-28680D01*
X40935Y-28718D01*
X40985Y-28718D01*
X41034Y-28718D01*
X41126Y-28680D01*
X41196Y-28611D01*
X41196Y-28656D01*
X41259Y-28718D01*
X41357Y-28718D01*
X41449Y-28680D01*
X41520Y-28610D01*
X41558Y-28518D01*
X41558Y-28419D01*
X41558Y-30074D01*
X40577Y-30074D01*
X40325Y-29822D01*
X40340Y-29807D01*
X40405Y-29651D01*
X40405Y-29482D01*
X40340Y-29326D01*
X40314Y-29299D01*
X40314Y-20378D01*
X40309Y-20285D01*
X40309Y-19189D01*
X40226Y-18989D01*
X40135Y-18897D01*
X40225Y-18807D01*
X40309Y-18606D01*
X40309Y-18389D01*
X40226Y-18189D01*
X40073Y-18035D01*
X39982Y-17997D01*
X40072Y-17960D01*
X40225Y-17807D01*
X40309Y-17606D01*
X40309Y-17389D01*
X40226Y-17189D01*
X40073Y-17035D01*
X39872Y-16952D01*
X39655Y-16952D01*
X39557Y-16992D01*
X39557Y-16248D01*
X39550Y-15914D01*
X39435Y-15635D01*
X39309Y-15572D01*
X39239Y-15643D01*
X39239Y-15501D01*
X39176Y-15376D01*
X38864Y-15254D01*
X38530Y-15260D01*
X38251Y-15376D01*
X38188Y-15501D01*
X38713Y-16026D01*
X39239Y-15501D01*
X39239Y-15643D01*
X38784Y-16097D01*
X39309Y-16622D01*
X39435Y-16560D01*
X39557Y-16248D01*
X39557Y-16992D01*
X39455Y-17034D01*
X39301Y-17188D01*
X39239Y-17338D01*
X39239Y-16693D01*
X38713Y-16168D01*
X38643Y-16239D01*
X38643Y-16097D01*
X38117Y-15572D01*
X37992Y-15635D01*
X37870Y-15946D01*
X37876Y-16280D01*
X37992Y-16560D01*
X38117Y-16622D01*
X38643Y-16097D01*
X38643Y-16239D01*
X38188Y-16693D01*
X38251Y-16819D01*
X38562Y-16941D01*
X38896Y-16934D01*
X39176Y-16819D01*
X39239Y-16693D01*
X39239Y-17338D01*
X39218Y-17388D01*
X39218Y-17605D01*
X39301Y-17806D01*
X39454Y-17959D01*
X39545Y-17997D01*
X39455Y-18034D01*
X39301Y-18188D01*
X39218Y-18388D01*
X39218Y-18605D01*
X39301Y-18806D01*
X39392Y-18897D01*
X39301Y-18988D01*
X39218Y-19188D01*
X39218Y-19405D01*
X39301Y-19606D01*
X39454Y-19759D01*
X39539Y-19795D01*
X39478Y-19820D01*
X39451Y-19914D01*
X39763Y-20226D01*
X40075Y-19914D01*
X40048Y-19820D01*
X39983Y-19796D01*
X40072Y-19760D01*
X40225Y-19607D01*
X40309Y-19406D01*
X40309Y-19189D01*
X40309Y-20285D01*
X40303Y-20161D01*
X40241Y-20012D01*
X40146Y-19985D01*
X39834Y-20297D01*
X40146Y-20609D01*
X40241Y-20582D01*
X40314Y-20378D01*
X40314Y-29299D01*
X40221Y-29206D01*
X40065Y-29142D01*
X39896Y-29141D01*
X39739Y-29206D01*
X39620Y-29325D01*
X39555Y-29482D01*
X39555Y-29651D01*
X39619Y-29807D01*
X39680Y-29867D01*
X39680Y-29901D01*
X39703Y-30016D01*
X39768Y-30113D01*
X40240Y-30586D01*
X40240Y-30586D01*
X40337Y-30651D01*
X40452Y-30674D01*
X51496Y-30674D01*
X51496Y-30674D01*
X51610Y-30651D01*
X51610Y-30651D01*
X51708Y-30586D01*
X53588Y-28705D01*
X54596Y-28705D01*
X54596Y-28705D01*
X54711Y-28682D01*
X54711Y-28682D01*
X54808Y-28617D01*
X55851Y-27574D01*
X55851Y-27574D01*
X55916Y-27477D01*
X55939Y-27362D01*
X55939Y-27362D01*
X55939Y-22807D01*
X55974Y-22821D01*
X56193Y-22821D01*
X56395Y-22738D01*
X56550Y-22583D01*
X56582Y-22507D01*
X56603Y-22559D01*
X56698Y-22586D01*
X57013Y-22271D01*
X56698Y-21956D01*
X56603Y-21983D01*
X56583Y-22039D01*
X56551Y-21960D01*
X56396Y-21805D01*
X56314Y-21771D01*
X56395Y-21738D01*
X56550Y-21583D01*
X56582Y-21507D01*
X56603Y-21559D01*
X56698Y-21586D01*
X57013Y-21271D01*
X56698Y-20956D01*
X56603Y-20983D01*
X56583Y-21039D01*
X56551Y-20960D01*
X56396Y-20805D01*
X56314Y-20771D01*
X56395Y-20738D01*
X56550Y-20583D01*
X56584Y-20501D01*
X56618Y-20582D01*
X56772Y-20737D01*
X56848Y-20769D01*
X56796Y-20790D01*
X56769Y-20885D01*
X57084Y-21200D01*
X57399Y-20885D01*
X57372Y-20790D01*
X57317Y-20770D01*
X57395Y-20738D01*
X57550Y-20583D01*
X57634Y-20381D01*
X57634Y-20162D01*
X57551Y-19960D01*
X57396Y-19805D01*
X57314Y-19771D01*
X57395Y-19738D01*
X57550Y-19583D01*
X57634Y-19381D01*
X57634Y-19162D01*
X57551Y-18960D01*
X57396Y-18805D01*
X57314Y-18771D01*
X57395Y-18738D01*
X57550Y-18583D01*
X57634Y-18381D01*
X57634Y-18162D01*
X57551Y-17960D01*
X57396Y-17805D01*
X57314Y-17771D01*
X57395Y-17738D01*
X57550Y-17583D01*
X57634Y-17381D01*
X57634Y-17162D01*
X57551Y-16960D01*
X57396Y-16805D01*
X57314Y-16771D01*
X57395Y-16738D01*
X57550Y-16583D01*
X57634Y-16381D01*
X57634Y-16162D01*
X57551Y-15960D01*
X57396Y-15805D01*
X57314Y-15771D01*
X57395Y-15738D01*
X57550Y-15583D01*
X57634Y-15381D01*
X57634Y-15162D01*
X57551Y-14960D01*
X57396Y-14805D01*
X57314Y-14771D01*
X57395Y-14738D01*
X57550Y-14583D01*
X57634Y-14381D01*
X57634Y-14162D01*
X57551Y-13960D01*
X57396Y-13805D01*
X57314Y-13771D01*
X57395Y-13738D01*
X57550Y-13583D01*
X57634Y-13381D01*
X57634Y-13162D01*
X57551Y-12960D01*
X57396Y-12805D01*
X57314Y-12771D01*
X57395Y-12738D01*
X57550Y-12583D01*
X57634Y-12381D01*
X57634Y-12162D01*
X57551Y-11960D01*
X57396Y-11805D01*
X57314Y-11771D01*
X57395Y-11738D01*
X57550Y-11583D01*
X57634Y-11381D01*
X57634Y-11162D01*
X57551Y-10960D01*
X57412Y-10821D01*
X57434Y-10821D01*
X57526Y-10783D01*
X57596Y-10713D01*
X57634Y-10621D01*
X57634Y-10384D01*
X57572Y-10321D01*
X57134Y-10321D01*
X57134Y-10329D01*
X57034Y-10329D01*
X57034Y-10321D01*
X57026Y-10321D01*
X57026Y-10221D01*
X57034Y-10221D01*
X57034Y-10213D01*
X57134Y-10213D01*
X57134Y-10221D01*
X57572Y-10221D01*
X57634Y-10159D01*
X57634Y-9922D01*
X57596Y-9830D01*
X57526Y-9759D01*
X57434Y-9721D01*
X57412Y-9721D01*
X57550Y-9583D01*
X57634Y-9381D01*
X57634Y-9162D01*
X57551Y-8960D01*
X57396Y-8805D01*
X57314Y-8771D01*
X57395Y-8738D01*
X57550Y-8583D01*
X57634Y-8381D01*
X57634Y-8162D01*
X57551Y-7960D01*
X57396Y-7805D01*
X57194Y-7721D01*
X56975Y-7721D01*
X56773Y-7805D01*
X56618Y-7959D01*
X56584Y-8041D01*
X56551Y-7960D01*
X56396Y-7805D01*
X56194Y-7721D01*
X55975Y-7721D01*
X55963Y-7726D01*
X55898Y-7661D01*
X57889Y-7661D01*
X57889Y-28249D01*
X57889Y-28249D01*
G37*
G54D29*
X57889Y-28249D02*
X57639Y-27998D01*
X57639Y-22353D01*
X57639Y-21353D01*
X57628Y-21134D01*
X57565Y-20983D01*
X57470Y-20956D01*
X57155Y-21271D01*
X57470Y-21586D01*
X57565Y-21559D01*
X57639Y-21353D01*
X57639Y-22353D01*
X57628Y-22134D01*
X57565Y-21983D01*
X57470Y-21956D01*
X57399Y-22027D01*
X57399Y-21885D01*
X57372Y-21790D01*
X57323Y-21773D01*
X57372Y-21752D01*
X57399Y-21657D01*
X57084Y-21342D01*
X56769Y-21657D01*
X56796Y-21752D01*
X56845Y-21770D01*
X56796Y-21790D01*
X56769Y-21885D01*
X57084Y-22200D01*
X57399Y-21885D01*
X57399Y-22027D01*
X57155Y-22271D01*
X57470Y-22586D01*
X57565Y-22559D01*
X57639Y-22353D01*
X57639Y-27998D01*
X57587Y-27946D01*
X57399Y-27868D01*
X57399Y-22657D01*
X57084Y-22342D01*
X56769Y-22657D01*
X56796Y-22752D01*
X57002Y-22826D01*
X57221Y-22815D01*
X57372Y-22752D01*
X57399Y-22657D01*
X57399Y-27868D01*
X56944Y-27679D01*
X56247Y-27678D01*
X55604Y-27944D01*
X55111Y-28436D01*
X54844Y-29079D01*
X54844Y-29775D01*
X55110Y-30419D01*
X55414Y-30724D01*
X37301Y-30724D01*
X37604Y-30421D01*
X37871Y-29778D01*
X37872Y-29082D01*
X37606Y-28439D01*
X37114Y-27946D01*
X36471Y-27679D01*
X35775Y-27678D01*
X35132Y-27944D01*
X34826Y-28249D01*
X34826Y-15645D01*
X35051Y-15728D01*
X35299Y-15718D01*
X35483Y-15642D01*
X35520Y-15539D01*
X35150Y-15169D01*
X35145Y-15175D01*
X35074Y-15104D01*
X35080Y-15099D01*
X35074Y-15093D01*
X35145Y-15022D01*
X35150Y-15028D01*
X35520Y-14658D01*
X35483Y-14555D01*
X35250Y-14469D01*
X35002Y-14479D01*
X34826Y-14552D01*
X34826Y-13045D01*
X35051Y-13128D01*
X35299Y-13118D01*
X35483Y-13042D01*
X35520Y-12939D01*
X35150Y-12569D01*
X35145Y-12575D01*
X35074Y-12504D01*
X35080Y-12499D01*
X35074Y-12493D01*
X35145Y-12422D01*
X35150Y-12428D01*
X35520Y-12058D01*
X35483Y-11955D01*
X35250Y-11869D01*
X35002Y-11879D01*
X34826Y-11952D01*
X34826Y-7661D01*
X36481Y-7661D01*
X35811Y-8331D01*
X35746Y-8428D01*
X35723Y-8543D01*
X35723Y-12237D01*
X35694Y-12166D01*
X35591Y-12129D01*
X35221Y-12499D01*
X35591Y-12868D01*
X35694Y-12832D01*
X35723Y-12752D01*
X35723Y-14837D01*
X35694Y-14766D01*
X35591Y-14729D01*
X35221Y-15099D01*
X35591Y-15468D01*
X35694Y-15432D01*
X35723Y-15352D01*
X35723Y-24901D01*
X35746Y-25016D01*
X35811Y-25113D01*
X36106Y-25408D01*
X36204Y-25474D01*
X36318Y-25496D01*
X39374Y-25496D01*
X39434Y-25556D01*
X39590Y-25621D01*
X39759Y-25621D01*
X39915Y-25557D01*
X40035Y-25437D01*
X40100Y-25281D01*
X40100Y-25112D01*
X40075Y-25053D01*
X40075Y-20680D01*
X39763Y-20368D01*
X39693Y-20439D01*
X39693Y-20297D01*
X39381Y-19985D01*
X39286Y-20012D01*
X39213Y-20216D01*
X39224Y-20433D01*
X39286Y-20582D01*
X39381Y-20609D01*
X39693Y-20297D01*
X39693Y-20439D01*
X39451Y-20680D01*
X39478Y-20775D01*
X39683Y-20847D01*
X39899Y-20836D01*
X40048Y-20775D01*
X40075Y-20680D01*
X40075Y-25053D01*
X40035Y-24956D01*
X39916Y-24836D01*
X39760Y-24771D01*
X39591Y-24771D01*
X39557Y-24785D01*
X39557Y-21648D01*
X39550Y-21314D01*
X39435Y-21035D01*
X39309Y-20972D01*
X39239Y-21043D01*
X39239Y-20901D01*
X39176Y-20776D01*
X38864Y-20654D01*
X38530Y-20660D01*
X38251Y-20776D01*
X38188Y-20901D01*
X38713Y-21426D01*
X39239Y-20901D01*
X39239Y-21043D01*
X38784Y-21497D01*
X39309Y-22022D01*
X39435Y-21960D01*
X39557Y-21648D01*
X39557Y-24785D01*
X39434Y-24836D01*
X39374Y-24896D01*
X39239Y-24896D01*
X39239Y-22093D01*
X38713Y-21568D01*
X38643Y-21639D01*
X38643Y-21497D01*
X38117Y-20972D01*
X37992Y-21035D01*
X37870Y-21346D01*
X37876Y-21680D01*
X37992Y-21960D01*
X38117Y-22022D01*
X38643Y-21497D01*
X38643Y-21639D01*
X38188Y-22093D01*
X38251Y-22219D01*
X38562Y-22341D01*
X38896Y-22334D01*
X39176Y-22219D01*
X39239Y-22093D01*
X39239Y-24896D01*
X36443Y-24896D01*
X36323Y-24777D01*
X36323Y-8667D01*
X36911Y-8079D01*
X55468Y-8079D01*
X55539Y-8150D01*
X55534Y-8161D01*
X55534Y-8380D01*
X55618Y-8582D01*
X55772Y-8737D01*
X55854Y-8771D01*
X55773Y-8805D01*
X55618Y-8959D01*
X55534Y-9161D01*
X55534Y-9380D01*
X55539Y-9392D01*
X55232Y-9700D01*
X54906Y-9700D01*
X54919Y-9667D01*
X54919Y-9428D01*
X54828Y-9207D01*
X54660Y-9038D01*
X54439Y-8947D01*
X54201Y-8947D01*
X53980Y-9038D01*
X53811Y-9206D01*
X53719Y-9427D01*
X53719Y-9666D01*
X53810Y-9886D01*
X53979Y-10055D01*
X54055Y-10087D01*
X54010Y-10132D01*
X53945Y-10229D01*
X53922Y-10344D01*
X53922Y-10747D01*
X53826Y-10747D01*
X53605Y-10838D01*
X53436Y-11006D01*
X53432Y-11017D01*
X53367Y-10995D01*
X53015Y-11347D01*
X53367Y-11698D01*
X53431Y-11677D01*
X53435Y-11686D01*
X53604Y-11855D01*
X53746Y-11914D01*
X53719Y-11977D01*
X53719Y-12216D01*
X53810Y-12436D01*
X53979Y-12605D01*
X54030Y-12626D01*
X54030Y-18006D01*
X53970Y-18066D01*
X53905Y-18222D01*
X53905Y-18391D01*
X53970Y-18547D01*
X54089Y-18667D01*
X54245Y-18732D01*
X54414Y-18732D01*
X54571Y-18667D01*
X54690Y-18548D01*
X54700Y-18525D01*
X54700Y-25390D01*
X54510Y-25323D01*
X54292Y-25334D01*
X54165Y-25386D01*
X54165Y-22189D01*
X54140Y-22128D01*
X54140Y-19921D01*
X54109Y-19768D01*
X54109Y-19768D01*
X54080Y-19725D01*
X54023Y-19638D01*
X54023Y-19638D01*
X53570Y-19185D01*
X53440Y-19098D01*
X53415Y-19093D01*
X53296Y-19070D01*
X53296Y-11769D01*
X52944Y-11417D01*
X52939Y-11423D01*
X52868Y-11352D01*
X52874Y-11347D01*
X52868Y-11341D01*
X52939Y-11270D01*
X52944Y-11276D01*
X53296Y-10925D01*
X53262Y-10824D01*
X53174Y-10792D01*
X53174Y-9640D01*
X53164Y-9402D01*
X53092Y-9229D01*
X52992Y-9195D01*
X52921Y-9266D01*
X52921Y-9125D01*
X52887Y-9024D01*
X52663Y-8942D01*
X52425Y-8952D01*
X52251Y-9024D01*
X52218Y-9125D01*
X52569Y-9476D01*
X52921Y-9125D01*
X52921Y-9266D01*
X52640Y-9547D01*
X52992Y-9898D01*
X53092Y-9865D01*
X53174Y-9640D01*
X53174Y-10792D01*
X53038Y-10742D01*
X52800Y-10752D01*
X52665Y-10808D01*
X52719Y-10677D01*
X52719Y-10418D01*
X52621Y-10179D01*
X52588Y-10146D01*
X52714Y-10141D01*
X52887Y-10069D01*
X52921Y-9969D01*
X52569Y-9617D01*
X52564Y-9623D01*
X52493Y-9552D01*
X52499Y-9547D01*
X52147Y-9195D01*
X52047Y-9229D01*
X51965Y-9453D01*
X51975Y-9692D01*
X52047Y-9865D01*
X52143Y-9897D01*
X51941Y-9897D01*
X51702Y-9995D01*
X51519Y-10178D01*
X51419Y-10417D01*
X51419Y-10675D01*
X51518Y-10914D01*
X51701Y-11097D01*
X51940Y-11197D01*
X52198Y-11197D01*
X52389Y-11118D01*
X52340Y-11253D01*
X52350Y-11492D01*
X52365Y-11527D01*
X52251Y-11574D01*
X52218Y-11675D01*
X52569Y-12026D01*
X52575Y-12020D01*
X52646Y-12091D01*
X52640Y-12097D01*
X52992Y-12448D01*
X53092Y-12415D01*
X53174Y-12190D01*
X53164Y-11952D01*
X53149Y-11916D01*
X53262Y-11869D01*
X53296Y-11769D01*
X53296Y-19070D01*
X53287Y-19068D01*
X52921Y-19068D01*
X52921Y-12519D01*
X52569Y-12167D01*
X52499Y-12238D01*
X52499Y-12097D01*
X52147Y-11745D01*
X52047Y-11779D01*
X51965Y-12003D01*
X51975Y-12242D01*
X52047Y-12415D01*
X52147Y-12448D01*
X52499Y-12097D01*
X52499Y-12238D01*
X52218Y-12519D01*
X52251Y-12619D01*
X52476Y-12701D01*
X52714Y-12691D01*
X52887Y-12619D01*
X52921Y-12519D01*
X52921Y-19068D01*
X52232Y-19068D01*
X52033Y-18869D01*
X52033Y-13228D01*
X52033Y-13228D01*
X52003Y-13075D01*
X52003Y-13075D01*
X51916Y-12945D01*
X51916Y-12945D01*
X51342Y-12370D01*
X51342Y-9227D01*
X51331Y-9008D01*
X51268Y-8857D01*
X51173Y-8830D01*
X51102Y-8901D01*
X51102Y-8759D01*
X51075Y-8664D01*
X50869Y-8590D01*
X50650Y-8601D01*
X50499Y-8664D01*
X50472Y-8759D01*
X50787Y-9074D01*
X51102Y-8759D01*
X51102Y-8901D01*
X50858Y-9145D01*
X51173Y-9460D01*
X51268Y-9433D01*
X51342Y-9227D01*
X51342Y-12370D01*
X51337Y-12366D01*
X51337Y-10036D01*
X51253Y-9834D01*
X51099Y-9679D01*
X51023Y-9648D01*
X51075Y-9626D01*
X51102Y-9531D01*
X50787Y-9216D01*
X50716Y-9287D01*
X50716Y-9145D01*
X50401Y-8830D01*
X50306Y-8857D01*
X50232Y-9063D01*
X50243Y-9282D01*
X50306Y-9433D01*
X50401Y-9460D01*
X50716Y-9145D01*
X50716Y-9287D01*
X50472Y-9531D01*
X50499Y-9626D01*
X50554Y-9646D01*
X50476Y-9679D01*
X50321Y-9833D01*
X50237Y-10035D01*
X50237Y-10254D01*
X50320Y-10456D01*
X50475Y-10611D01*
X50677Y-10695D01*
X50896Y-10695D01*
X51098Y-10612D01*
X51253Y-10457D01*
X51337Y-10255D01*
X51337Y-10036D01*
X51337Y-12366D01*
X47940Y-8969D01*
X47810Y-8882D01*
X47785Y-8877D01*
X47657Y-8851D01*
X41245Y-8851D01*
X41245Y-8402D01*
X41207Y-8310D01*
X41137Y-8240D01*
X41045Y-8202D01*
X40945Y-8201D01*
X39345Y-8201D01*
X39253Y-8239D01*
X39183Y-8310D01*
X39145Y-8402D01*
X39145Y-8501D01*
X39145Y-10101D01*
X39183Y-10193D01*
X39253Y-10263D01*
X39345Y-10301D01*
X39444Y-10302D01*
X41044Y-10302D01*
X41136Y-10264D01*
X41207Y-10193D01*
X41245Y-10101D01*
X41245Y-10002D01*
X41245Y-9651D01*
X47491Y-9651D01*
X51233Y-13394D01*
X51233Y-19035D01*
X51259Y-19163D01*
X51264Y-19188D01*
X51351Y-19318D01*
X51784Y-19751D01*
X51784Y-19751D01*
X51913Y-19838D01*
X51913Y-19838D01*
X52066Y-19868D01*
X52066Y-19868D01*
X53121Y-19868D01*
X53340Y-20086D01*
X53340Y-22128D01*
X53315Y-22188D01*
X53315Y-22357D01*
X53379Y-22514D01*
X53499Y-22633D01*
X53655Y-22698D01*
X53824Y-22698D01*
X53980Y-22634D01*
X54100Y-22514D01*
X54165Y-22358D01*
X54165Y-22189D01*
X54165Y-25386D01*
X54141Y-25396D01*
X54113Y-25492D01*
X54429Y-25807D01*
X54434Y-25801D01*
X54505Y-25872D01*
X54499Y-25877D01*
X54505Y-25883D01*
X54434Y-25954D01*
X54429Y-25948D01*
X54358Y-26019D01*
X54358Y-25877D01*
X54043Y-25562D01*
X53947Y-25590D01*
X53874Y-25796D01*
X53885Y-26014D01*
X53947Y-26165D01*
X54043Y-26193D01*
X54358Y-25877D01*
X54358Y-26019D01*
X54113Y-26263D01*
X54141Y-26359D01*
X54196Y-26378D01*
X54117Y-26411D01*
X53963Y-26565D01*
X53879Y-26768D01*
X53879Y-26986D01*
X53962Y-27189D01*
X54042Y-27268D01*
X52962Y-27268D01*
X52885Y-27284D01*
X52885Y-20880D01*
X52821Y-20724D01*
X52701Y-20604D01*
X52545Y-20539D01*
X52376Y-20539D01*
X52315Y-20564D01*
X51051Y-20564D01*
X50907Y-20420D01*
X50907Y-18822D01*
X50973Y-18756D01*
X51057Y-18554D01*
X51057Y-18335D01*
X50974Y-18133D01*
X50917Y-18076D01*
X50917Y-14482D01*
X50852Y-14326D01*
X50733Y-14206D01*
X50577Y-14142D01*
X50491Y-14141D01*
X50153Y-13803D01*
X50055Y-13738D01*
X49940Y-13715D01*
X49651Y-13715D01*
X49591Y-13655D01*
X49435Y-13590D01*
X49266Y-13590D01*
X49109Y-13655D01*
X48990Y-13774D01*
X48925Y-13930D01*
X48925Y-14099D01*
X48989Y-14256D01*
X49109Y-14375D01*
X49265Y-14440D01*
X49434Y-14440D01*
X49590Y-14376D01*
X49651Y-14315D01*
X49816Y-14315D01*
X50067Y-14566D01*
X50067Y-14651D01*
X50131Y-14807D01*
X50251Y-14927D01*
X50407Y-14991D01*
X50576Y-14992D01*
X50732Y-14927D01*
X50852Y-14807D01*
X50917Y-14651D01*
X50917Y-14482D01*
X50917Y-18076D01*
X50907Y-18067D01*
X50907Y-17870D01*
X50882Y-17742D01*
X50877Y-17717D01*
X50877Y-17717D01*
X50790Y-17587D01*
X50558Y-17354D01*
X50428Y-17268D01*
X50403Y-17263D01*
X50275Y-17237D01*
X48172Y-17237D01*
X48172Y-13518D01*
X48161Y-13300D01*
X48099Y-13149D01*
X48004Y-13121D01*
X47933Y-13192D01*
X47933Y-13051D01*
X47905Y-12955D01*
X47699Y-12882D01*
X47481Y-12893D01*
X47330Y-12955D01*
X47302Y-13051D01*
X47618Y-13366D01*
X47933Y-13051D01*
X47933Y-13192D01*
X47688Y-13437D01*
X48004Y-13752D01*
X48099Y-13724D01*
X48172Y-13518D01*
X48172Y-17237D01*
X48168Y-17237D01*
X48168Y-14328D01*
X48084Y-14125D01*
X47930Y-13971D01*
X47854Y-13939D01*
X47905Y-13918D01*
X47933Y-13822D01*
X47618Y-13507D01*
X47547Y-13578D01*
X47547Y-13437D01*
X47232Y-13121D01*
X47136Y-13149D01*
X47063Y-13355D01*
X47074Y-13573D01*
X47136Y-13724D01*
X47232Y-13752D01*
X47547Y-13437D01*
X47547Y-13578D01*
X47302Y-13822D01*
X47330Y-13918D01*
X47385Y-13937D01*
X47306Y-13970D01*
X47152Y-14125D01*
X47068Y-14327D01*
X47068Y-14545D01*
X47151Y-14748D01*
X47306Y-14903D01*
X47508Y-14986D01*
X47727Y-14987D01*
X47929Y-14903D01*
X48084Y-14748D01*
X48168Y-14546D01*
X48168Y-14328D01*
X48168Y-17237D01*
X46423Y-17237D01*
X46423Y-15374D01*
X46398Y-15246D01*
X46393Y-15220D01*
X46393Y-15220D01*
X46306Y-15091D01*
X46306Y-15091D01*
X46011Y-14795D01*
X45897Y-14719D01*
X45897Y-14010D01*
X45832Y-13854D01*
X45713Y-13734D01*
X45557Y-13669D01*
X45388Y-13669D01*
X45327Y-13694D01*
X44573Y-13694D01*
X44573Y-12992D01*
X44573Y-12992D01*
X44542Y-12839D01*
X44542Y-12839D01*
X44456Y-12709D01*
X44456Y-12709D01*
X44141Y-12394D01*
X44011Y-12307D01*
X43985Y-12302D01*
X43858Y-12277D01*
X41574Y-12277D01*
X41447Y-12302D01*
X41421Y-12307D01*
X41291Y-12394D01*
X40996Y-12689D01*
X40909Y-12819D01*
X40904Y-12844D01*
X40879Y-12972D01*
X40879Y-13928D01*
X40777Y-14030D01*
X40275Y-14032D01*
X40275Y-11441D01*
X40275Y-11062D01*
X40245Y-10953D01*
X40067Y-10650D01*
X39785Y-10439D01*
X39445Y-10351D01*
X39095Y-10351D01*
X39095Y-11201D01*
X40231Y-11201D01*
X40275Y-11062D01*
X40275Y-11441D01*
X40231Y-11301D01*
X39095Y-11301D01*
X39095Y-12151D01*
X39445Y-12151D01*
X39785Y-12064D01*
X40067Y-11853D01*
X40245Y-11550D01*
X40275Y-11441D01*
X40275Y-14032D01*
X39491Y-14035D01*
X39491Y-13518D01*
X39480Y-13300D01*
X39418Y-13149D01*
X39322Y-13121D01*
X39252Y-13192D01*
X39252Y-13051D01*
X39224Y-12955D01*
X39018Y-12882D01*
X38995Y-12883D01*
X38995Y-12151D01*
X38995Y-11301D01*
X38995Y-11201D01*
X38995Y-10351D01*
X38846Y-10351D01*
X38846Y-9452D01*
X38843Y-9035D01*
X38689Y-8663D01*
X38542Y-8575D01*
X38471Y-8646D01*
X38471Y-8504D01*
X38383Y-8357D01*
X37996Y-8200D01*
X37578Y-8203D01*
X37207Y-8357D01*
X37118Y-8504D01*
X37795Y-9181D01*
X38471Y-8504D01*
X38471Y-8646D01*
X37865Y-9251D01*
X38542Y-9928D01*
X38689Y-9840D01*
X38846Y-9452D01*
X38846Y-10351D01*
X38645Y-10351D01*
X38471Y-10396D01*
X38471Y-9999D01*
X37795Y-9322D01*
X37724Y-9393D01*
X37724Y-9251D01*
X37047Y-8575D01*
X36900Y-8663D01*
X36743Y-9050D01*
X36746Y-9468D01*
X36900Y-9840D01*
X37047Y-9928D01*
X37724Y-9251D01*
X37724Y-9393D01*
X37118Y-9999D01*
X37207Y-10146D01*
X37594Y-10303D01*
X38011Y-10300D01*
X38383Y-10146D01*
X38471Y-9999D01*
X38471Y-10396D01*
X38304Y-10439D01*
X38023Y-10650D01*
X37844Y-10953D01*
X37815Y-11062D01*
X37859Y-11201D01*
X38995Y-11201D01*
X38995Y-11301D01*
X37859Y-11301D01*
X37815Y-11441D01*
X37844Y-11550D01*
X38023Y-11853D01*
X38304Y-12064D01*
X38645Y-12151D01*
X38995Y-12151D01*
X38995Y-12883D01*
X38800Y-12893D01*
X38649Y-12955D01*
X38621Y-13051D01*
X38937Y-13366D01*
X39252Y-13051D01*
X39252Y-13192D01*
X39007Y-13437D01*
X39322Y-13752D01*
X39418Y-13724D01*
X39491Y-13518D01*
X39491Y-14035D01*
X39313Y-14035D01*
X39248Y-13971D01*
X39173Y-13939D01*
X39224Y-13918D01*
X39252Y-13822D01*
X38937Y-13507D01*
X38866Y-13578D01*
X38866Y-13437D01*
X38551Y-13121D01*
X38455Y-13149D01*
X38382Y-13355D01*
X38393Y-13573D01*
X38455Y-13724D01*
X38551Y-13752D01*
X38866Y-13437D01*
X38866Y-13578D01*
X38621Y-13822D01*
X38649Y-13918D01*
X38704Y-13937D01*
X38625Y-13970D01*
X38471Y-14125D01*
X38387Y-14327D01*
X38386Y-14545D01*
X38470Y-14748D01*
X38625Y-14903D01*
X38827Y-14986D01*
X39045Y-14987D01*
X39248Y-14903D01*
X39316Y-14835D01*
X40941Y-14830D01*
X40943Y-14830D01*
X41096Y-14799D01*
X41226Y-14713D01*
X41562Y-14377D01*
X41562Y-14377D01*
X41649Y-14247D01*
X41649Y-14247D01*
X41649Y-14247D01*
X41679Y-14094D01*
X41679Y-14094D01*
X41679Y-13138D01*
X41740Y-13077D01*
X42089Y-13077D01*
X42133Y-13121D01*
X42038Y-13149D01*
X41964Y-13355D01*
X41975Y-13573D01*
X42038Y-13724D01*
X42133Y-13752D01*
X42448Y-13437D01*
X42443Y-13431D01*
X42514Y-13360D01*
X42519Y-13366D01*
X42525Y-13360D01*
X42595Y-13431D01*
X42590Y-13437D01*
X42905Y-13752D01*
X43000Y-13724D01*
X43074Y-13518D01*
X43063Y-13300D01*
X43000Y-13149D01*
X42905Y-13121D01*
X42950Y-13077D01*
X43692Y-13077D01*
X43773Y-13157D01*
X43773Y-13877D01*
X43798Y-14005D01*
X43803Y-14031D01*
X43890Y-14160D01*
X44106Y-14377D01*
X44106Y-14377D01*
X44193Y-14435D01*
X44236Y-14464D01*
X44236Y-14464D01*
X44389Y-14494D01*
X45327Y-14494D01*
X45387Y-14519D01*
X45556Y-14519D01*
X45712Y-14454D01*
X45832Y-14335D01*
X45897Y-14179D01*
X45897Y-14010D01*
X45897Y-14719D01*
X45881Y-14709D01*
X45856Y-14704D01*
X45728Y-14678D01*
X44829Y-14678D01*
X44769Y-14653D01*
X44600Y-14653D01*
X44540Y-14678D01*
X43327Y-14678D01*
X43074Y-14426D01*
X43069Y-14421D01*
X43069Y-14328D01*
X42986Y-14125D01*
X42831Y-13971D01*
X42756Y-13939D01*
X42807Y-13918D01*
X42834Y-13822D01*
X42519Y-13507D01*
X42448Y-13578D01*
X42204Y-13822D01*
X42231Y-13918D01*
X42287Y-13937D01*
X42208Y-13970D01*
X42053Y-14125D01*
X41969Y-14327D01*
X41969Y-14545D01*
X42053Y-14748D01*
X42207Y-14903D01*
X42409Y-14986D01*
X42503Y-14986D01*
X42878Y-15361D01*
X42878Y-15361D01*
X43008Y-15448D01*
X43008Y-15448D01*
X43033Y-15453D01*
X43161Y-15478D01*
X44540Y-15478D01*
X44600Y-15503D01*
X44769Y-15503D01*
X44829Y-15478D01*
X45562Y-15478D01*
X45623Y-15539D01*
X45623Y-15638D01*
X45590Y-15604D01*
X45498Y-15566D01*
X45399Y-15566D01*
X45337Y-15629D01*
X45337Y-15670D01*
X45271Y-15604D01*
X45179Y-15566D01*
X45131Y-15566D01*
X45076Y-15566D01*
X44984Y-15604D01*
X44980Y-15609D01*
X44976Y-15604D01*
X44884Y-15566D01*
X44829Y-15566D01*
X44781Y-15566D01*
X44689Y-15604D01*
X44623Y-15670D01*
X44623Y-15629D01*
X44560Y-15566D01*
X44462Y-15566D01*
X44370Y-15604D01*
X44299Y-15675D01*
X44261Y-15766D01*
X44261Y-15866D01*
X44261Y-15866D01*
X44324Y-15929D01*
X44371Y-15929D01*
X44370Y-15929D01*
X44299Y-15999D01*
X44261Y-16091D01*
X44261Y-16091D01*
X44261Y-16091D01*
X44261Y-16092D01*
X44261Y-16141D01*
X44261Y-16191D01*
X44261Y-16191D01*
X44261Y-16191D01*
X44261Y-16191D01*
X44299Y-16283D01*
X44370Y-16353D01*
X44371Y-16354D01*
X44324Y-16354D01*
X44261Y-16416D01*
X44261Y-16417D01*
X44261Y-16516D01*
X44299Y-16608D01*
X44370Y-16678D01*
X44462Y-16716D01*
X44560Y-16716D01*
X44623Y-16654D01*
X44623Y-16612D01*
X44689Y-16678D01*
X44781Y-16716D01*
X44829Y-16716D01*
X44884Y-16716D01*
X44976Y-16678D01*
X44980Y-16674D01*
X44984Y-16678D01*
X45076Y-16716D01*
X45131Y-16716D01*
X45179Y-16716D01*
X45271Y-16678D01*
X45337Y-16612D01*
X45337Y-16654D01*
X45399Y-16716D01*
X45498Y-16716D01*
X45590Y-16678D01*
X45623Y-16645D01*
X45623Y-17637D01*
X45623Y-18752D01*
X45598Y-18812D01*
X45598Y-18981D01*
X45623Y-19042D01*
X45623Y-21724D01*
X45292Y-22055D01*
X45232Y-22080D01*
X45112Y-22199D01*
X45047Y-22356D01*
X45047Y-22525D01*
X45111Y-22681D01*
X45231Y-22801D01*
X45387Y-22865D01*
X45556Y-22866D01*
X45712Y-22801D01*
X45832Y-22682D01*
X45857Y-22621D01*
X46306Y-22172D01*
X46306Y-22172D01*
X46393Y-22042D01*
X46393Y-22042D01*
X46393Y-22042D01*
X46423Y-21889D01*
X46423Y-21889D01*
X46423Y-19042D01*
X46448Y-18982D01*
X46448Y-18813D01*
X46423Y-18752D01*
X46423Y-18037D01*
X48198Y-18037D01*
X48192Y-18058D01*
X48507Y-18374D01*
X48823Y-18058D01*
X48816Y-18037D01*
X49137Y-18037D01*
X49041Y-18132D01*
X49010Y-18208D01*
X48989Y-18157D01*
X48893Y-18129D01*
X48578Y-18444D01*
X48893Y-18760D01*
X48989Y-18732D01*
X49008Y-18677D01*
X49041Y-18756D01*
X49195Y-18910D01*
X49397Y-18994D01*
X49616Y-18994D01*
X49819Y-18911D01*
X49973Y-18756D01*
X50007Y-18674D01*
X50041Y-18756D01*
X50107Y-18822D01*
X50107Y-20586D01*
X50133Y-20714D01*
X50138Y-20739D01*
X50225Y-20869D01*
X50602Y-21247D01*
X50602Y-21247D01*
X50732Y-21334D01*
X50732Y-21334D01*
X50758Y-21339D01*
X50885Y-21364D01*
X52315Y-21364D01*
X52375Y-21389D01*
X52544Y-21389D01*
X52701Y-21325D01*
X52820Y-21205D01*
X52885Y-21049D01*
X52885Y-20880D01*
X52885Y-27284D01*
X52847Y-27291D01*
X52750Y-27356D01*
X51310Y-28796D01*
X51310Y-28065D01*
X51285Y-28004D01*
X51285Y-24015D01*
X51255Y-23862D01*
X51255Y-23862D01*
X51226Y-23819D01*
X51168Y-23732D01*
X51168Y-23732D01*
X50680Y-23244D01*
X50655Y-23184D01*
X50536Y-23065D01*
X50380Y-23000D01*
X50211Y-23000D01*
X50150Y-23025D01*
X49357Y-23025D01*
X49297Y-23000D01*
X49128Y-23000D01*
X48972Y-23064D01*
X48852Y-23184D01*
X48823Y-23255D01*
X48823Y-18830D01*
X48507Y-18515D01*
X48437Y-18586D01*
X48437Y-18444D01*
X48121Y-18129D01*
X48026Y-18157D01*
X47953Y-18363D01*
X47964Y-18581D01*
X48026Y-18732D01*
X48121Y-18760D01*
X48437Y-18444D01*
X48437Y-18586D01*
X48192Y-18830D01*
X48220Y-18926D01*
X48426Y-18999D01*
X48644Y-18988D01*
X48795Y-18926D01*
X48823Y-18830D01*
X48823Y-23255D01*
X48787Y-23340D01*
X48787Y-23509D01*
X48852Y-23665D01*
X48971Y-23785D01*
X49127Y-23850D01*
X49296Y-23850D01*
X49357Y-23825D01*
X50129Y-23825D01*
X50485Y-24181D01*
X50485Y-27749D01*
X50324Y-27749D01*
X50324Y-26552D01*
X50324Y-26553D01*
X50262Y-26490D01*
X50216Y-26490D01*
X50286Y-26421D01*
X50324Y-26329D01*
X50324Y-26328D01*
X50324Y-26328D01*
X50324Y-26329D01*
X50324Y-26279D01*
X50324Y-26230D01*
X50324Y-26230D01*
X50324Y-26230D01*
X50324Y-26229D01*
X50286Y-26137D01*
X50216Y-26068D01*
X50262Y-26068D01*
X50324Y-26005D01*
X50324Y-26006D01*
X50324Y-25906D01*
X50286Y-25814D01*
X50216Y-25744D01*
X50124Y-25706D01*
X50025Y-25706D01*
X49963Y-25769D01*
X49963Y-25810D01*
X49897Y-25744D01*
X49805Y-25706D01*
X49757Y-25706D01*
X49702Y-25706D01*
X49610Y-25744D01*
X49606Y-25748D01*
X49602Y-25744D01*
X49510Y-25706D01*
X49455Y-25706D01*
X49407Y-25706D01*
X49315Y-25744D01*
X49249Y-25810D01*
X49249Y-25769D01*
X49186Y-25706D01*
X49088Y-25706D01*
X48996Y-25744D01*
X48925Y-25814D01*
X48887Y-25906D01*
X48887Y-26006D01*
X48887Y-26005D01*
X48950Y-26068D01*
X48995Y-26068D01*
X48925Y-26137D01*
X48887Y-26229D01*
X48887Y-26230D01*
X48887Y-26230D01*
X48887Y-26230D01*
X48887Y-26279D01*
X48887Y-26329D01*
X48887Y-26328D01*
X48887Y-26328D01*
X48887Y-26329D01*
X48925Y-26421D01*
X48995Y-26490D01*
X48950Y-26490D01*
X48887Y-26553D01*
X48887Y-26552D01*
X48887Y-26652D01*
X48925Y-26744D01*
X48996Y-26814D01*
X49088Y-26852D01*
X49186Y-26852D01*
X49249Y-26789D01*
X49249Y-26748D01*
X49315Y-26814D01*
X49407Y-26852D01*
X49455Y-26852D01*
X49510Y-26852D01*
X49602Y-26814D01*
X49606Y-26810D01*
X49610Y-26814D01*
X49702Y-26852D01*
X49757Y-26852D01*
X49805Y-26852D01*
X49897Y-26814D01*
X49963Y-26748D01*
X49963Y-26789D01*
X50025Y-26852D01*
X50124Y-26852D01*
X50216Y-26814D01*
X50286Y-26744D01*
X50324Y-26652D01*
X50324Y-26552D01*
X50324Y-27749D01*
X47980Y-27749D01*
X47597Y-27366D01*
X47597Y-19379D01*
X47513Y-19177D01*
X47359Y-19022D01*
X47157Y-18938D01*
X46938Y-18938D01*
X46736Y-19021D01*
X46581Y-19176D01*
X46497Y-19378D01*
X46497Y-19597D01*
X46580Y-19799D01*
X46735Y-19954D01*
X46937Y-20038D01*
X47156Y-20038D01*
X47358Y-19954D01*
X47513Y-19800D01*
X47597Y-19598D01*
X47597Y-19379D01*
X47597Y-27366D01*
X46826Y-26595D01*
X46696Y-26508D01*
X46670Y-26503D01*
X46543Y-26477D01*
X45042Y-26477D01*
X45042Y-25959D01*
X45032Y-25741D01*
X44969Y-25590D01*
X44874Y-25562D01*
X44803Y-25633D01*
X44803Y-25492D01*
X44776Y-25396D01*
X44569Y-25323D01*
X44351Y-25334D01*
X44200Y-25396D01*
X44172Y-25492D01*
X44488Y-25807D01*
X44803Y-25492D01*
X44803Y-25633D01*
X44558Y-25877D01*
X44874Y-26193D01*
X44969Y-26165D01*
X45042Y-25959D01*
X45042Y-26477D01*
X44866Y-26477D01*
X44800Y-26411D01*
X44724Y-26380D01*
X44776Y-26359D01*
X44803Y-26263D01*
X44488Y-25948D01*
X44417Y-26019D01*
X44417Y-25877D01*
X44102Y-25562D01*
X44006Y-25590D01*
X43933Y-25796D01*
X43944Y-26014D01*
X44006Y-26165D01*
X44102Y-26193D01*
X44417Y-25877D01*
X44417Y-26019D01*
X44172Y-26263D01*
X44200Y-26359D01*
X44255Y-26378D01*
X44177Y-26411D01*
X44022Y-26565D01*
X43938Y-26768D01*
X43938Y-26986D01*
X44021Y-27189D01*
X44176Y-27343D01*
X44378Y-27427D01*
X44597Y-27428D01*
X44799Y-27344D01*
X44865Y-27277D01*
X46377Y-27277D01*
X47532Y-28432D01*
X47532Y-28432D01*
X47618Y-28490D01*
X47661Y-28519D01*
X47661Y-28519D01*
X47814Y-28549D01*
X47814Y-28549D01*
X50740Y-28549D01*
X50800Y-28574D01*
X50969Y-28574D01*
X51126Y-28510D01*
X51245Y-28390D01*
X51310Y-28234D01*
X51310Y-28065D01*
X51310Y-28796D01*
X50840Y-29266D01*
X42702Y-29266D01*
X42642Y-29206D01*
X42486Y-29142D01*
X42317Y-29141D01*
X42161Y-29206D01*
X42041Y-29325D01*
X41976Y-29482D01*
X41976Y-29651D01*
X42041Y-29807D01*
X42160Y-29927D01*
X42316Y-29991D01*
X42485Y-29992D01*
X42642Y-29927D01*
X42702Y-29866D01*
X50964Y-29866D01*
X50964Y-29866D01*
X51079Y-29844D01*
X51079Y-29844D01*
X51176Y-29779D01*
X53086Y-27868D01*
X54438Y-27868D01*
X54438Y-27868D01*
X54553Y-27846D01*
X54553Y-27846D01*
X54651Y-27781D01*
X55212Y-27220D01*
X55212Y-27220D01*
X55277Y-27122D01*
X55299Y-27007D01*
X55300Y-27007D01*
X55300Y-11643D01*
X55299Y-11643D01*
X55277Y-11528D01*
X55212Y-11431D01*
X55212Y-11431D01*
X54969Y-11188D01*
X55187Y-11098D01*
X55339Y-10946D01*
X55339Y-27237D01*
X54472Y-28105D01*
X53464Y-28105D01*
X53349Y-28128D01*
X53252Y-28193D01*
X51371Y-30074D01*
X41558Y-30074D01*
X41558Y-28419D01*
X41558Y-28408D01*
X41495Y-28345D01*
X41422Y-28345D01*
X41449Y-28334D01*
X41520Y-28264D01*
X41550Y-28190D01*
X41558Y-28183D01*
X41558Y-28171D01*
X41558Y-28122D01*
X41558Y-28072D01*
X41558Y-28061D01*
X41550Y-28053D01*
X41520Y-27980D01*
X41449Y-27910D01*
X41422Y-27899D01*
X41495Y-27899D01*
X41558Y-27836D01*
X41558Y-27825D01*
X41558Y-27726D01*
X41520Y-27634D01*
X41449Y-27563D01*
X41357Y-27525D01*
X41259Y-27525D01*
X41196Y-27588D01*
X41196Y-27633D01*
X41126Y-27563D01*
X41034Y-27525D01*
X40985Y-27525D01*
X40935Y-27525D01*
X40844Y-27563D01*
X40774Y-27633D01*
X40774Y-27588D01*
X40711Y-27525D01*
X40613Y-27525D01*
X40521Y-27563D01*
X40450Y-27634D01*
X40412Y-27726D01*
X40412Y-27825D01*
X40412Y-27836D01*
X40475Y-27899D01*
X40548Y-27899D01*
X40521Y-27910D01*
X40450Y-27980D01*
X40420Y-28053D01*
X40412Y-28061D01*
X40412Y-28072D01*
X40412Y-28122D01*
X40412Y-28171D01*
X40412Y-28183D01*
X40420Y-28190D01*
X40450Y-28264D01*
X40521Y-28334D01*
X40548Y-28345D01*
X40475Y-28345D01*
X40412Y-28408D01*
X40412Y-28419D01*
X40412Y-28518D01*
X40450Y-28610D01*
X40521Y-28680D01*
X40613Y-28718D01*
X40711Y-28718D01*
X40774Y-28656D01*
X40774Y-28611D01*
X40844Y-28680D01*
X40935Y-28718D01*
X40985Y-28718D01*
X41034Y-28718D01*
X41126Y-28680D01*
X41196Y-28611D01*
X41196Y-28656D01*
X41259Y-28718D01*
X41357Y-28718D01*
X41449Y-28680D01*
X41520Y-28610D01*
X41558Y-28518D01*
X41558Y-28419D01*
X41558Y-30074D01*
X40577Y-30074D01*
X40325Y-29822D01*
X40340Y-29807D01*
X40405Y-29651D01*
X40405Y-29482D01*
X40340Y-29326D01*
X40314Y-29299D01*
X40314Y-20378D01*
X40309Y-20285D01*
X40309Y-19189D01*
X40226Y-18989D01*
X40135Y-18897D01*
X40225Y-18807D01*
X40309Y-18606D01*
X40309Y-18389D01*
X40226Y-18189D01*
X40073Y-18035D01*
X39982Y-17997D01*
X40072Y-17960D01*
X40225Y-17807D01*
X40309Y-17606D01*
X40309Y-17389D01*
X40226Y-17189D01*
X40073Y-17035D01*
X39872Y-16952D01*
X39655Y-16952D01*
X39557Y-16992D01*
X39557Y-16248D01*
X39550Y-15914D01*
X39435Y-15635D01*
X39309Y-15572D01*
X39239Y-15643D01*
X39239Y-15501D01*
X39176Y-15376D01*
X38864Y-15254D01*
X38530Y-15260D01*
X38251Y-15376D01*
X38188Y-15501D01*
X38713Y-16026D01*
X39239Y-15501D01*
X39239Y-15643D01*
X38784Y-16097D01*
X39309Y-16622D01*
X39435Y-16560D01*
X39557Y-16248D01*
X39557Y-16992D01*
X39455Y-17034D01*
X39301Y-17188D01*
X39239Y-17338D01*
X39239Y-16693D01*
X38713Y-16168D01*
X38643Y-16239D01*
X38643Y-16097D01*
X38117Y-15572D01*
X37992Y-15635D01*
X37870Y-15946D01*
X37876Y-16280D01*
X37992Y-16560D01*
X38117Y-16622D01*
X38643Y-16097D01*
X38643Y-16239D01*
X38188Y-16693D01*
X38251Y-16819D01*
X38562Y-16941D01*
X38896Y-16934D01*
X39176Y-16819D01*
X39239Y-16693D01*
X39239Y-17338D01*
X39218Y-17388D01*
X39218Y-17605D01*
X39301Y-17806D01*
X39454Y-17959D01*
X39545Y-17997D01*
X39455Y-18034D01*
X39301Y-18188D01*
X39218Y-18388D01*
X39218Y-18605D01*
X39301Y-18806D01*
X39392Y-18897D01*
X39301Y-18988D01*
X39218Y-19188D01*
X39218Y-19405D01*
X39301Y-19606D01*
X39454Y-19759D01*
X39539Y-19795D01*
X39478Y-19820D01*
X39451Y-19914D01*
X39763Y-20226D01*
X40075Y-19914D01*
X40048Y-19820D01*
X39983Y-19796D01*
X40072Y-19760D01*
X40225Y-19607D01*
X40309Y-19406D01*
X40309Y-19189D01*
X40309Y-20285D01*
X40303Y-20161D01*
X40241Y-20012D01*
X40146Y-19985D01*
X39834Y-20297D01*
X40146Y-20609D01*
X40241Y-20582D01*
X40314Y-20378D01*
X40314Y-29299D01*
X40221Y-29206D01*
X40065Y-29142D01*
X39896Y-29141D01*
X39739Y-29206D01*
X39620Y-29325D01*
X39555Y-29482D01*
X39555Y-29651D01*
X39619Y-29807D01*
X39680Y-29867D01*
X39680Y-29901D01*
X39703Y-30016D01*
X39768Y-30113D01*
X40240Y-30586D01*
X40240Y-30586D01*
X40337Y-30651D01*
X40452Y-30674D01*
X51496Y-30674D01*
X51496Y-30674D01*
X51610Y-30651D01*
X51610Y-30651D01*
X51708Y-30586D01*
X53588Y-28705D01*
X54596Y-28705D01*
X54596Y-28705D01*
X54711Y-28682D01*
X54711Y-28682D01*
X54808Y-28617D01*
X55851Y-27574D01*
X55851Y-27574D01*
X55916Y-27477D01*
X55939Y-27362D01*
X55939Y-27362D01*
X55939Y-22807D01*
X55974Y-22821D01*
X56193Y-22821D01*
X56395Y-22738D01*
X56550Y-22583D01*
X56582Y-22507D01*
X56603Y-22559D01*
X56698Y-22586D01*
X57013Y-22271D01*
X56698Y-21956D01*
X56603Y-21983D01*
X56583Y-22039D01*
X56551Y-21960D01*
X56396Y-21805D01*
X56314Y-21771D01*
X56395Y-21738D01*
X56550Y-21583D01*
X56582Y-21507D01*
X56603Y-21559D01*
X56698Y-21586D01*
X57013Y-21271D01*
X56698Y-20956D01*
X56603Y-20983D01*
X56583Y-21039D01*
X56551Y-20960D01*
X56396Y-20805D01*
X56314Y-20771D01*
X56395Y-20738D01*
X56550Y-20583D01*
X56584Y-20501D01*
X56618Y-20582D01*
X56772Y-20737D01*
X56848Y-20769D01*
X56796Y-20790D01*
X56769Y-20885D01*
X57084Y-21200D01*
X57399Y-20885D01*
X57372Y-20790D01*
X57317Y-20770D01*
X57395Y-20738D01*
X57550Y-20583D01*
X57634Y-20381D01*
X57634Y-20162D01*
X57551Y-19960D01*
X57396Y-19805D01*
X57314Y-19771D01*
X57395Y-19738D01*
X57550Y-19583D01*
X57634Y-19381D01*
X57634Y-19162D01*
X57551Y-18960D01*
X57396Y-18805D01*
X57314Y-18771D01*
X57395Y-18738D01*
X57550Y-18583D01*
X57634Y-18381D01*
X57634Y-18162D01*
X57551Y-17960D01*
X57396Y-17805D01*
X57314Y-17771D01*
X57395Y-17738D01*
X57550Y-17583D01*
X57634Y-17381D01*
X57634Y-17162D01*
X57551Y-16960D01*
X57396Y-16805D01*
X57314Y-16771D01*
X57395Y-16738D01*
X57550Y-16583D01*
X57634Y-16381D01*
X57634Y-16162D01*
X57551Y-15960D01*
X57396Y-15805D01*
X57314Y-15771D01*
X57395Y-15738D01*
X57550Y-15583D01*
X57634Y-15381D01*
X57634Y-15162D01*
X57551Y-14960D01*
X57396Y-14805D01*
X57314Y-14771D01*
X57395Y-14738D01*
X57550Y-14583D01*
X57634Y-14381D01*
X57634Y-14162D01*
X57551Y-13960D01*
X57396Y-13805D01*
X57314Y-13771D01*
X57395Y-13738D01*
X57550Y-13583D01*
X57634Y-13381D01*
X57634Y-13162D01*
X57551Y-12960D01*
X57396Y-12805D01*
X57314Y-12771D01*
X57395Y-12738D01*
X57550Y-12583D01*
X57634Y-12381D01*
X57634Y-12162D01*
X57551Y-11960D01*
X57396Y-11805D01*
X57314Y-11771D01*
X57395Y-11738D01*
X57550Y-11583D01*
X57634Y-11381D01*
X57634Y-11162D01*
X57551Y-10960D01*
X57412Y-10821D01*
X57434Y-10821D01*
X57526Y-10783D01*
X57596Y-10713D01*
X57634Y-10621D01*
X57634Y-10384D01*
X57572Y-10321D01*
X57134Y-10321D01*
X57134Y-10329D01*
X57034Y-10329D01*
X57034Y-10321D01*
X57026Y-10321D01*
X57026Y-10221D01*
X57034Y-10221D01*
X57034Y-10213D01*
X57134Y-10213D01*
X57134Y-10221D01*
X57572Y-10221D01*
X57634Y-10159D01*
X57634Y-9922D01*
X57596Y-9830D01*
X57526Y-9759D01*
X57434Y-9721D01*
X57412Y-9721D01*
X57550Y-9583D01*
X57634Y-9381D01*
X57634Y-9162D01*
X57551Y-8960D01*
X57396Y-8805D01*
X57314Y-8771D01*
X57395Y-8738D01*
X57550Y-8583D01*
X57634Y-8381D01*
X57634Y-8162D01*
X57551Y-7960D01*
X57396Y-7805D01*
X57194Y-7721D01*
X56975Y-7721D01*
X56773Y-7805D01*
X56618Y-7959D01*
X56584Y-8041D01*
X56551Y-7960D01*
X56396Y-7805D01*
X56194Y-7721D01*
X55975Y-7721D01*
X55963Y-7726D01*
X55898Y-7661D01*
X57889Y-7661D01*
X57889Y-28249D01*
M02*
