G04 (created by PCBNEW (2013-03-15 BZR 4003)-stable) date 24-Aug-13 4:32:32 PM*
%MOIN*%
G04 Gerber Fmt 3.4, Leading zero omitted, Abs format*
%FSLAX34Y34*%
G01*
G70*
G90*
G04 APERTURE LIST*
%ADD10C,0*%
%ADD11C,0.00590551*%
%ADD12R,0.0531496X0.0610236*%
%ADD13R,0.064X0.12*%
%ADD14R,0.12X0.064*%
%ADD15R,0.0610236X0.0531496*%
%ADD16R,0.0511811X0.0511811*%
%ADD17R,0.0512X0.059*%
%ADD18R,0.059X0.0512*%
%ADD19R,0.0433071X0.023622*%
%ADD20R,0.0787402X0.0984252*%
%ADD21R,0.0874016X0.0688976*%
%ADD22R,0.04X0.05*%
%ADD23R,0.0984252X0.0787402*%
%ADD24R,0.05X0.04*%
%ADD25R,0.0629921X0.0393701*%
%ADD26R,0.1337X0.059*%
%ADD27R,0.1377X0.0392*%
%ADD28R,0.024X0.08*%
%ADD29R,0.054X0.016*%
%ADD30R,0.056X0.063*%
%ADD31R,0.075X0.075*%
%ADD32C,0.075*%
%ADD33O,0.0110236X0.0334646*%
%ADD34R,0.0275591X0.0110236*%
%ADD35O,0.0137795X0.0334646*%
%ADD36R,0.011811X0.0275591*%
%ADD37R,0.019685X0.023622*%
%ADD38R,0.08X0.15*%
%ADD39R,0.08X0.06*%
G04 APERTURE END LIST*
G54D10*
G54D11*
X34547Y-31003D02*
X34547Y-7381D01*
X58169Y-31003D02*
X34547Y-31003D01*
X58169Y-7381D02*
X58169Y-31003D01*
X34547Y-7381D02*
X58169Y-7381D01*
G54D12*
X47834Y-11417D03*
X47047Y-11417D03*
G54D13*
X44488Y-23340D03*
X44488Y-21540D03*
G54D14*
X41746Y-23720D03*
X39946Y-23720D03*
G54D15*
X49212Y-22145D03*
X49212Y-22933D03*
X47834Y-26082D03*
X47834Y-26870D03*
G54D14*
X43430Y-29133D03*
X45230Y-29133D03*
G54D16*
X50885Y-29232D03*
X49704Y-29232D03*
G54D17*
X45256Y-18602D03*
X44506Y-18602D03*
X44506Y-19586D03*
X45256Y-19586D03*
X42735Y-20472D03*
X43485Y-20472D03*
G54D18*
X50295Y-22914D03*
X50295Y-22164D03*
X52854Y-24686D03*
X52854Y-23936D03*
X49212Y-23936D03*
X49212Y-24686D03*
X50295Y-23936D03*
X50295Y-24686D03*
X46988Y-24686D03*
X46988Y-23936D03*
X46062Y-26752D03*
X46062Y-26002D03*
X46358Y-16516D03*
X46358Y-15766D03*
G54D17*
X43485Y-16633D03*
X42735Y-16633D03*
G54D18*
X51574Y-22164D03*
X51574Y-22914D03*
X48011Y-23936D03*
X48011Y-24686D03*
X41496Y-25865D03*
X41496Y-26615D03*
G54D10*
G36*
X53394Y-26638D02*
X53494Y-26638D01*
X53694Y-27238D01*
X53194Y-27238D01*
X53394Y-26638D01*
X53394Y-26638D01*
G37*
G36*
X53194Y-27288D02*
X53694Y-27288D01*
X53494Y-27888D01*
X53394Y-27888D01*
X53194Y-27288D01*
X53194Y-27288D01*
G37*
G36*
X47981Y-21914D02*
X48081Y-21914D01*
X48281Y-22514D01*
X47781Y-22514D01*
X47981Y-21914D01*
X47981Y-21914D01*
G37*
G36*
X47781Y-22564D02*
X48281Y-22564D01*
X48081Y-23164D01*
X47981Y-23164D01*
X47781Y-22564D01*
X47781Y-22564D01*
G37*
G54D19*
X41771Y-21279D03*
X41771Y-22027D03*
X41771Y-21653D03*
X42874Y-22027D03*
X42874Y-21279D03*
G54D14*
X48518Y-29133D03*
X46718Y-29133D03*
G54D12*
X46259Y-13149D03*
X45472Y-13149D03*
X46259Y-14665D03*
X45472Y-14665D03*
G54D13*
X41889Y-10438D03*
X41889Y-12238D03*
G54D15*
X49507Y-9251D03*
X49507Y-10039D03*
X46259Y-21653D03*
X46259Y-22440D03*
G54D12*
X49507Y-19783D03*
X50295Y-19783D03*
G54D14*
X53951Y-14173D03*
X52151Y-14173D03*
G54D15*
X42677Y-25846D03*
X42677Y-26633D03*
X39271Y-25826D03*
X39271Y-26614D03*
G54D12*
X53641Y-19783D03*
X52854Y-19783D03*
G54D20*
X43287Y-8188D03*
X41673Y-8188D03*
G54D21*
X40604Y-13214D03*
X40604Y-14592D03*
G54D22*
X42710Y-19586D03*
X43510Y-19586D03*
X43510Y-18602D03*
X42710Y-18602D03*
G54D23*
X52165Y-26555D03*
X52165Y-28169D03*
G54D24*
X46062Y-24514D03*
X46062Y-23714D03*
G54D22*
X43510Y-17618D03*
X42710Y-17618D03*
G54D20*
X53759Y-18307D03*
X52145Y-18307D03*
G54D25*
X37604Y-14443D03*
X37604Y-13262D03*
G54D26*
X35511Y-22599D03*
G54D27*
X37696Y-23524D03*
X37696Y-24310D03*
G54D26*
X35511Y-25235D03*
G54D28*
X49053Y-13301D03*
X49053Y-15242D03*
X49553Y-13301D03*
X50053Y-13301D03*
X50553Y-13301D03*
X49553Y-15242D03*
X50053Y-15242D03*
X50553Y-15242D03*
G54D18*
X40472Y-25845D03*
X40472Y-26595D03*
X41692Y-30315D03*
X41692Y-29565D03*
X40669Y-30315D03*
X40669Y-29565D03*
G54D17*
X52971Y-20964D03*
X53721Y-20964D03*
X51652Y-16929D03*
X52402Y-16929D03*
X54115Y-15846D03*
X53365Y-15846D03*
X53365Y-16929D03*
X54115Y-16929D03*
X52402Y-15846D03*
X51652Y-15846D03*
G54D10*
G36*
X46126Y-18258D02*
X46126Y-18158D01*
X46726Y-17958D01*
X46726Y-18458D01*
X46126Y-18258D01*
X46126Y-18258D01*
G37*
G36*
X46776Y-18458D02*
X46776Y-17958D01*
X47376Y-18158D01*
X47376Y-18258D01*
X46776Y-18458D01*
X46776Y-18458D01*
G37*
G36*
X46126Y-17471D02*
X46126Y-17371D01*
X46726Y-17171D01*
X46726Y-17671D01*
X46126Y-17471D01*
X46126Y-17471D01*
G37*
G36*
X46776Y-17671D02*
X46776Y-17171D01*
X47376Y-17371D01*
X47376Y-17471D01*
X46776Y-17671D01*
X46776Y-17671D01*
G37*
G54D29*
X36200Y-13799D03*
X36200Y-14055D03*
X36200Y-14311D03*
X36200Y-13543D03*
X36200Y-13287D03*
G54D30*
X36100Y-12549D03*
X36100Y-15049D03*
G54D31*
X35150Y-13324D03*
X35150Y-14274D03*
G54D32*
X35150Y-12499D03*
X35150Y-15099D03*
G54D33*
X50000Y-25698D03*
X49606Y-25698D03*
X49409Y-25698D03*
X49212Y-25698D03*
X49212Y-26860D03*
X49409Y-26860D03*
X49606Y-26860D03*
X49803Y-26860D03*
X50000Y-26860D03*
G54D34*
X49000Y-26181D03*
X49000Y-26377D03*
X50212Y-26181D03*
X50212Y-26377D03*
G54D35*
X45108Y-15561D03*
X44852Y-15561D03*
X44596Y-15561D03*
X44596Y-16722D03*
X44852Y-16722D03*
X45106Y-16722D03*
X45364Y-16722D03*
G54D36*
X41280Y-27551D03*
X41083Y-27551D03*
X40887Y-27551D03*
X40690Y-27551D03*
X40690Y-28693D03*
X40887Y-28693D03*
X41083Y-28693D03*
X41280Y-28693D03*
G54D37*
X51771Y-24153D03*
X51574Y-24665D03*
X51377Y-24153D03*
G54D38*
X45350Y-9100D03*
G54D39*
X47850Y-9100D03*
X47850Y-8200D03*
X47850Y-10000D03*
M02*
