G04 (created by PCBNEW (2013-03-15 BZR 4003)-stable) date 24-Aug-13 4:32:32 PM*
%MOIN*%
G04 Gerber Fmt 3.4, Leading zero omitted, Abs format*
%FSLAX34Y34*%
G01*
G70*
G90*
G04 APERTURE LIST*
%ADD10C,0*%
%ADD11C,0.00393701*%
%ADD12C,0.00787402*%
%ADD13C,0.00590551*%
%ADD14C,0.00984252*%
%ADD15C,0.006*%
%ADD16C,0.005*%
%ADD17C,0.008*%
%ADD18C,0.01*%
%ADD19R,0.0531496X0.0610236*%
%ADD20R,0.064X0.12*%
%ADD21R,0.12X0.064*%
%ADD22R,0.0610236X0.0531496*%
%ADD23R,0.0511811X0.0511811*%
%ADD24R,0.0512X0.059*%
%ADD25R,0.059X0.0512*%
%ADD26C,0.07*%
%ADD27C,0.08*%
%ADD28R,0.0533071X0.033622*%
%ADD29R,0.0787402X0.0984252*%
%ADD30R,0.0874016X0.0688976*%
%ADD31R,0.04X0.05*%
%ADD32R,0.0984252X0.0787402*%
%ADD33R,0.05X0.04*%
%ADD34R,0.0629921X0.0393701*%
%ADD35R,0.1337X0.059*%
%ADD36R,0.1377X0.0392*%
%ADD37C,0.06*%
%ADD38R,0.06X0.06*%
%ADD39C,0.16*%
%ADD40R,0.16X0.16*%
%ADD41O,0.2X0.13*%
%ADD42R,0.024X0.08*%
%ADD43R,0.054X0.016*%
%ADD44R,0.056X0.063*%
%ADD45R,0.075X0.075*%
%ADD46C,0.075*%
%ADD47O,0.0110236X0.0334646*%
%ADD48O,0.0165354X0.0389764*%
%ADD49R,0.03X0.0646457*%
%ADD50R,0.0323622X0.0323622*%
%ADD51R,0.0276378X0.0111024*%
%ADD52C,0.0591*%
%ADD53C,0.1181*%
%ADD54O,0.0137795X0.0334646*%
%ADD55O,0.0192913X0.0389764*%
%ADD56R,0.03X0.0650394*%
%ADD57R,0.0323622X0.0325591*%
%ADD58R,0.011811X0.0275591*%
%ADD59R,0.0322835X0.0346457*%
%ADD60C,0.3*%
%ADD61R,0.019685X0.023622*%
%ADD62R,0.08X0.15*%
%ADD63R,0.08X0.06*%
G04 APERTURE END LIST*
G54D10*
G54D11*
X56922Y-22901D02*
X56922Y-22864D01*
X57259Y-22864D01*
X57259Y-22901D01*
X57090Y-22961D02*
X57090Y-23081D01*
X56922Y-23141D02*
X56922Y-23179D01*
X57259Y-23179D01*
X57259Y-23141D01*
G54D12*
X57903Y-27765D02*
X57903Y-23277D01*
X56053Y-23277D02*
X56053Y-27765D01*
G54D13*
X39878Y-14688D02*
X39878Y-14763D01*
X39428Y-14763D01*
X39428Y-14688D01*
X39653Y-14568D02*
X39653Y-14328D01*
X39773Y-14448D02*
X39533Y-14448D01*
X39878Y-14208D02*
X39878Y-14133D01*
X39428Y-14133D01*
X39428Y-14208D01*
X51728Y-10397D02*
X51728Y-10472D01*
X51278Y-10472D01*
X51278Y-10397D01*
X51503Y-10277D02*
X51503Y-10037D01*
X51623Y-10157D02*
X51383Y-10157D01*
X51728Y-9917D02*
X51728Y-9842D01*
X51278Y-9842D01*
X51278Y-9917D01*
G54D11*
X55918Y-22891D02*
X55918Y-22854D01*
X56255Y-22854D01*
X56255Y-22891D01*
X56086Y-22951D02*
X56086Y-23071D01*
X55996Y-23011D02*
X56176Y-23011D01*
X55918Y-23131D02*
X55918Y-23169D01*
X56255Y-23169D01*
X56255Y-23131D01*
G54D13*
X43460Y-14688D02*
X43460Y-14763D01*
X43010Y-14763D01*
X43010Y-14688D01*
X43235Y-14568D02*
X43235Y-14328D01*
X43355Y-14448D02*
X43115Y-14448D01*
X43460Y-14208D02*
X43460Y-14133D01*
X43010Y-14133D01*
X43010Y-14208D01*
X48559Y-14688D02*
X48559Y-14763D01*
X48109Y-14763D01*
X48109Y-14688D01*
X48334Y-14568D02*
X48334Y-14328D01*
X48454Y-14448D02*
X48214Y-14448D01*
X48559Y-14208D02*
X48559Y-14133D01*
X48109Y-14133D01*
X48109Y-14208D01*
X38519Y-23756D02*
X38444Y-23756D01*
X38444Y-23306D01*
X38519Y-23306D01*
X38639Y-23531D02*
X38879Y-23531D01*
X38759Y-23651D02*
X38759Y-23411D01*
X38999Y-23756D02*
X39074Y-23756D01*
X39074Y-23306D01*
X38999Y-23306D01*
X45429Y-27110D02*
X45429Y-27185D01*
X44979Y-27185D01*
X44979Y-27110D01*
X45204Y-26990D02*
X45204Y-26750D01*
X45324Y-26870D02*
X45084Y-26870D01*
X45429Y-26630D02*
X45429Y-26555D01*
X44979Y-26555D01*
X44979Y-26630D01*
X55370Y-27110D02*
X55370Y-27185D01*
X54920Y-27185D01*
X54920Y-27110D01*
X55145Y-26990D02*
X55145Y-26750D01*
X55265Y-26870D02*
X55025Y-26870D01*
X55370Y-26630D02*
X55370Y-26555D01*
X54920Y-26555D01*
X54920Y-26630D01*
G54D11*
X55481Y-7589D02*
X55481Y-7495D01*
X55387Y-7486D01*
X55396Y-7495D01*
X55406Y-7514D01*
X55406Y-7561D01*
X55396Y-7580D01*
X55387Y-7589D01*
X55368Y-7598D01*
X55321Y-7598D01*
X55303Y-7589D01*
X55293Y-7580D01*
X55284Y-7561D01*
X55284Y-7514D01*
X55293Y-7495D01*
X55303Y-7486D01*
X55481Y-7655D02*
X55284Y-7720D01*
X55481Y-7786D01*
X55481Y-7889D02*
X55481Y-7908D01*
X55471Y-7926D01*
X55462Y-7936D01*
X55443Y-7945D01*
X55406Y-7955D01*
X55359Y-7955D01*
X55321Y-7945D01*
X55303Y-7936D01*
X55293Y-7926D01*
X55284Y-7908D01*
X55284Y-7889D01*
X55293Y-7870D01*
X55303Y-7861D01*
X55321Y-7851D01*
X55359Y-7842D01*
X55406Y-7842D01*
X55443Y-7851D01*
X55462Y-7861D01*
X55471Y-7870D01*
X55481Y-7889D01*
X55218Y-8086D02*
X55500Y-8086D01*
X55359Y-8226D02*
X55359Y-8376D01*
X55359Y-8470D02*
X55359Y-8620D01*
X55218Y-8761D02*
X55500Y-8761D01*
X55471Y-9004D02*
X55481Y-8986D01*
X55481Y-8958D01*
X55471Y-8929D01*
X55453Y-8911D01*
X55434Y-8901D01*
X55396Y-8892D01*
X55368Y-8892D01*
X55331Y-8901D01*
X55312Y-8911D01*
X55293Y-8929D01*
X55284Y-8958D01*
X55284Y-8976D01*
X55293Y-9004D01*
X55303Y-9014D01*
X55368Y-9014D01*
X55368Y-8976D01*
X55284Y-9098D02*
X55481Y-9098D01*
X55284Y-9211D01*
X55481Y-9211D01*
X55284Y-9304D02*
X55481Y-9304D01*
X55481Y-9351D01*
X55471Y-9379D01*
X55453Y-9398D01*
X55434Y-9408D01*
X55396Y-9417D01*
X55368Y-9417D01*
X55331Y-9408D01*
X55312Y-9398D01*
X55293Y-9379D01*
X55284Y-9351D01*
X55284Y-9304D01*
X55218Y-9548D02*
X55500Y-9548D01*
X55359Y-9689D02*
X55359Y-9839D01*
X55359Y-9932D02*
X55359Y-10082D01*
X55166Y-7472D02*
X55166Y-7594D01*
X55091Y-7528D01*
X55091Y-7556D01*
X55082Y-7575D01*
X55072Y-7584D01*
X55053Y-7594D01*
X55007Y-7594D01*
X54988Y-7584D01*
X54978Y-7575D01*
X54969Y-7556D01*
X54969Y-7500D01*
X54978Y-7481D01*
X54988Y-7472D01*
X55166Y-7650D02*
X54969Y-7716D01*
X55166Y-7781D01*
X55166Y-7828D02*
X55166Y-7950D01*
X55091Y-7884D01*
X55091Y-7912D01*
X55082Y-7931D01*
X55072Y-7941D01*
X55053Y-7950D01*
X55007Y-7950D01*
X54988Y-7941D01*
X54978Y-7931D01*
X54969Y-7912D01*
X54969Y-7856D01*
X54978Y-7837D01*
X54988Y-7828D01*
X54903Y-8081D02*
X55185Y-8081D01*
X54978Y-8212D02*
X54969Y-8241D01*
X54969Y-8287D01*
X54978Y-8306D01*
X54988Y-8315D01*
X55007Y-8325D01*
X55025Y-8325D01*
X55044Y-8315D01*
X55053Y-8306D01*
X55063Y-8287D01*
X55072Y-8250D01*
X55082Y-8231D01*
X55091Y-8222D01*
X55110Y-8212D01*
X55128Y-8212D01*
X55147Y-8222D01*
X55157Y-8231D01*
X55166Y-8250D01*
X55166Y-8297D01*
X55157Y-8325D01*
X54969Y-8409D02*
X55166Y-8409D01*
X55166Y-8456D01*
X55157Y-8484D01*
X55138Y-8503D01*
X55119Y-8512D01*
X55082Y-8522D01*
X55053Y-8522D01*
X55016Y-8512D01*
X54997Y-8503D01*
X54978Y-8484D01*
X54969Y-8456D01*
X54969Y-8409D01*
X55025Y-8597D02*
X55025Y-8690D01*
X54969Y-8578D02*
X55166Y-8644D01*
X54969Y-8709D01*
X54903Y-8822D02*
X55185Y-8822D01*
X54978Y-8953D02*
X54969Y-8981D01*
X54969Y-9028D01*
X54978Y-9047D01*
X54988Y-9056D01*
X55007Y-9065D01*
X55025Y-9065D01*
X55044Y-9056D01*
X55053Y-9047D01*
X55063Y-9028D01*
X55072Y-8990D01*
X55082Y-8972D01*
X55091Y-8962D01*
X55110Y-8953D01*
X55128Y-8953D01*
X55147Y-8962D01*
X55157Y-8972D01*
X55166Y-8990D01*
X55166Y-9037D01*
X55157Y-9065D01*
X54988Y-9262D02*
X54978Y-9253D01*
X54969Y-9225D01*
X54969Y-9206D01*
X54978Y-9178D01*
X54997Y-9159D01*
X55016Y-9150D01*
X55053Y-9140D01*
X55082Y-9140D01*
X55119Y-9150D01*
X55138Y-9159D01*
X55157Y-9178D01*
X55166Y-9206D01*
X55166Y-9225D01*
X55157Y-9253D01*
X55147Y-9262D01*
X54969Y-9440D02*
X54969Y-9347D01*
X55166Y-9347D01*
X54903Y-9553D02*
X55185Y-9553D01*
X54969Y-9693D02*
X55166Y-9693D01*
X55166Y-9825D02*
X55166Y-9862D01*
X55157Y-9881D01*
X55138Y-9900D01*
X55100Y-9909D01*
X55035Y-9909D01*
X54997Y-9900D01*
X54978Y-9881D01*
X54969Y-9862D01*
X54969Y-9825D01*
X54978Y-9806D01*
X54997Y-9787D01*
X55035Y-9778D01*
X55100Y-9778D01*
X55138Y-9787D01*
X55157Y-9806D01*
X55166Y-9825D01*
X55100Y-10078D02*
X54969Y-10078D01*
X55175Y-10031D02*
X55035Y-9984D01*
X55035Y-10106D01*
G54D12*
X57903Y-27765D02*
X56053Y-27765D01*
X56053Y-23277D02*
X57903Y-23277D01*
G54D14*
X56853Y-27559D02*
X56262Y-27559D01*
X56262Y-27334D01*
X56290Y-27277D01*
X56318Y-27249D01*
X56375Y-27221D01*
X56459Y-27221D01*
X56515Y-27249D01*
X56543Y-27277D01*
X56571Y-27334D01*
X56571Y-27559D01*
X56853Y-26968D02*
X56459Y-26968D01*
X56262Y-26968D02*
X56290Y-26996D01*
X56318Y-26968D01*
X56290Y-26940D01*
X56262Y-26968D01*
X56318Y-26968D01*
X56628Y-26687D02*
X56628Y-26237D01*
X56853Y-25956D02*
X56262Y-25956D01*
X56262Y-25731D01*
X56290Y-25674D01*
X56318Y-25646D01*
X56375Y-25618D01*
X56459Y-25618D01*
X56515Y-25646D01*
X56543Y-25674D01*
X56571Y-25731D01*
X56571Y-25956D01*
X56853Y-25281D02*
X56825Y-25337D01*
X56796Y-25365D01*
X56740Y-25393D01*
X56571Y-25393D01*
X56515Y-25365D01*
X56487Y-25337D01*
X56459Y-25281D01*
X56459Y-25196D01*
X56487Y-25140D01*
X56515Y-25112D01*
X56571Y-25084D01*
X56740Y-25084D01*
X56796Y-25112D01*
X56825Y-25140D01*
X56853Y-25196D01*
X56853Y-25281D01*
X56459Y-24887D02*
X56853Y-24775D01*
X56571Y-24662D01*
X56853Y-24550D01*
X56459Y-24437D01*
X56825Y-23987D02*
X56853Y-24043D01*
X56853Y-24156D01*
X56825Y-24212D01*
X56768Y-24240D01*
X56543Y-24240D01*
X56487Y-24212D01*
X56459Y-24156D01*
X56459Y-24043D01*
X56487Y-23987D01*
X56543Y-23959D01*
X56600Y-23959D01*
X56656Y-24240D01*
X56853Y-23706D02*
X56459Y-23706D01*
X56571Y-23706D02*
X56515Y-23678D01*
X56487Y-23650D01*
X56459Y-23593D01*
X56459Y-23537D01*
G54D12*
X57277Y-27581D02*
X57592Y-27491D01*
X57367Y-27401D01*
X57592Y-27311D01*
X57277Y-27221D01*
X57277Y-27086D02*
X57592Y-26974D01*
X57277Y-26861D02*
X57592Y-26974D01*
X57705Y-27019D01*
X57727Y-27041D01*
X57750Y-27086D01*
X57592Y-26614D02*
X57570Y-26659D01*
X57547Y-26681D01*
X57502Y-26704D01*
X57367Y-26704D01*
X57322Y-26681D01*
X57300Y-26659D01*
X57277Y-26614D01*
X57277Y-26546D01*
X57300Y-26501D01*
X57322Y-26479D01*
X57367Y-26456D01*
X57502Y-26456D01*
X57547Y-26479D01*
X57570Y-26501D01*
X57592Y-26546D01*
X57592Y-26614D01*
X57592Y-26186D02*
X57570Y-26231D01*
X57525Y-26254D01*
X57120Y-26254D01*
X57277Y-25804D02*
X57592Y-25804D01*
X57277Y-26006D02*
X57525Y-26006D01*
X57570Y-25984D01*
X57592Y-25939D01*
X57592Y-25871D01*
X57570Y-25826D01*
X57547Y-25804D01*
X57592Y-25579D02*
X57277Y-25579D01*
X57322Y-25579D02*
X57300Y-25556D01*
X57277Y-25511D01*
X57277Y-25444D01*
X57300Y-25399D01*
X57345Y-25376D01*
X57592Y-25376D01*
X57345Y-25376D02*
X57300Y-25354D01*
X57277Y-25309D01*
X57277Y-25241D01*
X57300Y-25196D01*
X57345Y-25174D01*
X57592Y-25174D01*
X57547Y-24949D02*
X57570Y-24926D01*
X57592Y-24949D01*
X57570Y-24971D01*
X57547Y-24949D01*
X57592Y-24949D01*
X57570Y-24521D02*
X57592Y-24566D01*
X57592Y-24656D01*
X57570Y-24701D01*
X57547Y-24724D01*
X57502Y-24746D01*
X57367Y-24746D01*
X57322Y-24724D01*
X57300Y-24701D01*
X57277Y-24656D01*
X57277Y-24566D01*
X57300Y-24521D01*
X57592Y-24251D02*
X57570Y-24296D01*
X57547Y-24319D01*
X57502Y-24341D01*
X57367Y-24341D01*
X57322Y-24319D01*
X57300Y-24296D01*
X57277Y-24251D01*
X57277Y-24184D01*
X57300Y-24139D01*
X57322Y-24116D01*
X57367Y-24094D01*
X57502Y-24094D01*
X57547Y-24116D01*
X57570Y-24139D01*
X57592Y-24184D01*
X57592Y-24251D01*
X57592Y-23892D02*
X57277Y-23892D01*
X57322Y-23892D02*
X57300Y-23869D01*
X57277Y-23824D01*
X57277Y-23757D01*
X57300Y-23712D01*
X57345Y-23689D01*
X57592Y-23689D01*
X57345Y-23689D02*
X57300Y-23667D01*
X57277Y-23622D01*
X57277Y-23554D01*
X57300Y-23509D01*
X57345Y-23487D01*
X57592Y-23487D01*
G54D13*
X34547Y-31003D02*
X34547Y-7381D01*
X58169Y-31003D02*
X34547Y-31003D01*
X58169Y-7381D02*
X58169Y-31003D01*
X34547Y-7381D02*
X58169Y-7381D01*
X46574Y-10905D02*
X48307Y-10905D01*
X48307Y-10905D02*
X48307Y-11929D01*
X48307Y-11929D02*
X46574Y-11929D01*
X46574Y-11929D02*
X46574Y-10905D01*
G54D15*
X43563Y-21965D02*
G75*
G03X44012Y-23365I924J-475D01*
G74*
G01*
X44012Y-21516D02*
G75*
G03X43563Y-22916I475J-924D01*
G74*
G01*
X43438Y-23240D02*
X43438Y-21390D01*
X44937Y-23366D02*
G75*
G03X45413Y-21991I-449J925D01*
G74*
G01*
X45438Y-22841D02*
G75*
G03X44913Y-21516I-924J400D01*
G74*
G01*
X45538Y-21390D02*
X44888Y-21390D01*
X43438Y-21390D02*
X44038Y-21390D01*
X43688Y-23490D02*
X44063Y-23490D01*
X45288Y-23490D02*
X44913Y-23490D01*
X45288Y-23490D02*
X45538Y-23240D01*
X45538Y-23240D02*
X45538Y-22440D01*
X43688Y-23490D02*
X43438Y-23240D01*
X45538Y-21390D02*
X45538Y-22440D01*
X40371Y-24645D02*
G75*
G03X41771Y-24195I475J924D01*
G74*
G01*
X39921Y-24195D02*
G75*
G03X41321Y-24645I924J475D01*
G74*
G01*
X41646Y-24770D02*
X39796Y-24770D01*
X41771Y-23271D02*
G75*
G03X40397Y-22795I-925J-449D01*
G74*
G01*
X41246Y-22770D02*
G75*
G03X39921Y-23295I-400J-924D01*
G74*
G01*
X39796Y-22670D02*
X39796Y-23320D01*
X39796Y-24770D02*
X39796Y-24170D01*
X41896Y-24520D02*
X41896Y-24145D01*
X41896Y-22920D02*
X41896Y-23295D01*
X41896Y-22920D02*
X41646Y-22670D01*
X41646Y-22670D02*
X40846Y-22670D01*
X41896Y-24520D02*
X41646Y-24770D01*
X39796Y-22670D02*
X40846Y-22670D01*
G54D13*
X48700Y-23405D02*
X48700Y-21673D01*
X48700Y-21673D02*
X49724Y-21673D01*
X49724Y-21673D02*
X49724Y-23405D01*
X49724Y-23405D02*
X48700Y-23405D01*
X47322Y-27342D02*
X47322Y-25610D01*
X47322Y-25610D02*
X48346Y-25610D01*
X48346Y-25610D02*
X48346Y-27342D01*
X48346Y-27342D02*
X47322Y-27342D01*
G54D15*
X44806Y-28209D02*
G75*
G03X43405Y-28658I-475J-924D01*
G74*
G01*
X45255Y-28658D02*
G75*
G03X43855Y-28209I-924J-475D01*
G74*
G01*
X43530Y-28083D02*
X45380Y-28083D01*
X43405Y-29583D02*
G75*
G03X44780Y-30059I925J449D01*
G74*
G01*
X43930Y-30083D02*
G75*
G03X45255Y-29559I400J924D01*
G74*
G01*
X45380Y-30183D02*
X45380Y-29533D01*
X45380Y-28083D02*
X45380Y-28683D01*
X43280Y-28333D02*
X43280Y-28708D01*
X43280Y-29933D02*
X43280Y-29558D01*
X43280Y-29933D02*
X43530Y-30183D01*
X43530Y-30183D02*
X44330Y-30183D01*
X43280Y-28333D02*
X43530Y-28083D01*
X45380Y-30183D02*
X44330Y-30183D01*
G54D13*
X50925Y-29586D02*
X50531Y-29980D01*
X49665Y-29586D02*
X50059Y-29980D01*
X50177Y-28366D02*
X49665Y-28877D01*
X50925Y-28877D02*
X50413Y-28366D01*
X50925Y-28877D02*
X50925Y-28937D01*
X49665Y-28877D02*
X49665Y-28937D01*
X49665Y-29586D02*
X49665Y-29527D01*
X50925Y-29586D02*
X50925Y-29527D01*
X50413Y-28366D02*
G75*
G03X50177Y-28366I-118J-118D01*
G74*
G01*
X50531Y-29980D02*
X50059Y-29980D01*
G54D15*
X45031Y-19027D02*
X45656Y-19027D01*
X45656Y-19027D02*
X45656Y-18177D01*
X45656Y-18177D02*
X45031Y-18177D01*
X44731Y-18177D02*
X44131Y-18177D01*
X44131Y-18177D02*
X44106Y-18177D01*
X44106Y-18177D02*
X44106Y-19027D01*
X44106Y-19027D02*
X44731Y-19027D01*
X44731Y-19161D02*
X44106Y-19161D01*
X44106Y-19161D02*
X44106Y-20011D01*
X44106Y-20011D02*
X44731Y-20011D01*
X45031Y-20011D02*
X45631Y-20011D01*
X45631Y-20011D02*
X45656Y-20011D01*
X45656Y-20011D02*
X45656Y-19161D01*
X45656Y-19161D02*
X45031Y-19161D01*
X42960Y-20047D02*
X42335Y-20047D01*
X42335Y-20047D02*
X42335Y-20897D01*
X42335Y-20897D02*
X42960Y-20897D01*
X43260Y-20897D02*
X43860Y-20897D01*
X43860Y-20897D02*
X43885Y-20897D01*
X43885Y-20897D02*
X43885Y-20047D01*
X43885Y-20047D02*
X43260Y-20047D01*
X49870Y-22689D02*
X49870Y-23314D01*
X49870Y-23314D02*
X50720Y-23314D01*
X50720Y-23314D02*
X50720Y-22689D01*
X50720Y-22389D02*
X50720Y-21789D01*
X50720Y-21789D02*
X50720Y-21764D01*
X50720Y-21764D02*
X49870Y-21764D01*
X49870Y-21764D02*
X49870Y-22389D01*
X52429Y-24461D02*
X52429Y-25086D01*
X52429Y-25086D02*
X53279Y-25086D01*
X53279Y-25086D02*
X53279Y-24461D01*
X53279Y-24161D02*
X53279Y-23561D01*
X53279Y-23561D02*
X53279Y-23536D01*
X53279Y-23536D02*
X52429Y-23536D01*
X52429Y-23536D02*
X52429Y-24161D01*
X49637Y-24161D02*
X49637Y-23536D01*
X49637Y-23536D02*
X48787Y-23536D01*
X48787Y-23536D02*
X48787Y-24161D01*
X48787Y-24461D02*
X48787Y-25061D01*
X48787Y-25061D02*
X48787Y-25086D01*
X48787Y-25086D02*
X49637Y-25086D01*
X49637Y-25086D02*
X49637Y-24461D01*
X50720Y-24161D02*
X50720Y-23536D01*
X50720Y-23536D02*
X49870Y-23536D01*
X49870Y-23536D02*
X49870Y-24161D01*
X49870Y-24461D02*
X49870Y-25061D01*
X49870Y-25061D02*
X49870Y-25086D01*
X49870Y-25086D02*
X50720Y-25086D01*
X50720Y-25086D02*
X50720Y-24461D01*
X46563Y-24461D02*
X46563Y-25086D01*
X46563Y-25086D02*
X47413Y-25086D01*
X47413Y-25086D02*
X47413Y-24461D01*
X47413Y-24161D02*
X47413Y-23561D01*
X47413Y-23561D02*
X47413Y-23536D01*
X47413Y-23536D02*
X46563Y-23536D01*
X46563Y-23536D02*
X46563Y-24161D01*
X45637Y-26527D02*
X45637Y-27152D01*
X45637Y-27152D02*
X46487Y-27152D01*
X46487Y-27152D02*
X46487Y-26527D01*
X46487Y-26227D02*
X46487Y-25627D01*
X46487Y-25627D02*
X46487Y-25602D01*
X46487Y-25602D02*
X45637Y-25602D01*
X45637Y-25602D02*
X45637Y-26227D01*
X45933Y-16291D02*
X45933Y-16916D01*
X45933Y-16916D02*
X46783Y-16916D01*
X46783Y-16916D02*
X46783Y-16291D01*
X46783Y-15991D02*
X46783Y-15391D01*
X46783Y-15391D02*
X46783Y-15366D01*
X46783Y-15366D02*
X45933Y-15366D01*
X45933Y-15366D02*
X45933Y-15991D01*
X43260Y-17058D02*
X43885Y-17058D01*
X43885Y-17058D02*
X43885Y-16208D01*
X43885Y-16208D02*
X43260Y-16208D01*
X42960Y-16208D02*
X42360Y-16208D01*
X42360Y-16208D02*
X42335Y-16208D01*
X42335Y-16208D02*
X42335Y-17058D01*
X42335Y-17058D02*
X42960Y-17058D01*
X51999Y-22389D02*
X51999Y-21764D01*
X51999Y-21764D02*
X51149Y-21764D01*
X51149Y-21764D02*
X51149Y-22389D01*
X51149Y-22689D02*
X51149Y-23289D01*
X51149Y-23289D02*
X51149Y-23314D01*
X51149Y-23314D02*
X51999Y-23314D01*
X51999Y-23314D02*
X51999Y-22689D01*
X48436Y-24161D02*
X48436Y-23536D01*
X48436Y-23536D02*
X47586Y-23536D01*
X47586Y-23536D02*
X47586Y-24161D01*
X47586Y-24461D02*
X47586Y-25061D01*
X47586Y-25061D02*
X47586Y-25086D01*
X47586Y-25086D02*
X48436Y-25086D01*
X48436Y-25086D02*
X48436Y-24461D01*
X41921Y-26090D02*
X41921Y-25465D01*
X41921Y-25465D02*
X41071Y-25465D01*
X41071Y-25465D02*
X41071Y-26090D01*
X41071Y-26390D02*
X41071Y-26990D01*
X41071Y-26990D02*
X41071Y-27015D01*
X41071Y-27015D02*
X41921Y-27015D01*
X41921Y-27015D02*
X41921Y-26390D01*
X53094Y-27638D02*
X53094Y-26888D01*
X53794Y-26888D02*
X53794Y-27638D01*
X53444Y-27988D02*
G75*
G03X53794Y-27638I0J350D01*
G74*
G01*
X53094Y-27638D02*
G75*
G03X53444Y-27988I350J0D01*
G74*
G01*
X53444Y-26538D02*
G75*
G03X53094Y-26888I0J-350D01*
G74*
G01*
X53794Y-26888D02*
G75*
G03X53444Y-26538I-350J0D01*
G74*
G01*
X47681Y-22914D02*
X47681Y-22164D01*
X48381Y-22164D02*
X48381Y-22914D01*
X48031Y-23264D02*
G75*
G03X48381Y-22914I0J350D01*
G74*
G01*
X47681Y-22914D02*
G75*
G03X48031Y-23264I350J0D01*
G74*
G01*
X48031Y-21814D02*
G75*
G03X47681Y-22164I0J-350D01*
G74*
G01*
X48381Y-22164D02*
G75*
G03X48031Y-21814I-350J0D01*
G74*
G01*
G54D16*
X54044Y-7747D02*
X54044Y-7797D01*
X54044Y-7797D02*
X52844Y-7797D01*
X52844Y-7797D02*
X52844Y-7747D01*
X52844Y-7747D02*
X54044Y-7747D01*
X54824Y-8542D02*
X54824Y-11302D01*
X54824Y-11302D02*
X54724Y-11302D01*
X54724Y-11302D02*
X54724Y-10122D01*
X54724Y-10122D02*
X52164Y-10122D01*
X52164Y-10122D02*
X52164Y-11302D01*
X52164Y-11302D02*
X52064Y-11302D01*
X52064Y-11302D02*
X52064Y-8542D01*
X52064Y-8542D02*
X54824Y-8542D01*
X53764Y-7752D02*
X53764Y-8242D01*
X53124Y-7752D02*
X53124Y-8242D01*
X54034Y-8542D02*
X54034Y-8242D01*
X54034Y-8242D02*
X52854Y-8242D01*
X52854Y-8242D02*
X52854Y-8542D01*
G54D15*
X43222Y-21528D02*
X43222Y-21028D01*
X43222Y-21778D02*
X43222Y-22278D01*
X43222Y-21528D02*
X42522Y-21528D01*
X42522Y-21528D02*
X42522Y-21778D01*
X42522Y-21778D02*
X43222Y-21778D01*
X43222Y-21028D02*
X41422Y-21028D01*
X41422Y-21028D02*
X41422Y-22278D01*
X41422Y-22278D02*
X43222Y-22278D01*
X47142Y-30058D02*
G75*
G03X48542Y-29609I475J924D01*
G74*
G01*
X46693Y-29609D02*
G75*
G03X48093Y-30058I924J475D01*
G74*
G01*
X48418Y-30183D02*
X46568Y-30183D01*
X48543Y-28684D02*
G75*
G03X47168Y-28208I-925J-449D01*
G74*
G01*
X48018Y-28183D02*
G75*
G03X46693Y-28708I-400J-924D01*
G74*
G01*
X46568Y-28083D02*
X46568Y-28733D01*
X46568Y-30183D02*
X46568Y-29583D01*
X48668Y-29933D02*
X48668Y-29558D01*
X48668Y-28333D02*
X48668Y-28708D01*
X48668Y-28333D02*
X48418Y-28083D01*
X48418Y-28083D02*
X47618Y-28083D01*
X48668Y-29933D02*
X48418Y-30183D01*
X46568Y-28083D02*
X47618Y-28083D01*
G54D13*
X45000Y-12637D02*
X46732Y-12637D01*
X46732Y-12637D02*
X46732Y-13661D01*
X46732Y-13661D02*
X45000Y-13661D01*
X45000Y-13661D02*
X45000Y-12637D01*
X45000Y-14153D02*
X46732Y-14153D01*
X46732Y-14153D02*
X46732Y-15177D01*
X46732Y-15177D02*
X45000Y-15177D01*
X45000Y-15177D02*
X45000Y-14153D01*
G54D15*
X42814Y-11813D02*
G75*
G03X42365Y-10413I-924J475D01*
G74*
G01*
X42365Y-12263D02*
G75*
G03X42814Y-10863I-475J924D01*
G74*
G01*
X42939Y-10538D02*
X42939Y-12388D01*
X41440Y-10413D02*
G75*
G03X40964Y-11787I449J-925D01*
G74*
G01*
X40939Y-10938D02*
G75*
G03X41464Y-12263I924J-400D01*
G74*
G01*
X40839Y-12388D02*
X41489Y-12388D01*
X42939Y-12388D02*
X42339Y-12388D01*
X42689Y-10288D02*
X42314Y-10288D01*
X41089Y-10288D02*
X41464Y-10288D01*
X41089Y-10288D02*
X40839Y-10538D01*
X40839Y-10538D02*
X40839Y-11338D01*
X42689Y-10288D02*
X42939Y-10538D01*
X40839Y-12388D02*
X40839Y-11338D01*
G54D13*
X48996Y-10511D02*
X48996Y-8779D01*
X48996Y-8779D02*
X50019Y-8779D01*
X50019Y-8779D02*
X50019Y-10511D01*
X50019Y-10511D02*
X48996Y-10511D01*
X45748Y-22913D02*
X45748Y-21181D01*
X45748Y-21181D02*
X46771Y-21181D01*
X46771Y-21181D02*
X46771Y-22913D01*
X46771Y-22913D02*
X45748Y-22913D01*
X50767Y-20295D02*
X49035Y-20295D01*
X49035Y-20295D02*
X49035Y-19271D01*
X49035Y-19271D02*
X50767Y-19271D01*
X50767Y-19271D02*
X50767Y-20295D01*
G54D15*
X52575Y-15098D02*
G75*
G03X53976Y-14648I475J924D01*
G74*
G01*
X52126Y-14648D02*
G75*
G03X53526Y-15098I924J475D01*
G74*
G01*
X53851Y-15223D02*
X52001Y-15223D01*
X53976Y-13723D02*
G75*
G03X52601Y-13247I-925J-449D01*
G74*
G01*
X53451Y-13223D02*
G75*
G03X52126Y-13747I-400J-924D01*
G74*
G01*
X52001Y-13123D02*
X52001Y-13773D01*
X52001Y-15223D02*
X52001Y-14623D01*
X54101Y-14973D02*
X54101Y-14598D01*
X54101Y-13373D02*
X54101Y-13748D01*
X54101Y-13373D02*
X53851Y-13123D01*
X53851Y-13123D02*
X53051Y-13123D01*
X54101Y-14973D02*
X53851Y-15223D01*
X52001Y-13123D02*
X53051Y-13123D01*
G54D13*
X42165Y-27106D02*
X42165Y-25374D01*
X42165Y-25374D02*
X43188Y-25374D01*
X43188Y-25374D02*
X43188Y-27106D01*
X43188Y-27106D02*
X42165Y-27106D01*
X38759Y-27086D02*
X38759Y-25354D01*
X38759Y-25354D02*
X39783Y-25354D01*
X39783Y-25354D02*
X39783Y-27086D01*
X39783Y-27086D02*
X38759Y-27086D01*
X52381Y-19271D02*
X54114Y-19271D01*
X54114Y-19271D02*
X54114Y-20295D01*
X54114Y-20295D02*
X52381Y-20295D01*
X52381Y-20295D02*
X52381Y-19271D01*
X43346Y-8897D02*
X43641Y-8897D01*
X43641Y-8720D02*
X43346Y-8720D01*
X43641Y-8897D02*
X43641Y-8720D01*
X43582Y-8720D02*
X43582Y-8897D01*
X43523Y-8897D02*
X43523Y-8720D01*
X43464Y-8720D02*
X43464Y-8897D01*
X43405Y-8720D02*
X43405Y-8897D01*
X43346Y-7657D02*
X43641Y-7657D01*
X43346Y-7480D02*
X43641Y-7480D01*
X43641Y-7480D02*
X43641Y-7657D01*
X43582Y-7657D02*
X43582Y-7480D01*
X43523Y-7480D02*
X43523Y-7657D01*
X43464Y-7657D02*
X43464Y-7480D01*
X43405Y-7480D02*
X43405Y-7657D01*
X41614Y-8897D02*
X41614Y-8720D01*
X43346Y-8897D02*
X43346Y-8720D01*
X43346Y-7480D02*
X43346Y-7657D01*
X41614Y-7480D02*
X41614Y-7657D01*
X41614Y-8897D02*
X43346Y-8897D01*
X41614Y-7480D02*
X43346Y-7480D01*
G54D15*
X42680Y-8188D02*
X42280Y-7888D01*
X42280Y-7888D02*
X42280Y-8488D01*
X42280Y-8488D02*
X42680Y-8188D01*
X42680Y-8188D02*
X42680Y-7888D01*
X42680Y-8488D02*
X42680Y-8188D01*
G54D13*
X40132Y-13056D02*
X40132Y-12800D01*
X40132Y-12800D02*
X41077Y-12800D01*
X41077Y-12800D02*
X41077Y-13056D01*
X40132Y-14749D02*
X40132Y-15005D01*
X40132Y-15005D02*
X41077Y-15005D01*
X41077Y-15005D02*
X41077Y-14749D01*
X41313Y-13903D02*
X41313Y-14749D01*
X41313Y-14749D02*
X41077Y-14749D01*
X41313Y-13903D02*
X41313Y-13056D01*
X41313Y-13056D02*
X41077Y-13056D01*
X39896Y-13903D02*
X39896Y-13056D01*
X39896Y-13056D02*
X40132Y-13056D01*
X39896Y-13903D02*
X39896Y-14749D01*
X39896Y-14749D02*
X40132Y-14749D01*
G54D15*
X40604Y-13703D02*
X40304Y-14103D01*
X40304Y-14103D02*
X40904Y-14103D01*
X40904Y-14103D02*
X40604Y-13703D01*
X40604Y-13703D02*
X40304Y-13703D01*
X40304Y-13703D02*
X40604Y-14103D01*
X40604Y-14103D02*
X40904Y-13703D01*
X40904Y-13703D02*
X40604Y-13703D01*
G54D13*
X43129Y-19645D02*
X43129Y-19527D01*
X43070Y-19685D02*
X43070Y-19488D01*
X43011Y-19724D02*
X43011Y-19468D01*
X43267Y-19783D02*
X43267Y-19389D01*
X43208Y-19586D02*
X42952Y-19783D01*
X42952Y-19783D02*
X42952Y-19389D01*
X42952Y-19389D02*
X43208Y-19586D01*
X43720Y-19940D02*
G75*
G03X43720Y-19940I-39J0D01*
G74*
G01*
X43562Y-19291D02*
X42657Y-19291D01*
X43562Y-19881D02*
X42657Y-19881D01*
X43090Y-18543D02*
X43090Y-18661D01*
X43149Y-18503D02*
X43149Y-18700D01*
X43208Y-18464D02*
X43208Y-18720D01*
X42952Y-18405D02*
X42952Y-18799D01*
X43011Y-18602D02*
X43267Y-18405D01*
X43267Y-18405D02*
X43267Y-18799D01*
X43267Y-18799D02*
X43011Y-18602D01*
X42578Y-18248D02*
G75*
G03X42578Y-18248I-39J0D01*
G74*
G01*
X42657Y-18897D02*
X43562Y-18897D01*
X42657Y-18307D02*
X43562Y-18307D01*
X52874Y-26496D02*
X52874Y-26200D01*
X52696Y-26200D02*
X52696Y-26496D01*
X52874Y-26200D02*
X52696Y-26200D01*
X52696Y-26259D02*
X52874Y-26259D01*
X52874Y-26318D02*
X52696Y-26318D01*
X52696Y-26377D02*
X52874Y-26377D01*
X52696Y-26437D02*
X52874Y-26437D01*
X51633Y-26496D02*
X51633Y-26200D01*
X51456Y-26496D02*
X51456Y-26200D01*
X51456Y-26200D02*
X51633Y-26200D01*
X51633Y-26259D02*
X51456Y-26259D01*
X51456Y-26318D02*
X51633Y-26318D01*
X51633Y-26377D02*
X51456Y-26377D01*
X51456Y-26437D02*
X51633Y-26437D01*
X52874Y-28228D02*
X52696Y-28228D01*
X52874Y-26496D02*
X52696Y-26496D01*
X51456Y-26496D02*
X51633Y-26496D01*
X51456Y-28228D02*
X51633Y-28228D01*
X52874Y-28228D02*
X52874Y-26496D01*
X51456Y-28228D02*
X51456Y-26496D01*
G54D15*
X52165Y-27162D02*
X51865Y-27562D01*
X51865Y-27562D02*
X52465Y-27562D01*
X52465Y-27562D02*
X52165Y-27162D01*
X52165Y-27162D02*
X51865Y-27162D01*
X52465Y-27162D02*
X52165Y-27162D01*
G54D13*
X46122Y-24094D02*
X46003Y-24094D01*
X46161Y-24153D02*
X45964Y-24153D01*
X46200Y-24212D02*
X45944Y-24212D01*
X46259Y-23956D02*
X45866Y-23956D01*
X46062Y-24015D02*
X46259Y-24271D01*
X46259Y-24271D02*
X45866Y-24271D01*
X45866Y-24271D02*
X46062Y-24015D01*
X46456Y-23543D02*
G75*
G03X46456Y-23543I-39J0D01*
G74*
G01*
X45767Y-23661D02*
X45767Y-24566D01*
X46358Y-23661D02*
X46358Y-24566D01*
X43090Y-17559D02*
X43090Y-17677D01*
X43149Y-17519D02*
X43149Y-17716D01*
X43208Y-17480D02*
X43208Y-17736D01*
X42952Y-17421D02*
X42952Y-17814D01*
X43011Y-17618D02*
X43267Y-17421D01*
X43267Y-17421D02*
X43267Y-17814D01*
X43267Y-17814D02*
X43011Y-17618D01*
X42578Y-17263D02*
G75*
G03X42578Y-17263I-39J0D01*
G74*
G01*
X42657Y-17913D02*
X43562Y-17913D01*
X42657Y-17322D02*
X43562Y-17322D01*
X53818Y-19015D02*
X54114Y-19015D01*
X54114Y-18838D02*
X53818Y-18838D01*
X54114Y-19015D02*
X54114Y-18838D01*
X54055Y-18838D02*
X54055Y-19015D01*
X53996Y-19015D02*
X53996Y-18838D01*
X53937Y-18838D02*
X53937Y-19015D01*
X53877Y-18838D02*
X53877Y-19015D01*
X53818Y-17775D02*
X54114Y-17775D01*
X53818Y-17598D02*
X54114Y-17598D01*
X54114Y-17598D02*
X54114Y-17775D01*
X54055Y-17775D02*
X54055Y-17598D01*
X53996Y-17598D02*
X53996Y-17775D01*
X53937Y-17775D02*
X53937Y-17598D01*
X53877Y-17598D02*
X53877Y-17775D01*
X52086Y-19015D02*
X52086Y-18838D01*
X53818Y-19015D02*
X53818Y-18838D01*
X53818Y-17598D02*
X53818Y-17775D01*
X52086Y-17598D02*
X52086Y-17775D01*
X52086Y-19015D02*
X53818Y-19015D01*
X52086Y-17598D02*
X53818Y-17598D01*
G54D15*
X53152Y-18307D02*
X52752Y-18007D01*
X52752Y-18007D02*
X52752Y-18607D01*
X52752Y-18607D02*
X53152Y-18307D01*
X53152Y-18307D02*
X53152Y-18007D01*
X53152Y-18607D02*
X53152Y-18307D01*
G54D13*
X37250Y-14483D02*
X37250Y-13223D01*
X37959Y-13223D02*
X37959Y-14483D01*
G54D15*
X37904Y-14153D02*
X37604Y-13553D01*
X37604Y-13553D02*
X37304Y-14153D01*
X37604Y-14153D02*
X37304Y-13553D01*
X37604Y-14153D02*
X37904Y-13553D01*
X34692Y-25667D02*
X38217Y-25667D01*
X34692Y-23917D02*
X34692Y-22167D01*
X34692Y-22167D02*
X38217Y-22167D01*
X38217Y-22167D02*
X38217Y-22542D01*
X38217Y-22542D02*
X36867Y-22542D01*
X36867Y-22542D02*
X36867Y-25292D01*
X36867Y-25292D02*
X38217Y-25292D01*
X38217Y-25292D02*
X38217Y-25667D01*
X34692Y-25667D02*
X34692Y-23917D01*
X51007Y-18194D02*
X51007Y-18694D01*
X48007Y-18194D02*
X48007Y-18694D01*
X48757Y-18944D02*
X48257Y-18944D01*
X49757Y-18944D02*
X49257Y-18944D01*
X50757Y-18944D02*
X50257Y-18944D01*
X50257Y-17944D02*
X50757Y-17944D01*
X49257Y-17944D02*
X49757Y-17944D01*
X48257Y-17944D02*
X48757Y-17944D01*
X50757Y-17944D02*
X51007Y-18194D01*
X49757Y-17944D02*
X50007Y-18194D01*
X50007Y-18194D02*
X50257Y-17944D01*
X48757Y-17944D02*
X49007Y-18194D01*
X49007Y-18194D02*
X49257Y-17944D01*
X48007Y-18194D02*
X48257Y-17944D01*
X48257Y-18944D02*
X48007Y-18694D01*
X49257Y-18944D02*
X49007Y-18694D01*
X49007Y-18694D02*
X48757Y-18944D01*
X50257Y-18944D02*
X50007Y-18694D01*
X50007Y-18694D02*
X49757Y-18944D01*
X51007Y-18694D02*
X50757Y-18944D01*
X50537Y-8645D02*
X51037Y-8645D01*
X50537Y-10645D02*
X51037Y-10645D01*
X51287Y-9895D02*
X51287Y-10395D01*
X51287Y-8895D02*
X51287Y-9395D01*
X50287Y-9395D02*
X50287Y-8895D01*
X50287Y-10395D02*
X50287Y-9895D01*
X50287Y-8895D02*
X50537Y-8645D01*
X50287Y-9895D02*
X50537Y-9645D01*
X50537Y-9645D02*
X50287Y-9395D01*
X50537Y-10645D02*
X50287Y-10395D01*
X51287Y-10395D02*
X51037Y-10645D01*
X51287Y-9395D02*
X51037Y-9645D01*
X51037Y-9645D02*
X51287Y-9895D01*
X51037Y-8645D02*
X51287Y-8895D01*
X42269Y-12937D02*
X42769Y-12937D01*
X42269Y-14937D02*
X42769Y-14937D01*
X43019Y-14187D02*
X43019Y-14687D01*
X43019Y-13187D02*
X43019Y-13687D01*
X42019Y-13687D02*
X42019Y-13187D01*
X42019Y-14687D02*
X42019Y-14187D01*
X42019Y-13187D02*
X42269Y-12937D01*
X42019Y-14187D02*
X42269Y-13937D01*
X42269Y-13937D02*
X42019Y-13687D01*
X42269Y-14937D02*
X42019Y-14687D01*
X43019Y-14687D02*
X42769Y-14937D01*
X43019Y-13687D02*
X42769Y-13937D01*
X42769Y-13937D02*
X43019Y-14187D01*
X42769Y-12937D02*
X43019Y-13187D01*
X44238Y-25377D02*
X44738Y-25377D01*
X44238Y-27377D02*
X44738Y-27377D01*
X44988Y-26627D02*
X44988Y-27127D01*
X44988Y-25627D02*
X44988Y-26127D01*
X43988Y-26127D02*
X43988Y-25627D01*
X43988Y-27127D02*
X43988Y-26627D01*
X43988Y-25627D02*
X44238Y-25377D01*
X43988Y-26627D02*
X44238Y-26377D01*
X44238Y-26377D02*
X43988Y-26127D01*
X44238Y-27377D02*
X43988Y-27127D01*
X44988Y-27127D02*
X44738Y-27377D01*
X44988Y-26127D02*
X44738Y-26377D01*
X44738Y-26377D02*
X44988Y-26627D01*
X44738Y-25377D02*
X44988Y-25627D01*
X54179Y-25377D02*
X54679Y-25377D01*
X54179Y-27377D02*
X54679Y-27377D01*
X54929Y-26627D02*
X54929Y-27127D01*
X54929Y-25627D02*
X54929Y-26127D01*
X53929Y-26127D02*
X53929Y-25627D01*
X53929Y-27127D02*
X53929Y-26627D01*
X53929Y-25627D02*
X54179Y-25377D01*
X53929Y-26627D02*
X54179Y-26377D01*
X54179Y-26377D02*
X53929Y-26127D01*
X54179Y-27377D02*
X53929Y-27127D01*
X54929Y-27127D02*
X54679Y-27377D01*
X54929Y-26127D02*
X54679Y-26377D01*
X54679Y-26377D02*
X54929Y-26627D01*
X54679Y-25377D02*
X54929Y-25627D01*
X47368Y-12937D02*
X47868Y-12937D01*
X47368Y-14937D02*
X47868Y-14937D01*
X48118Y-14187D02*
X48118Y-14687D01*
X48118Y-13187D02*
X48118Y-13687D01*
X47118Y-13687D02*
X47118Y-13187D01*
X47118Y-14687D02*
X47118Y-14187D01*
X47118Y-13187D02*
X47368Y-12937D01*
X47118Y-14187D02*
X47368Y-13937D01*
X47368Y-13937D02*
X47118Y-13687D01*
X47368Y-14937D02*
X47118Y-14687D01*
X48118Y-14687D02*
X47868Y-14937D01*
X48118Y-13687D02*
X47868Y-13937D01*
X47868Y-13937D02*
X48118Y-14187D01*
X47868Y-12937D02*
X48118Y-13187D01*
G54D17*
X55584Y-7771D02*
X55584Y-20771D01*
X57584Y-20771D02*
X57584Y-7771D01*
X57584Y-7771D02*
X55584Y-7771D01*
X55584Y-20771D02*
X57584Y-20771D01*
G54D18*
X36195Y-10951D02*
X37965Y-10951D01*
X34695Y-10951D02*
X36195Y-10951D01*
X39995Y-10781D02*
X39995Y-10261D01*
X39995Y-7551D02*
X39995Y-8241D01*
X34995Y-7551D02*
X34695Y-7551D01*
X34695Y-7551D02*
X34695Y-10951D01*
X34995Y-7551D02*
X39995Y-7551D01*
G54D15*
X48828Y-15071D02*
X48753Y-14996D01*
X48853Y-14121D02*
X48853Y-14421D01*
X48803Y-14121D02*
X48803Y-14421D01*
X48753Y-14121D02*
X48903Y-14121D01*
X48903Y-14121D02*
X48903Y-14421D01*
X48903Y-14421D02*
X48753Y-14421D01*
X50778Y-15071D02*
X50853Y-15071D01*
X50853Y-15071D02*
X50853Y-13471D01*
X50853Y-13471D02*
X50778Y-13471D01*
X48828Y-13471D02*
X48753Y-13471D01*
X48753Y-13471D02*
X48753Y-15071D01*
X48753Y-15071D02*
X48828Y-15071D01*
X40897Y-26070D02*
X40897Y-25445D01*
X40897Y-25445D02*
X40047Y-25445D01*
X40047Y-25445D02*
X40047Y-26070D01*
X40047Y-26370D02*
X40047Y-26970D01*
X40047Y-26970D02*
X40047Y-26995D01*
X40047Y-26995D02*
X40897Y-26995D01*
X40897Y-26995D02*
X40897Y-26370D01*
X41267Y-30090D02*
X41267Y-30715D01*
X41267Y-30715D02*
X42117Y-30715D01*
X42117Y-30715D02*
X42117Y-30090D01*
X42117Y-29790D02*
X42117Y-29190D01*
X42117Y-29190D02*
X42117Y-29165D01*
X42117Y-29165D02*
X41267Y-29165D01*
X41267Y-29165D02*
X41267Y-29790D01*
X40244Y-30090D02*
X40244Y-30715D01*
X40244Y-30715D02*
X41094Y-30715D01*
X41094Y-30715D02*
X41094Y-30090D01*
X41094Y-29790D02*
X41094Y-29190D01*
X41094Y-29190D02*
X41094Y-29165D01*
X41094Y-29165D02*
X40244Y-29165D01*
X40244Y-29165D02*
X40244Y-29790D01*
X53196Y-20539D02*
X52571Y-20539D01*
X52571Y-20539D02*
X52571Y-21389D01*
X52571Y-21389D02*
X53196Y-21389D01*
X53496Y-21389D02*
X54096Y-21389D01*
X54096Y-21389D02*
X54121Y-21389D01*
X54121Y-21389D02*
X54121Y-20539D01*
X54121Y-20539D02*
X53496Y-20539D01*
X51877Y-16504D02*
X51252Y-16504D01*
X51252Y-16504D02*
X51252Y-17354D01*
X51252Y-17354D02*
X51877Y-17354D01*
X52177Y-17354D02*
X52777Y-17354D01*
X52777Y-17354D02*
X52802Y-17354D01*
X52802Y-17354D02*
X52802Y-16504D01*
X52802Y-16504D02*
X52177Y-16504D01*
X53890Y-16271D02*
X54515Y-16271D01*
X54515Y-16271D02*
X54515Y-15421D01*
X54515Y-15421D02*
X53890Y-15421D01*
X53590Y-15421D02*
X52990Y-15421D01*
X52990Y-15421D02*
X52965Y-15421D01*
X52965Y-15421D02*
X52965Y-16271D01*
X52965Y-16271D02*
X53590Y-16271D01*
X53590Y-16504D02*
X52965Y-16504D01*
X52965Y-16504D02*
X52965Y-17354D01*
X52965Y-17354D02*
X53590Y-17354D01*
X53890Y-17354D02*
X54490Y-17354D01*
X54490Y-17354D02*
X54515Y-17354D01*
X54515Y-17354D02*
X54515Y-16504D01*
X54515Y-16504D02*
X53890Y-16504D01*
X52177Y-16271D02*
X52802Y-16271D01*
X52802Y-16271D02*
X52802Y-15421D01*
X52802Y-15421D02*
X52177Y-15421D01*
X51877Y-15421D02*
X51277Y-15421D01*
X51277Y-15421D02*
X51252Y-15421D01*
X51252Y-15421D02*
X51252Y-16271D01*
X51252Y-16271D02*
X51877Y-16271D01*
X47126Y-18558D02*
X46376Y-18558D01*
X46376Y-17858D02*
X47126Y-17858D01*
X47476Y-18208D02*
G75*
G03X47126Y-17858I-350J0D01*
G74*
G01*
X47126Y-18558D02*
G75*
G03X47476Y-18208I0J350D01*
G74*
G01*
X46026Y-18208D02*
G75*
G03X46376Y-18558I350J0D01*
G74*
G01*
X46376Y-17858D02*
G75*
G03X46026Y-18208I0J-350D01*
G74*
G01*
X47126Y-17771D02*
X46376Y-17771D01*
X46376Y-17071D02*
X47126Y-17071D01*
X47476Y-17421D02*
G75*
G03X47126Y-17071I-350J0D01*
G74*
G01*
X47126Y-17771D02*
G75*
G03X47476Y-17421I0J350D01*
G74*
G01*
X46026Y-17421D02*
G75*
G03X46376Y-17771I350J0D01*
G74*
G01*
X46376Y-17071D02*
G75*
G03X46026Y-17421I0J-350D01*
G74*
G01*
X36700Y-13799D02*
X36700Y-15224D01*
X36700Y-15224D02*
X36525Y-15224D01*
X36700Y-12374D02*
X36525Y-12374D01*
X36700Y-13799D02*
X36700Y-12374D01*
X36525Y-12374D02*
X36525Y-12099D01*
X36525Y-12099D02*
X34550Y-12099D01*
X34550Y-12099D02*
X34550Y-13799D01*
X34550Y-13799D02*
X34550Y-15499D01*
X34550Y-15499D02*
X36525Y-15499D01*
X36525Y-15499D02*
X36525Y-15224D01*
X34775Y-14824D02*
X34625Y-14824D01*
X34775Y-12774D02*
X34625Y-12774D01*
X34775Y-12774D02*
X34775Y-12699D01*
X34775Y-12699D02*
X34625Y-12774D01*
X34625Y-12774D02*
X34775Y-12849D01*
X34775Y-12849D02*
X34775Y-12774D01*
X34775Y-14749D02*
X34775Y-14899D01*
X34775Y-14899D02*
X34625Y-14824D01*
X34625Y-14824D02*
X34775Y-14749D01*
G54D13*
X48976Y-26791D02*
X48976Y-26476D01*
X49094Y-26909D02*
X48976Y-26791D01*
X50236Y-25649D02*
X50236Y-26082D01*
X50236Y-25649D02*
X50118Y-25649D01*
X50236Y-26909D02*
X50236Y-26476D01*
X50236Y-26909D02*
X50118Y-26909D01*
X48976Y-25649D02*
X48976Y-26082D01*
X48976Y-25649D02*
X49094Y-25649D01*
G54D16*
X40213Y-21847D02*
X34663Y-21847D01*
X34663Y-15947D02*
X40213Y-15947D01*
X40213Y-21847D02*
X40213Y-15947D01*
X34663Y-21847D02*
X34663Y-15947D01*
G54D13*
X45610Y-16771D02*
X45610Y-15511D01*
X44350Y-16653D02*
X44350Y-15511D01*
X44350Y-16653D02*
X44468Y-16771D01*
X45610Y-15511D02*
X45492Y-15511D01*
X45610Y-16771D02*
X45492Y-16771D01*
X44350Y-15511D02*
X44468Y-15511D01*
X41516Y-27531D02*
G75*
G03X41516Y-27531I-39J0D01*
G74*
G01*
X41497Y-27531D02*
G75*
G03X41497Y-27531I-19J0D01*
G74*
G01*
X41418Y-27531D02*
X41418Y-28752D01*
X41379Y-27492D02*
X41418Y-27531D01*
X40591Y-27492D02*
X40552Y-27492D01*
X40552Y-27492D02*
X40552Y-28752D01*
X40552Y-28752D02*
X40591Y-28752D01*
X41418Y-28752D02*
X41379Y-28752D01*
X51574Y-23976D02*
X51181Y-23976D01*
X51181Y-23976D02*
X51181Y-24645D01*
X51181Y-24645D02*
X51397Y-24645D01*
X51397Y-24645D02*
X51397Y-24842D01*
X51397Y-24842D02*
X51574Y-24842D01*
X51574Y-24842D02*
X51751Y-24842D01*
X51751Y-24842D02*
X51751Y-24645D01*
X51751Y-24645D02*
X51968Y-24645D01*
X51968Y-24645D02*
X51968Y-23976D01*
X51968Y-23976D02*
X51574Y-23976D01*
G54D15*
X38687Y-12937D02*
X39187Y-12937D01*
X38687Y-14937D02*
X39187Y-14937D01*
X39437Y-14187D02*
X39437Y-14687D01*
X39437Y-13187D02*
X39437Y-13687D01*
X38437Y-13687D02*
X38437Y-13187D01*
X38437Y-14687D02*
X38437Y-14187D01*
X38437Y-13187D02*
X38687Y-12937D01*
X38437Y-14187D02*
X38687Y-13937D01*
X38687Y-13937D02*
X38437Y-13687D01*
X38687Y-14937D02*
X38437Y-14687D01*
X39437Y-14687D02*
X39187Y-14937D01*
X39437Y-13687D02*
X39187Y-13937D01*
X39187Y-13937D02*
X39437Y-14187D01*
X39187Y-12937D02*
X39437Y-13187D01*
G54D13*
X56584Y-21021D02*
X56584Y-22521D01*
X57584Y-22521D02*
X57584Y-21021D01*
X55584Y-21021D02*
X55584Y-22521D01*
G54D15*
X56334Y-22771D02*
X55834Y-22771D01*
X57334Y-22771D02*
X56834Y-22771D01*
X56834Y-20771D02*
X57334Y-20771D01*
X55834Y-20771D02*
X56334Y-20771D01*
X57334Y-20771D02*
X57584Y-21021D01*
X56334Y-20771D02*
X56584Y-21021D01*
X56584Y-21021D02*
X56834Y-20771D01*
X55584Y-21021D02*
X55834Y-20771D01*
X55834Y-22771D02*
X55584Y-22521D01*
X56834Y-22771D02*
X56584Y-22521D01*
X56584Y-22521D02*
X56334Y-22771D01*
X57584Y-22521D02*
X57334Y-22771D01*
G54D16*
X47350Y-8100D02*
X47350Y-8300D01*
X47300Y-8300D02*
X47400Y-8300D01*
X47400Y-8300D02*
X47400Y-8100D01*
X47400Y-8100D02*
X47300Y-8100D01*
X47350Y-9900D02*
X47350Y-10100D01*
X47300Y-10100D02*
X47400Y-10100D01*
X47400Y-10100D02*
X47400Y-9900D01*
X47400Y-9900D02*
X47300Y-9900D01*
X47350Y-9000D02*
X47350Y-9200D01*
X47300Y-9200D02*
X47400Y-9200D01*
X47400Y-9200D02*
X47400Y-9000D01*
X47400Y-9000D02*
X47300Y-9000D01*
X45850Y-8350D02*
X45850Y-9850D01*
X45900Y-9850D02*
X45800Y-9850D01*
X45800Y-9850D02*
X45800Y-8350D01*
X45800Y-8350D02*
X45900Y-8350D01*
X45900Y-10400D02*
X45900Y-7800D01*
X45900Y-7800D02*
X47300Y-7800D01*
X47300Y-7800D02*
X47300Y-10400D01*
X47300Y-10400D02*
X45900Y-10400D01*
G54D13*
X46358Y-18992D02*
X46358Y-19392D01*
X46158Y-19192D02*
X46558Y-19192D01*
G54D11*
X46108Y-11514D02*
X46093Y-11529D01*
X46048Y-11544D01*
X46018Y-11544D01*
X45973Y-11529D01*
X45943Y-11499D01*
X45928Y-11469D01*
X45913Y-11409D01*
X45913Y-11364D01*
X45928Y-11304D01*
X45943Y-11274D01*
X45973Y-11244D01*
X46018Y-11229D01*
X46048Y-11229D01*
X46093Y-11244D01*
X46108Y-11259D01*
X46408Y-11544D02*
X46228Y-11544D01*
X46318Y-11544D02*
X46318Y-11229D01*
X46288Y-11274D01*
X46258Y-11304D01*
X46228Y-11319D01*
X43727Y-23877D02*
X43712Y-23892D01*
X43667Y-23907D01*
X43637Y-23907D01*
X43592Y-23892D01*
X43562Y-23862D01*
X43547Y-23832D01*
X43532Y-23772D01*
X43532Y-23727D01*
X43547Y-23667D01*
X43562Y-23637D01*
X43592Y-23607D01*
X43637Y-23592D01*
X43667Y-23592D01*
X43712Y-23607D01*
X43727Y-23622D01*
X44011Y-23592D02*
X43862Y-23592D01*
X43847Y-23742D01*
X43862Y-23727D01*
X43892Y-23712D01*
X43967Y-23712D01*
X43997Y-23727D01*
X44011Y-23742D01*
X44026Y-23772D01*
X44026Y-23847D01*
X44011Y-23877D01*
X43997Y-23892D01*
X43967Y-23907D01*
X43892Y-23907D01*
X43862Y-23892D01*
X43847Y-23877D01*
X44285Y-22568D02*
X44105Y-22568D01*
X44195Y-22568D02*
X44195Y-22253D01*
X44165Y-22298D01*
X44135Y-22328D01*
X44105Y-22343D01*
X44480Y-22253D02*
X44510Y-22253D01*
X44540Y-22268D01*
X44555Y-22283D01*
X44570Y-22313D01*
X44585Y-22373D01*
X44585Y-22448D01*
X44570Y-22508D01*
X44555Y-22538D01*
X44540Y-22553D01*
X44510Y-22568D01*
X44480Y-22568D01*
X44450Y-22553D01*
X44435Y-22538D01*
X44420Y-22508D01*
X44405Y-22448D01*
X44405Y-22373D01*
X44420Y-22313D01*
X44435Y-22283D01*
X44450Y-22268D01*
X44480Y-22253D01*
X44855Y-22358D02*
X44855Y-22568D01*
X44720Y-22358D02*
X44720Y-22523D01*
X44735Y-22553D01*
X44765Y-22568D01*
X44810Y-22568D01*
X44840Y-22553D01*
X44855Y-22538D01*
X44998Y-23998D02*
X44923Y-23998D01*
X44923Y-23548D01*
X44998Y-23548D01*
X45118Y-23773D02*
X45358Y-23773D01*
X45238Y-23893D02*
X45238Y-23653D01*
X45478Y-23998D02*
X45553Y-23998D01*
X45553Y-23548D01*
X45478Y-23548D01*
X42230Y-24506D02*
X42215Y-24521D01*
X42170Y-24536D01*
X42140Y-24536D01*
X42095Y-24521D01*
X42065Y-24491D01*
X42050Y-24461D01*
X42035Y-24401D01*
X42035Y-24356D01*
X42050Y-24296D01*
X42065Y-24266D01*
X42095Y-24236D01*
X42140Y-24221D01*
X42170Y-24221D01*
X42215Y-24236D01*
X42230Y-24251D01*
X42500Y-24221D02*
X42440Y-24221D01*
X42410Y-24236D01*
X42395Y-24251D01*
X42365Y-24296D01*
X42350Y-24356D01*
X42350Y-24476D01*
X42365Y-24506D01*
X42380Y-24521D01*
X42410Y-24536D01*
X42470Y-24536D01*
X42500Y-24521D01*
X42515Y-24506D01*
X42530Y-24476D01*
X42530Y-24401D01*
X42515Y-24371D01*
X42500Y-24356D01*
X42470Y-24341D01*
X42410Y-24341D01*
X42380Y-24356D01*
X42365Y-24371D01*
X42350Y-24401D01*
X40973Y-23922D02*
X40973Y-24102D01*
X40973Y-24012D02*
X40658Y-24012D01*
X40703Y-24042D01*
X40733Y-24072D01*
X40748Y-24102D01*
X40658Y-23727D02*
X40658Y-23697D01*
X40673Y-23667D01*
X40688Y-23652D01*
X40718Y-23637D01*
X40778Y-23622D01*
X40853Y-23622D01*
X40913Y-23637D01*
X40943Y-23652D01*
X40958Y-23667D01*
X40973Y-23697D01*
X40973Y-23727D01*
X40958Y-23757D01*
X40943Y-23772D01*
X40913Y-23787D01*
X40853Y-23802D01*
X40778Y-23802D01*
X40718Y-23787D01*
X40688Y-23772D01*
X40673Y-23757D01*
X40658Y-23727D01*
X40763Y-23353D02*
X40973Y-23353D01*
X40763Y-23488D02*
X40928Y-23488D01*
X40958Y-23473D01*
X40973Y-23443D01*
X40973Y-23398D01*
X40958Y-23368D01*
X40943Y-23353D01*
X42403Y-23210D02*
X42403Y-23285D01*
X41953Y-23285D01*
X41953Y-23210D01*
X42178Y-23090D02*
X42178Y-22850D01*
X42298Y-22970D02*
X42058Y-22970D01*
X42403Y-22730D02*
X42403Y-22655D01*
X41953Y-22655D01*
X41953Y-22730D01*
X49160Y-21475D02*
X49145Y-21490D01*
X49100Y-21505D01*
X49070Y-21505D01*
X49025Y-21490D01*
X48995Y-21460D01*
X48980Y-21430D01*
X48965Y-21370D01*
X48965Y-21325D01*
X48980Y-21265D01*
X48995Y-21235D01*
X49025Y-21205D01*
X49070Y-21190D01*
X49100Y-21190D01*
X49145Y-21205D01*
X49160Y-21220D01*
X49265Y-21190D02*
X49475Y-21190D01*
X49340Y-21505D01*
X47772Y-27747D02*
X47757Y-27762D01*
X47712Y-27777D01*
X47682Y-27777D01*
X47637Y-27762D01*
X47607Y-27732D01*
X47592Y-27702D01*
X47577Y-27642D01*
X47577Y-27597D01*
X47592Y-27537D01*
X47607Y-27507D01*
X47637Y-27477D01*
X47682Y-27462D01*
X47712Y-27462D01*
X47757Y-27477D01*
X47772Y-27492D01*
X47952Y-27597D02*
X47922Y-27582D01*
X47907Y-27567D01*
X47892Y-27537D01*
X47892Y-27522D01*
X47907Y-27492D01*
X47922Y-27477D01*
X47952Y-27462D01*
X48012Y-27462D01*
X48042Y-27477D01*
X48057Y-27492D01*
X48072Y-27522D01*
X48072Y-27537D01*
X48057Y-27567D01*
X48042Y-27582D01*
X48012Y-27597D01*
X47952Y-27597D01*
X47922Y-27612D01*
X47907Y-27627D01*
X47892Y-27657D01*
X47892Y-27717D01*
X47907Y-27747D01*
X47922Y-27762D01*
X47952Y-27777D01*
X48012Y-27777D01*
X48042Y-27762D01*
X48057Y-27747D01*
X48072Y-27717D01*
X48072Y-27657D01*
X48057Y-27627D01*
X48042Y-27612D01*
X48012Y-27597D01*
X42847Y-28597D02*
X42832Y-28612D01*
X42787Y-28627D01*
X42757Y-28627D01*
X42712Y-28612D01*
X42682Y-28582D01*
X42667Y-28552D01*
X42652Y-28492D01*
X42652Y-28447D01*
X42667Y-28387D01*
X42682Y-28357D01*
X42712Y-28327D01*
X42757Y-28312D01*
X42787Y-28312D01*
X42832Y-28327D01*
X42847Y-28342D01*
X42997Y-28627D02*
X43057Y-28627D01*
X43087Y-28612D01*
X43102Y-28597D01*
X43132Y-28552D01*
X43147Y-28492D01*
X43147Y-28372D01*
X43132Y-28342D01*
X43117Y-28327D01*
X43087Y-28312D01*
X43027Y-28312D01*
X42997Y-28327D01*
X42982Y-28342D01*
X42967Y-28372D01*
X42967Y-28447D01*
X42982Y-28477D01*
X42997Y-28492D01*
X43027Y-28507D01*
X43087Y-28507D01*
X43117Y-28492D01*
X43132Y-28477D01*
X43147Y-28447D01*
X44458Y-29471D02*
X44458Y-29651D01*
X44458Y-29561D02*
X44143Y-29561D01*
X44188Y-29591D01*
X44218Y-29621D01*
X44233Y-29651D01*
X44143Y-29276D02*
X44143Y-29246D01*
X44158Y-29216D01*
X44173Y-29201D01*
X44203Y-29186D01*
X44263Y-29171D01*
X44338Y-29171D01*
X44398Y-29186D01*
X44428Y-29201D01*
X44443Y-29216D01*
X44458Y-29246D01*
X44458Y-29276D01*
X44443Y-29306D01*
X44428Y-29321D01*
X44398Y-29336D01*
X44338Y-29351D01*
X44263Y-29351D01*
X44203Y-29336D01*
X44173Y-29321D01*
X44158Y-29306D01*
X44143Y-29276D01*
X44248Y-28901D02*
X44458Y-28901D01*
X44248Y-29036D02*
X44413Y-29036D01*
X44443Y-29021D01*
X44458Y-28991D01*
X44458Y-28946D01*
X44443Y-28916D01*
X44428Y-28901D01*
X44293Y-28646D02*
X44293Y-28751D01*
X44458Y-28751D02*
X44143Y-28751D01*
X44143Y-28601D01*
X43238Y-30123D02*
X43238Y-30198D01*
X42788Y-30198D01*
X42788Y-30123D01*
X43013Y-30003D02*
X43013Y-29763D01*
X43133Y-29883D02*
X42893Y-29883D01*
X43238Y-29643D02*
X43238Y-29568D01*
X42788Y-29568D01*
X42788Y-29643D01*
X50247Y-30427D02*
X50097Y-30427D01*
X50097Y-30112D01*
X50517Y-30427D02*
X50337Y-30427D01*
X50427Y-30427D02*
X50427Y-30112D01*
X50397Y-30157D01*
X50367Y-30187D01*
X50337Y-30202D01*
X44829Y-18001D02*
X44724Y-17851D01*
X44649Y-18001D02*
X44649Y-17686D01*
X44769Y-17686D01*
X44799Y-17701D01*
X44814Y-17716D01*
X44829Y-17746D01*
X44829Y-17791D01*
X44814Y-17821D01*
X44799Y-17836D01*
X44769Y-17851D01*
X44649Y-17851D01*
X45129Y-18001D02*
X44949Y-18001D01*
X45039Y-18001D02*
X45039Y-17686D01*
X45009Y-17731D01*
X44979Y-17761D01*
X44949Y-17776D01*
X44829Y-20481D02*
X44724Y-20331D01*
X44649Y-20481D02*
X44649Y-20166D01*
X44769Y-20166D01*
X44799Y-20181D01*
X44814Y-20196D01*
X44829Y-20226D01*
X44829Y-20271D01*
X44814Y-20301D01*
X44799Y-20316D01*
X44769Y-20331D01*
X44649Y-20331D01*
X44949Y-20196D02*
X44964Y-20181D01*
X44994Y-20166D01*
X45069Y-20166D01*
X45099Y-20181D01*
X45114Y-20196D01*
X45129Y-20226D01*
X45129Y-20256D01*
X45114Y-20301D01*
X44934Y-20481D01*
X45129Y-20481D01*
X41916Y-20599D02*
X41811Y-20449D01*
X41736Y-20599D02*
X41736Y-20284D01*
X41856Y-20284D01*
X41886Y-20299D01*
X41901Y-20314D01*
X41916Y-20344D01*
X41916Y-20389D01*
X41901Y-20419D01*
X41886Y-20434D01*
X41856Y-20449D01*
X41736Y-20449D01*
X42020Y-20284D02*
X42215Y-20284D01*
X42110Y-20404D01*
X42155Y-20404D01*
X42185Y-20419D01*
X42200Y-20434D01*
X42215Y-20464D01*
X42215Y-20539D01*
X42200Y-20569D01*
X42185Y-20584D01*
X42155Y-20599D01*
X42065Y-20599D01*
X42035Y-20584D01*
X42020Y-20569D01*
X50262Y-21505D02*
X50157Y-21355D01*
X50082Y-21505D02*
X50082Y-21190D01*
X50202Y-21190D01*
X50232Y-21205D01*
X50247Y-21220D01*
X50262Y-21250D01*
X50262Y-21295D01*
X50247Y-21325D01*
X50232Y-21340D01*
X50202Y-21355D01*
X50082Y-21355D01*
X50532Y-21295D02*
X50532Y-21505D01*
X50457Y-21175D02*
X50382Y-21400D01*
X50577Y-21400D01*
X53622Y-23852D02*
X53517Y-23702D01*
X53442Y-23852D02*
X53442Y-23537D01*
X53562Y-23537D01*
X53592Y-23552D01*
X53607Y-23567D01*
X53622Y-23597D01*
X53622Y-23642D01*
X53607Y-23672D01*
X53592Y-23687D01*
X53562Y-23702D01*
X53442Y-23702D01*
X53907Y-23537D02*
X53757Y-23537D01*
X53742Y-23687D01*
X53757Y-23672D01*
X53787Y-23657D01*
X53862Y-23657D01*
X53892Y-23672D01*
X53907Y-23687D01*
X53922Y-23717D01*
X53922Y-23792D01*
X53907Y-23822D01*
X53892Y-23837D01*
X53862Y-23852D01*
X53787Y-23852D01*
X53757Y-23837D01*
X53742Y-23822D01*
X48845Y-25481D02*
X48740Y-25331D01*
X48665Y-25481D02*
X48665Y-25166D01*
X48785Y-25166D01*
X48815Y-25181D01*
X48830Y-25196D01*
X48845Y-25226D01*
X48845Y-25271D01*
X48830Y-25301D01*
X48815Y-25316D01*
X48785Y-25331D01*
X48665Y-25331D01*
X49115Y-25166D02*
X49055Y-25166D01*
X49025Y-25181D01*
X49010Y-25196D01*
X48980Y-25241D01*
X48965Y-25301D01*
X48965Y-25421D01*
X48980Y-25451D01*
X48995Y-25466D01*
X49025Y-25481D01*
X49085Y-25481D01*
X49115Y-25466D01*
X49130Y-25451D01*
X49145Y-25421D01*
X49145Y-25346D01*
X49130Y-25316D01*
X49115Y-25301D01*
X49085Y-25286D01*
X49025Y-25286D01*
X48995Y-25301D01*
X48980Y-25316D01*
X48965Y-25346D01*
X50419Y-25481D02*
X50314Y-25331D01*
X50239Y-25481D02*
X50239Y-25166D01*
X50359Y-25166D01*
X50389Y-25181D01*
X50404Y-25196D01*
X50419Y-25226D01*
X50419Y-25271D01*
X50404Y-25301D01*
X50389Y-25316D01*
X50359Y-25331D01*
X50239Y-25331D01*
X50524Y-25166D02*
X50734Y-25166D01*
X50599Y-25481D01*
X46916Y-25481D02*
X46811Y-25331D01*
X46736Y-25481D02*
X46736Y-25166D01*
X46856Y-25166D01*
X46886Y-25181D01*
X46901Y-25196D01*
X46916Y-25226D01*
X46916Y-25271D01*
X46901Y-25301D01*
X46886Y-25316D01*
X46856Y-25331D01*
X46736Y-25331D01*
X47095Y-25301D02*
X47065Y-25286D01*
X47050Y-25271D01*
X47035Y-25241D01*
X47035Y-25226D01*
X47050Y-25196D01*
X47065Y-25181D01*
X47095Y-25166D01*
X47155Y-25166D01*
X47185Y-25181D01*
X47200Y-25196D01*
X47215Y-25226D01*
X47215Y-25241D01*
X47200Y-25271D01*
X47185Y-25286D01*
X47155Y-25301D01*
X47095Y-25301D01*
X47065Y-25316D01*
X47050Y-25331D01*
X47035Y-25361D01*
X47035Y-25421D01*
X47050Y-25451D01*
X47065Y-25466D01*
X47095Y-25481D01*
X47155Y-25481D01*
X47185Y-25466D01*
X47200Y-25451D01*
X47215Y-25421D01*
X47215Y-25361D01*
X47200Y-25331D01*
X47185Y-25316D01*
X47155Y-25301D01*
X45997Y-27577D02*
X45892Y-27427D01*
X45817Y-27577D02*
X45817Y-27262D01*
X45937Y-27262D01*
X45967Y-27277D01*
X45982Y-27292D01*
X45997Y-27322D01*
X45997Y-27367D01*
X45982Y-27397D01*
X45967Y-27412D01*
X45937Y-27427D01*
X45817Y-27427D01*
X46147Y-27577D02*
X46207Y-27577D01*
X46237Y-27562D01*
X46252Y-27547D01*
X46282Y-27502D01*
X46297Y-27442D01*
X46297Y-27322D01*
X46282Y-27292D01*
X46267Y-27277D01*
X46237Y-27262D01*
X46177Y-27262D01*
X46147Y-27277D01*
X46132Y-27292D01*
X46117Y-27322D01*
X46117Y-27397D01*
X46132Y-27427D01*
X46147Y-27442D01*
X46177Y-27457D01*
X46237Y-27457D01*
X46267Y-27442D01*
X46282Y-27427D01*
X46297Y-27397D01*
X47080Y-16269D02*
X46976Y-16119D01*
X46901Y-16269D02*
X46901Y-15954D01*
X47020Y-15954D01*
X47050Y-15969D01*
X47065Y-15984D01*
X47080Y-16014D01*
X47080Y-16059D01*
X47065Y-16089D01*
X47050Y-16104D01*
X47020Y-16119D01*
X46901Y-16119D01*
X47380Y-16269D02*
X47200Y-16269D01*
X47290Y-16269D02*
X47290Y-15954D01*
X47260Y-15999D01*
X47230Y-16029D01*
X47200Y-16044D01*
X47575Y-15954D02*
X47605Y-15954D01*
X47635Y-15969D01*
X47650Y-15984D01*
X47665Y-16014D01*
X47680Y-16074D01*
X47680Y-16149D01*
X47665Y-16209D01*
X47650Y-16239D01*
X47635Y-16254D01*
X47605Y-16269D01*
X47575Y-16269D01*
X47545Y-16254D01*
X47530Y-16239D01*
X47515Y-16209D01*
X47500Y-16149D01*
X47500Y-16074D01*
X47515Y-16014D01*
X47530Y-15984D01*
X47545Y-15969D01*
X47575Y-15954D01*
X41569Y-16781D02*
X41464Y-16631D01*
X41389Y-16781D02*
X41389Y-16466D01*
X41509Y-16466D01*
X41539Y-16481D01*
X41554Y-16496D01*
X41569Y-16526D01*
X41569Y-16571D01*
X41554Y-16601D01*
X41539Y-16616D01*
X41509Y-16631D01*
X41389Y-16631D01*
X41869Y-16781D02*
X41689Y-16781D01*
X41779Y-16781D02*
X41779Y-16466D01*
X41749Y-16511D01*
X41719Y-16541D01*
X41689Y-16556D01*
X42169Y-16781D02*
X41989Y-16781D01*
X42079Y-16781D02*
X42079Y-16466D01*
X42049Y-16511D01*
X42019Y-16541D01*
X41989Y-16556D01*
X51372Y-21505D02*
X51267Y-21355D01*
X51192Y-21505D02*
X51192Y-21190D01*
X51312Y-21190D01*
X51342Y-21205D01*
X51357Y-21220D01*
X51372Y-21250D01*
X51372Y-21295D01*
X51357Y-21325D01*
X51342Y-21340D01*
X51312Y-21355D01*
X51192Y-21355D01*
X51672Y-21505D02*
X51492Y-21505D01*
X51582Y-21505D02*
X51582Y-21190D01*
X51552Y-21235D01*
X51522Y-21265D01*
X51492Y-21280D01*
X51792Y-21220D02*
X51807Y-21205D01*
X51837Y-21190D01*
X51912Y-21190D01*
X51942Y-21205D01*
X51957Y-21220D01*
X51972Y-21250D01*
X51972Y-21280D01*
X51957Y-21325D01*
X51777Y-21505D01*
X51972Y-21505D01*
X47789Y-25481D02*
X47684Y-25331D01*
X47609Y-25481D02*
X47609Y-25166D01*
X47729Y-25166D01*
X47759Y-25181D01*
X47774Y-25196D01*
X47789Y-25226D01*
X47789Y-25271D01*
X47774Y-25301D01*
X47759Y-25316D01*
X47729Y-25331D01*
X47609Y-25331D01*
X48089Y-25481D02*
X47909Y-25481D01*
X47999Y-25481D02*
X47999Y-25166D01*
X47969Y-25211D01*
X47939Y-25241D01*
X47909Y-25256D01*
X48194Y-25166D02*
X48389Y-25166D01*
X48284Y-25286D01*
X48329Y-25286D01*
X48359Y-25301D01*
X48374Y-25316D01*
X48389Y-25346D01*
X48389Y-25421D01*
X48374Y-25451D01*
X48359Y-25466D01*
X48329Y-25481D01*
X48239Y-25481D01*
X48209Y-25466D01*
X48194Y-25451D01*
X41293Y-25245D02*
X41188Y-25095D01*
X41113Y-25245D02*
X41113Y-24930D01*
X41233Y-24930D01*
X41263Y-24945D01*
X41278Y-24960D01*
X41293Y-24990D01*
X41293Y-25035D01*
X41278Y-25065D01*
X41263Y-25080D01*
X41233Y-25095D01*
X41113Y-25095D01*
X41593Y-25245D02*
X41413Y-25245D01*
X41503Y-25245D02*
X41503Y-24930D01*
X41473Y-24975D01*
X41443Y-25005D01*
X41413Y-25020D01*
X41863Y-25035D02*
X41863Y-25245D01*
X41788Y-24915D02*
X41713Y-25140D01*
X41908Y-25140D01*
X53090Y-28437D02*
X53135Y-28452D01*
X53210Y-28452D01*
X53240Y-28437D01*
X53255Y-28422D01*
X53270Y-28392D01*
X53270Y-28362D01*
X53255Y-28332D01*
X53240Y-28317D01*
X53210Y-28302D01*
X53150Y-28287D01*
X53120Y-28272D01*
X53105Y-28257D01*
X53090Y-28227D01*
X53090Y-28197D01*
X53105Y-28167D01*
X53120Y-28152D01*
X53150Y-28137D01*
X53225Y-28137D01*
X53270Y-28152D01*
X53494Y-28137D02*
X53494Y-28362D01*
X53479Y-28407D01*
X53450Y-28437D01*
X53405Y-28452D01*
X53375Y-28452D01*
X53809Y-28452D02*
X53629Y-28452D01*
X53719Y-28452D02*
X53719Y-28137D01*
X53689Y-28182D01*
X53659Y-28212D01*
X53629Y-28227D01*
X47671Y-21490D02*
X47716Y-21505D01*
X47791Y-21505D01*
X47821Y-21490D01*
X47836Y-21475D01*
X47851Y-21445D01*
X47851Y-21415D01*
X47836Y-21385D01*
X47821Y-21370D01*
X47791Y-21355D01*
X47731Y-21340D01*
X47701Y-21325D01*
X47686Y-21310D01*
X47671Y-21280D01*
X47671Y-21250D01*
X47686Y-21220D01*
X47701Y-21205D01*
X47731Y-21190D01*
X47806Y-21190D01*
X47851Y-21205D01*
X48076Y-21190D02*
X48076Y-21415D01*
X48061Y-21460D01*
X48031Y-21490D01*
X47986Y-21505D01*
X47956Y-21505D01*
X48211Y-21220D02*
X48226Y-21205D01*
X48256Y-21190D01*
X48331Y-21190D01*
X48361Y-21205D01*
X48376Y-21220D01*
X48391Y-21250D01*
X48391Y-21280D01*
X48376Y-21325D01*
X48196Y-21505D01*
X48391Y-21505D01*
X47514Y-20718D02*
X47514Y-20973D01*
X47529Y-21002D01*
X47544Y-21017D01*
X47574Y-21032D01*
X47634Y-21032D01*
X47664Y-21017D01*
X47679Y-21002D01*
X47694Y-20973D01*
X47694Y-20718D01*
X47799Y-20718D02*
X47904Y-21032D01*
X48008Y-20718D01*
X48263Y-21032D02*
X48113Y-21032D01*
X48113Y-20718D01*
X48428Y-20718D02*
X48488Y-20718D01*
X48518Y-20733D01*
X48548Y-20763D01*
X48563Y-20823D01*
X48563Y-20928D01*
X48548Y-20988D01*
X48518Y-21017D01*
X48488Y-21032D01*
X48428Y-21032D01*
X48398Y-21017D01*
X48368Y-20988D01*
X48353Y-20928D01*
X48353Y-20823D01*
X48368Y-20763D01*
X48398Y-20733D01*
X48428Y-20718D01*
X51853Y-8429D02*
X51898Y-8444D01*
X51973Y-8444D01*
X52003Y-8429D01*
X52018Y-8414D01*
X52033Y-8384D01*
X52033Y-8354D01*
X52018Y-8324D01*
X52003Y-8309D01*
X51973Y-8294D01*
X51913Y-8279D01*
X51883Y-8264D01*
X51868Y-8249D01*
X51853Y-8219D01*
X51853Y-8189D01*
X51868Y-8159D01*
X51883Y-8144D01*
X51913Y-8129D01*
X51988Y-8129D01*
X52033Y-8144D01*
X52138Y-8129D02*
X52213Y-8444D01*
X52273Y-8219D01*
X52333Y-8444D01*
X52408Y-8129D01*
X52693Y-8444D02*
X52513Y-8444D01*
X52603Y-8444D02*
X52603Y-8129D01*
X52573Y-8174D01*
X52543Y-8204D01*
X52513Y-8219D01*
X51169Y-7499D02*
X51229Y-7499D01*
X51259Y-7514D01*
X51289Y-7544D01*
X51304Y-7604D01*
X51304Y-7709D01*
X51289Y-7769D01*
X51259Y-7799D01*
X51229Y-7814D01*
X51169Y-7814D01*
X51139Y-7799D01*
X51109Y-7769D01*
X51094Y-7709D01*
X51094Y-7604D01*
X51109Y-7544D01*
X51139Y-7514D01*
X51169Y-7499D01*
X51439Y-7814D02*
X51439Y-7499D01*
X51619Y-7814D01*
X51619Y-7499D01*
X51694Y-7844D02*
X51934Y-7844D01*
X52069Y-7499D02*
X52129Y-7499D01*
X52159Y-7514D01*
X52189Y-7544D01*
X52204Y-7604D01*
X52204Y-7709D01*
X52189Y-7769D01*
X52159Y-7799D01*
X52129Y-7814D01*
X52069Y-7814D01*
X52039Y-7799D01*
X52009Y-7769D01*
X51994Y-7709D01*
X51994Y-7604D01*
X52009Y-7544D01*
X52039Y-7514D01*
X52069Y-7499D01*
X52444Y-7649D02*
X52339Y-7649D01*
X52339Y-7814D02*
X52339Y-7499D01*
X52489Y-7499D01*
X52714Y-7649D02*
X52609Y-7649D01*
X52609Y-7814D02*
X52609Y-7499D01*
X52759Y-7499D01*
X42752Y-22450D02*
X42752Y-22705D01*
X42767Y-22735D01*
X42782Y-22750D01*
X42812Y-22765D01*
X42872Y-22765D01*
X42902Y-22750D01*
X42917Y-22735D01*
X42932Y-22705D01*
X42932Y-22450D01*
X43247Y-22765D02*
X43067Y-22765D01*
X43157Y-22765D02*
X43157Y-22450D01*
X43127Y-22495D01*
X43097Y-22525D01*
X43067Y-22540D01*
X48947Y-29922D02*
X48932Y-29937D01*
X48887Y-29952D01*
X48857Y-29952D01*
X48812Y-29937D01*
X48782Y-29907D01*
X48767Y-29877D01*
X48752Y-29817D01*
X48752Y-29772D01*
X48767Y-29712D01*
X48782Y-29682D01*
X48812Y-29652D01*
X48857Y-29637D01*
X48887Y-29637D01*
X48932Y-29652D01*
X48947Y-29667D01*
X49247Y-29952D02*
X49067Y-29952D01*
X49157Y-29952D02*
X49157Y-29637D01*
X49127Y-29682D01*
X49097Y-29712D01*
X49067Y-29727D01*
X49442Y-29637D02*
X49472Y-29637D01*
X49502Y-29652D01*
X49517Y-29667D01*
X49532Y-29697D01*
X49547Y-29757D01*
X49547Y-29832D01*
X49532Y-29892D01*
X49517Y-29922D01*
X49502Y-29937D01*
X49472Y-29952D01*
X49442Y-29952D01*
X49412Y-29937D01*
X49397Y-29922D01*
X49382Y-29892D01*
X49367Y-29832D01*
X49367Y-29757D01*
X49382Y-29697D01*
X49397Y-29667D01*
X49412Y-29652D01*
X49442Y-29637D01*
X47460Y-29651D02*
X47445Y-29636D01*
X47430Y-29606D01*
X47430Y-29531D01*
X47445Y-29501D01*
X47460Y-29486D01*
X47490Y-29471D01*
X47520Y-29471D01*
X47565Y-29486D01*
X47745Y-29666D01*
X47745Y-29471D01*
X47460Y-29351D02*
X47445Y-29336D01*
X47430Y-29306D01*
X47430Y-29231D01*
X47445Y-29201D01*
X47460Y-29186D01*
X47490Y-29171D01*
X47520Y-29171D01*
X47565Y-29186D01*
X47745Y-29366D01*
X47745Y-29171D01*
X47535Y-28901D02*
X47745Y-28901D01*
X47535Y-29036D02*
X47700Y-29036D01*
X47730Y-29021D01*
X47745Y-28991D01*
X47745Y-28946D01*
X47730Y-28916D01*
X47715Y-28901D01*
X47580Y-28646D02*
X47580Y-28751D01*
X47745Y-28751D02*
X47430Y-28751D01*
X47430Y-28601D01*
X49175Y-28623D02*
X49175Y-28698D01*
X48725Y-28698D01*
X48725Y-28623D01*
X48950Y-28503D02*
X48950Y-28263D01*
X49070Y-28383D02*
X48830Y-28383D01*
X49175Y-28143D02*
X49175Y-28068D01*
X48725Y-28068D01*
X48725Y-28143D01*
X46136Y-12499D02*
X46121Y-12514D01*
X46076Y-12529D01*
X46046Y-12529D01*
X46001Y-12514D01*
X45971Y-12484D01*
X45956Y-12454D01*
X45941Y-12394D01*
X45941Y-12349D01*
X45956Y-12289D01*
X45971Y-12259D01*
X46001Y-12229D01*
X46046Y-12214D01*
X46076Y-12214D01*
X46121Y-12229D01*
X46136Y-12244D01*
X46436Y-12529D02*
X46256Y-12529D01*
X46346Y-12529D02*
X46346Y-12214D01*
X46316Y-12259D01*
X46286Y-12289D01*
X46256Y-12304D01*
X46736Y-12529D02*
X46556Y-12529D01*
X46646Y-12529D02*
X46646Y-12214D01*
X46616Y-12259D01*
X46586Y-12289D01*
X46556Y-12304D01*
X46136Y-14034D02*
X46121Y-14049D01*
X46076Y-14064D01*
X46046Y-14064D01*
X46001Y-14049D01*
X45971Y-14019D01*
X45956Y-13989D01*
X45941Y-13929D01*
X45941Y-13884D01*
X45956Y-13824D01*
X45971Y-13794D01*
X46001Y-13764D01*
X46046Y-13749D01*
X46076Y-13749D01*
X46121Y-13764D01*
X46136Y-13779D01*
X46436Y-14064D02*
X46256Y-14064D01*
X46346Y-14064D02*
X46346Y-13749D01*
X46316Y-13794D01*
X46286Y-13824D01*
X46256Y-13839D01*
X46556Y-13779D02*
X46571Y-13764D01*
X46601Y-13749D01*
X46676Y-13749D01*
X46706Y-13764D01*
X46721Y-13779D01*
X46736Y-13809D01*
X46736Y-13839D01*
X46721Y-13884D01*
X46541Y-14064D01*
X46736Y-14064D01*
X42526Y-10117D02*
X42511Y-10132D01*
X42466Y-10147D01*
X42436Y-10147D01*
X42391Y-10132D01*
X42361Y-10102D01*
X42346Y-10072D01*
X42331Y-10012D01*
X42331Y-9967D01*
X42346Y-9907D01*
X42361Y-9877D01*
X42391Y-9847D01*
X42436Y-9832D01*
X42466Y-9832D01*
X42511Y-9847D01*
X42526Y-9862D01*
X42646Y-9862D02*
X42661Y-9847D01*
X42691Y-9832D01*
X42766Y-9832D01*
X42796Y-9847D01*
X42811Y-9862D01*
X42826Y-9892D01*
X42826Y-9922D01*
X42811Y-9967D01*
X42631Y-10147D01*
X42826Y-10147D01*
X41027Y-11466D02*
X40847Y-11466D01*
X40937Y-11466D02*
X40937Y-11151D01*
X40907Y-11196D01*
X40877Y-11226D01*
X40847Y-11241D01*
X41222Y-11151D02*
X41252Y-11151D01*
X41282Y-11166D01*
X41297Y-11181D01*
X41312Y-11211D01*
X41327Y-11271D01*
X41327Y-11346D01*
X41312Y-11406D01*
X41297Y-11436D01*
X41282Y-11451D01*
X41252Y-11466D01*
X41222Y-11466D01*
X41192Y-11451D01*
X41177Y-11436D01*
X41162Y-11406D01*
X41147Y-11346D01*
X41147Y-11271D01*
X41162Y-11211D01*
X41177Y-11181D01*
X41192Y-11166D01*
X41222Y-11151D01*
X41522Y-11151D02*
X41552Y-11151D01*
X41582Y-11166D01*
X41597Y-11181D01*
X41612Y-11211D01*
X41627Y-11271D01*
X41627Y-11346D01*
X41612Y-11406D01*
X41597Y-11436D01*
X41582Y-11451D01*
X41552Y-11466D01*
X41522Y-11466D01*
X41492Y-11451D01*
X41477Y-11436D01*
X41462Y-11406D01*
X41447Y-11346D01*
X41447Y-11271D01*
X41462Y-11211D01*
X41477Y-11181D01*
X41492Y-11166D01*
X41522Y-11151D01*
X41897Y-11256D02*
X41897Y-11466D01*
X41762Y-11256D02*
X41762Y-11421D01*
X41777Y-11451D01*
X41807Y-11466D01*
X41852Y-11466D01*
X41882Y-11451D01*
X41897Y-11436D01*
X42062Y-11451D02*
X42062Y-11466D01*
X42047Y-11496D01*
X42032Y-11511D01*
X42182Y-11181D02*
X42197Y-11166D01*
X42227Y-11151D01*
X42302Y-11151D01*
X42332Y-11166D01*
X42347Y-11181D01*
X42362Y-11211D01*
X42362Y-11241D01*
X42347Y-11286D01*
X42167Y-11466D01*
X42362Y-11466D01*
X42647Y-11151D02*
X42497Y-11151D01*
X42482Y-11301D01*
X42497Y-11286D01*
X42527Y-11271D01*
X42602Y-11271D01*
X42632Y-11286D01*
X42647Y-11301D01*
X42662Y-11331D01*
X42662Y-11406D01*
X42647Y-11436D01*
X42632Y-11451D01*
X42602Y-11466D01*
X42527Y-11466D01*
X42497Y-11451D01*
X42482Y-11436D01*
X42752Y-11151D02*
X42857Y-11466D01*
X42962Y-11151D01*
X43047Y-10232D02*
X42972Y-10232D01*
X42972Y-9782D01*
X43047Y-9782D01*
X43167Y-10007D02*
X43407Y-10007D01*
X43287Y-10127D02*
X43287Y-9887D01*
X43527Y-10232D02*
X43602Y-10232D01*
X43602Y-9782D01*
X43527Y-9782D01*
X49455Y-10963D02*
X49440Y-10978D01*
X49395Y-10993D01*
X49365Y-10993D01*
X49320Y-10978D01*
X49290Y-10948D01*
X49275Y-10918D01*
X49260Y-10858D01*
X49260Y-10813D01*
X49275Y-10753D01*
X49290Y-10723D01*
X49320Y-10693D01*
X49365Y-10678D01*
X49395Y-10678D01*
X49440Y-10693D01*
X49455Y-10708D01*
X49560Y-10678D02*
X49755Y-10678D01*
X49650Y-10798D01*
X49695Y-10798D01*
X49725Y-10813D01*
X49740Y-10828D01*
X49755Y-10858D01*
X49755Y-10933D01*
X49740Y-10963D01*
X49725Y-10978D01*
X49695Y-10993D01*
X49605Y-10993D01*
X49575Y-10978D01*
X49560Y-10963D01*
X46207Y-21002D02*
X46192Y-21017D01*
X46147Y-21032D01*
X46117Y-21032D01*
X46072Y-21017D01*
X46042Y-20988D01*
X46027Y-20958D01*
X46012Y-20898D01*
X46012Y-20853D01*
X46027Y-20793D01*
X46042Y-20763D01*
X46072Y-20733D01*
X46117Y-20718D01*
X46147Y-20718D01*
X46192Y-20733D01*
X46207Y-20748D01*
X46477Y-20823D02*
X46477Y-21032D01*
X46402Y-20703D02*
X46327Y-20928D01*
X46522Y-20928D01*
X51077Y-19880D02*
X51062Y-19895D01*
X51017Y-19910D01*
X50987Y-19910D01*
X50942Y-19895D01*
X50912Y-19865D01*
X50897Y-19835D01*
X50882Y-19775D01*
X50882Y-19730D01*
X50897Y-19670D01*
X50912Y-19640D01*
X50942Y-19610D01*
X50987Y-19595D01*
X51017Y-19595D01*
X51062Y-19610D01*
X51077Y-19625D01*
X51377Y-19910D02*
X51197Y-19910D01*
X51287Y-19910D02*
X51287Y-19595D01*
X51257Y-19640D01*
X51227Y-19670D01*
X51197Y-19685D01*
X51482Y-19595D02*
X51676Y-19595D01*
X51571Y-19715D01*
X51616Y-19715D01*
X51646Y-19730D01*
X51661Y-19745D01*
X51676Y-19775D01*
X51676Y-19850D01*
X51661Y-19880D01*
X51646Y-19895D01*
X51616Y-19910D01*
X51526Y-19910D01*
X51497Y-19895D01*
X51482Y-19880D01*
X53262Y-12971D02*
X53247Y-12986D01*
X53202Y-13001D01*
X53172Y-13001D01*
X53127Y-12986D01*
X53097Y-12956D01*
X53082Y-12926D01*
X53067Y-12866D01*
X53067Y-12821D01*
X53082Y-12761D01*
X53097Y-12731D01*
X53127Y-12701D01*
X53172Y-12686D01*
X53202Y-12686D01*
X53247Y-12701D01*
X53262Y-12716D01*
X53562Y-13001D02*
X53382Y-13001D01*
X53472Y-13001D02*
X53472Y-12686D01*
X53442Y-12731D01*
X53412Y-12761D01*
X53382Y-12776D01*
X53832Y-12791D02*
X53832Y-13001D01*
X53757Y-12671D02*
X53682Y-12896D01*
X53877Y-12896D01*
X53178Y-14510D02*
X53178Y-14690D01*
X53178Y-14600D02*
X52863Y-14600D01*
X52908Y-14630D01*
X52938Y-14660D01*
X52953Y-14690D01*
X52863Y-14315D02*
X52863Y-14285D01*
X52878Y-14255D01*
X52893Y-14240D01*
X52923Y-14225D01*
X52983Y-14210D01*
X53058Y-14210D01*
X53118Y-14225D01*
X53148Y-14240D01*
X53163Y-14255D01*
X53178Y-14285D01*
X53178Y-14315D01*
X53163Y-14345D01*
X53148Y-14360D01*
X53118Y-14375D01*
X53058Y-14390D01*
X52983Y-14390D01*
X52923Y-14375D01*
X52893Y-14360D01*
X52878Y-14345D01*
X52863Y-14315D01*
X52968Y-13940D02*
X53178Y-13940D01*
X52968Y-14075D02*
X53133Y-14075D01*
X53163Y-14060D01*
X53178Y-14030D01*
X53178Y-13985D01*
X53163Y-13955D01*
X53148Y-13940D01*
X53013Y-13685D02*
X53013Y-13790D01*
X53178Y-13790D02*
X52863Y-13790D01*
X52863Y-13640D01*
X54608Y-13663D02*
X54608Y-13738D01*
X54158Y-13738D01*
X54158Y-13663D01*
X54383Y-13543D02*
X54383Y-13303D01*
X54503Y-13423D02*
X54263Y-13423D01*
X54608Y-13183D02*
X54608Y-13108D01*
X54158Y-13108D01*
X54158Y-13183D01*
X42474Y-25215D02*
X42459Y-25230D01*
X42414Y-25245D01*
X42384Y-25245D01*
X42339Y-25230D01*
X42309Y-25200D01*
X42294Y-25170D01*
X42279Y-25110D01*
X42279Y-25065D01*
X42294Y-25005D01*
X42309Y-24975D01*
X42339Y-24945D01*
X42384Y-24930D01*
X42414Y-24930D01*
X42459Y-24945D01*
X42474Y-24960D01*
X42774Y-25245D02*
X42594Y-25245D01*
X42684Y-25245D02*
X42684Y-24930D01*
X42654Y-24975D01*
X42624Y-25005D01*
X42594Y-25020D01*
X43059Y-24930D02*
X42909Y-24930D01*
X42894Y-25080D01*
X42909Y-25065D01*
X42939Y-25050D01*
X43014Y-25050D01*
X43044Y-25065D01*
X43059Y-25080D01*
X43074Y-25110D01*
X43074Y-25185D01*
X43059Y-25215D01*
X43044Y-25230D01*
X43014Y-25245D01*
X42939Y-25245D01*
X42909Y-25230D01*
X42894Y-25215D01*
X38852Y-25215D02*
X38837Y-25230D01*
X38792Y-25245D01*
X38762Y-25245D01*
X38717Y-25230D01*
X38687Y-25200D01*
X38672Y-25170D01*
X38657Y-25110D01*
X38657Y-25065D01*
X38672Y-25005D01*
X38687Y-24975D01*
X38717Y-24945D01*
X38762Y-24930D01*
X38792Y-24930D01*
X38837Y-24945D01*
X38852Y-24960D01*
X39152Y-25245D02*
X38972Y-25245D01*
X39062Y-25245D02*
X39062Y-24930D01*
X39032Y-24975D01*
X39002Y-25005D01*
X38972Y-25020D01*
X39422Y-24930D02*
X39362Y-24930D01*
X39332Y-24945D01*
X39317Y-24960D01*
X39287Y-25005D01*
X39272Y-25065D01*
X39272Y-25185D01*
X39287Y-25215D01*
X39302Y-25230D01*
X39332Y-25245D01*
X39392Y-25245D01*
X39422Y-25230D01*
X39437Y-25215D01*
X39452Y-25185D01*
X39452Y-25110D01*
X39437Y-25080D01*
X39422Y-25065D01*
X39392Y-25050D01*
X39332Y-25050D01*
X39302Y-25065D01*
X39287Y-25080D01*
X39272Y-25110D01*
X54462Y-19861D02*
X54447Y-19876D01*
X54402Y-19891D01*
X54372Y-19891D01*
X54327Y-19876D01*
X54297Y-19846D01*
X54282Y-19816D01*
X54267Y-19756D01*
X54267Y-19711D01*
X54282Y-19651D01*
X54297Y-19621D01*
X54327Y-19591D01*
X54372Y-19576D01*
X54402Y-19576D01*
X54447Y-19591D01*
X54462Y-19606D01*
X54762Y-19891D02*
X54582Y-19891D01*
X54672Y-19891D02*
X54672Y-19576D01*
X54642Y-19621D01*
X54612Y-19651D01*
X54582Y-19666D01*
X54867Y-19576D02*
X55077Y-19576D01*
X54942Y-19891D01*
X43802Y-7804D02*
X43802Y-7489D01*
X43877Y-7489D01*
X43922Y-7504D01*
X43952Y-7534D01*
X43967Y-7564D01*
X43982Y-7624D01*
X43982Y-7669D01*
X43967Y-7729D01*
X43952Y-7759D01*
X43922Y-7789D01*
X43877Y-7804D01*
X43802Y-7804D01*
X44282Y-7804D02*
X44102Y-7804D01*
X44192Y-7804D02*
X44192Y-7489D01*
X44162Y-7534D01*
X44132Y-7564D01*
X44102Y-7579D01*
X41677Y-9359D02*
X41527Y-9359D01*
X41527Y-9044D01*
X41767Y-9344D02*
X41812Y-9359D01*
X41887Y-9359D01*
X41917Y-9344D01*
X41932Y-9329D01*
X41947Y-9299D01*
X41947Y-9269D01*
X41932Y-9239D01*
X41917Y-9224D01*
X41887Y-9209D01*
X41827Y-9194D01*
X41797Y-9179D01*
X41782Y-9164D01*
X41767Y-9134D01*
X41767Y-9104D01*
X41782Y-9074D01*
X41797Y-9059D01*
X41827Y-9044D01*
X41902Y-9044D01*
X41947Y-9059D01*
X42082Y-9359D02*
X42082Y-9044D01*
X42187Y-9269D01*
X42292Y-9044D01*
X42292Y-9359D01*
X42607Y-9359D02*
X42427Y-9359D01*
X42517Y-9359D02*
X42517Y-9044D01*
X42487Y-9089D01*
X42457Y-9119D01*
X42427Y-9134D01*
X42907Y-9359D02*
X42727Y-9359D01*
X42817Y-9359D02*
X42817Y-9044D01*
X42787Y-9089D01*
X42757Y-9119D01*
X42727Y-9134D01*
X43192Y-9044D02*
X43042Y-9044D01*
X43027Y-9194D01*
X43042Y-9179D01*
X43072Y-9164D01*
X43147Y-9164D01*
X43177Y-9179D01*
X43192Y-9194D01*
X43207Y-9224D01*
X43207Y-9299D01*
X43192Y-9329D01*
X43177Y-9344D01*
X43147Y-9359D01*
X43072Y-9359D01*
X43042Y-9344D01*
X43027Y-9329D01*
X43432Y-9044D02*
X43432Y-9269D01*
X43417Y-9314D01*
X43387Y-9344D01*
X43342Y-9359D01*
X43312Y-9359D01*
X40161Y-12666D02*
X40161Y-12351D01*
X40236Y-12351D01*
X40281Y-12366D01*
X40311Y-12396D01*
X40326Y-12426D01*
X40341Y-12486D01*
X40341Y-12531D01*
X40326Y-12591D01*
X40311Y-12621D01*
X40281Y-12651D01*
X40236Y-12666D01*
X40161Y-12666D01*
X40461Y-12381D02*
X40476Y-12366D01*
X40506Y-12351D01*
X40581Y-12351D01*
X40611Y-12366D01*
X40626Y-12381D01*
X40641Y-12411D01*
X40641Y-12441D01*
X40626Y-12486D01*
X40446Y-12666D01*
X40641Y-12666D01*
X41667Y-15427D02*
X41682Y-15382D01*
X41682Y-15307D01*
X41667Y-15277D01*
X41652Y-15262D01*
X41622Y-15247D01*
X41592Y-15247D01*
X41562Y-15262D01*
X41547Y-15277D01*
X41532Y-15307D01*
X41517Y-15367D01*
X41502Y-15397D01*
X41487Y-15412D01*
X41457Y-15427D01*
X41427Y-15427D01*
X41397Y-15412D01*
X41382Y-15397D01*
X41367Y-15367D01*
X41367Y-15292D01*
X41382Y-15247D01*
X41682Y-15112D02*
X41367Y-15112D01*
X41592Y-15007D01*
X41367Y-14902D01*
X41682Y-14902D01*
X41517Y-14647D02*
X41532Y-14602D01*
X41547Y-14587D01*
X41577Y-14572D01*
X41622Y-14572D01*
X41652Y-14587D01*
X41667Y-14602D01*
X41682Y-14632D01*
X41682Y-14752D01*
X41367Y-14752D01*
X41367Y-14647D01*
X41382Y-14617D01*
X41397Y-14602D01*
X41427Y-14587D01*
X41457Y-14587D01*
X41487Y-14602D01*
X41502Y-14617D01*
X41517Y-14647D01*
X41517Y-14752D01*
X41367Y-14347D02*
X41592Y-14347D01*
X41637Y-14362D01*
X41667Y-14392D01*
X41682Y-14437D01*
X41682Y-14467D01*
X41367Y-14047D02*
X41367Y-14197D01*
X41517Y-14212D01*
X41502Y-14197D01*
X41487Y-14167D01*
X41487Y-14092D01*
X41502Y-14062D01*
X41517Y-14047D01*
X41547Y-14032D01*
X41622Y-14032D01*
X41652Y-14047D01*
X41667Y-14062D01*
X41682Y-14092D01*
X41682Y-14167D01*
X41667Y-14197D01*
X41652Y-14212D01*
X41652Y-13897D02*
X41667Y-13882D01*
X41682Y-13897D01*
X41667Y-13912D01*
X41652Y-13897D01*
X41682Y-13897D01*
X41367Y-13687D02*
X41367Y-13657D01*
X41382Y-13627D01*
X41397Y-13612D01*
X41427Y-13597D01*
X41487Y-13582D01*
X41562Y-13582D01*
X41622Y-13597D01*
X41652Y-13612D01*
X41667Y-13627D01*
X41682Y-13657D01*
X41682Y-13687D01*
X41667Y-13717D01*
X41652Y-13732D01*
X41622Y-13747D01*
X41562Y-13762D01*
X41487Y-13762D01*
X41427Y-13747D01*
X41397Y-13732D01*
X41382Y-13717D01*
X41367Y-13687D01*
X41652Y-13267D02*
X41667Y-13282D01*
X41682Y-13327D01*
X41682Y-13357D01*
X41667Y-13402D01*
X41637Y-13432D01*
X41607Y-13447D01*
X41547Y-13462D01*
X41502Y-13462D01*
X41442Y-13447D01*
X41412Y-13432D01*
X41382Y-13402D01*
X41367Y-13357D01*
X41367Y-13327D01*
X41382Y-13282D01*
X41397Y-13267D01*
X41592Y-13147D02*
X41592Y-12997D01*
X41682Y-13177D02*
X41367Y-13072D01*
X41682Y-12967D01*
X41775Y-19891D02*
X41775Y-19576D01*
X41850Y-19576D01*
X41895Y-19591D01*
X41925Y-19621D01*
X41940Y-19651D01*
X41955Y-19711D01*
X41955Y-19756D01*
X41940Y-19816D01*
X41925Y-19846D01*
X41895Y-19876D01*
X41850Y-19891D01*
X41775Y-19891D01*
X42060Y-19576D02*
X42255Y-19576D01*
X42150Y-19696D01*
X42195Y-19696D01*
X42225Y-19711D01*
X42240Y-19726D01*
X42255Y-19756D01*
X42255Y-19831D01*
X42240Y-19861D01*
X42225Y-19876D01*
X42195Y-19891D01*
X42105Y-19891D01*
X42075Y-19876D01*
X42060Y-19861D01*
X41621Y-19418D02*
X41621Y-19103D01*
X41696Y-19103D01*
X41741Y-19118D01*
X41771Y-19148D01*
X41786Y-19178D01*
X41801Y-19238D01*
X41801Y-19283D01*
X41786Y-19343D01*
X41771Y-19373D01*
X41741Y-19403D01*
X41696Y-19418D01*
X41621Y-19418D01*
X41936Y-19418D02*
X41936Y-19103D01*
X42071Y-19403D02*
X42116Y-19418D01*
X42191Y-19418D01*
X42221Y-19403D01*
X42236Y-19388D01*
X42251Y-19358D01*
X42251Y-19328D01*
X42236Y-19298D01*
X42221Y-19283D01*
X42191Y-19268D01*
X42131Y-19253D01*
X42101Y-19238D01*
X42086Y-19223D01*
X42071Y-19193D01*
X42071Y-19163D01*
X42086Y-19133D01*
X42101Y-19118D01*
X42131Y-19103D01*
X42206Y-19103D01*
X42251Y-19118D01*
X41775Y-18946D02*
X41775Y-18631D01*
X41850Y-18631D01*
X41895Y-18646D01*
X41925Y-18676D01*
X41940Y-18706D01*
X41955Y-18766D01*
X41955Y-18811D01*
X41940Y-18871D01*
X41925Y-18901D01*
X41895Y-18931D01*
X41850Y-18946D01*
X41775Y-18946D01*
X42225Y-18736D02*
X42225Y-18946D01*
X42150Y-18616D02*
X42075Y-18841D01*
X42270Y-18841D01*
X41586Y-18443D02*
X41571Y-18458D01*
X41526Y-18473D01*
X41496Y-18473D01*
X41451Y-18458D01*
X41421Y-18428D01*
X41406Y-18398D01*
X41391Y-18338D01*
X41391Y-18293D01*
X41406Y-18233D01*
X41421Y-18203D01*
X41451Y-18173D01*
X41496Y-18158D01*
X41526Y-18158D01*
X41571Y-18173D01*
X41586Y-18188D01*
X41721Y-18473D02*
X41721Y-18158D01*
X41721Y-18308D02*
X41901Y-18308D01*
X41901Y-18473D02*
X41901Y-18158D01*
X42215Y-18173D02*
X42185Y-18158D01*
X42140Y-18158D01*
X42095Y-18173D01*
X42065Y-18203D01*
X42050Y-18233D01*
X42035Y-18293D01*
X42035Y-18338D01*
X42050Y-18398D01*
X42065Y-18428D01*
X42095Y-18458D01*
X42140Y-18473D01*
X42170Y-18473D01*
X42215Y-18458D01*
X42230Y-18443D01*
X42230Y-18338D01*
X42170Y-18338D01*
X52192Y-26002D02*
X52192Y-25687D01*
X52267Y-25687D01*
X52312Y-25702D01*
X52342Y-25732D01*
X52357Y-25762D01*
X52372Y-25822D01*
X52372Y-25867D01*
X52357Y-25927D01*
X52342Y-25957D01*
X52312Y-25987D01*
X52267Y-26002D01*
X52192Y-26002D01*
X52657Y-25687D02*
X52507Y-25687D01*
X52492Y-25837D01*
X52507Y-25822D01*
X52537Y-25807D01*
X52612Y-25807D01*
X52642Y-25822D01*
X52657Y-25837D01*
X52672Y-25867D01*
X52672Y-25942D01*
X52657Y-25972D01*
X52642Y-25987D01*
X52612Y-26002D01*
X52537Y-26002D01*
X52507Y-25987D01*
X52492Y-25972D01*
X51352Y-27777D02*
X51352Y-27927D01*
X51037Y-27927D01*
X51337Y-27687D02*
X51352Y-27642D01*
X51352Y-27567D01*
X51337Y-27537D01*
X51322Y-27522D01*
X51292Y-27507D01*
X51262Y-27507D01*
X51232Y-27522D01*
X51217Y-27537D01*
X51202Y-27567D01*
X51187Y-27627D01*
X51172Y-27657D01*
X51157Y-27672D01*
X51127Y-27687D01*
X51097Y-27687D01*
X51067Y-27672D01*
X51052Y-27657D01*
X51037Y-27627D01*
X51037Y-27552D01*
X51052Y-27507D01*
X51352Y-27372D02*
X51037Y-27372D01*
X51262Y-27267D01*
X51037Y-27162D01*
X51352Y-27162D01*
X51352Y-26847D02*
X51352Y-27027D01*
X51352Y-26937D02*
X51037Y-26937D01*
X51082Y-26967D01*
X51112Y-26997D01*
X51127Y-27027D01*
X51352Y-26547D02*
X51352Y-26727D01*
X51352Y-26637D02*
X51037Y-26637D01*
X51082Y-26667D01*
X51112Y-26697D01*
X51127Y-26727D01*
X51037Y-26262D02*
X51037Y-26412D01*
X51187Y-26427D01*
X51172Y-26412D01*
X51157Y-26382D01*
X51157Y-26307D01*
X51172Y-26277D01*
X51187Y-26262D01*
X51217Y-26247D01*
X51292Y-26247D01*
X51322Y-26262D01*
X51337Y-26277D01*
X51352Y-26307D01*
X51352Y-26382D01*
X51337Y-26412D01*
X51322Y-26427D01*
X51037Y-26022D02*
X51262Y-26022D01*
X51307Y-26037D01*
X51337Y-26067D01*
X51352Y-26112D01*
X51352Y-26142D01*
X45830Y-25127D02*
X45830Y-24812D01*
X45905Y-24812D01*
X45950Y-24827D01*
X45980Y-24857D01*
X45995Y-24887D01*
X46010Y-24947D01*
X46010Y-24992D01*
X45995Y-25052D01*
X45980Y-25082D01*
X45950Y-25112D01*
X45905Y-25127D01*
X45830Y-25127D01*
X46280Y-24812D02*
X46220Y-24812D01*
X46190Y-24827D01*
X46175Y-24842D01*
X46145Y-24887D01*
X46130Y-24947D01*
X46130Y-25067D01*
X46145Y-25097D01*
X46160Y-25112D01*
X46190Y-25127D01*
X46250Y-25127D01*
X46280Y-25112D01*
X46295Y-25097D01*
X46310Y-25067D01*
X46310Y-24992D01*
X46295Y-24962D01*
X46280Y-24947D01*
X46250Y-24932D01*
X46190Y-24932D01*
X46160Y-24947D01*
X46145Y-24962D01*
X46130Y-24992D01*
X45830Y-23230D02*
X45875Y-23245D01*
X45890Y-23260D01*
X45905Y-23290D01*
X45905Y-23335D01*
X45890Y-23365D01*
X45875Y-23380D01*
X45845Y-23395D01*
X45725Y-23395D01*
X45725Y-23080D01*
X45830Y-23080D01*
X45860Y-23095D01*
X45875Y-23110D01*
X45890Y-23140D01*
X45890Y-23170D01*
X45875Y-23200D01*
X45860Y-23215D01*
X45830Y-23230D01*
X45725Y-23230D01*
X46025Y-23305D02*
X46175Y-23305D01*
X45995Y-23395D02*
X46100Y-23080D01*
X46205Y-23395D01*
X46265Y-23080D02*
X46445Y-23080D01*
X46355Y-23395D02*
X46355Y-23080D01*
X41775Y-18040D02*
X41775Y-17725D01*
X41850Y-17725D01*
X41895Y-17740D01*
X41925Y-17770D01*
X41940Y-17800D01*
X41955Y-17860D01*
X41955Y-17905D01*
X41940Y-17965D01*
X41925Y-17995D01*
X41895Y-18025D01*
X41850Y-18040D01*
X41775Y-18040D01*
X42060Y-17725D02*
X42270Y-17725D01*
X42135Y-18040D01*
X40669Y-17403D02*
X40774Y-17403D01*
X40819Y-17568D02*
X40669Y-17568D01*
X40669Y-17253D01*
X40819Y-17253D01*
X40924Y-17253D02*
X41134Y-17568D01*
X41134Y-17253D02*
X40924Y-17568D01*
X41209Y-17253D02*
X41389Y-17253D01*
X41299Y-17568D02*
X41299Y-17253D01*
X41419Y-17598D02*
X41659Y-17598D01*
X41794Y-17253D02*
X41854Y-17253D01*
X41884Y-17268D01*
X41914Y-17298D01*
X41929Y-17358D01*
X41929Y-17463D01*
X41914Y-17523D01*
X41884Y-17553D01*
X41854Y-17568D01*
X41794Y-17568D01*
X41764Y-17553D01*
X41734Y-17523D01*
X41719Y-17463D01*
X41719Y-17358D01*
X41734Y-17298D01*
X41764Y-17268D01*
X41794Y-17253D01*
X42064Y-17568D02*
X42064Y-17253D01*
X42244Y-17568D01*
X42244Y-17253D01*
X54314Y-17962D02*
X54314Y-17647D01*
X54389Y-17647D01*
X54434Y-17662D01*
X54464Y-17692D01*
X54479Y-17722D01*
X54494Y-17782D01*
X54494Y-17827D01*
X54479Y-17887D01*
X54464Y-17917D01*
X54434Y-17947D01*
X54389Y-17962D01*
X54314Y-17962D01*
X54644Y-17962D02*
X54704Y-17962D01*
X54734Y-17947D01*
X54749Y-17932D01*
X54779Y-17887D01*
X54794Y-17827D01*
X54794Y-17707D01*
X54779Y-17677D01*
X54764Y-17662D01*
X54734Y-17647D01*
X54674Y-17647D01*
X54644Y-17662D01*
X54629Y-17677D01*
X54614Y-17707D01*
X54614Y-17782D01*
X54629Y-17812D01*
X54644Y-17827D01*
X54674Y-17842D01*
X54734Y-17842D01*
X54764Y-17827D01*
X54779Y-17812D01*
X54794Y-17782D01*
X55324Y-19109D02*
X55324Y-19259D01*
X55009Y-19259D01*
X55309Y-19019D02*
X55324Y-18974D01*
X55324Y-18899D01*
X55309Y-18869D01*
X55294Y-18854D01*
X55264Y-18839D01*
X55234Y-18839D01*
X55204Y-18854D01*
X55189Y-18869D01*
X55174Y-18899D01*
X55159Y-18959D01*
X55144Y-18989D01*
X55129Y-19004D01*
X55099Y-19019D01*
X55069Y-19019D01*
X55039Y-19004D01*
X55024Y-18989D01*
X55009Y-18959D01*
X55009Y-18884D01*
X55024Y-18839D01*
X55324Y-18704D02*
X55009Y-18704D01*
X55234Y-18599D01*
X55009Y-18494D01*
X55324Y-18494D01*
X55324Y-18179D02*
X55324Y-18359D01*
X55324Y-18269D02*
X55009Y-18269D01*
X55054Y-18299D01*
X55084Y-18329D01*
X55099Y-18359D01*
X55324Y-17879D02*
X55324Y-18059D01*
X55324Y-17969D02*
X55009Y-17969D01*
X55054Y-17999D01*
X55084Y-18029D01*
X55099Y-18059D01*
X55009Y-17594D02*
X55009Y-17744D01*
X55159Y-17759D01*
X55144Y-17744D01*
X55129Y-17714D01*
X55129Y-17639D01*
X55144Y-17609D01*
X55159Y-17594D01*
X55189Y-17579D01*
X55264Y-17579D01*
X55294Y-17594D01*
X55309Y-17609D01*
X55324Y-17639D01*
X55324Y-17714D01*
X55309Y-17744D01*
X55294Y-17759D01*
X55009Y-17354D02*
X55234Y-17354D01*
X55279Y-17369D01*
X55309Y-17399D01*
X55324Y-17444D01*
X55324Y-17474D01*
X37493Y-14962D02*
X37388Y-14962D01*
X37388Y-15127D02*
X37388Y-14812D01*
X37538Y-14812D01*
X37823Y-15127D02*
X37643Y-15127D01*
X37733Y-15127D02*
X37733Y-14812D01*
X37703Y-14857D01*
X37673Y-14887D01*
X37643Y-14902D01*
X37808Y-25836D02*
X37808Y-26061D01*
X37793Y-26106D01*
X37763Y-26136D01*
X37718Y-26151D01*
X37688Y-26151D01*
X37943Y-25866D02*
X37958Y-25851D01*
X37988Y-25836D01*
X38063Y-25836D01*
X38093Y-25851D01*
X38108Y-25866D01*
X38123Y-25896D01*
X38123Y-25926D01*
X38108Y-25971D01*
X37928Y-26151D01*
X38123Y-26151D01*
X34881Y-26151D02*
X34731Y-26151D01*
X34731Y-25836D01*
X34986Y-26151D02*
X34986Y-25941D01*
X34986Y-25836D02*
X34971Y-25851D01*
X34986Y-25866D01*
X35001Y-25851D01*
X34986Y-25836D01*
X34986Y-25866D01*
X35136Y-26151D02*
X35136Y-25836D01*
X35256Y-25836D01*
X35286Y-25851D01*
X35301Y-25866D01*
X35316Y-25896D01*
X35316Y-25941D01*
X35301Y-25971D01*
X35286Y-25986D01*
X35256Y-26001D01*
X35136Y-26001D01*
X35496Y-26151D02*
X35466Y-26136D01*
X35451Y-26121D01*
X35436Y-26091D01*
X35436Y-26001D01*
X35451Y-25971D01*
X35466Y-25956D01*
X35496Y-25941D01*
X35541Y-25941D01*
X35571Y-25956D01*
X35586Y-25971D01*
X35601Y-26001D01*
X35601Y-26091D01*
X35586Y-26121D01*
X35571Y-26136D01*
X35541Y-26151D01*
X35496Y-26151D01*
X35661Y-26181D02*
X35901Y-26181D01*
X36066Y-25836D02*
X36066Y-26061D01*
X36051Y-26106D01*
X36021Y-26136D01*
X35976Y-26151D01*
X35946Y-26151D01*
X36201Y-26136D02*
X36246Y-26151D01*
X36321Y-26151D01*
X36351Y-26136D01*
X36366Y-26121D01*
X36381Y-26091D01*
X36381Y-26061D01*
X36366Y-26031D01*
X36351Y-26016D01*
X36321Y-26001D01*
X36261Y-25986D01*
X36231Y-25971D01*
X36216Y-25956D01*
X36201Y-25926D01*
X36201Y-25896D01*
X36216Y-25866D01*
X36231Y-25851D01*
X36261Y-25836D01*
X36336Y-25836D01*
X36381Y-25851D01*
X36471Y-25836D02*
X36651Y-25836D01*
X36561Y-26151D02*
X36561Y-25836D01*
X38196Y-25021D02*
X38196Y-24781D01*
X38196Y-23053D02*
X38196Y-22813D01*
X38316Y-22933D02*
X38076Y-22933D01*
X51227Y-18257D02*
X51227Y-18482D01*
X51212Y-18527D01*
X51182Y-18557D01*
X51137Y-18572D01*
X51107Y-18572D01*
X51512Y-18362D02*
X51512Y-18572D01*
X51437Y-18242D02*
X51362Y-18467D01*
X51557Y-18467D01*
X48630Y-17694D02*
X48780Y-17694D01*
X48600Y-17784D02*
X48705Y-17470D01*
X48810Y-17784D01*
X49050Y-17574D02*
X49050Y-17784D01*
X48915Y-17574D02*
X48915Y-17739D01*
X48930Y-17769D01*
X48960Y-17784D01*
X49005Y-17784D01*
X49035Y-17769D01*
X49050Y-17754D01*
X49155Y-17574D02*
X49275Y-17574D01*
X49200Y-17470D02*
X49200Y-17739D01*
X49215Y-17769D01*
X49245Y-17784D01*
X49275Y-17784D01*
X49425Y-17784D02*
X49395Y-17769D01*
X49380Y-17754D01*
X49365Y-17724D01*
X49365Y-17634D01*
X49380Y-17604D01*
X49395Y-17589D01*
X49425Y-17574D01*
X49470Y-17574D01*
X49500Y-17589D01*
X49515Y-17604D01*
X49530Y-17634D01*
X49530Y-17724D01*
X49515Y-17754D01*
X49500Y-17769D01*
X49470Y-17784D01*
X49425Y-17784D01*
X49590Y-17814D02*
X49830Y-17814D01*
X49965Y-17470D02*
X50025Y-17470D01*
X50055Y-17485D01*
X50085Y-17514D01*
X50100Y-17574D01*
X50100Y-17679D01*
X50085Y-17739D01*
X50055Y-17769D01*
X50025Y-17784D01*
X49965Y-17784D01*
X49935Y-17769D01*
X49905Y-17739D01*
X49890Y-17679D01*
X49890Y-17574D01*
X49905Y-17514D01*
X49935Y-17485D01*
X49965Y-17470D01*
X50235Y-17574D02*
X50235Y-17784D01*
X50235Y-17604D02*
X50250Y-17589D01*
X50280Y-17574D01*
X50325Y-17574D01*
X50355Y-17589D01*
X50370Y-17619D01*
X50370Y-17784D01*
X50682Y-8218D02*
X50682Y-8443D01*
X50667Y-8488D01*
X50637Y-8517D01*
X50592Y-8532D01*
X50562Y-8532D01*
X50967Y-8218D02*
X50907Y-8218D01*
X50877Y-8233D01*
X50862Y-8248D01*
X50832Y-8293D01*
X50817Y-8353D01*
X50817Y-8473D01*
X50832Y-8502D01*
X50847Y-8517D01*
X50877Y-8532D01*
X50937Y-8532D01*
X50967Y-8517D01*
X50982Y-8502D01*
X50997Y-8473D01*
X50997Y-8398D01*
X50982Y-8368D01*
X50967Y-8353D01*
X50937Y-8338D01*
X50877Y-8338D01*
X50847Y-8353D01*
X50832Y-8368D01*
X50817Y-8398D01*
X50194Y-10855D02*
X50044Y-10855D01*
X50029Y-11005D01*
X50044Y-10990D01*
X50074Y-10975D01*
X50149Y-10975D01*
X50179Y-10990D01*
X50194Y-11005D01*
X50209Y-11035D01*
X50209Y-11110D01*
X50194Y-11140D01*
X50179Y-11155D01*
X50149Y-11170D01*
X50074Y-11170D01*
X50044Y-11155D01*
X50029Y-11140D01*
X50299Y-10855D02*
X50404Y-11170D01*
X50509Y-10855D01*
X50539Y-11200D02*
X50779Y-11200D01*
X50854Y-11005D02*
X50959Y-11005D01*
X51004Y-11170D02*
X50854Y-11170D01*
X50854Y-10855D01*
X51004Y-10855D01*
X51109Y-10855D02*
X51319Y-11170D01*
X51319Y-10855D02*
X51109Y-11170D01*
X51394Y-10855D02*
X51574Y-10855D01*
X51484Y-11170D02*
X51484Y-10855D01*
X42414Y-12489D02*
X42414Y-12714D01*
X42399Y-12759D01*
X42369Y-12789D01*
X42324Y-12804D01*
X42294Y-12804D01*
X42534Y-12489D02*
X42744Y-12489D01*
X42609Y-12804D01*
X42099Y-15029D02*
X41949Y-15029D01*
X41934Y-15179D01*
X41949Y-15164D01*
X41979Y-15149D01*
X42054Y-15149D01*
X42084Y-15164D01*
X42099Y-15179D01*
X42114Y-15209D01*
X42114Y-15284D01*
X42099Y-15314D01*
X42084Y-15329D01*
X42054Y-15344D01*
X41979Y-15344D01*
X41949Y-15329D01*
X41934Y-15314D01*
X42204Y-15029D02*
X42309Y-15344D01*
X42414Y-15029D01*
X42444Y-15374D02*
X42684Y-15374D01*
X42759Y-15344D02*
X42759Y-15029D01*
X42909Y-15344D02*
X42909Y-15029D01*
X43089Y-15344D01*
X43089Y-15029D01*
X44370Y-24887D02*
X44370Y-25112D01*
X44355Y-25157D01*
X44325Y-25187D01*
X44280Y-25202D01*
X44250Y-25202D01*
X44564Y-25022D02*
X44534Y-25007D01*
X44519Y-24992D01*
X44504Y-24962D01*
X44504Y-24947D01*
X44519Y-24917D01*
X44534Y-24902D01*
X44564Y-24887D01*
X44624Y-24887D01*
X44654Y-24902D01*
X44669Y-24917D01*
X44684Y-24947D01*
X44684Y-24962D01*
X44669Y-24992D01*
X44654Y-25007D01*
X44624Y-25022D01*
X44564Y-25022D01*
X44534Y-25037D01*
X44519Y-25052D01*
X44504Y-25082D01*
X44504Y-25142D01*
X44519Y-25172D01*
X44534Y-25187D01*
X44564Y-25202D01*
X44624Y-25202D01*
X44654Y-25187D01*
X44669Y-25172D01*
X44684Y-25142D01*
X44684Y-25082D01*
X44669Y-25052D01*
X44654Y-25037D01*
X44624Y-25022D01*
X43493Y-26895D02*
X43808Y-26790D01*
X43493Y-26685D01*
X43643Y-26475D02*
X43658Y-26430D01*
X43673Y-26415D01*
X43703Y-26400D01*
X43748Y-26400D01*
X43778Y-26415D01*
X43793Y-26430D01*
X43808Y-26460D01*
X43808Y-26580D01*
X43493Y-26580D01*
X43493Y-26475D01*
X43508Y-26445D01*
X43523Y-26430D01*
X43553Y-26415D01*
X43583Y-26415D01*
X43613Y-26430D01*
X43628Y-26445D01*
X43643Y-26475D01*
X43643Y-26580D01*
X43718Y-26280D02*
X43718Y-26130D01*
X43808Y-26310D02*
X43493Y-26205D01*
X43808Y-26100D01*
X43493Y-26040D02*
X43493Y-25860D01*
X43808Y-25950D02*
X43493Y-25950D01*
X54320Y-24887D02*
X54320Y-25112D01*
X54305Y-25157D01*
X54275Y-25187D01*
X54230Y-25202D01*
X54200Y-25202D01*
X54484Y-25202D02*
X54544Y-25202D01*
X54574Y-25187D01*
X54589Y-25172D01*
X54619Y-25127D01*
X54634Y-25067D01*
X54634Y-24947D01*
X54619Y-24917D01*
X54604Y-24902D01*
X54574Y-24887D01*
X54514Y-24887D01*
X54484Y-24902D01*
X54469Y-24917D01*
X54454Y-24947D01*
X54454Y-25022D01*
X54469Y-25052D01*
X54484Y-25067D01*
X54514Y-25082D01*
X54574Y-25082D01*
X54604Y-25067D01*
X54619Y-25052D01*
X54634Y-25022D01*
X53836Y-24261D02*
X53686Y-24261D01*
X53671Y-24411D01*
X53686Y-24396D01*
X53716Y-24381D01*
X53791Y-24381D01*
X53821Y-24396D01*
X53836Y-24411D01*
X53851Y-24441D01*
X53851Y-24516D01*
X53836Y-24546D01*
X53821Y-24561D01*
X53791Y-24576D01*
X53716Y-24576D01*
X53686Y-24561D01*
X53671Y-24546D01*
X53941Y-24261D02*
X54046Y-24576D01*
X54151Y-24261D01*
X54181Y-24606D02*
X54421Y-24606D01*
X54601Y-24411D02*
X54646Y-24426D01*
X54661Y-24441D01*
X54676Y-24471D01*
X54676Y-24516D01*
X54661Y-24546D01*
X54646Y-24561D01*
X54616Y-24576D01*
X54496Y-24576D01*
X54496Y-24261D01*
X54601Y-24261D01*
X54631Y-24276D01*
X54646Y-24291D01*
X54661Y-24321D01*
X54661Y-24351D01*
X54646Y-24381D01*
X54631Y-24396D01*
X54601Y-24411D01*
X54496Y-24411D01*
X54796Y-24486D02*
X54946Y-24486D01*
X54766Y-24576D02*
X54871Y-24261D01*
X54976Y-24576D01*
X55036Y-24261D02*
X55216Y-24261D01*
X55126Y-24576D02*
X55126Y-24261D01*
X47363Y-12450D02*
X47363Y-12675D01*
X47348Y-12720D01*
X47318Y-12750D01*
X47273Y-12765D01*
X47243Y-12765D01*
X47678Y-12765D02*
X47498Y-12765D01*
X47588Y-12765D02*
X47588Y-12450D01*
X47558Y-12495D01*
X47528Y-12525D01*
X47498Y-12540D01*
X47873Y-12450D02*
X47903Y-12450D01*
X47933Y-12465D01*
X47948Y-12480D01*
X47963Y-12510D01*
X47978Y-12570D01*
X47978Y-12645D01*
X47963Y-12705D01*
X47948Y-12735D01*
X47933Y-12750D01*
X47903Y-12765D01*
X47873Y-12765D01*
X47843Y-12750D01*
X47828Y-12735D01*
X47813Y-12705D01*
X47798Y-12645D01*
X47798Y-12570D01*
X47813Y-12510D01*
X47828Y-12480D01*
X47843Y-12465D01*
X47873Y-12450D01*
X47205Y-15029D02*
X47055Y-15029D01*
X47040Y-15179D01*
X47055Y-15164D01*
X47085Y-15149D01*
X47160Y-15149D01*
X47190Y-15164D01*
X47205Y-15179D01*
X47220Y-15209D01*
X47220Y-15284D01*
X47205Y-15314D01*
X47190Y-15329D01*
X47160Y-15344D01*
X47085Y-15344D01*
X47055Y-15329D01*
X47040Y-15314D01*
X47310Y-15029D02*
X47415Y-15344D01*
X47520Y-15029D01*
X47550Y-15374D02*
X47790Y-15374D01*
X47865Y-15344D02*
X47865Y-15029D01*
X47985Y-15029D01*
X48015Y-15044D01*
X48030Y-15059D01*
X48045Y-15089D01*
X48045Y-15134D01*
X48030Y-15164D01*
X48015Y-15179D01*
X47985Y-15194D01*
X47865Y-15194D01*
X48180Y-15344D02*
X48180Y-15134D01*
X48180Y-15029D02*
X48165Y-15044D01*
X48180Y-15059D01*
X48195Y-15044D01*
X48180Y-15029D01*
X48180Y-15059D01*
X55412Y-12092D02*
X55097Y-12092D01*
X55097Y-11972D01*
X55112Y-11942D01*
X55127Y-11927D01*
X55157Y-11912D01*
X55202Y-11912D01*
X55232Y-11927D01*
X55247Y-11942D01*
X55262Y-11972D01*
X55262Y-12092D01*
X55412Y-11612D02*
X55412Y-11792D01*
X55412Y-11702D02*
X55097Y-11702D01*
X55142Y-11732D01*
X55172Y-11762D01*
X55187Y-11792D01*
X55412Y-15061D02*
X55262Y-15166D01*
X55412Y-15241D02*
X55097Y-15241D01*
X55097Y-15121D01*
X55112Y-15091D01*
X55127Y-15076D01*
X55157Y-15061D01*
X55202Y-15061D01*
X55232Y-15076D01*
X55247Y-15091D01*
X55262Y-15121D01*
X55262Y-15241D01*
X55322Y-14941D02*
X55322Y-14791D01*
X55412Y-14971D02*
X55097Y-14866D01*
X55412Y-14761D01*
X55397Y-14671D02*
X55412Y-14626D01*
X55412Y-14551D01*
X55397Y-14521D01*
X55382Y-14506D01*
X55352Y-14491D01*
X55322Y-14491D01*
X55292Y-14506D01*
X55277Y-14521D01*
X55262Y-14551D01*
X55247Y-14611D01*
X55232Y-14641D01*
X55217Y-14656D01*
X55187Y-14671D01*
X55157Y-14671D01*
X55127Y-14656D01*
X55112Y-14641D01*
X55097Y-14611D01*
X55097Y-14536D01*
X55112Y-14491D01*
X55412Y-14356D02*
X55097Y-14356D01*
X55097Y-14236D01*
X55112Y-14206D01*
X55127Y-14191D01*
X55157Y-14176D01*
X55202Y-14176D01*
X55232Y-14191D01*
X55247Y-14206D01*
X55262Y-14236D01*
X55262Y-14356D01*
X55412Y-14041D02*
X55097Y-14041D01*
X55442Y-13966D02*
X55442Y-13726D01*
X55112Y-13486D02*
X55097Y-13516D01*
X55097Y-13561D01*
X55112Y-13606D01*
X55142Y-13636D01*
X55172Y-13651D01*
X55232Y-13666D01*
X55277Y-13666D01*
X55337Y-13651D01*
X55367Y-13636D01*
X55397Y-13606D01*
X55412Y-13561D01*
X55412Y-13531D01*
X55397Y-13486D01*
X55382Y-13471D01*
X55277Y-13471D01*
X55277Y-13531D01*
X55412Y-13336D02*
X55097Y-13336D01*
X55097Y-13216D01*
X55112Y-13186D01*
X55127Y-13171D01*
X55157Y-13156D01*
X55202Y-13156D01*
X55232Y-13171D01*
X55247Y-13186D01*
X55262Y-13216D01*
X55262Y-13336D01*
X55412Y-13021D02*
X55097Y-13021D01*
X55097Y-12811D02*
X55097Y-12751D01*
X55112Y-12721D01*
X55142Y-12691D01*
X55202Y-12676D01*
X55307Y-12676D01*
X55367Y-12691D01*
X55397Y-12721D01*
X55412Y-12751D01*
X55412Y-12811D01*
X55397Y-12841D01*
X55367Y-12871D01*
X55307Y-12886D01*
X55202Y-12886D01*
X55142Y-12871D01*
X55112Y-12841D01*
X55097Y-12811D01*
X40180Y-7844D02*
X40180Y-7529D01*
X40300Y-7529D01*
X40330Y-7544D01*
X40345Y-7559D01*
X40360Y-7589D01*
X40360Y-7634D01*
X40345Y-7664D01*
X40330Y-7679D01*
X40300Y-7694D01*
X40180Y-7694D01*
X40480Y-7559D02*
X40495Y-7544D01*
X40525Y-7529D01*
X40600Y-7529D01*
X40630Y-7544D01*
X40645Y-7559D01*
X40660Y-7589D01*
X40660Y-7619D01*
X40645Y-7664D01*
X40465Y-7844D01*
X40660Y-7844D01*
X40184Y-7962D02*
X40289Y-8277D01*
X40394Y-7962D01*
X40424Y-8307D02*
X40664Y-8307D01*
X40739Y-8277D02*
X40739Y-7962D01*
X40889Y-8277D02*
X40889Y-7962D01*
X41069Y-8277D01*
X41069Y-7962D01*
X48985Y-16141D02*
X48955Y-16126D01*
X48925Y-16096D01*
X48880Y-16051D01*
X48850Y-16036D01*
X48820Y-16036D01*
X48835Y-16111D02*
X48805Y-16096D01*
X48775Y-16066D01*
X48760Y-16006D01*
X48760Y-15901D01*
X48775Y-15841D01*
X48805Y-15811D01*
X48835Y-15796D01*
X48895Y-15796D01*
X48925Y-15811D01*
X48955Y-15841D01*
X48970Y-15901D01*
X48970Y-16006D01*
X48955Y-16066D01*
X48925Y-16096D01*
X48895Y-16111D01*
X48835Y-16111D01*
X49090Y-15826D02*
X49105Y-15811D01*
X49135Y-15796D01*
X49210Y-15796D01*
X49240Y-15811D01*
X49255Y-15826D01*
X49270Y-15856D01*
X49270Y-15886D01*
X49255Y-15931D01*
X49075Y-16111D01*
X49270Y-16111D01*
X40269Y-25245D02*
X40164Y-25095D01*
X40089Y-25245D02*
X40089Y-24930D01*
X40209Y-24930D01*
X40239Y-24945D01*
X40254Y-24960D01*
X40269Y-24990D01*
X40269Y-25035D01*
X40254Y-25065D01*
X40239Y-25080D01*
X40209Y-25095D01*
X40089Y-25095D01*
X40569Y-25245D02*
X40389Y-25245D01*
X40479Y-25245D02*
X40479Y-24930D01*
X40449Y-24975D01*
X40419Y-25005D01*
X40389Y-25020D01*
X40854Y-24930D02*
X40704Y-24930D01*
X40689Y-25080D01*
X40704Y-25065D01*
X40734Y-25050D01*
X40809Y-25050D01*
X40839Y-25065D01*
X40854Y-25080D01*
X40869Y-25110D01*
X40869Y-25185D01*
X40854Y-25215D01*
X40839Y-25230D01*
X40809Y-25245D01*
X40734Y-25245D01*
X40704Y-25230D01*
X40689Y-25215D01*
X42447Y-30677D02*
X42342Y-30527D01*
X42267Y-30677D02*
X42267Y-30362D01*
X42387Y-30362D01*
X42417Y-30377D01*
X42432Y-30392D01*
X42447Y-30422D01*
X42447Y-30467D01*
X42432Y-30497D01*
X42417Y-30512D01*
X42387Y-30527D01*
X42267Y-30527D01*
X42747Y-30677D02*
X42567Y-30677D01*
X42657Y-30677D02*
X42657Y-30362D01*
X42627Y-30407D01*
X42597Y-30437D01*
X42567Y-30452D01*
X43017Y-30362D02*
X42957Y-30362D01*
X42927Y-30377D01*
X42912Y-30392D01*
X42882Y-30437D01*
X42867Y-30497D01*
X42867Y-30617D01*
X42882Y-30647D01*
X42897Y-30662D01*
X42927Y-30677D01*
X42987Y-30677D01*
X43017Y-30662D01*
X43032Y-30647D01*
X43047Y-30617D01*
X43047Y-30542D01*
X43032Y-30512D01*
X43017Y-30497D01*
X42987Y-30482D01*
X42927Y-30482D01*
X42897Y-30497D01*
X42882Y-30512D01*
X42867Y-30542D01*
X39472Y-30652D02*
X39367Y-30502D01*
X39292Y-30652D02*
X39292Y-30337D01*
X39412Y-30337D01*
X39442Y-30352D01*
X39457Y-30367D01*
X39472Y-30397D01*
X39472Y-30442D01*
X39457Y-30472D01*
X39442Y-30487D01*
X39412Y-30502D01*
X39292Y-30502D01*
X39772Y-30652D02*
X39592Y-30652D01*
X39682Y-30652D02*
X39682Y-30337D01*
X39652Y-30382D01*
X39622Y-30412D01*
X39592Y-30427D01*
X39877Y-30337D02*
X40087Y-30337D01*
X39952Y-30652D01*
X54453Y-20855D02*
X54348Y-20705D01*
X54273Y-20855D02*
X54273Y-20540D01*
X54393Y-20540D01*
X54423Y-20555D01*
X54438Y-20570D01*
X54453Y-20600D01*
X54453Y-20645D01*
X54438Y-20675D01*
X54423Y-20690D01*
X54393Y-20705D01*
X54273Y-20705D01*
X54752Y-20855D02*
X54573Y-20855D01*
X54663Y-20855D02*
X54663Y-20540D01*
X54633Y-20585D01*
X54603Y-20615D01*
X54573Y-20630D01*
X54932Y-20675D02*
X54902Y-20660D01*
X54887Y-20645D01*
X54872Y-20615D01*
X54872Y-20600D01*
X54887Y-20570D01*
X54902Y-20555D01*
X54932Y-20540D01*
X54992Y-20540D01*
X55022Y-20555D01*
X55037Y-20570D01*
X55052Y-20600D01*
X55052Y-20615D01*
X55037Y-20645D01*
X55022Y-20660D01*
X54992Y-20675D01*
X54932Y-20675D01*
X54902Y-20690D01*
X54887Y-20705D01*
X54872Y-20735D01*
X54872Y-20795D01*
X54887Y-20825D01*
X54902Y-20840D01*
X54932Y-20855D01*
X54992Y-20855D01*
X55022Y-20840D01*
X55037Y-20825D01*
X55052Y-20795D01*
X55052Y-20735D01*
X55037Y-20705D01*
X55022Y-20690D01*
X54992Y-20675D01*
X50506Y-17056D02*
X50401Y-16906D01*
X50326Y-17056D02*
X50326Y-16741D01*
X50446Y-16741D01*
X50476Y-16756D01*
X50491Y-16771D01*
X50506Y-16801D01*
X50506Y-16846D01*
X50491Y-16876D01*
X50476Y-16891D01*
X50446Y-16906D01*
X50326Y-16906D01*
X50806Y-17056D02*
X50626Y-17056D01*
X50716Y-17056D02*
X50716Y-16741D01*
X50686Y-16786D01*
X50656Y-16816D01*
X50626Y-16831D01*
X50956Y-17056D02*
X51016Y-17056D01*
X51046Y-17041D01*
X51061Y-17026D01*
X51091Y-16981D01*
X51106Y-16921D01*
X51106Y-16801D01*
X51091Y-16771D01*
X51076Y-16756D01*
X51046Y-16741D01*
X50986Y-16741D01*
X50956Y-16756D01*
X50941Y-16771D01*
X50926Y-16801D01*
X50926Y-16876D01*
X50941Y-16906D01*
X50956Y-16921D01*
X50986Y-16936D01*
X51046Y-16936D01*
X51076Y-16921D01*
X51091Y-16906D01*
X51106Y-16876D01*
X54817Y-15973D02*
X54712Y-15823D01*
X54637Y-15973D02*
X54637Y-15658D01*
X54757Y-15658D01*
X54787Y-15673D01*
X54802Y-15688D01*
X54817Y-15718D01*
X54817Y-15763D01*
X54802Y-15793D01*
X54787Y-15808D01*
X54757Y-15823D01*
X54637Y-15823D01*
X54937Y-15688D02*
X54952Y-15673D01*
X54982Y-15658D01*
X55057Y-15658D01*
X55087Y-15673D01*
X55102Y-15688D01*
X55117Y-15718D01*
X55117Y-15748D01*
X55102Y-15793D01*
X54922Y-15973D01*
X55117Y-15973D01*
X55312Y-15658D02*
X55342Y-15658D01*
X55372Y-15673D01*
X55387Y-15688D01*
X55402Y-15718D01*
X55417Y-15778D01*
X55417Y-15853D01*
X55402Y-15913D01*
X55387Y-15943D01*
X55372Y-15958D01*
X55342Y-15973D01*
X55312Y-15973D01*
X55282Y-15958D01*
X55267Y-15943D01*
X55252Y-15913D01*
X55237Y-15853D01*
X55237Y-15778D01*
X55252Y-15718D01*
X55267Y-15688D01*
X55282Y-15673D01*
X55312Y-15658D01*
X54817Y-17056D02*
X54712Y-16906D01*
X54637Y-17056D02*
X54637Y-16741D01*
X54757Y-16741D01*
X54787Y-16756D01*
X54802Y-16771D01*
X54817Y-16801D01*
X54817Y-16846D01*
X54802Y-16876D01*
X54787Y-16891D01*
X54757Y-16906D01*
X54637Y-16906D01*
X54937Y-16771D02*
X54952Y-16756D01*
X54982Y-16741D01*
X55057Y-16741D01*
X55087Y-16756D01*
X55102Y-16771D01*
X55117Y-16801D01*
X55117Y-16831D01*
X55102Y-16876D01*
X54922Y-17056D01*
X55117Y-17056D01*
X55417Y-17056D02*
X55237Y-17056D01*
X55327Y-17056D02*
X55327Y-16741D01*
X55297Y-16786D01*
X55267Y-16816D01*
X55237Y-16831D01*
X50506Y-16249D02*
X50401Y-16099D01*
X50326Y-16249D02*
X50326Y-15934D01*
X50446Y-15934D01*
X50476Y-15949D01*
X50491Y-15964D01*
X50506Y-15994D01*
X50506Y-16039D01*
X50491Y-16069D01*
X50476Y-16084D01*
X50446Y-16099D01*
X50326Y-16099D01*
X50626Y-15964D02*
X50641Y-15949D01*
X50671Y-15934D01*
X50746Y-15934D01*
X50776Y-15949D01*
X50791Y-15964D01*
X50806Y-15994D01*
X50806Y-16024D01*
X50791Y-16069D01*
X50611Y-16249D01*
X50806Y-16249D01*
X50926Y-15964D02*
X50941Y-15949D01*
X50971Y-15934D01*
X51046Y-15934D01*
X51076Y-15949D01*
X51091Y-15964D01*
X51106Y-15994D01*
X51106Y-16024D01*
X51091Y-16069D01*
X50911Y-16249D01*
X51106Y-16249D01*
X47602Y-18040D02*
X47602Y-17725D01*
X47677Y-17725D01*
X47722Y-17740D01*
X47752Y-17770D01*
X47767Y-17800D01*
X47782Y-17860D01*
X47782Y-17905D01*
X47767Y-17965D01*
X47752Y-17995D01*
X47722Y-18025D01*
X47677Y-18040D01*
X47602Y-18040D01*
X47977Y-17725D02*
X48007Y-17725D01*
X48037Y-17740D01*
X48052Y-17755D01*
X48067Y-17785D01*
X48082Y-17845D01*
X48082Y-17920D01*
X48067Y-17980D01*
X48052Y-18010D01*
X48037Y-18025D01*
X48007Y-18040D01*
X47977Y-18040D01*
X47947Y-18025D01*
X47932Y-18010D01*
X47917Y-17980D01*
X47902Y-17920D01*
X47902Y-17845D01*
X47917Y-17785D01*
X47932Y-17755D01*
X47947Y-17740D01*
X47977Y-17725D01*
X47602Y-17568D02*
X47602Y-17253D01*
X47677Y-17253D01*
X47722Y-17268D01*
X47752Y-17298D01*
X47767Y-17328D01*
X47782Y-17388D01*
X47782Y-17433D01*
X47767Y-17493D01*
X47752Y-17523D01*
X47722Y-17553D01*
X47677Y-17568D01*
X47602Y-17568D01*
X48082Y-17568D02*
X47902Y-17568D01*
X47992Y-17568D02*
X47992Y-17253D01*
X47962Y-17298D01*
X47932Y-17328D01*
X47902Y-17343D01*
X46649Y-19970D02*
X46829Y-19970D01*
X46739Y-20284D02*
X46739Y-19970D01*
X46934Y-20284D02*
X46934Y-19970D01*
X47054Y-19970D01*
X47084Y-19985D01*
X47099Y-20000D01*
X47114Y-20029D01*
X47114Y-20074D01*
X47099Y-20104D01*
X47084Y-20119D01*
X47054Y-20134D01*
X46934Y-20134D01*
X47414Y-20284D02*
X47234Y-20284D01*
X47324Y-20284D02*
X47324Y-19970D01*
X47294Y-20014D01*
X47264Y-20044D01*
X47234Y-20059D01*
X37049Y-12131D02*
X37049Y-12356D01*
X37034Y-12401D01*
X37004Y-12431D01*
X36959Y-12446D01*
X36929Y-12446D01*
X37364Y-12446D02*
X37184Y-12446D01*
X37274Y-12446D02*
X37274Y-12131D01*
X37244Y-12176D01*
X37214Y-12206D01*
X37184Y-12221D01*
X34608Y-11875D02*
X34608Y-11560D01*
X34713Y-11785D01*
X34818Y-11560D01*
X34818Y-11875D01*
X34968Y-11875D02*
X34968Y-11665D01*
X34968Y-11560D02*
X34953Y-11575D01*
X34968Y-11590D01*
X34983Y-11575D01*
X34968Y-11560D01*
X34968Y-11590D01*
X35253Y-11860D02*
X35223Y-11875D01*
X35163Y-11875D01*
X35133Y-11860D01*
X35118Y-11845D01*
X35103Y-11815D01*
X35103Y-11725D01*
X35118Y-11695D01*
X35133Y-11680D01*
X35163Y-11665D01*
X35223Y-11665D01*
X35253Y-11680D01*
X35388Y-11875D02*
X35388Y-11665D01*
X35388Y-11725D02*
X35403Y-11695D01*
X35418Y-11680D01*
X35448Y-11665D01*
X35478Y-11665D01*
X35628Y-11875D02*
X35598Y-11860D01*
X35583Y-11845D01*
X35568Y-11815D01*
X35568Y-11725D01*
X35583Y-11695D01*
X35598Y-11680D01*
X35628Y-11665D01*
X35673Y-11665D01*
X35703Y-11680D01*
X35718Y-11695D01*
X35733Y-11725D01*
X35733Y-11815D01*
X35718Y-11845D01*
X35703Y-11860D01*
X35673Y-11875D01*
X35628Y-11875D01*
X35868Y-11560D02*
X35868Y-11815D01*
X35883Y-11845D01*
X35898Y-11860D01*
X35928Y-11875D01*
X35988Y-11875D01*
X36018Y-11860D01*
X36033Y-11845D01*
X36048Y-11815D01*
X36048Y-11560D01*
X36183Y-11860D02*
X36228Y-11875D01*
X36303Y-11875D01*
X36333Y-11860D01*
X36348Y-11845D01*
X36363Y-11815D01*
X36363Y-11785D01*
X36348Y-11755D01*
X36333Y-11740D01*
X36303Y-11725D01*
X36243Y-11710D01*
X36213Y-11695D01*
X36198Y-11680D01*
X36183Y-11650D01*
X36183Y-11620D01*
X36198Y-11590D01*
X36213Y-11575D01*
X36243Y-11560D01*
X36318Y-11560D01*
X36363Y-11575D01*
X36603Y-11710D02*
X36648Y-11725D01*
X36663Y-11740D01*
X36678Y-11770D01*
X36678Y-11815D01*
X36663Y-11845D01*
X36648Y-11860D01*
X36618Y-11875D01*
X36498Y-11875D01*
X36498Y-11560D01*
X36603Y-11560D01*
X36633Y-11575D01*
X36648Y-11590D01*
X36663Y-11620D01*
X36663Y-11650D01*
X36648Y-11680D01*
X36633Y-11695D01*
X36603Y-11710D01*
X36498Y-11710D01*
X36738Y-11905D02*
X36978Y-11905D01*
X37053Y-11875D02*
X37053Y-11665D01*
X37053Y-11560D02*
X37038Y-11575D01*
X37053Y-11590D01*
X37068Y-11575D01*
X37053Y-11560D01*
X37053Y-11590D01*
X37203Y-11665D02*
X37203Y-11875D01*
X37203Y-11695D02*
X37218Y-11680D01*
X37248Y-11665D01*
X37293Y-11665D01*
X37323Y-11680D01*
X37338Y-11710D01*
X37338Y-11875D01*
X48860Y-27112D02*
X48860Y-27367D01*
X48875Y-27397D01*
X48890Y-27412D01*
X48920Y-27427D01*
X48980Y-27427D01*
X49010Y-27412D01*
X49025Y-27397D01*
X49040Y-27367D01*
X49040Y-27112D01*
X49324Y-27217D02*
X49324Y-27427D01*
X49249Y-27097D02*
X49174Y-27322D01*
X49369Y-27322D01*
X40485Y-16032D02*
X40485Y-16257D01*
X40470Y-16302D01*
X40440Y-16332D01*
X40395Y-16347D01*
X40365Y-16347D01*
X40605Y-16032D02*
X40800Y-16032D01*
X40695Y-16152D01*
X40740Y-16152D01*
X40770Y-16167D01*
X40785Y-16182D01*
X40800Y-16212D01*
X40800Y-16287D01*
X40785Y-16317D01*
X40770Y-16332D01*
X40740Y-16347D01*
X40650Y-16347D01*
X40620Y-16332D01*
X40605Y-16317D01*
X40442Y-20320D02*
X40697Y-20320D01*
X40727Y-20305D01*
X40742Y-20290D01*
X40757Y-20260D01*
X40757Y-20200D01*
X40742Y-20170D01*
X40727Y-20155D01*
X40697Y-20140D01*
X40442Y-20140D01*
X40742Y-20005D02*
X40757Y-19960D01*
X40757Y-19885D01*
X40742Y-19855D01*
X40727Y-19840D01*
X40697Y-19825D01*
X40667Y-19825D01*
X40637Y-19840D01*
X40622Y-19855D01*
X40607Y-19885D01*
X40592Y-19945D01*
X40577Y-19975D01*
X40562Y-19990D01*
X40532Y-20005D01*
X40502Y-20005D01*
X40472Y-19990D01*
X40457Y-19975D01*
X40442Y-19945D01*
X40442Y-19870D01*
X40457Y-19825D01*
X40592Y-19585D02*
X40607Y-19540D01*
X40622Y-19525D01*
X40652Y-19510D01*
X40697Y-19510D01*
X40727Y-19525D01*
X40742Y-19540D01*
X40757Y-19570D01*
X40757Y-19690D01*
X40442Y-19690D01*
X40442Y-19585D01*
X40457Y-19555D01*
X40472Y-19540D01*
X40502Y-19525D01*
X40532Y-19525D01*
X40562Y-19540D01*
X40577Y-19555D01*
X40592Y-19585D01*
X40592Y-19690D01*
X40787Y-19450D02*
X40787Y-19210D01*
X40667Y-19150D02*
X40667Y-19000D01*
X40757Y-19180D02*
X40442Y-19075D01*
X40757Y-18970D01*
X40787Y-18940D02*
X40787Y-18700D01*
X40757Y-18580D02*
X40742Y-18610D01*
X40727Y-18625D01*
X40697Y-18640D01*
X40607Y-18640D01*
X40577Y-18625D01*
X40562Y-18610D01*
X40547Y-18580D01*
X40547Y-18535D01*
X40562Y-18505D01*
X40577Y-18490D01*
X40607Y-18475D01*
X40697Y-18475D01*
X40727Y-18490D01*
X40742Y-18505D01*
X40757Y-18535D01*
X40757Y-18580D01*
X40547Y-18205D02*
X40757Y-18205D01*
X40547Y-18340D02*
X40712Y-18340D01*
X40742Y-18325D01*
X40757Y-18295D01*
X40757Y-18250D01*
X40742Y-18220D01*
X40727Y-18205D01*
X40547Y-18100D02*
X40547Y-17980D01*
X40442Y-18055D02*
X40712Y-18055D01*
X40742Y-18040D01*
X40757Y-18010D01*
X40757Y-17980D01*
X44248Y-17017D02*
X44248Y-17272D01*
X44263Y-17302D01*
X44278Y-17317D01*
X44308Y-17332D01*
X44368Y-17332D01*
X44398Y-17317D01*
X44413Y-17302D01*
X44428Y-17272D01*
X44428Y-17017D01*
X44548Y-17017D02*
X44743Y-17017D01*
X44638Y-17137D01*
X44683Y-17137D01*
X44713Y-17152D01*
X44728Y-17167D01*
X44743Y-17197D01*
X44743Y-17272D01*
X44728Y-17302D01*
X44713Y-17317D01*
X44683Y-17332D01*
X44593Y-17332D01*
X44563Y-17317D01*
X44548Y-17302D01*
X41660Y-27412D02*
X41660Y-27667D01*
X41675Y-27697D01*
X41690Y-27712D01*
X41720Y-27727D01*
X41780Y-27727D01*
X41810Y-27712D01*
X41825Y-27697D01*
X41840Y-27667D01*
X41840Y-27412D01*
X42139Y-27412D02*
X41989Y-27412D01*
X41974Y-27562D01*
X41989Y-27547D01*
X42019Y-27532D01*
X42094Y-27532D01*
X42124Y-27547D01*
X42139Y-27562D01*
X42154Y-27592D01*
X42154Y-27667D01*
X42139Y-27697D01*
X42124Y-27712D01*
X42094Y-27727D01*
X42019Y-27727D01*
X41989Y-27712D01*
X41974Y-27697D01*
X51545Y-25707D02*
X51515Y-25692D01*
X51485Y-25662D01*
X51440Y-25617D01*
X51410Y-25602D01*
X51380Y-25602D01*
X51395Y-25677D02*
X51365Y-25662D01*
X51335Y-25632D01*
X51320Y-25572D01*
X51320Y-25467D01*
X51335Y-25407D01*
X51365Y-25377D01*
X51395Y-25362D01*
X51455Y-25362D01*
X51485Y-25377D01*
X51515Y-25407D01*
X51530Y-25467D01*
X51530Y-25572D01*
X51515Y-25632D01*
X51485Y-25662D01*
X51455Y-25677D01*
X51395Y-25677D01*
X51829Y-25677D02*
X51649Y-25677D01*
X51739Y-25677D02*
X51739Y-25362D01*
X51709Y-25407D01*
X51679Y-25437D01*
X51649Y-25452D01*
X38832Y-11924D02*
X38832Y-12149D01*
X38817Y-12194D01*
X38787Y-12224D01*
X38742Y-12239D01*
X38712Y-12239D01*
X39131Y-11924D02*
X38982Y-11924D01*
X38967Y-12074D01*
X38982Y-12059D01*
X39011Y-12044D01*
X39086Y-12044D01*
X39116Y-12059D01*
X39131Y-12074D01*
X39146Y-12104D01*
X39146Y-12179D01*
X39131Y-12209D01*
X39116Y-12224D01*
X39086Y-12239D01*
X39011Y-12239D01*
X38982Y-12224D01*
X38967Y-12209D01*
X39409Y-13224D02*
X39259Y-13224D01*
X39244Y-13374D01*
X39259Y-13359D01*
X39289Y-13344D01*
X39364Y-13344D01*
X39394Y-13359D01*
X39409Y-13374D01*
X39424Y-13404D01*
X39424Y-13479D01*
X39409Y-13509D01*
X39394Y-13524D01*
X39364Y-13539D01*
X39289Y-13539D01*
X39259Y-13524D01*
X39244Y-13509D01*
X39514Y-13224D02*
X39619Y-13539D01*
X39724Y-13224D01*
X39754Y-13569D02*
X39994Y-13569D01*
X40069Y-13224D02*
X40069Y-13479D01*
X40084Y-13509D01*
X40099Y-13524D01*
X40129Y-13539D01*
X40189Y-13539D01*
X40219Y-13524D01*
X40234Y-13509D01*
X40249Y-13479D01*
X40249Y-13224D01*
X40384Y-13524D02*
X40429Y-13539D01*
X40504Y-13539D01*
X40534Y-13524D01*
X40549Y-13509D01*
X40564Y-13479D01*
X40564Y-13449D01*
X40549Y-13419D01*
X40534Y-13404D01*
X40504Y-13389D01*
X40444Y-13374D01*
X40414Y-13359D01*
X40399Y-13344D01*
X40384Y-13314D01*
X40384Y-13284D01*
X40399Y-13254D01*
X40414Y-13239D01*
X40444Y-13224D01*
X40519Y-13224D01*
X40564Y-13239D01*
X40804Y-13374D02*
X40849Y-13389D01*
X40864Y-13404D01*
X40879Y-13434D01*
X40879Y-13479D01*
X40864Y-13509D01*
X40849Y-13524D01*
X40819Y-13539D01*
X40699Y-13539D01*
X40699Y-13224D01*
X40804Y-13224D01*
X40834Y-13239D01*
X40849Y-13254D01*
X40864Y-13284D01*
X40864Y-13314D01*
X40849Y-13344D01*
X40834Y-13359D01*
X40804Y-13374D01*
X40699Y-13374D01*
X54694Y-22026D02*
X54919Y-22026D01*
X54964Y-22041D01*
X54994Y-22071D01*
X55009Y-22116D01*
X55009Y-22146D01*
X55009Y-21711D02*
X55009Y-21891D01*
X55009Y-21801D02*
X54694Y-21801D01*
X54739Y-21831D01*
X54769Y-21861D01*
X54784Y-21891D01*
X55009Y-21411D02*
X55009Y-21591D01*
X55009Y-21501D02*
X54694Y-21501D01*
X54739Y-21531D01*
X54769Y-21561D01*
X54784Y-21591D01*
X55452Y-22484D02*
X55452Y-22664D01*
X55452Y-22574D02*
X55137Y-22574D01*
X55182Y-22604D01*
X55212Y-22634D01*
X55227Y-22664D01*
X55167Y-22364D02*
X55152Y-22349D01*
X55137Y-22319D01*
X55137Y-22244D01*
X55152Y-22214D01*
X55167Y-22199D01*
X55197Y-22184D01*
X55227Y-22184D01*
X55272Y-22199D01*
X55452Y-22379D01*
X55452Y-22184D01*
X55137Y-22094D02*
X55452Y-21989D01*
X55137Y-21884D01*
X55482Y-21854D02*
X55482Y-21614D01*
X55137Y-21479D02*
X55137Y-21419D01*
X55152Y-21389D01*
X55182Y-21359D01*
X55242Y-21344D01*
X55347Y-21344D01*
X55407Y-21359D01*
X55437Y-21389D01*
X55452Y-21419D01*
X55452Y-21479D01*
X55437Y-21509D01*
X55407Y-21539D01*
X55347Y-21554D01*
X55242Y-21554D01*
X55182Y-21539D01*
X55152Y-21509D01*
X55137Y-21479D01*
X55242Y-21074D02*
X55452Y-21074D01*
X55242Y-21209D02*
X55407Y-21209D01*
X55437Y-21194D01*
X55452Y-21164D01*
X55452Y-21119D01*
X55437Y-21089D01*
X55422Y-21074D01*
X55242Y-20969D02*
X55242Y-20849D01*
X55137Y-20924D02*
X55407Y-20924D01*
X55437Y-20909D01*
X55452Y-20879D01*
X55452Y-20849D01*
X45094Y-7844D02*
X45094Y-8098D01*
X45109Y-8128D01*
X45124Y-8143D01*
X45154Y-8158D01*
X45214Y-8158D01*
X45244Y-8143D01*
X45259Y-8128D01*
X45274Y-8098D01*
X45274Y-7844D01*
X45409Y-7874D02*
X45424Y-7859D01*
X45454Y-7844D01*
X45529Y-7844D01*
X45559Y-7859D01*
X45574Y-7874D01*
X45589Y-7904D01*
X45589Y-7934D01*
X45574Y-7979D01*
X45394Y-8158D01*
X45589Y-8158D01*
%LPC*%
G54D19*
X47834Y-11417D03*
X47047Y-11417D03*
G54D20*
X44488Y-23340D03*
X44488Y-21540D03*
G54D21*
X41746Y-23720D03*
X39946Y-23720D03*
G54D22*
X49212Y-22145D03*
X49212Y-22933D03*
X47834Y-26082D03*
X47834Y-26870D03*
G54D21*
X43430Y-29133D03*
X45230Y-29133D03*
G54D23*
X50885Y-29232D03*
X49704Y-29232D03*
G54D24*
X45256Y-18602D03*
X44506Y-18602D03*
X44506Y-19586D03*
X45256Y-19586D03*
X42735Y-20472D03*
X43485Y-20472D03*
G54D25*
X50295Y-22914D03*
X50295Y-22164D03*
X52854Y-24686D03*
X52854Y-23936D03*
X49212Y-23936D03*
X49212Y-24686D03*
X50295Y-23936D03*
X50295Y-24686D03*
X46988Y-24686D03*
X46988Y-23936D03*
X46062Y-26752D03*
X46062Y-26002D03*
X46358Y-16516D03*
X46358Y-15766D03*
G54D24*
X43485Y-16633D03*
X42735Y-16633D03*
G54D25*
X51574Y-22164D03*
X51574Y-22914D03*
X48011Y-23936D03*
X48011Y-24686D03*
X41496Y-25865D03*
X41496Y-26615D03*
G54D10*
G36*
X53394Y-26638D02*
X53494Y-26638D01*
X53694Y-27238D01*
X53194Y-27238D01*
X53394Y-26638D01*
X53394Y-26638D01*
G37*
G36*
X53194Y-27288D02*
X53694Y-27288D01*
X53494Y-27888D01*
X53394Y-27888D01*
X53194Y-27288D01*
X53194Y-27288D01*
G37*
G36*
X47981Y-21914D02*
X48081Y-21914D01*
X48281Y-22514D01*
X47781Y-22514D01*
X47981Y-21914D01*
X47981Y-21914D01*
G37*
G36*
X47781Y-22564D02*
X48281Y-22564D01*
X48081Y-23164D01*
X47981Y-23164D01*
X47781Y-22564D01*
X47781Y-22564D01*
G37*
G54D26*
X54319Y-9547D03*
X52569Y-9547D03*
G54D27*
X54819Y-10547D03*
X52069Y-10547D03*
G54D26*
X52569Y-12097D03*
X54319Y-12097D03*
X52944Y-11347D03*
X53944Y-11347D03*
G54D28*
X41771Y-21279D03*
X41771Y-22027D03*
X41771Y-21653D03*
X42874Y-22027D03*
X42874Y-21279D03*
G54D21*
X48518Y-29133D03*
X46718Y-29133D03*
G54D19*
X46259Y-13149D03*
X45472Y-13149D03*
X46259Y-14665D03*
X45472Y-14665D03*
G54D20*
X41889Y-10438D03*
X41889Y-12238D03*
G54D22*
X49507Y-9251D03*
X49507Y-10039D03*
X46259Y-21653D03*
X46259Y-22440D03*
G54D19*
X49507Y-19783D03*
X50295Y-19783D03*
G54D21*
X53951Y-14173D03*
X52151Y-14173D03*
G54D22*
X42677Y-25846D03*
X42677Y-26633D03*
X39271Y-25826D03*
X39271Y-26614D03*
G54D19*
X53641Y-19783D03*
X52854Y-19783D03*
G54D29*
X43287Y-8188D03*
X41673Y-8188D03*
G54D30*
X40604Y-13214D03*
X40604Y-14592D03*
G54D31*
X42710Y-19586D03*
X43510Y-19586D03*
X43510Y-18602D03*
X42710Y-18602D03*
G54D32*
X52165Y-26555D03*
X52165Y-28169D03*
G54D33*
X46062Y-24514D03*
X46062Y-23714D03*
G54D31*
X43510Y-17618D03*
X42710Y-17618D03*
G54D29*
X53759Y-18307D03*
X52145Y-18307D03*
G54D34*
X37604Y-14443D03*
X37604Y-13262D03*
G54D35*
X35511Y-22599D03*
G54D36*
X37696Y-23524D03*
X37696Y-24310D03*
G54D35*
X35511Y-25235D03*
G54D37*
X48507Y-18444D03*
X49507Y-18444D03*
X50507Y-18444D03*
X50787Y-10145D03*
X50787Y-9145D03*
X42519Y-14437D03*
X42519Y-13437D03*
X44488Y-26877D03*
X44488Y-25877D03*
X54429Y-26877D03*
X54429Y-25877D03*
X47618Y-14437D03*
X47618Y-13437D03*
X56084Y-8271D03*
X57084Y-8271D03*
X56084Y-9271D03*
X57084Y-9271D03*
X56084Y-10271D03*
G54D38*
X57084Y-10271D03*
G54D37*
X56084Y-11271D03*
X57084Y-11271D03*
X56084Y-12271D03*
X57084Y-12271D03*
X56084Y-13271D03*
X57084Y-13271D03*
X56084Y-14271D03*
X57084Y-14271D03*
X56084Y-15271D03*
X57084Y-15271D03*
X56084Y-16271D03*
X57084Y-16271D03*
X56084Y-17271D03*
X57084Y-17271D03*
X56084Y-18271D03*
X57084Y-18271D03*
X56084Y-19271D03*
X57084Y-19271D03*
X56084Y-20271D03*
X57084Y-20271D03*
G54D39*
X37795Y-9251D03*
G54D40*
X40195Y-9251D03*
G54D41*
X39045Y-11251D03*
G54D42*
X49053Y-13301D03*
X49053Y-15242D03*
X49553Y-13301D03*
X50053Y-13301D03*
X50553Y-13301D03*
X49553Y-15242D03*
X50053Y-15242D03*
X50553Y-15242D03*
G54D25*
X40472Y-25845D03*
X40472Y-26595D03*
X41692Y-30315D03*
X41692Y-29565D03*
X40669Y-30315D03*
X40669Y-29565D03*
G54D24*
X52971Y-20964D03*
X53721Y-20964D03*
X51652Y-16929D03*
X52402Y-16929D03*
X54115Y-15846D03*
X53365Y-15846D03*
X53365Y-16929D03*
X54115Y-16929D03*
X52402Y-15846D03*
X51652Y-15846D03*
G54D10*
G36*
X46126Y-18258D02*
X46126Y-18158D01*
X46726Y-17958D01*
X46726Y-18458D01*
X46126Y-18258D01*
X46126Y-18258D01*
G37*
G36*
X46776Y-18458D02*
X46776Y-17958D01*
X47376Y-18158D01*
X47376Y-18258D01*
X46776Y-18458D01*
X46776Y-18458D01*
G37*
G36*
X46126Y-17471D02*
X46126Y-17371D01*
X46726Y-17171D01*
X46726Y-17671D01*
X46126Y-17471D01*
X46126Y-17471D01*
G37*
G36*
X46776Y-17671D02*
X46776Y-17171D01*
X47376Y-17371D01*
X47376Y-17471D01*
X46776Y-17671D01*
X46776Y-17671D01*
G37*
G54D37*
X47047Y-19488D03*
G54D43*
X36200Y-13799D03*
X36200Y-14055D03*
X36200Y-14311D03*
X36200Y-13543D03*
X36200Y-13287D03*
G54D44*
X36100Y-12549D03*
X36100Y-15049D03*
G54D45*
X35150Y-13324D03*
X35150Y-14274D03*
G54D46*
X35150Y-12499D03*
X35150Y-15099D03*
G54D47*
X50000Y-25698D03*
X49803Y-25698D03*
X49606Y-25698D03*
X49409Y-25698D03*
G54D48*
X49212Y-25698D03*
X49212Y-26860D03*
G54D47*
X49409Y-26860D03*
X49606Y-26860D03*
X49803Y-26860D03*
X50000Y-26860D03*
G54D49*
X49606Y-26279D03*
G54D50*
X49299Y-26440D03*
X49299Y-26118D03*
X49913Y-26118D03*
X49913Y-26440D03*
G54D51*
X49000Y-26181D03*
X49000Y-26377D03*
X50212Y-26181D03*
X50212Y-26377D03*
G54D52*
X39763Y-20297D03*
X39763Y-19297D03*
X39763Y-18497D03*
X39763Y-17497D03*
G54D53*
X38713Y-21497D03*
X38713Y-16097D03*
G54D54*
X45364Y-15561D03*
G54D55*
X45108Y-15561D03*
X44852Y-15561D03*
X44596Y-15561D03*
X44596Y-16722D03*
X44852Y-16722D03*
X45106Y-16722D03*
X45364Y-16722D03*
G54D56*
X44980Y-16141D03*
G54D57*
X44673Y-16304D03*
X44673Y-15979D03*
X45287Y-15979D03*
X45287Y-16304D03*
G54D58*
X41280Y-27551D03*
X41083Y-27551D03*
X40887Y-27551D03*
X40690Y-27551D03*
X40690Y-28693D03*
X40887Y-28693D03*
X41083Y-28693D03*
X41280Y-28693D03*
G54D59*
X41146Y-28295D03*
X40824Y-28295D03*
X41146Y-27949D03*
X40824Y-27949D03*
G54D60*
X36122Y-29429D03*
X56594Y-29429D03*
G54D61*
X51771Y-24153D03*
X51574Y-24665D03*
X51377Y-24153D03*
G54D37*
X38937Y-14437D03*
X38937Y-13437D03*
X56084Y-21271D03*
X56084Y-22271D03*
X57084Y-21271D03*
X57084Y-22271D03*
G54D62*
X45350Y-9100D03*
G54D63*
X47850Y-9100D03*
X47850Y-8200D03*
X47850Y-10000D03*
M02*
