M48
INCH,TZ
T1C0.012
T2C0.025
T3C0.035
T4C0.039
T5C0.040
T6C0.050
T7C0.060
T8C0.091
T9C0.120
%
G90
G05
T1
X040824Y-027949
X040824Y-028296
X041147Y-027949
X041147Y-028296
X044673Y-015979
X044673Y-016304
X044980Y-016142
X045287Y-015979
X045287Y-016304
X049299Y-026118
X049299Y-026441
X049606Y-026280
X049913Y-026118
X049913Y-026441
T2
X039675Y-025197
X039980Y-029567
X040748Y-021161
X040748Y-021654
X040748Y-022146
X041240Y-021161
X041240Y-021654
X041240Y-022146
X042323Y-021161
X042323Y-022146
X042402Y-029567
X044685Y-015079
X045472Y-014094
X045472Y-022441
X045974Y-028563
X046024Y-018898
X049213Y-023425
X049350Y-014016
X050295Y-023425
X050492Y-014567
X050886Y-028150
X052461Y-020965
X053740Y-022274
X054331Y-018307
T3
X047047Y-019488
T4
X039764Y-017498
X039764Y-018498
X039764Y-019298
X039764Y-020298
T5
X038937Y-013437
X038937Y-014437
X042520Y-013437
X042520Y-014437
X044488Y-025878
X044488Y-026878
X047618Y-013437
X047618Y-014437
X048508Y-018445
X049508Y-018445
X050508Y-018445
X050787Y-009146
X050787Y-010146
X052570Y-009547
X052570Y-012097
X052945Y-011347
X053945Y-011347
X054320Y-009547
X054320Y-012097
X054429Y-025878
X054429Y-026878
X056085Y-008272
X056085Y-009272
X056085Y-010272
X056085Y-011272
X056085Y-012272
X056085Y-013272
X056085Y-014272
X056085Y-015272
X056085Y-016272
X056085Y-017272
X056085Y-018272
X056085Y-019272
X056085Y-020272
X056085Y-021272
X056085Y-022272
X057085Y-008272
X057085Y-009272
X057085Y-010272
X057085Y-011272
X057085Y-012272
X057085Y-013272
X057085Y-014272
X057085Y-015272
X057085Y-016272
X057085Y-017272
X057085Y-018272
X057085Y-019272
X057085Y-020272
X057085Y-021272
X057085Y-022272
T6
X035151Y-012499
X035151Y-015099
X052070Y-010547
X054820Y-010547
T8
X038714Y-016098
X038714Y-021498
T9
X036122Y-029429
X056594Y-029429
T7
X037795Y-008952G85X037795Y-009552
G05
X038745Y-011252G85X039345Y-011252
G05
X040195Y-008952G85X040195Y-009552
G05
T0
M30
