G04 (created by PCBNEW (2013-03-15 BZR 4003)-stable) date 24-Aug-13 4:32:32 PM*
%MOIN*%
G04 Gerber Fmt 3.4, Leading zero omitted, Abs format*
%FSLAX34Y34*%
G01*
G70*
G90*
G04 APERTURE LIST*
%ADD10C,0*%
%ADD11C,0.00787402*%
%ADD12C,0.00984252*%
%ADD13C,0.00590551*%
%ADD14C,0.07*%
%ADD15C,0.08*%
%ADD16C,0.06*%
%ADD17R,0.06X0.06*%
%ADD18C,0.16*%
%ADD19R,0.16X0.16*%
%ADD20O,0.2X0.13*%
%ADD21C,0.075*%
%ADD22R,0.03X0.0646457*%
%ADD23R,0.0323622X0.0323622*%
%ADD24C,0.0591*%
%ADD25C,0.1181*%
%ADD26R,0.03X0.0650394*%
%ADD27R,0.0323622X0.0325591*%
%ADD28R,0.0322835X0.0346457*%
%ADD29C,0.3*%
G04 APERTURE END LIST*
G54D10*
G54D11*
X57903Y-23277D02*
X56053Y-23277D01*
X57903Y-27765D02*
X57903Y-23277D01*
X56053Y-27765D02*
X57903Y-27765D01*
X56053Y-23277D02*
X56053Y-27765D01*
X57277Y-23520D02*
X57592Y-23610D01*
X57367Y-23700D01*
X57592Y-23790D01*
X57277Y-23880D01*
X57277Y-24015D02*
X57592Y-24128D01*
X57277Y-24240D02*
X57592Y-24128D01*
X57705Y-24083D01*
X57727Y-24060D01*
X57750Y-24015D01*
X57592Y-24488D02*
X57570Y-24443D01*
X57547Y-24420D01*
X57502Y-24398D01*
X57367Y-24398D01*
X57322Y-24420D01*
X57300Y-24443D01*
X57277Y-24488D01*
X57277Y-24555D01*
X57300Y-24600D01*
X57322Y-24623D01*
X57367Y-24645D01*
X57502Y-24645D01*
X57547Y-24623D01*
X57570Y-24600D01*
X57592Y-24555D01*
X57592Y-24488D01*
X57592Y-24915D02*
X57570Y-24870D01*
X57525Y-24848D01*
X57120Y-24848D01*
X57277Y-25298D02*
X57592Y-25298D01*
X57277Y-25095D02*
X57525Y-25095D01*
X57570Y-25118D01*
X57592Y-25163D01*
X57592Y-25230D01*
X57570Y-25275D01*
X57547Y-25298D01*
X57592Y-25523D02*
X57277Y-25523D01*
X57322Y-25523D02*
X57300Y-25545D01*
X57277Y-25590D01*
X57277Y-25658D01*
X57300Y-25703D01*
X57345Y-25725D01*
X57592Y-25725D01*
X57345Y-25725D02*
X57300Y-25748D01*
X57277Y-25793D01*
X57277Y-25860D01*
X57300Y-25905D01*
X57345Y-25928D01*
X57592Y-25928D01*
X57547Y-26152D02*
X57570Y-26175D01*
X57592Y-26152D01*
X57570Y-26130D01*
X57547Y-26152D01*
X57592Y-26152D01*
X57570Y-26580D02*
X57592Y-26535D01*
X57592Y-26445D01*
X57570Y-26400D01*
X57547Y-26377D01*
X57502Y-26355D01*
X57367Y-26355D01*
X57322Y-26377D01*
X57300Y-26400D01*
X57277Y-26445D01*
X57277Y-26535D01*
X57300Y-26580D01*
X57592Y-26850D02*
X57570Y-26805D01*
X57547Y-26782D01*
X57502Y-26760D01*
X57367Y-26760D01*
X57322Y-26782D01*
X57300Y-26805D01*
X57277Y-26850D01*
X57277Y-26917D01*
X57300Y-26962D01*
X57322Y-26985D01*
X57367Y-27007D01*
X57502Y-27007D01*
X57547Y-26985D01*
X57570Y-26962D01*
X57592Y-26917D01*
X57592Y-26850D01*
X57592Y-27210D02*
X57277Y-27210D01*
X57322Y-27210D02*
X57300Y-27232D01*
X57277Y-27277D01*
X57277Y-27345D01*
X57300Y-27390D01*
X57345Y-27412D01*
X57592Y-27412D01*
X57345Y-27412D02*
X57300Y-27435D01*
X57277Y-27480D01*
X57277Y-27547D01*
X57300Y-27592D01*
X57345Y-27615D01*
X57592Y-27615D01*
G54D12*
X56892Y-23543D02*
X56302Y-23543D01*
X56302Y-23768D01*
X56330Y-23824D01*
X56358Y-23852D01*
X56414Y-23880D01*
X56498Y-23880D01*
X56555Y-23852D01*
X56583Y-23824D01*
X56611Y-23768D01*
X56611Y-23543D01*
X56892Y-24133D02*
X56498Y-24133D01*
X56302Y-24133D02*
X56330Y-24105D01*
X56358Y-24133D01*
X56330Y-24161D01*
X56302Y-24133D01*
X56358Y-24133D01*
X56667Y-24415D02*
X56667Y-24865D01*
X56892Y-25146D02*
X56302Y-25146D01*
X56302Y-25371D01*
X56330Y-25427D01*
X56358Y-25455D01*
X56414Y-25483D01*
X56498Y-25483D01*
X56555Y-25455D01*
X56583Y-25427D01*
X56611Y-25371D01*
X56611Y-25146D01*
X56892Y-25821D02*
X56864Y-25764D01*
X56836Y-25736D01*
X56780Y-25708D01*
X56611Y-25708D01*
X56555Y-25736D01*
X56526Y-25764D01*
X56498Y-25821D01*
X56498Y-25905D01*
X56526Y-25961D01*
X56555Y-25989D01*
X56611Y-26017D01*
X56780Y-26017D01*
X56836Y-25989D01*
X56864Y-25961D01*
X56892Y-25905D01*
X56892Y-25821D01*
X56498Y-26214D02*
X56892Y-26327D01*
X56611Y-26439D01*
X56892Y-26552D01*
X56498Y-26664D01*
X56864Y-27114D02*
X56892Y-27058D01*
X56892Y-26946D01*
X56864Y-26889D01*
X56808Y-26861D01*
X56583Y-26861D01*
X56526Y-26889D01*
X56498Y-26946D01*
X56498Y-27058D01*
X56526Y-27114D01*
X56583Y-27142D01*
X56639Y-27142D01*
X56695Y-26861D01*
X56892Y-27395D02*
X56498Y-27395D01*
X56611Y-27395D02*
X56555Y-27424D01*
X56526Y-27452D01*
X56498Y-27508D01*
X56498Y-27564D01*
G54D13*
X34547Y-31003D02*
X34547Y-7381D01*
X58169Y-31003D02*
X34547Y-31003D01*
X58169Y-7381D02*
X58169Y-31003D01*
X34547Y-7381D02*
X58169Y-7381D01*
%LPC*%
G54D14*
X54319Y-9547D03*
X52569Y-9547D03*
G54D15*
X54819Y-10547D03*
X52069Y-10547D03*
G54D14*
X52569Y-12097D03*
X54319Y-12097D03*
X52944Y-11347D03*
X53944Y-11347D03*
G54D16*
X48507Y-18444D03*
X49507Y-18444D03*
X50507Y-18444D03*
X50787Y-10145D03*
X50787Y-9145D03*
X42519Y-14437D03*
X42519Y-13437D03*
X44488Y-26877D03*
X44488Y-25877D03*
X54429Y-26877D03*
X54429Y-25877D03*
X47618Y-14437D03*
X47618Y-13437D03*
X56084Y-8271D03*
X57084Y-8271D03*
X56084Y-9271D03*
X57084Y-9271D03*
X56084Y-10271D03*
G54D17*
X57084Y-10271D03*
G54D16*
X56084Y-11271D03*
X57084Y-11271D03*
X56084Y-12271D03*
X57084Y-12271D03*
X56084Y-13271D03*
X57084Y-13271D03*
X56084Y-14271D03*
X57084Y-14271D03*
X56084Y-15271D03*
X57084Y-15271D03*
X56084Y-16271D03*
X57084Y-16271D03*
X56084Y-17271D03*
X57084Y-17271D03*
X56084Y-18271D03*
X57084Y-18271D03*
X56084Y-19271D03*
X57084Y-19271D03*
X56084Y-20271D03*
X57084Y-20271D03*
G54D18*
X37795Y-9251D03*
G54D19*
X40195Y-9251D03*
G54D20*
X39045Y-11251D03*
G54D16*
X47047Y-19488D03*
G54D21*
X35150Y-12499D03*
X35150Y-15099D03*
G54D22*
X49606Y-26279D03*
G54D23*
X49299Y-26440D03*
X49299Y-26118D03*
X49913Y-26118D03*
X49913Y-26440D03*
G54D24*
X39763Y-20297D03*
X39763Y-19297D03*
X39763Y-18497D03*
X39763Y-17497D03*
G54D25*
X38713Y-21497D03*
X38713Y-16097D03*
G54D26*
X44980Y-16141D03*
G54D27*
X44673Y-16304D03*
X44673Y-15979D03*
X45287Y-15979D03*
X45287Y-16304D03*
G54D28*
X41146Y-28295D03*
X40824Y-28295D03*
X41146Y-27949D03*
X40824Y-27949D03*
G54D29*
X36122Y-29429D03*
X56594Y-29429D03*
G54D16*
X38937Y-14437D03*
X38937Y-13437D03*
X56084Y-21271D03*
X56084Y-22271D03*
X57084Y-21271D03*
X57084Y-22271D03*
M02*
