G04 (created by PCBNEW (2013-03-15 BZR 4003)-stable) date 24-Aug-13 4:32:32 PM*
%MOIN*%
G04 Gerber Fmt 3.4, Leading zero omitted, Abs format*
%FSLAX34Y34*%
G01*
G70*
G90*
G04 APERTURE LIST*
%ADD10C,0*%
%ADD11C,0.00787402*%
%ADD12C,0.00984252*%
%ADD13C,0.00590551*%
G04 APERTURE END LIST*
G54D10*
G54D11*
X45218Y-31899D02*
X45068Y-31899D01*
X45053Y-32049D01*
X45068Y-32034D01*
X45098Y-32019D01*
X45173Y-32019D01*
X45203Y-32034D01*
X45218Y-32049D01*
X45233Y-32079D01*
X45233Y-32154D01*
X45218Y-32184D01*
X45203Y-32199D01*
X45173Y-32214D01*
X45098Y-32214D01*
X45068Y-32199D01*
X45053Y-32184D01*
X45353Y-31929D02*
X45368Y-31914D01*
X45398Y-31899D01*
X45473Y-31899D01*
X45503Y-31914D01*
X45518Y-31929D01*
X45533Y-31959D01*
X45533Y-31989D01*
X45518Y-32034D01*
X45338Y-32214D01*
X45533Y-32214D01*
X45668Y-32184D02*
X45683Y-32199D01*
X45668Y-32214D01*
X45653Y-32199D01*
X45668Y-32184D01*
X45668Y-32214D01*
X45878Y-31899D02*
X45908Y-31899D01*
X45938Y-31914D01*
X45953Y-31929D01*
X45968Y-31959D01*
X45983Y-32019D01*
X45983Y-32094D01*
X45968Y-32154D01*
X45953Y-32184D01*
X45938Y-32199D01*
X45908Y-32214D01*
X45878Y-32214D01*
X45848Y-32199D01*
X45833Y-32184D01*
X45818Y-32154D01*
X45803Y-32094D01*
X45803Y-32019D01*
X45818Y-31959D01*
X45833Y-31929D01*
X45848Y-31914D01*
X45878Y-31899D01*
X46178Y-31899D02*
X46208Y-31899D01*
X46238Y-31914D01*
X46253Y-31929D01*
X46268Y-31959D01*
X46283Y-32019D01*
X46283Y-32094D01*
X46268Y-32154D01*
X46253Y-32184D01*
X46238Y-32199D01*
X46208Y-32214D01*
X46178Y-32214D01*
X46148Y-32199D01*
X46133Y-32184D01*
X46118Y-32154D01*
X46103Y-32094D01*
X46103Y-32019D01*
X46118Y-31959D01*
X46133Y-31929D01*
X46148Y-31914D01*
X46178Y-31899D01*
X46478Y-31899D02*
X46508Y-31899D01*
X46538Y-31914D01*
X46553Y-31929D01*
X46568Y-31959D01*
X46583Y-32019D01*
X46583Y-32094D01*
X46568Y-32154D01*
X46553Y-32184D01*
X46538Y-32199D01*
X46508Y-32214D01*
X46478Y-32214D01*
X46448Y-32199D01*
X46433Y-32184D01*
X46418Y-32154D01*
X46403Y-32094D01*
X46403Y-32019D01*
X46418Y-31959D01*
X46433Y-31929D01*
X46448Y-31914D01*
X46478Y-31899D01*
X46958Y-32214D02*
X46958Y-32004D01*
X46958Y-32034D02*
X46973Y-32019D01*
X47003Y-32004D01*
X47048Y-32004D01*
X47078Y-32019D01*
X47093Y-32049D01*
X47093Y-32214D01*
X47093Y-32049D02*
X47108Y-32019D01*
X47138Y-32004D01*
X47183Y-32004D01*
X47213Y-32019D01*
X47228Y-32049D01*
X47228Y-32214D01*
X47378Y-32214D02*
X47378Y-32004D01*
X47378Y-32034D02*
X47393Y-32019D01*
X47423Y-32004D01*
X47468Y-32004D01*
X47498Y-32019D01*
X47513Y-32049D01*
X47513Y-32214D01*
X47513Y-32049D02*
X47528Y-32019D01*
X47558Y-32004D01*
X47603Y-32004D01*
X47633Y-32019D01*
X47648Y-32049D01*
X47648Y-32214D01*
X56594Y-31771D02*
X36122Y-31771D01*
X56594Y-29429D02*
X56594Y-32401D01*
X36122Y-29429D02*
X36122Y-32401D01*
X36122Y-31771D02*
X36565Y-31540D01*
X36122Y-31771D02*
X36565Y-32002D01*
X56594Y-31771D02*
X56150Y-31540D01*
X56594Y-31771D02*
X56150Y-32002D01*
G54D12*
X32616Y-17749D02*
X32616Y-17674D01*
X32597Y-17636D01*
X32578Y-17618D01*
X32522Y-17580D01*
X32447Y-17561D01*
X32297Y-17561D01*
X32260Y-17580D01*
X32241Y-17599D01*
X32222Y-17636D01*
X32222Y-17711D01*
X32241Y-17749D01*
X32260Y-17768D01*
X32297Y-17786D01*
X32391Y-17786D01*
X32428Y-17768D01*
X32447Y-17749D01*
X32466Y-17711D01*
X32466Y-17636D01*
X32447Y-17599D01*
X32428Y-17580D01*
X32391Y-17561D01*
X32616Y-18030D02*
X32616Y-18068D01*
X32597Y-18105D01*
X32578Y-18124D01*
X32541Y-18143D01*
X32466Y-18161D01*
X32372Y-18161D01*
X32297Y-18143D01*
X32260Y-18124D01*
X32241Y-18105D01*
X32222Y-18068D01*
X32222Y-18030D01*
X32241Y-17993D01*
X32260Y-17974D01*
X32297Y-17955D01*
X32372Y-17936D01*
X32466Y-17936D01*
X32541Y-17955D01*
X32578Y-17974D01*
X32597Y-17993D01*
X32616Y-18030D01*
X32260Y-18330D02*
X32241Y-18349D01*
X32222Y-18330D01*
X32241Y-18311D01*
X32260Y-18330D01*
X32222Y-18330D01*
X32616Y-18592D02*
X32616Y-18630D01*
X32597Y-18667D01*
X32578Y-18686D01*
X32541Y-18705D01*
X32466Y-18724D01*
X32372Y-18724D01*
X32297Y-18705D01*
X32260Y-18686D01*
X32241Y-18667D01*
X32222Y-18630D01*
X32222Y-18592D01*
X32241Y-18555D01*
X32260Y-18536D01*
X32297Y-18517D01*
X32372Y-18499D01*
X32466Y-18499D01*
X32541Y-18517D01*
X32578Y-18536D01*
X32597Y-18555D01*
X32616Y-18592D01*
X32616Y-18967D02*
X32616Y-19005D01*
X32597Y-19042D01*
X32578Y-19061D01*
X32541Y-19080D01*
X32466Y-19099D01*
X32372Y-19099D01*
X32297Y-19080D01*
X32260Y-19061D01*
X32241Y-19042D01*
X32222Y-19005D01*
X32222Y-18967D01*
X32241Y-18930D01*
X32260Y-18911D01*
X32297Y-18892D01*
X32372Y-18874D01*
X32466Y-18874D01*
X32541Y-18892D01*
X32578Y-18911D01*
X32597Y-18930D01*
X32616Y-18967D01*
X32616Y-19342D02*
X32616Y-19380D01*
X32597Y-19417D01*
X32578Y-19436D01*
X32541Y-19455D01*
X32466Y-19474D01*
X32372Y-19474D01*
X32297Y-19455D01*
X32260Y-19436D01*
X32241Y-19417D01*
X32222Y-19380D01*
X32222Y-19342D01*
X32241Y-19305D01*
X32260Y-19286D01*
X32297Y-19267D01*
X32372Y-19249D01*
X32466Y-19249D01*
X32541Y-19267D01*
X32578Y-19286D01*
X32597Y-19305D01*
X32616Y-19342D01*
X32222Y-19942D02*
X32485Y-19942D01*
X32447Y-19942D02*
X32466Y-19961D01*
X32485Y-19999D01*
X32485Y-20055D01*
X32466Y-20092D01*
X32428Y-20111D01*
X32222Y-20111D01*
X32428Y-20111D02*
X32466Y-20130D01*
X32485Y-20167D01*
X32485Y-20224D01*
X32466Y-20261D01*
X32428Y-20280D01*
X32222Y-20280D01*
X32222Y-20467D02*
X32485Y-20467D01*
X32447Y-20467D02*
X32466Y-20486D01*
X32485Y-20523D01*
X32485Y-20580D01*
X32466Y-20617D01*
X32428Y-20636D01*
X32222Y-20636D01*
X32428Y-20636D02*
X32466Y-20655D01*
X32485Y-20692D01*
X32485Y-20748D01*
X32466Y-20786D01*
X32428Y-20805D01*
X32222Y-20805D01*
X32775Y-7381D02*
X32775Y-31003D01*
X34055Y-7381D02*
X31988Y-7381D01*
X34055Y-31003D02*
X31988Y-31003D01*
X32775Y-31003D02*
X32544Y-30560D01*
X32775Y-31003D02*
X33006Y-30560D01*
X32775Y-7381D02*
X32544Y-7825D01*
X32775Y-7381D02*
X33006Y-7825D01*
X44914Y-32934D02*
X44839Y-32934D01*
X44802Y-32953D01*
X44783Y-32972D01*
X44745Y-33028D01*
X44727Y-33103D01*
X44727Y-33253D01*
X44745Y-33291D01*
X44764Y-33309D01*
X44802Y-33328D01*
X44877Y-33328D01*
X44914Y-33309D01*
X44933Y-33291D01*
X44952Y-33253D01*
X44952Y-33159D01*
X44933Y-33122D01*
X44914Y-33103D01*
X44877Y-33084D01*
X44802Y-33084D01*
X44764Y-33103D01*
X44745Y-33122D01*
X44727Y-33159D01*
X45195Y-32934D02*
X45233Y-32934D01*
X45270Y-32953D01*
X45289Y-32972D01*
X45308Y-33009D01*
X45327Y-33084D01*
X45327Y-33178D01*
X45308Y-33253D01*
X45289Y-33291D01*
X45270Y-33309D01*
X45233Y-33328D01*
X45195Y-33328D01*
X45158Y-33309D01*
X45139Y-33291D01*
X45120Y-33253D01*
X45102Y-33178D01*
X45102Y-33084D01*
X45120Y-33009D01*
X45139Y-32972D01*
X45158Y-32953D01*
X45195Y-32934D01*
X45495Y-33291D02*
X45514Y-33309D01*
X45495Y-33328D01*
X45477Y-33309D01*
X45495Y-33291D01*
X45495Y-33328D01*
X45758Y-32934D02*
X45795Y-32934D01*
X45833Y-32953D01*
X45852Y-32972D01*
X45870Y-33009D01*
X45889Y-33084D01*
X45889Y-33178D01*
X45870Y-33253D01*
X45852Y-33291D01*
X45833Y-33309D01*
X45795Y-33328D01*
X45758Y-33328D01*
X45720Y-33309D01*
X45702Y-33291D01*
X45683Y-33253D01*
X45664Y-33178D01*
X45664Y-33084D01*
X45683Y-33009D01*
X45702Y-32972D01*
X45720Y-32953D01*
X45758Y-32934D01*
X46133Y-32934D02*
X46170Y-32934D01*
X46208Y-32953D01*
X46227Y-32972D01*
X46245Y-33009D01*
X46264Y-33084D01*
X46264Y-33178D01*
X46245Y-33253D01*
X46227Y-33291D01*
X46208Y-33309D01*
X46170Y-33328D01*
X46133Y-33328D01*
X46095Y-33309D01*
X46077Y-33291D01*
X46058Y-33253D01*
X46039Y-33178D01*
X46039Y-33084D01*
X46058Y-33009D01*
X46077Y-32972D01*
X46095Y-32953D01*
X46133Y-32934D01*
X46508Y-32934D02*
X46545Y-32934D01*
X46583Y-32953D01*
X46601Y-32972D01*
X46620Y-33009D01*
X46639Y-33084D01*
X46639Y-33178D01*
X46620Y-33253D01*
X46601Y-33291D01*
X46583Y-33309D01*
X46545Y-33328D01*
X46508Y-33328D01*
X46470Y-33309D01*
X46452Y-33291D01*
X46433Y-33253D01*
X46414Y-33178D01*
X46414Y-33084D01*
X46433Y-33009D01*
X46452Y-32972D01*
X46470Y-32953D01*
X46508Y-32934D01*
X47108Y-33328D02*
X47108Y-33066D01*
X47108Y-33103D02*
X47126Y-33084D01*
X47164Y-33066D01*
X47220Y-33066D01*
X47258Y-33084D01*
X47276Y-33122D01*
X47276Y-33328D01*
X47276Y-33122D02*
X47295Y-33084D01*
X47333Y-33066D01*
X47389Y-33066D01*
X47426Y-33084D01*
X47445Y-33122D01*
X47445Y-33328D01*
X47633Y-33328D02*
X47633Y-33066D01*
X47633Y-33103D02*
X47651Y-33084D01*
X47689Y-33066D01*
X47745Y-33066D01*
X47783Y-33084D01*
X47801Y-33122D01*
X47801Y-33328D01*
X47801Y-33122D02*
X47820Y-33084D01*
X47858Y-33066D01*
X47914Y-33066D01*
X47951Y-33084D01*
X47970Y-33122D01*
X47970Y-33328D01*
X34547Y-32775D02*
X58169Y-32775D01*
X34547Y-31496D02*
X34547Y-33562D01*
X58169Y-31496D02*
X58169Y-33562D01*
X58169Y-32775D02*
X57725Y-33006D01*
X58169Y-32775D02*
X57725Y-32544D01*
X34547Y-32775D02*
X34990Y-33006D01*
X34547Y-32775D02*
X34990Y-32544D01*
G54D13*
X34547Y-31003D02*
X34547Y-7381D01*
X58169Y-31003D02*
X34547Y-31003D01*
X58169Y-7381D02*
X58169Y-31003D01*
X34547Y-7381D02*
X58169Y-7381D01*
M02*
