G04 (created by PCBNEW (2013-07-07 BZR 4022)-stable) date 08-Nov-13 3:33:42 PM*
%MOIN*%
G04 Gerber Fmt 3.4, Leading zero omitted, Abs format*
%FSLAX34Y34*%
G01*
G70*
G90*
G04 APERTURE LIST*
%ADD10C,0.00590551*%
%ADD11C,0.00625*%
%ADD12C,0.00787402*%
G04 APERTURE END LIST*
G54D10*
G54D11*
X34194Y-18022D02*
X34194Y-17903D01*
X34075Y-17891D01*
X34086Y-17903D01*
X34098Y-17927D01*
X34098Y-17986D01*
X34086Y-18010D01*
X34075Y-18022D01*
X34051Y-18034D01*
X33991Y-18034D01*
X33967Y-18022D01*
X33955Y-18010D01*
X33944Y-17986D01*
X33944Y-17927D01*
X33955Y-17903D01*
X33967Y-17891D01*
X34194Y-18248D02*
X34194Y-18201D01*
X34182Y-18177D01*
X34170Y-18165D01*
X34134Y-18141D01*
X34086Y-18129D01*
X33991Y-18129D01*
X33967Y-18141D01*
X33955Y-18153D01*
X33944Y-18177D01*
X33944Y-18224D01*
X33955Y-18248D01*
X33967Y-18260D01*
X33991Y-18272D01*
X34051Y-18272D01*
X34075Y-18260D01*
X34086Y-18248D01*
X34098Y-18224D01*
X34098Y-18177D01*
X34086Y-18153D01*
X34075Y-18141D01*
X34051Y-18129D01*
X33944Y-18379D02*
X34110Y-18379D01*
X34086Y-18379D02*
X34098Y-18391D01*
X34110Y-18415D01*
X34110Y-18451D01*
X34098Y-18474D01*
X34075Y-18486D01*
X33944Y-18486D01*
X34075Y-18486D02*
X34098Y-18498D01*
X34110Y-18522D01*
X34110Y-18558D01*
X34098Y-18582D01*
X34075Y-18593D01*
X33944Y-18593D01*
X33944Y-18712D02*
X34110Y-18712D01*
X34086Y-18712D02*
X34098Y-18724D01*
X34110Y-18748D01*
X34110Y-18784D01*
X34098Y-18808D01*
X34075Y-18820D01*
X33944Y-18820D01*
X34075Y-18820D02*
X34098Y-18832D01*
X34110Y-18855D01*
X34110Y-18891D01*
X34098Y-18915D01*
X34075Y-18927D01*
X33944Y-18927D01*
X34330Y-7381D02*
X34330Y-29429D01*
X36003Y-7381D02*
X33830Y-7381D01*
X36003Y-29429D02*
X33830Y-29429D01*
X34330Y-29429D02*
X34099Y-28985D01*
X34330Y-29429D02*
X34561Y-28985D01*
X34330Y-7381D02*
X34099Y-7825D01*
X34330Y-7381D02*
X34561Y-7825D01*
G54D10*
X36122Y-29429D02*
X58169Y-29429D01*
X36122Y-7381D02*
X58169Y-7381D01*
G54D12*
X46650Y-33552D02*
X46500Y-33552D01*
X46485Y-33702D01*
X46500Y-33687D01*
X46530Y-33672D01*
X46605Y-33672D01*
X46635Y-33687D01*
X46650Y-33702D01*
X46665Y-33732D01*
X46665Y-33807D01*
X46650Y-33837D01*
X46635Y-33852D01*
X46605Y-33867D01*
X46530Y-33867D01*
X46500Y-33852D01*
X46485Y-33837D01*
X46935Y-33552D02*
X46875Y-33552D01*
X46845Y-33567D01*
X46830Y-33582D01*
X46800Y-33627D01*
X46785Y-33687D01*
X46785Y-33807D01*
X46800Y-33837D01*
X46815Y-33852D01*
X46845Y-33867D01*
X46905Y-33867D01*
X46935Y-33852D01*
X46950Y-33837D01*
X46965Y-33807D01*
X46965Y-33732D01*
X46950Y-33702D01*
X46935Y-33687D01*
X46905Y-33672D01*
X46845Y-33672D01*
X46815Y-33687D01*
X46800Y-33702D01*
X46785Y-33732D01*
X47100Y-33867D02*
X47100Y-33657D01*
X47100Y-33687D02*
X47115Y-33672D01*
X47145Y-33657D01*
X47190Y-33657D01*
X47220Y-33672D01*
X47235Y-33702D01*
X47235Y-33867D01*
X47235Y-33702D02*
X47250Y-33672D01*
X47280Y-33657D01*
X47325Y-33657D01*
X47355Y-33672D01*
X47370Y-33702D01*
X47370Y-33867D01*
X47520Y-33867D02*
X47520Y-33657D01*
X47520Y-33687D02*
X47535Y-33672D01*
X47565Y-33657D01*
X47610Y-33657D01*
X47640Y-33672D01*
X47655Y-33702D01*
X47655Y-33867D01*
X47655Y-33702D02*
X47670Y-33672D01*
X47700Y-33657D01*
X47745Y-33657D01*
X47775Y-33672D01*
X47790Y-33702D01*
X47790Y-33867D01*
X58169Y-33425D02*
X36122Y-33425D01*
X58169Y-31496D02*
X58169Y-34055D01*
X36122Y-31496D02*
X36122Y-34055D01*
X36122Y-33425D02*
X36565Y-33194D01*
X36122Y-33425D02*
X36565Y-33656D01*
X58169Y-33425D02*
X57725Y-33194D01*
X58169Y-33425D02*
X57725Y-33656D01*
X46635Y-32378D02*
X46635Y-32588D01*
X46560Y-32258D02*
X46485Y-32483D01*
X46680Y-32483D01*
X46845Y-32408D02*
X46815Y-32393D01*
X46800Y-32378D01*
X46785Y-32348D01*
X46785Y-32333D01*
X46800Y-32303D01*
X46815Y-32288D01*
X46845Y-32273D01*
X46905Y-32273D01*
X46935Y-32288D01*
X46950Y-32303D01*
X46965Y-32333D01*
X46965Y-32348D01*
X46950Y-32378D01*
X46935Y-32393D01*
X46905Y-32408D01*
X46845Y-32408D01*
X46815Y-32423D01*
X46800Y-32438D01*
X46785Y-32468D01*
X46785Y-32528D01*
X46800Y-32558D01*
X46815Y-32573D01*
X46845Y-32588D01*
X46905Y-32588D01*
X46935Y-32573D01*
X46950Y-32558D01*
X46965Y-32528D01*
X46965Y-32468D01*
X46950Y-32438D01*
X46935Y-32423D01*
X46905Y-32408D01*
X47100Y-32588D02*
X47100Y-32378D01*
X47100Y-32408D02*
X47115Y-32393D01*
X47145Y-32378D01*
X47190Y-32378D01*
X47220Y-32393D01*
X47235Y-32423D01*
X47235Y-32588D01*
X47235Y-32423D02*
X47250Y-32393D01*
X47280Y-32378D01*
X47325Y-32378D01*
X47355Y-32393D01*
X47370Y-32423D01*
X47370Y-32588D01*
X47520Y-32588D02*
X47520Y-32378D01*
X47520Y-32408D02*
X47535Y-32393D01*
X47565Y-32378D01*
X47610Y-32378D01*
X47640Y-32393D01*
X47655Y-32423D01*
X47655Y-32588D01*
X47655Y-32423D02*
X47670Y-32393D01*
X47700Y-32378D01*
X47745Y-32378D01*
X47775Y-32393D01*
X47790Y-32423D01*
X47790Y-32588D01*
X37696Y-32145D02*
X56594Y-32145D01*
X37696Y-29429D02*
X37696Y-32775D01*
X56594Y-29429D02*
X56594Y-32775D01*
X56594Y-32145D02*
X56150Y-32376D01*
X56594Y-32145D02*
X56150Y-31914D01*
X37696Y-32145D02*
X38140Y-32376D01*
X37696Y-32145D02*
X38140Y-31914D01*
G54D10*
X36122Y-29429D02*
X36122Y-7381D01*
X58169Y-7381D02*
X58169Y-29429D01*
M02*
