G04 (created by PCBNEW (2013-07-07 BZR 4022)-stable) date 08-Nov-13 3:33:42 PM*
%MOIN*%
G04 Gerber Fmt 3.4, Leading zero omitted, Abs format*
%FSLAX34Y34*%
G01*
G70*
G90*
G04 APERTURE LIST*
%ADD10C,0.00590551*%
%ADD11R,0.0610236X0.0531496*%
%ADD12R,0.0511811X0.0511811*%
%ADD13R,0.059X0.0512*%
%ADD14R,0.0433071X0.023622*%
%ADD15R,0.0531496X0.0610236*%
%ADD16R,0.0874016X0.0688976*%
%ADD17R,0.05X0.04*%
%ADD18R,0.0984252X0.0787402*%
%ADD19R,0.0629921X0.0393701*%
%ADD20R,0.1337X0.059*%
%ADD21R,0.1377X0.0392*%
%ADD22R,0.024X0.08*%
%ADD23R,0.0512X0.059*%
%ADD24R,0.054X0.016*%
%ADD25R,0.056X0.063*%
%ADD26R,0.075X0.075*%
%ADD27C,0.075*%
%ADD28O,0.0110236X0.0334646*%
%ADD29R,0.0275591X0.0110236*%
%ADD30O,0.0137795X0.0334646*%
%ADD31R,0.011811X0.0275591*%
%ADD32R,0.063X0.071*%
%ADD33R,0.106X0.063*%
%ADD34R,0.071X0.063*%
%ADD35R,0.04X0.05*%
%ADD36R,0.0551181X0.0551181*%
%ADD37R,0.011811X0.019685*%
G04 APERTURE END LIST*
G54D10*
X36122Y-29429D02*
X58169Y-29429D01*
X36122Y-7381D02*
X58169Y-7381D01*
X36122Y-29429D02*
X36122Y-7381D01*
X58169Y-7381D02*
X58169Y-29429D01*
G54D11*
X47677Y-9212D03*
X47677Y-10000D03*
X51299Y-24301D03*
X51299Y-23513D03*
X48129Y-25984D03*
X48129Y-26771D03*
G54D12*
X51673Y-28346D03*
X50492Y-28346D03*
G54D13*
X43070Y-19310D03*
X43070Y-20060D03*
X42086Y-20060D03*
X42086Y-19310D03*
X44330Y-20884D03*
X44330Y-21634D03*
X50216Y-23532D03*
X50216Y-24282D03*
X45196Y-9231D03*
X45196Y-9981D03*
X47047Y-26752D03*
X47047Y-26002D03*
X44980Y-26772D03*
X44980Y-26022D03*
X50590Y-21634D03*
X50590Y-20884D03*
X45393Y-21634D03*
X45393Y-20884D03*
X52401Y-24282D03*
X52401Y-23532D03*
X47263Y-24282D03*
X47263Y-23532D03*
X42480Y-26002D03*
X42480Y-26752D03*
G54D10*
G36*
X46427Y-24532D02*
X46327Y-24532D01*
X46127Y-23932D01*
X46627Y-23932D01*
X46427Y-24532D01*
X46427Y-24532D01*
G37*
G36*
X46627Y-23882D02*
X46127Y-23882D01*
X46327Y-23282D01*
X46427Y-23282D01*
X46627Y-23882D01*
X46627Y-23882D01*
G37*
G54D14*
X42096Y-23533D03*
X42096Y-24281D03*
X42096Y-23907D03*
X43198Y-24281D03*
X43198Y-23533D03*
G54D11*
X46456Y-21653D03*
X46456Y-20866D03*
X49291Y-21653D03*
X49291Y-20866D03*
X45393Y-23513D03*
X45393Y-24301D03*
G54D15*
X48996Y-19744D03*
X49783Y-19744D03*
G54D11*
X43622Y-25984D03*
X43622Y-26771D03*
X40344Y-25984D03*
X40344Y-26771D03*
G54D15*
X52421Y-19744D03*
X51633Y-19744D03*
G54D16*
X41801Y-14625D03*
X41801Y-13248D03*
G54D17*
X42086Y-21659D03*
X42086Y-20859D03*
X43070Y-20859D03*
X43070Y-21659D03*
X45964Y-26777D03*
X45964Y-25977D03*
X44055Y-19285D03*
X44055Y-20085D03*
G54D18*
X53887Y-19744D03*
X53887Y-18129D03*
G54D19*
X38956Y-13248D03*
X38956Y-14429D03*
G54D20*
X37017Y-22599D03*
G54D21*
X39202Y-23524D03*
X39202Y-24310D03*
G54D20*
X37017Y-25235D03*
G54D22*
X49053Y-13301D03*
X49053Y-15242D03*
X49553Y-13301D03*
X50053Y-13301D03*
X50553Y-13301D03*
X49553Y-15242D03*
X50053Y-15242D03*
X50553Y-15242D03*
G54D13*
X41417Y-26002D03*
X41417Y-26752D03*
X43562Y-28839D03*
X43562Y-28089D03*
X42480Y-28839D03*
X42480Y-28089D03*
G54D23*
X51652Y-18011D03*
X52402Y-18011D03*
X51652Y-16929D03*
X52402Y-16929D03*
X54312Y-15846D03*
X53562Y-15846D03*
X53562Y-16929D03*
X54312Y-16929D03*
X52402Y-15846D03*
X51652Y-15846D03*
G54D10*
G36*
X48217Y-23282D02*
X48317Y-23282D01*
X48517Y-23882D01*
X48017Y-23882D01*
X48217Y-23282D01*
X48217Y-23282D01*
G37*
G36*
X48017Y-23932D02*
X48517Y-23932D01*
X48317Y-24532D01*
X48217Y-24532D01*
X48017Y-23932D01*
X48017Y-23932D01*
G37*
G36*
X49044Y-23282D02*
X49144Y-23282D01*
X49344Y-23882D01*
X48844Y-23882D01*
X49044Y-23282D01*
X49044Y-23282D01*
G37*
G36*
X48844Y-23932D02*
X49344Y-23932D01*
X49144Y-24532D01*
X49044Y-24532D01*
X48844Y-23932D01*
X48844Y-23932D01*
G37*
G54D24*
X37775Y-13799D03*
X37775Y-14055D03*
X37775Y-14311D03*
X37775Y-13543D03*
X37775Y-13287D03*
G54D25*
X37675Y-12549D03*
X37675Y-15049D03*
G54D26*
X36725Y-13324D03*
X36725Y-14274D03*
G54D27*
X36725Y-12499D03*
X36725Y-15099D03*
G54D28*
X50000Y-25797D03*
X49606Y-25797D03*
X49409Y-25797D03*
X49212Y-25797D03*
X49212Y-26958D03*
X49409Y-26958D03*
X49606Y-26958D03*
X49803Y-26958D03*
X50000Y-26958D03*
G54D29*
X49000Y-26279D03*
X49000Y-26476D03*
X50212Y-26279D03*
X50212Y-26476D03*
G54D30*
X48001Y-20679D03*
X47746Y-20679D03*
X47490Y-20679D03*
X47490Y-21840D03*
X47746Y-21840D03*
X48000Y-21840D03*
X48257Y-21840D03*
G54D31*
X41279Y-27755D03*
X41082Y-27755D03*
X40885Y-27755D03*
X40688Y-27755D03*
X40688Y-28897D03*
X40885Y-28897D03*
X41082Y-28897D03*
X41279Y-28897D03*
G54D32*
X43337Y-8149D03*
X44437Y-8149D03*
G54D33*
X46377Y-10156D03*
X46377Y-9056D03*
G54D34*
X44222Y-24457D03*
X44222Y-23357D03*
X40875Y-23357D03*
X40875Y-24457D03*
X51102Y-26927D03*
X51102Y-25827D03*
X47047Y-27757D03*
X47047Y-28857D03*
G54D32*
X52577Y-14763D03*
X51477Y-14763D03*
G54D34*
X48149Y-27757D03*
X48149Y-28857D03*
G54D35*
X53537Y-13681D03*
X54337Y-13681D03*
G54D23*
X54312Y-14763D03*
X53562Y-14763D03*
X51652Y-13681D03*
X52402Y-13681D03*
G54D10*
G36*
X47288Y-19182D02*
X47288Y-19282D01*
X46688Y-19482D01*
X46688Y-18982D01*
X47288Y-19182D01*
X47288Y-19182D01*
G37*
G36*
X46638Y-18982D02*
X46638Y-19482D01*
X46038Y-19282D01*
X46038Y-19182D01*
X46638Y-18982D01*
X46638Y-18982D01*
G37*
G36*
X41121Y-22481D02*
X41121Y-22381D01*
X41721Y-22181D01*
X41721Y-22681D01*
X41121Y-22481D01*
X41121Y-22481D01*
G37*
G36*
X42471Y-22681D02*
X42471Y-22181D01*
X43071Y-22381D01*
X43071Y-22481D01*
X42471Y-22681D01*
X42471Y-22681D01*
G37*
G54D36*
X42096Y-22431D03*
G54D12*
X44340Y-10728D03*
X43277Y-10728D03*
G54D37*
X43336Y-9616D03*
X43533Y-9616D03*
X43730Y-9616D03*
X43927Y-9616D03*
X43927Y-8868D03*
X43730Y-8868D03*
X43533Y-8868D03*
X43336Y-8868D03*
G54D10*
G36*
X54562Y-12883D02*
X54562Y-12983D01*
X53962Y-13183D01*
X53962Y-12683D01*
X54562Y-12883D01*
X54562Y-12883D01*
G37*
G36*
X53912Y-12683D02*
X53912Y-13183D01*
X53312Y-12983D01*
X53312Y-12883D01*
X53912Y-12683D01*
X53912Y-12683D01*
G37*
M02*
