M48
INCH,TZ
T1C0.012
T2C0.025
T3C0.035
T4C0.039
T5C0.040
T6C0.050
T7C0.060
T8C0.091
T9C0.100
T10C0.120
%
G90
G05
T1
X040823Y-028154
X040823Y-028500
X041146Y-028154
X041146Y-028500
X043474Y-009242
X043789Y-009242
X047567Y-021097
X047567Y-021422
X047874Y-021260
X048181Y-021097
X048181Y-021422
X049299Y-026217
X049299Y-026539
X049606Y-026378
X049913Y-026217
X049913Y-026539
T2
X041417Y-025305
X041890Y-028543
X042480Y-025089
X042657Y-023907
X043031Y-028524
X043563Y-027480
X044872Y-024301
X045610Y-018770
X045610Y-019774
X046988Y-017028
X049606Y-025000
X050896Y-025000
X052421Y-018947
X053031Y-013681
X055039Y-023346
T3
X048268Y-024911
T4
X041024Y-017498
X041024Y-018498
X041024Y-019298
X041024Y-020298
T5
X040226Y-013250
X040226Y-014250
X045289Y-015207
X045807Y-027807
X045807Y-028807
X046289Y-015207
X047289Y-015207
X047996Y-018307
X048996Y-016929
X048996Y-018307
X049106Y-009990
X049106Y-011486
X049996Y-016929
X049996Y-018307
X050106Y-009990
X050106Y-011486
X052176Y-009547
X052176Y-012097
X052343Y-025878
X052343Y-026878
X052551Y-011347
X053551Y-011347
X053926Y-009547
X053926Y-012097
X056085Y-008272
X056085Y-009272
X056085Y-010272
X056085Y-011272
X056085Y-012272
X056085Y-013272
X056085Y-014272
X056085Y-015272
X056085Y-016272
X056085Y-017272
X056085Y-018272
X056085Y-019272
X056085Y-020272
X056085Y-021272
X056085Y-022272
X057085Y-008272
X057085Y-009272
X057085Y-010272
X057085Y-011272
X057085Y-012272
X057085Y-013272
X057085Y-014272
X057085Y-015272
X057085Y-016272
X057085Y-017272
X057085Y-018272
X057085Y-019272
X057085Y-020272
X057085Y-021272
X057085Y-022272
T6
X036726Y-012499
X036726Y-015099
X051676Y-010547
X054426Y-010547
T8
X039974Y-016098
X039974Y-021498
T9
X043209Y-017411
T10
X037697Y-027854
X056594Y-027854
T7
X039242Y-008952G85X039242Y-009552
G05
X040192Y-011252G85X040792Y-011252
G05
X041642Y-008952G85X041642Y-009552
G05
T0
M30
