G04 (created by PCBNEW (2013-07-07 BZR 4022)-stable) date 08-Nov-13 3:33:42 PM*
%MOIN*%
G04 Gerber Fmt 3.4, Leading zero omitted, Abs format*
%FSLAX34Y34*%
G01*
G70*
G90*
G04 APERTURE LIST*
%ADD10C,0.00590551*%
%ADD11C,0.005*%
%ADD12C,0.008*%
%ADD13C,0.00393701*%
%ADD14C,0.00787402*%
%ADD15C,0.00984252*%
%ADD16C,0.006*%
%ADD17C,0.01*%
%ADD18C,0.004*%
%ADD19R,0.0610236X0.0531496*%
%ADD20R,0.0511811X0.0511811*%
%ADD21R,0.059X0.0512*%
%ADD22C,0.07*%
%ADD23C,0.08*%
%ADD24R,0.0533071X0.033622*%
%ADD25R,0.0531496X0.0610236*%
%ADD26R,0.0874016X0.0688976*%
%ADD27R,0.05X0.04*%
%ADD28R,0.0984252X0.0787402*%
%ADD29R,0.0629921X0.0393701*%
%ADD30R,0.1337X0.059*%
%ADD31R,0.1377X0.0392*%
%ADD32C,0.06*%
%ADD33C,0.16*%
%ADD34R,0.16X0.16*%
%ADD35O,0.2X0.13*%
%ADD36R,0.024X0.08*%
%ADD37R,0.0512X0.059*%
%ADD38R,0.054X0.016*%
%ADD39R,0.056X0.063*%
%ADD40R,0.075X0.075*%
%ADD41C,0.075*%
%ADD42O,0.0110236X0.0334646*%
%ADD43O,0.0165354X0.0389764*%
%ADD44R,0.03X0.0646457*%
%ADD45R,0.0323622X0.0323622*%
%ADD46R,0.0276378X0.0111024*%
%ADD47C,0.0591*%
%ADD48C,0.1181*%
%ADD49O,0.0137795X0.0334646*%
%ADD50O,0.0192913X0.0389764*%
%ADD51R,0.03X0.0650394*%
%ADD52R,0.0323622X0.0325591*%
%ADD53R,0.011811X0.0275591*%
%ADD54R,0.0322835X0.0346457*%
%ADD55C,0.3*%
%ADD56R,0.06X0.06*%
%ADD57C,0.24*%
%ADD58R,0.063X0.071*%
%ADD59R,0.106X0.063*%
%ADD60R,0.071X0.063*%
%ADD61R,0.04X0.05*%
%ADD62R,0.0551181X0.0551181*%
%ADD63R,0.011811X0.019685*%
%ADD64R,0.0173228X0.0251968*%
%ADD65R,0.0315748X0.0355118*%
G04 APERTURE END LIST*
G54D10*
G54D11*
X44928Y-14291D02*
X44928Y-14493D01*
X44940Y-14517D01*
X44952Y-14529D01*
X44976Y-14541D01*
X45023Y-14541D01*
X45047Y-14529D01*
X45059Y-14517D01*
X45071Y-14493D01*
X45071Y-14291D01*
X45178Y-14529D02*
X45214Y-14541D01*
X45273Y-14541D01*
X45297Y-14529D01*
X45309Y-14517D01*
X45321Y-14493D01*
X45321Y-14469D01*
X45309Y-14445D01*
X45297Y-14434D01*
X45273Y-14422D01*
X45226Y-14410D01*
X45202Y-14398D01*
X45190Y-14386D01*
X45178Y-14362D01*
X45178Y-14338D01*
X45190Y-14315D01*
X45202Y-14303D01*
X45226Y-14291D01*
X45285Y-14291D01*
X45321Y-14303D01*
X45511Y-14410D02*
X45547Y-14422D01*
X45559Y-14434D01*
X45571Y-14457D01*
X45571Y-14493D01*
X45559Y-14517D01*
X45547Y-14529D01*
X45523Y-14541D01*
X45428Y-14541D01*
X45428Y-14291D01*
X45511Y-14291D01*
X45535Y-14303D01*
X45547Y-14315D01*
X45559Y-14338D01*
X45559Y-14362D01*
X45547Y-14386D01*
X45535Y-14398D01*
X45511Y-14410D01*
X45428Y-14410D01*
X45869Y-14374D02*
X45678Y-14445D01*
X45869Y-14517D01*
X45988Y-14374D02*
X46178Y-14445D01*
X45988Y-14517D01*
X46380Y-14410D02*
X46416Y-14422D01*
X46428Y-14434D01*
X46440Y-14457D01*
X46440Y-14493D01*
X46428Y-14517D01*
X46416Y-14529D01*
X46392Y-14541D01*
X46297Y-14541D01*
X46297Y-14291D01*
X46380Y-14291D01*
X46404Y-14303D01*
X46416Y-14315D01*
X46428Y-14338D01*
X46428Y-14362D01*
X46416Y-14386D01*
X46404Y-14398D01*
X46380Y-14410D01*
X46297Y-14410D01*
X46535Y-14469D02*
X46654Y-14469D01*
X46511Y-14541D02*
X46595Y-14291D01*
X46678Y-14541D01*
X46904Y-14541D02*
X46821Y-14422D01*
X46761Y-14541D02*
X46761Y-14291D01*
X46857Y-14291D01*
X46880Y-14303D01*
X46892Y-14315D01*
X46904Y-14338D01*
X46904Y-14374D01*
X46892Y-14398D01*
X46880Y-14410D01*
X46857Y-14422D01*
X46761Y-14422D01*
X47154Y-14541D02*
X47071Y-14422D01*
X47011Y-14541D02*
X47011Y-14291D01*
X47107Y-14291D01*
X47130Y-14303D01*
X47142Y-14315D01*
X47154Y-14338D01*
X47154Y-14374D01*
X47142Y-14398D01*
X47130Y-14410D01*
X47107Y-14422D01*
X47011Y-14422D01*
X47261Y-14410D02*
X47345Y-14410D01*
X47380Y-14541D02*
X47261Y-14541D01*
X47261Y-14291D01*
X47380Y-14291D01*
X47607Y-14541D02*
X47488Y-14541D01*
X47488Y-14291D01*
G54D12*
X55634Y-25104D02*
X55367Y-25104D01*
X55443Y-25104D02*
X55405Y-25085D01*
X55386Y-25066D01*
X55367Y-25028D01*
X55367Y-24990D01*
X55615Y-24704D02*
X55634Y-24742D01*
X55634Y-24818D01*
X55615Y-24857D01*
X55577Y-24876D01*
X55424Y-24876D01*
X55386Y-24857D01*
X55367Y-24818D01*
X55367Y-24742D01*
X55386Y-24704D01*
X55424Y-24685D01*
X55462Y-24685D01*
X55501Y-24876D01*
X55367Y-24552D02*
X55634Y-24457D01*
X55367Y-24361D01*
X55272Y-23923D02*
X55253Y-23904D01*
X55234Y-23866D01*
X55234Y-23771D01*
X55253Y-23733D01*
X55272Y-23714D01*
X55310Y-23695D01*
X55348Y-23695D01*
X55405Y-23714D01*
X55634Y-23942D01*
X55634Y-23695D01*
G54D11*
X48255Y-18866D02*
X48303Y-18866D01*
X48326Y-18878D01*
X48350Y-18902D01*
X48362Y-18950D01*
X48362Y-19033D01*
X48350Y-19081D01*
X48326Y-19105D01*
X48303Y-19116D01*
X48255Y-19116D01*
X48231Y-19105D01*
X48207Y-19081D01*
X48195Y-19033D01*
X48195Y-18950D01*
X48207Y-18902D01*
X48231Y-18878D01*
X48255Y-18866D01*
X48469Y-19116D02*
X48469Y-18866D01*
X48612Y-19116D01*
X48612Y-18866D01*
X48922Y-18950D02*
X48731Y-19021D01*
X48922Y-19093D01*
X49041Y-18950D02*
X49231Y-19021D01*
X49041Y-19093D01*
X49398Y-18866D02*
X49445Y-18866D01*
X49469Y-18878D01*
X49493Y-18902D01*
X49505Y-18950D01*
X49505Y-19033D01*
X49493Y-19081D01*
X49469Y-19105D01*
X49445Y-19116D01*
X49398Y-19116D01*
X49374Y-19105D01*
X49350Y-19081D01*
X49338Y-19033D01*
X49338Y-18950D01*
X49350Y-18902D01*
X49374Y-18878D01*
X49398Y-18866D01*
X49695Y-18985D02*
X49612Y-18985D01*
X49612Y-19116D02*
X49612Y-18866D01*
X49731Y-18866D01*
X49910Y-18985D02*
X49826Y-18985D01*
X49826Y-19116D02*
X49826Y-18866D01*
X49945Y-18866D01*
G54D10*
X36122Y-29429D02*
X58169Y-29429D01*
X36122Y-7381D02*
X58169Y-7381D01*
X36122Y-29429D02*
X36122Y-7381D01*
G54D13*
X56922Y-22901D02*
X56922Y-22864D01*
X57259Y-22864D01*
X57259Y-22901D01*
X57090Y-22961D02*
X57090Y-23081D01*
X56922Y-23141D02*
X56922Y-23179D01*
X57259Y-23179D01*
X57259Y-23141D01*
G54D14*
X55009Y-28100D02*
X55009Y-23612D01*
X53159Y-23612D02*
X53159Y-28100D01*
G54D10*
X40486Y-12228D02*
X40561Y-12228D01*
X40561Y-12678D01*
X40486Y-12678D01*
X40366Y-12453D02*
X40126Y-12453D01*
X40246Y-12333D02*
X40246Y-12573D01*
X40006Y-12228D02*
X39931Y-12228D01*
X39931Y-12678D01*
X40006Y-12678D01*
G54D13*
X55918Y-22891D02*
X55918Y-22854D01*
X56255Y-22854D01*
X56255Y-22891D01*
X56086Y-22951D02*
X56086Y-23071D01*
X55996Y-23011D02*
X56176Y-23011D01*
X55918Y-23131D02*
X55918Y-23169D01*
X56255Y-23169D01*
X56255Y-23131D01*
G54D10*
X49307Y-12621D02*
X49307Y-12696D01*
X48857Y-12696D01*
X48857Y-12621D01*
X49082Y-12501D02*
X49082Y-12261D01*
X49202Y-12381D02*
X48962Y-12381D01*
X49307Y-12141D02*
X49307Y-12066D01*
X48857Y-12066D01*
X48857Y-12141D01*
X49307Y-9334D02*
X49307Y-9409D01*
X48857Y-9409D01*
X48857Y-9334D01*
X49082Y-9214D02*
X49082Y-8974D01*
X49202Y-9094D02*
X48962Y-9094D01*
X49307Y-8854D02*
X49307Y-8779D01*
X48857Y-8779D01*
X48857Y-8854D01*
X50202Y-16293D02*
X50202Y-16368D01*
X49752Y-16368D01*
X49752Y-16293D01*
X49977Y-16173D02*
X49977Y-15933D01*
X50097Y-16053D02*
X49857Y-16053D01*
X50202Y-15813D02*
X50202Y-15738D01*
X49752Y-15738D01*
X49752Y-15813D01*
X44856Y-27574D02*
X44856Y-27500D01*
X45306Y-27500D01*
X45306Y-27574D01*
X45081Y-27694D02*
X45081Y-27934D01*
X44961Y-27814D02*
X45201Y-27814D01*
X44856Y-28054D02*
X44856Y-28129D01*
X45306Y-28129D01*
X45306Y-28054D01*
X52100Y-27525D02*
X52100Y-27450D01*
X52550Y-27450D01*
X52550Y-27525D01*
X52325Y-27645D02*
X52325Y-27885D01*
X52205Y-27765D02*
X52445Y-27765D01*
X52100Y-28005D02*
X52100Y-28080D01*
X52550Y-28080D01*
X52550Y-28005D01*
G54D13*
X55481Y-7589D02*
X55481Y-7495D01*
X55387Y-7486D01*
X55396Y-7495D01*
X55406Y-7514D01*
X55406Y-7561D01*
X55396Y-7580D01*
X55387Y-7589D01*
X55368Y-7598D01*
X55321Y-7598D01*
X55303Y-7589D01*
X55293Y-7580D01*
X55284Y-7561D01*
X55284Y-7514D01*
X55293Y-7495D01*
X55303Y-7486D01*
X55481Y-7655D02*
X55284Y-7720D01*
X55481Y-7786D01*
X55481Y-7889D02*
X55481Y-7908D01*
X55471Y-7926D01*
X55462Y-7936D01*
X55443Y-7945D01*
X55406Y-7955D01*
X55359Y-7955D01*
X55321Y-7945D01*
X55303Y-7936D01*
X55293Y-7926D01*
X55284Y-7908D01*
X55284Y-7889D01*
X55293Y-7870D01*
X55303Y-7861D01*
X55321Y-7851D01*
X55359Y-7842D01*
X55406Y-7842D01*
X55443Y-7851D01*
X55462Y-7861D01*
X55471Y-7870D01*
X55481Y-7889D01*
X55218Y-8086D02*
X55500Y-8086D01*
X55359Y-8226D02*
X55359Y-8376D01*
X55359Y-8470D02*
X55359Y-8620D01*
X55218Y-8761D02*
X55500Y-8761D01*
X55471Y-9004D02*
X55481Y-8986D01*
X55481Y-8958D01*
X55471Y-8929D01*
X55453Y-8911D01*
X55434Y-8901D01*
X55396Y-8892D01*
X55368Y-8892D01*
X55331Y-8901D01*
X55312Y-8911D01*
X55293Y-8929D01*
X55284Y-8958D01*
X55284Y-8976D01*
X55293Y-9004D01*
X55303Y-9014D01*
X55368Y-9014D01*
X55368Y-8976D01*
X55284Y-9098D02*
X55481Y-9098D01*
X55284Y-9211D01*
X55481Y-9211D01*
X55284Y-9304D02*
X55481Y-9304D01*
X55481Y-9351D01*
X55471Y-9379D01*
X55453Y-9398D01*
X55434Y-9408D01*
X55396Y-9417D01*
X55368Y-9417D01*
X55331Y-9408D01*
X55312Y-9398D01*
X55293Y-9379D01*
X55284Y-9351D01*
X55284Y-9304D01*
X55218Y-9548D02*
X55500Y-9548D01*
X55359Y-9689D02*
X55359Y-9839D01*
X55359Y-9932D02*
X55359Y-10082D01*
X55166Y-7472D02*
X55166Y-7594D01*
X55091Y-7528D01*
X55091Y-7556D01*
X55082Y-7575D01*
X55072Y-7584D01*
X55053Y-7594D01*
X55007Y-7594D01*
X54988Y-7584D01*
X54978Y-7575D01*
X54969Y-7556D01*
X54969Y-7500D01*
X54978Y-7481D01*
X54988Y-7472D01*
X55166Y-7650D02*
X54969Y-7716D01*
X55166Y-7781D01*
X55166Y-7828D02*
X55166Y-7950D01*
X55091Y-7884D01*
X55091Y-7912D01*
X55082Y-7931D01*
X55072Y-7941D01*
X55053Y-7950D01*
X55007Y-7950D01*
X54988Y-7941D01*
X54978Y-7931D01*
X54969Y-7912D01*
X54969Y-7856D01*
X54978Y-7837D01*
X54988Y-7828D01*
X54903Y-8081D02*
X55185Y-8081D01*
X54978Y-8212D02*
X54969Y-8241D01*
X54969Y-8287D01*
X54978Y-8306D01*
X54988Y-8315D01*
X55007Y-8325D01*
X55025Y-8325D01*
X55044Y-8315D01*
X55053Y-8306D01*
X55063Y-8287D01*
X55072Y-8250D01*
X55082Y-8231D01*
X55091Y-8222D01*
X55110Y-8212D01*
X55128Y-8212D01*
X55147Y-8222D01*
X55157Y-8231D01*
X55166Y-8250D01*
X55166Y-8297D01*
X55157Y-8325D01*
X54969Y-8409D02*
X55166Y-8409D01*
X55166Y-8456D01*
X55157Y-8484D01*
X55138Y-8503D01*
X55119Y-8512D01*
X55082Y-8522D01*
X55053Y-8522D01*
X55016Y-8512D01*
X54997Y-8503D01*
X54978Y-8484D01*
X54969Y-8456D01*
X54969Y-8409D01*
X55025Y-8597D02*
X55025Y-8690D01*
X54969Y-8578D02*
X55166Y-8644D01*
X54969Y-8709D01*
X54903Y-8822D02*
X55185Y-8822D01*
X54978Y-8953D02*
X54969Y-8981D01*
X54969Y-9028D01*
X54978Y-9047D01*
X54988Y-9056D01*
X55007Y-9065D01*
X55025Y-9065D01*
X55044Y-9056D01*
X55053Y-9047D01*
X55063Y-9028D01*
X55072Y-8990D01*
X55082Y-8972D01*
X55091Y-8962D01*
X55110Y-8953D01*
X55128Y-8953D01*
X55147Y-8962D01*
X55157Y-8972D01*
X55166Y-8990D01*
X55166Y-9037D01*
X55157Y-9065D01*
X54988Y-9262D02*
X54978Y-9253D01*
X54969Y-9225D01*
X54969Y-9206D01*
X54978Y-9178D01*
X54997Y-9159D01*
X55016Y-9150D01*
X55053Y-9140D01*
X55082Y-9140D01*
X55119Y-9150D01*
X55138Y-9159D01*
X55157Y-9178D01*
X55166Y-9206D01*
X55166Y-9225D01*
X55157Y-9253D01*
X55147Y-9262D01*
X54969Y-9440D02*
X54969Y-9347D01*
X55166Y-9347D01*
X54903Y-9553D02*
X55185Y-9553D01*
X54969Y-9693D02*
X55166Y-9693D01*
X55166Y-9825D02*
X55166Y-9862D01*
X55157Y-9881D01*
X55138Y-9900D01*
X55100Y-9909D01*
X55035Y-9909D01*
X54997Y-9900D01*
X54978Y-9881D01*
X54969Y-9862D01*
X54969Y-9825D01*
X54978Y-9806D01*
X54997Y-9787D01*
X55035Y-9778D01*
X55100Y-9778D01*
X55138Y-9787D01*
X55157Y-9806D01*
X55166Y-9825D01*
X55100Y-10078D02*
X54969Y-10078D01*
X55175Y-10031D02*
X55035Y-9984D01*
X55035Y-10106D01*
G54D14*
X55009Y-28100D02*
X53159Y-28100D01*
X53159Y-23612D02*
X55009Y-23612D01*
G54D15*
X53959Y-27834D02*
X53368Y-27834D01*
X53368Y-27609D01*
X53397Y-27553D01*
X53425Y-27525D01*
X53481Y-27497D01*
X53565Y-27497D01*
X53622Y-27525D01*
X53650Y-27553D01*
X53678Y-27609D01*
X53678Y-27834D01*
X53959Y-27244D02*
X53565Y-27244D01*
X53368Y-27244D02*
X53397Y-27272D01*
X53425Y-27244D01*
X53397Y-27215D01*
X53368Y-27244D01*
X53425Y-27244D01*
X53734Y-26962D02*
X53734Y-26512D01*
X53959Y-26231D02*
X53368Y-26231D01*
X53368Y-26006D01*
X53397Y-25950D01*
X53425Y-25922D01*
X53481Y-25894D01*
X53565Y-25894D01*
X53622Y-25922D01*
X53650Y-25950D01*
X53678Y-26006D01*
X53678Y-26231D01*
X53959Y-25556D02*
X53931Y-25613D01*
X53903Y-25641D01*
X53847Y-25669D01*
X53678Y-25669D01*
X53622Y-25641D01*
X53593Y-25613D01*
X53565Y-25556D01*
X53565Y-25472D01*
X53593Y-25416D01*
X53622Y-25388D01*
X53678Y-25359D01*
X53847Y-25359D01*
X53903Y-25388D01*
X53931Y-25416D01*
X53959Y-25472D01*
X53959Y-25556D01*
X53565Y-25163D02*
X53959Y-25050D01*
X53678Y-24938D01*
X53959Y-24825D01*
X53565Y-24713D01*
X53931Y-24263D02*
X53959Y-24319D01*
X53959Y-24431D01*
X53931Y-24488D01*
X53875Y-24516D01*
X53650Y-24516D01*
X53593Y-24488D01*
X53565Y-24431D01*
X53565Y-24319D01*
X53593Y-24263D01*
X53650Y-24235D01*
X53706Y-24235D01*
X53762Y-24516D01*
X53959Y-23982D02*
X53565Y-23982D01*
X53678Y-23982D02*
X53622Y-23953D01*
X53593Y-23925D01*
X53565Y-23869D01*
X53565Y-23813D01*
G54D14*
X54344Y-27906D02*
X54659Y-27816D01*
X54434Y-27726D01*
X54659Y-27636D01*
X54344Y-27546D01*
X54344Y-27411D02*
X54659Y-27298D01*
X54344Y-27186D02*
X54659Y-27298D01*
X54772Y-27343D01*
X54794Y-27366D01*
X54817Y-27411D01*
X54659Y-26938D02*
X54637Y-26983D01*
X54614Y-27006D01*
X54569Y-27028D01*
X54434Y-27028D01*
X54389Y-27006D01*
X54367Y-26983D01*
X54344Y-26938D01*
X54344Y-26871D01*
X54367Y-26826D01*
X54389Y-26803D01*
X54434Y-26781D01*
X54569Y-26781D01*
X54614Y-26803D01*
X54637Y-26826D01*
X54659Y-26871D01*
X54659Y-26938D01*
X54659Y-26511D02*
X54637Y-26556D01*
X54592Y-26579D01*
X54187Y-26579D01*
X54344Y-26129D02*
X54659Y-26129D01*
X54344Y-26331D02*
X54592Y-26331D01*
X54637Y-26309D01*
X54659Y-26264D01*
X54659Y-26196D01*
X54637Y-26151D01*
X54614Y-26129D01*
X54659Y-25904D02*
X54344Y-25904D01*
X54389Y-25904D02*
X54367Y-25881D01*
X54344Y-25836D01*
X54344Y-25769D01*
X54367Y-25724D01*
X54412Y-25701D01*
X54659Y-25701D01*
X54412Y-25701D02*
X54367Y-25679D01*
X54344Y-25634D01*
X54344Y-25566D01*
X54367Y-25521D01*
X54412Y-25499D01*
X54659Y-25499D01*
X54614Y-25274D02*
X54637Y-25251D01*
X54659Y-25274D01*
X54637Y-25296D01*
X54614Y-25274D01*
X54659Y-25274D01*
X54637Y-24846D02*
X54659Y-24891D01*
X54659Y-24981D01*
X54637Y-25026D01*
X54614Y-25049D01*
X54569Y-25071D01*
X54434Y-25071D01*
X54389Y-25049D01*
X54367Y-25026D01*
X54344Y-24981D01*
X54344Y-24891D01*
X54367Y-24846D01*
X54659Y-24576D02*
X54637Y-24621D01*
X54614Y-24644D01*
X54569Y-24666D01*
X54434Y-24666D01*
X54389Y-24644D01*
X54367Y-24621D01*
X54344Y-24576D01*
X54344Y-24509D01*
X54367Y-24464D01*
X54389Y-24441D01*
X54434Y-24419D01*
X54569Y-24419D01*
X54614Y-24441D01*
X54637Y-24464D01*
X54659Y-24509D01*
X54659Y-24576D01*
X54659Y-24216D02*
X54344Y-24216D01*
X54389Y-24216D02*
X54367Y-24194D01*
X54344Y-24149D01*
X54344Y-24081D01*
X54367Y-24036D01*
X54412Y-24014D01*
X54659Y-24014D01*
X54412Y-24014D02*
X54367Y-23991D01*
X54344Y-23946D01*
X54344Y-23879D01*
X54367Y-23834D01*
X54412Y-23811D01*
X54659Y-23811D01*
G54D10*
X58169Y-7381D02*
X58169Y-29429D01*
X47165Y-10472D02*
X47165Y-8740D01*
X47165Y-8740D02*
X48188Y-8740D01*
X48188Y-8740D02*
X48188Y-10472D01*
X48188Y-10472D02*
X47165Y-10472D01*
X51811Y-23041D02*
X51811Y-24773D01*
X51811Y-24773D02*
X50787Y-24773D01*
X50787Y-24773D02*
X50787Y-23041D01*
X50787Y-23041D02*
X51811Y-23041D01*
X47618Y-27244D02*
X47618Y-25511D01*
X47618Y-25511D02*
X48641Y-25511D01*
X48641Y-25511D02*
X48641Y-27244D01*
X48641Y-27244D02*
X47618Y-27244D01*
X51712Y-28700D02*
X51318Y-29094D01*
X50452Y-28700D02*
X50846Y-29094D01*
X50964Y-27480D02*
X50452Y-27992D01*
X51712Y-27992D02*
X51200Y-27480D01*
X51712Y-27992D02*
X51712Y-28051D01*
X50452Y-27992D02*
X50452Y-28051D01*
X50452Y-28700D02*
X50452Y-28641D01*
X51712Y-28700D02*
X51712Y-28641D01*
X51200Y-27480D02*
G75*
G03X50964Y-27480I-118J-118D01*
G74*
G01*
X51318Y-29094D02*
X50846Y-29094D01*
G54D16*
X43495Y-19535D02*
X43495Y-18910D01*
X43495Y-18910D02*
X42645Y-18910D01*
X42645Y-18910D02*
X42645Y-19535D01*
X42645Y-19835D02*
X42645Y-20435D01*
X42645Y-20435D02*
X42645Y-20460D01*
X42645Y-20460D02*
X43495Y-20460D01*
X43495Y-20460D02*
X43495Y-19835D01*
X41661Y-19835D02*
X41661Y-20460D01*
X41661Y-20460D02*
X42511Y-20460D01*
X42511Y-20460D02*
X42511Y-19835D01*
X42511Y-19535D02*
X42511Y-18935D01*
X42511Y-18935D02*
X42511Y-18910D01*
X42511Y-18910D02*
X41661Y-18910D01*
X41661Y-18910D02*
X41661Y-19535D01*
X44755Y-21109D02*
X44755Y-20484D01*
X44755Y-20484D02*
X43905Y-20484D01*
X43905Y-20484D02*
X43905Y-21109D01*
X43905Y-21409D02*
X43905Y-22009D01*
X43905Y-22009D02*
X43905Y-22034D01*
X43905Y-22034D02*
X44755Y-22034D01*
X44755Y-22034D02*
X44755Y-21409D01*
X50641Y-23757D02*
X50641Y-23132D01*
X50641Y-23132D02*
X49791Y-23132D01*
X49791Y-23132D02*
X49791Y-23757D01*
X49791Y-24057D02*
X49791Y-24657D01*
X49791Y-24657D02*
X49791Y-24682D01*
X49791Y-24682D02*
X50641Y-24682D01*
X50641Y-24682D02*
X50641Y-24057D01*
X45621Y-9456D02*
X45621Y-8831D01*
X45621Y-8831D02*
X44771Y-8831D01*
X44771Y-8831D02*
X44771Y-9456D01*
X44771Y-9756D02*
X44771Y-10356D01*
X44771Y-10356D02*
X44771Y-10381D01*
X44771Y-10381D02*
X45621Y-10381D01*
X45621Y-10381D02*
X45621Y-9756D01*
X46622Y-26527D02*
X46622Y-27152D01*
X46622Y-27152D02*
X47472Y-27152D01*
X47472Y-27152D02*
X47472Y-26527D01*
X47472Y-26227D02*
X47472Y-25627D01*
X47472Y-25627D02*
X47472Y-25602D01*
X47472Y-25602D02*
X46622Y-25602D01*
X46622Y-25602D02*
X46622Y-26227D01*
X44555Y-26547D02*
X44555Y-27172D01*
X44555Y-27172D02*
X45405Y-27172D01*
X45405Y-27172D02*
X45405Y-26547D01*
X45405Y-26247D02*
X45405Y-25647D01*
X45405Y-25647D02*
X45405Y-25622D01*
X45405Y-25622D02*
X44555Y-25622D01*
X44555Y-25622D02*
X44555Y-26247D01*
X50165Y-21409D02*
X50165Y-22034D01*
X50165Y-22034D02*
X51015Y-22034D01*
X51015Y-22034D02*
X51015Y-21409D01*
X51015Y-21109D02*
X51015Y-20509D01*
X51015Y-20509D02*
X51015Y-20484D01*
X51015Y-20484D02*
X50165Y-20484D01*
X50165Y-20484D02*
X50165Y-21109D01*
X44968Y-21409D02*
X44968Y-22034D01*
X44968Y-22034D02*
X45818Y-22034D01*
X45818Y-22034D02*
X45818Y-21409D01*
X45818Y-21109D02*
X45818Y-20509D01*
X45818Y-20509D02*
X45818Y-20484D01*
X45818Y-20484D02*
X44968Y-20484D01*
X44968Y-20484D02*
X44968Y-21109D01*
X51976Y-24057D02*
X51976Y-24682D01*
X51976Y-24682D02*
X52826Y-24682D01*
X52826Y-24682D02*
X52826Y-24057D01*
X52826Y-23757D02*
X52826Y-23157D01*
X52826Y-23157D02*
X52826Y-23132D01*
X52826Y-23132D02*
X51976Y-23132D01*
X51976Y-23132D02*
X51976Y-23757D01*
X46838Y-24057D02*
X46838Y-24682D01*
X46838Y-24682D02*
X47688Y-24682D01*
X47688Y-24682D02*
X47688Y-24057D01*
X47688Y-23757D02*
X47688Y-23157D01*
X47688Y-23157D02*
X47688Y-23132D01*
X47688Y-23132D02*
X46838Y-23132D01*
X46838Y-23132D02*
X46838Y-23757D01*
X42905Y-26227D02*
X42905Y-25602D01*
X42905Y-25602D02*
X42055Y-25602D01*
X42055Y-25602D02*
X42055Y-26227D01*
X42055Y-26527D02*
X42055Y-27127D01*
X42055Y-27127D02*
X42055Y-27152D01*
X42055Y-27152D02*
X42905Y-27152D01*
X42905Y-27152D02*
X42905Y-26527D01*
X46727Y-23532D02*
X46727Y-24282D01*
X46027Y-24282D02*
X46027Y-23532D01*
X46377Y-23182D02*
G75*
G03X46027Y-23532I0J-350D01*
G74*
G01*
X46727Y-23532D02*
G75*
G03X46377Y-23182I-350J0D01*
G74*
G01*
X46377Y-24632D02*
G75*
G03X46727Y-24282I0J350D01*
G74*
G01*
X46027Y-24282D02*
G75*
G03X46377Y-24632I350J0D01*
G74*
G01*
G54D11*
X53651Y-7747D02*
X53651Y-7797D01*
X53651Y-7797D02*
X52451Y-7797D01*
X52451Y-7797D02*
X52451Y-7747D01*
X52451Y-7747D02*
X53651Y-7747D01*
X54431Y-8542D02*
X54431Y-11302D01*
X54431Y-11302D02*
X54331Y-11302D01*
X54331Y-11302D02*
X54331Y-10122D01*
X54331Y-10122D02*
X51771Y-10122D01*
X51771Y-10122D02*
X51771Y-11302D01*
X51771Y-11302D02*
X51671Y-11302D01*
X51671Y-11302D02*
X51671Y-8542D01*
X51671Y-8542D02*
X54431Y-8542D01*
X53371Y-7752D02*
X53371Y-8242D01*
X52731Y-7752D02*
X52731Y-8242D01*
X53641Y-8542D02*
X53641Y-8242D01*
X53641Y-8242D02*
X52461Y-8242D01*
X52461Y-8242D02*
X52461Y-8542D01*
G54D16*
X43547Y-23782D02*
X43547Y-23282D01*
X43547Y-24032D02*
X43547Y-24532D01*
X43547Y-23782D02*
X42847Y-23782D01*
X42847Y-23782D02*
X42847Y-24032D01*
X42847Y-24032D02*
X43547Y-24032D01*
X43547Y-23282D02*
X41747Y-23282D01*
X41747Y-23282D02*
X41747Y-24532D01*
X41747Y-24532D02*
X43547Y-24532D01*
G54D10*
X46968Y-20393D02*
X46968Y-22125D01*
X46968Y-22125D02*
X45944Y-22125D01*
X45944Y-22125D02*
X45944Y-20393D01*
X45944Y-20393D02*
X46968Y-20393D01*
X49803Y-20393D02*
X49803Y-22125D01*
X49803Y-22125D02*
X48779Y-22125D01*
X48779Y-22125D02*
X48779Y-20393D01*
X48779Y-20393D02*
X49803Y-20393D01*
X44881Y-24773D02*
X44881Y-23041D01*
X44881Y-23041D02*
X45905Y-23041D01*
X45905Y-23041D02*
X45905Y-24773D01*
X45905Y-24773D02*
X44881Y-24773D01*
X50255Y-20255D02*
X48523Y-20255D01*
X48523Y-20255D02*
X48523Y-19232D01*
X48523Y-19232D02*
X50255Y-19232D01*
X50255Y-19232D02*
X50255Y-20255D01*
X43110Y-27244D02*
X43110Y-25511D01*
X43110Y-25511D02*
X44133Y-25511D01*
X44133Y-25511D02*
X44133Y-27244D01*
X44133Y-27244D02*
X43110Y-27244D01*
X39832Y-27244D02*
X39832Y-25511D01*
X39832Y-25511D02*
X40856Y-25511D01*
X40856Y-25511D02*
X40856Y-27244D01*
X40856Y-27244D02*
X39832Y-27244D01*
X51161Y-19232D02*
X52893Y-19232D01*
X52893Y-19232D02*
X52893Y-20255D01*
X52893Y-20255D02*
X51161Y-20255D01*
X51161Y-20255D02*
X51161Y-19232D01*
X42273Y-14783D02*
X42273Y-15039D01*
X42273Y-15039D02*
X41328Y-15039D01*
X41328Y-15039D02*
X41328Y-14783D01*
X42273Y-13090D02*
X42273Y-12834D01*
X42273Y-12834D02*
X41328Y-12834D01*
X41328Y-12834D02*
X41328Y-13090D01*
X41092Y-13937D02*
X41092Y-13090D01*
X41092Y-13090D02*
X41328Y-13090D01*
X41092Y-13937D02*
X41092Y-14783D01*
X41092Y-14783D02*
X41328Y-14783D01*
X42509Y-13937D02*
X42509Y-14783D01*
X42509Y-14783D02*
X42273Y-14783D01*
X42509Y-13937D02*
X42509Y-13090D01*
X42509Y-13090D02*
X42273Y-13090D01*
G54D16*
X41801Y-14137D02*
X42101Y-13737D01*
X42101Y-13737D02*
X41501Y-13737D01*
X41501Y-13737D02*
X41801Y-14137D01*
X41801Y-14137D02*
X42101Y-14137D01*
X42101Y-14137D02*
X41801Y-13737D01*
X41801Y-13737D02*
X41501Y-14137D01*
X41501Y-14137D02*
X41801Y-14137D01*
G54D10*
X42145Y-21240D02*
X42027Y-21240D01*
X42185Y-21299D02*
X41988Y-21299D01*
X42224Y-21358D02*
X41968Y-21358D01*
X42283Y-21102D02*
X41889Y-21102D01*
X42086Y-21161D02*
X42283Y-21417D01*
X42283Y-21417D02*
X41889Y-21417D01*
X41889Y-21417D02*
X42086Y-21161D01*
X42480Y-20688D02*
G75*
G03X42480Y-20688I-39J0D01*
G74*
G01*
X41791Y-20807D02*
X41791Y-21712D01*
X42381Y-20807D02*
X42381Y-21712D01*
X43011Y-21279D02*
X43129Y-21279D01*
X42972Y-21220D02*
X43169Y-21220D01*
X42933Y-21161D02*
X43188Y-21161D01*
X42874Y-21417D02*
X43267Y-21417D01*
X43070Y-21358D02*
X42874Y-21102D01*
X42874Y-21102D02*
X43267Y-21102D01*
X43267Y-21102D02*
X43070Y-21358D01*
X42755Y-21830D02*
G75*
G03X42755Y-21830I-39J0D01*
G74*
G01*
X43366Y-21712D02*
X43366Y-20807D01*
X42775Y-21712D02*
X42775Y-20807D01*
X46023Y-26358D02*
X45905Y-26358D01*
X46062Y-26417D02*
X45866Y-26417D01*
X46102Y-26476D02*
X45846Y-26476D01*
X46161Y-26220D02*
X45767Y-26220D01*
X45964Y-26279D02*
X46161Y-26535D01*
X46161Y-26535D02*
X45767Y-26535D01*
X45767Y-26535D02*
X45964Y-26279D01*
X46358Y-25807D02*
G75*
G03X46358Y-25807I-39J0D01*
G74*
G01*
X45669Y-25925D02*
X45669Y-26830D01*
X46259Y-25925D02*
X46259Y-26830D01*
X43996Y-19704D02*
X44114Y-19704D01*
X43956Y-19645D02*
X44153Y-19645D01*
X43917Y-19586D02*
X44173Y-19586D01*
X43858Y-19842D02*
X44251Y-19842D01*
X44055Y-19783D02*
X43858Y-19527D01*
X43858Y-19527D02*
X44251Y-19527D01*
X44251Y-19527D02*
X44055Y-19783D01*
X43740Y-20255D02*
G75*
G03X43740Y-20255I-39J0D01*
G74*
G01*
X44350Y-20137D02*
X44350Y-19232D01*
X43759Y-20137D02*
X43759Y-19232D01*
X53179Y-19803D02*
X53179Y-20098D01*
X53356Y-20098D02*
X53356Y-19803D01*
X53179Y-20098D02*
X53356Y-20098D01*
X53356Y-20039D02*
X53179Y-20039D01*
X53179Y-19980D02*
X53356Y-19980D01*
X53356Y-19921D02*
X53179Y-19921D01*
X53356Y-19862D02*
X53179Y-19862D01*
X54419Y-19803D02*
X54419Y-20098D01*
X54596Y-19803D02*
X54596Y-20098D01*
X54596Y-20098D02*
X54419Y-20098D01*
X54419Y-20039D02*
X54596Y-20039D01*
X54596Y-19980D02*
X54419Y-19980D01*
X54419Y-19921D02*
X54596Y-19921D01*
X54596Y-19862D02*
X54419Y-19862D01*
X53179Y-18070D02*
X53356Y-18070D01*
X53179Y-19803D02*
X53356Y-19803D01*
X54596Y-19803D02*
X54419Y-19803D01*
X54596Y-18070D02*
X54419Y-18070D01*
X53179Y-18070D02*
X53179Y-19803D01*
X54596Y-18070D02*
X54596Y-19803D01*
G54D16*
X53887Y-19137D02*
X54187Y-18737D01*
X54187Y-18737D02*
X53587Y-18737D01*
X53587Y-18737D02*
X53887Y-19137D01*
X53887Y-19137D02*
X54187Y-19137D01*
X53587Y-19137D02*
X53887Y-19137D01*
G54D10*
X39311Y-13208D02*
X39311Y-14468D01*
X38602Y-14468D02*
X38602Y-13208D01*
G54D16*
X38656Y-13538D02*
X38956Y-14138D01*
X38956Y-14138D02*
X39256Y-13538D01*
X38956Y-13538D02*
X39256Y-14138D01*
X38956Y-13538D02*
X38656Y-14138D01*
X36198Y-25667D02*
X39723Y-25667D01*
X36198Y-23917D02*
X36198Y-22167D01*
X36198Y-22167D02*
X39723Y-22167D01*
X39723Y-22167D02*
X39723Y-22542D01*
X39723Y-22542D02*
X38373Y-22542D01*
X38373Y-22542D02*
X38373Y-25292D01*
X38373Y-25292D02*
X39723Y-25292D01*
X39723Y-25292D02*
X39723Y-25667D01*
X36198Y-25667D02*
X36198Y-23917D01*
X50496Y-18057D02*
X50496Y-18557D01*
X47496Y-18057D02*
X47496Y-18557D01*
X48246Y-18807D02*
X47746Y-18807D01*
X49246Y-18807D02*
X48746Y-18807D01*
X50246Y-18807D02*
X49746Y-18807D01*
X49746Y-17807D02*
X50246Y-17807D01*
X48746Y-17807D02*
X49246Y-17807D01*
X47746Y-17807D02*
X48246Y-17807D01*
X50246Y-17807D02*
X50496Y-18057D01*
X49246Y-17807D02*
X49496Y-18057D01*
X49496Y-18057D02*
X49746Y-17807D01*
X48246Y-17807D02*
X48496Y-18057D01*
X48496Y-18057D02*
X48746Y-17807D01*
X47496Y-18057D02*
X47746Y-17807D01*
X47746Y-18807D02*
X47496Y-18557D01*
X48746Y-18807D02*
X48496Y-18557D01*
X48496Y-18557D02*
X48246Y-18807D01*
X49746Y-18807D02*
X49496Y-18557D01*
X49496Y-18557D02*
X49246Y-18807D01*
X50496Y-18557D02*
X50246Y-18807D01*
X50606Y-9740D02*
X50606Y-10240D01*
X48606Y-9740D02*
X48606Y-10240D01*
X49356Y-10490D02*
X48856Y-10490D01*
X50356Y-10490D02*
X49856Y-10490D01*
X49856Y-9490D02*
X50356Y-9490D01*
X48856Y-9490D02*
X49356Y-9490D01*
X50356Y-9490D02*
X50606Y-9740D01*
X49356Y-9490D02*
X49606Y-9740D01*
X49606Y-9740D02*
X49856Y-9490D01*
X48606Y-9740D02*
X48856Y-9490D01*
X48856Y-10490D02*
X48606Y-10240D01*
X49856Y-10490D02*
X49606Y-10240D01*
X49606Y-10240D02*
X49356Y-10490D01*
X50606Y-10240D02*
X50356Y-10490D01*
X48496Y-17179D02*
X48496Y-16679D01*
X50496Y-17179D02*
X50496Y-16679D01*
X49746Y-16429D02*
X50246Y-16429D01*
X48746Y-16429D02*
X49246Y-16429D01*
X49246Y-17429D02*
X48746Y-17429D01*
X50246Y-17429D02*
X49746Y-17429D01*
X48746Y-17429D02*
X48496Y-17179D01*
X49746Y-17429D02*
X49496Y-17179D01*
X49496Y-17179D02*
X49246Y-17429D01*
X50496Y-17179D02*
X50246Y-17429D01*
X50246Y-16429D02*
X50496Y-16679D01*
X49246Y-16429D02*
X49496Y-16679D01*
X49496Y-16679D02*
X49746Y-16429D01*
X48496Y-16679D02*
X48746Y-16429D01*
X52092Y-25377D02*
X52592Y-25377D01*
X52092Y-27377D02*
X52592Y-27377D01*
X52842Y-26627D02*
X52842Y-27127D01*
X52842Y-25627D02*
X52842Y-26127D01*
X51842Y-26127D02*
X51842Y-25627D01*
X51842Y-27127D02*
X51842Y-26627D01*
X51842Y-25627D02*
X52092Y-25377D01*
X51842Y-26627D02*
X52092Y-26377D01*
X52092Y-26377D02*
X51842Y-26127D01*
X52092Y-27377D02*
X51842Y-27127D01*
X52842Y-27127D02*
X52592Y-27377D01*
X52842Y-26127D02*
X52592Y-26377D01*
X52592Y-26377D02*
X52842Y-26627D01*
X52592Y-25377D02*
X52842Y-25627D01*
X46057Y-29307D02*
X45557Y-29307D01*
X46057Y-27307D02*
X45557Y-27307D01*
X45307Y-28057D02*
X45307Y-27557D01*
X45307Y-29057D02*
X45307Y-28557D01*
X46307Y-28557D02*
X46307Y-29057D01*
X46307Y-27557D02*
X46307Y-28057D01*
X46307Y-29057D02*
X46057Y-29307D01*
X46307Y-28057D02*
X46057Y-28307D01*
X46057Y-28307D02*
X46307Y-28557D01*
X46057Y-27307D02*
X46307Y-27557D01*
X45307Y-27557D02*
X45557Y-27307D01*
X45307Y-28557D02*
X45557Y-28307D01*
X45557Y-28307D02*
X45307Y-28057D01*
X45557Y-29307D02*
X45307Y-29057D01*
X50606Y-11236D02*
X50606Y-11736D01*
X48606Y-11236D02*
X48606Y-11736D01*
X49356Y-11986D02*
X48856Y-11986D01*
X50356Y-11986D02*
X49856Y-11986D01*
X49856Y-10986D02*
X50356Y-10986D01*
X48856Y-10986D02*
X49356Y-10986D01*
X50356Y-10986D02*
X50606Y-11236D01*
X49356Y-10986D02*
X49606Y-11236D01*
X49606Y-11236D02*
X49856Y-10986D01*
X48606Y-11236D02*
X48856Y-10986D01*
X48856Y-11986D02*
X48606Y-11736D01*
X49856Y-11986D02*
X49606Y-11736D01*
X49606Y-11736D02*
X49356Y-11986D01*
X50606Y-11736D02*
X50356Y-11986D01*
G54D17*
X37642Y-10951D02*
X39412Y-10951D01*
X36142Y-10951D02*
X37642Y-10951D01*
X41442Y-10781D02*
X41442Y-10261D01*
X41442Y-7551D02*
X41442Y-8241D01*
X36442Y-7551D02*
X36142Y-7551D01*
X36142Y-7551D02*
X36142Y-10951D01*
X36442Y-7551D02*
X41442Y-7551D01*
G54D16*
X48828Y-15071D02*
X48753Y-14996D01*
X48853Y-14121D02*
X48853Y-14421D01*
X48803Y-14121D02*
X48803Y-14421D01*
X48753Y-14121D02*
X48903Y-14121D01*
X48903Y-14121D02*
X48903Y-14421D01*
X48903Y-14421D02*
X48753Y-14421D01*
X50778Y-15071D02*
X50853Y-15071D01*
X50853Y-15071D02*
X50853Y-13471D01*
X50853Y-13471D02*
X50778Y-13471D01*
X48828Y-13471D02*
X48753Y-13471D01*
X48753Y-13471D02*
X48753Y-15071D01*
X48753Y-15071D02*
X48828Y-15071D01*
X41842Y-26227D02*
X41842Y-25602D01*
X41842Y-25602D02*
X40992Y-25602D01*
X40992Y-25602D02*
X40992Y-26227D01*
X40992Y-26527D02*
X40992Y-27127D01*
X40992Y-27127D02*
X40992Y-27152D01*
X40992Y-27152D02*
X41842Y-27152D01*
X41842Y-27152D02*
X41842Y-26527D01*
X43137Y-28614D02*
X43137Y-29239D01*
X43137Y-29239D02*
X43987Y-29239D01*
X43987Y-29239D02*
X43987Y-28614D01*
X43987Y-28314D02*
X43987Y-27714D01*
X43987Y-27714D02*
X43987Y-27689D01*
X43987Y-27689D02*
X43137Y-27689D01*
X43137Y-27689D02*
X43137Y-28314D01*
X42055Y-28614D02*
X42055Y-29239D01*
X42055Y-29239D02*
X42905Y-29239D01*
X42905Y-29239D02*
X42905Y-28614D01*
X42905Y-28314D02*
X42905Y-27714D01*
X42905Y-27714D02*
X42905Y-27689D01*
X42905Y-27689D02*
X42055Y-27689D01*
X42055Y-27689D02*
X42055Y-28314D01*
X51877Y-17586D02*
X51252Y-17586D01*
X51252Y-17586D02*
X51252Y-18436D01*
X51252Y-18436D02*
X51877Y-18436D01*
X52177Y-18436D02*
X52777Y-18436D01*
X52777Y-18436D02*
X52802Y-18436D01*
X52802Y-18436D02*
X52802Y-17586D01*
X52802Y-17586D02*
X52177Y-17586D01*
X51877Y-16504D02*
X51252Y-16504D01*
X51252Y-16504D02*
X51252Y-17354D01*
X51252Y-17354D02*
X51877Y-17354D01*
X52177Y-17354D02*
X52777Y-17354D01*
X52777Y-17354D02*
X52802Y-17354D01*
X52802Y-17354D02*
X52802Y-16504D01*
X52802Y-16504D02*
X52177Y-16504D01*
X54087Y-16271D02*
X54712Y-16271D01*
X54712Y-16271D02*
X54712Y-15421D01*
X54712Y-15421D02*
X54087Y-15421D01*
X53787Y-15421D02*
X53187Y-15421D01*
X53187Y-15421D02*
X53162Y-15421D01*
X53162Y-15421D02*
X53162Y-16271D01*
X53162Y-16271D02*
X53787Y-16271D01*
X53787Y-16504D02*
X53162Y-16504D01*
X53162Y-16504D02*
X53162Y-17354D01*
X53162Y-17354D02*
X53787Y-17354D01*
X54087Y-17354D02*
X54687Y-17354D01*
X54687Y-17354D02*
X54712Y-17354D01*
X54712Y-17354D02*
X54712Y-16504D01*
X54712Y-16504D02*
X54087Y-16504D01*
X52177Y-16271D02*
X52802Y-16271D01*
X52802Y-16271D02*
X52802Y-15421D01*
X52802Y-15421D02*
X52177Y-15421D01*
X51877Y-15421D02*
X51277Y-15421D01*
X51277Y-15421D02*
X51252Y-15421D01*
X51252Y-15421D02*
X51252Y-16271D01*
X51252Y-16271D02*
X51877Y-16271D01*
X47917Y-24282D02*
X47917Y-23532D01*
X48617Y-23532D02*
X48617Y-24282D01*
X48267Y-24632D02*
G75*
G03X48617Y-24282I0J350D01*
G74*
G01*
X47917Y-24282D02*
G75*
G03X48267Y-24632I350J0D01*
G74*
G01*
X48267Y-23182D02*
G75*
G03X47917Y-23532I0J-350D01*
G74*
G01*
X48617Y-23532D02*
G75*
G03X48267Y-23182I-350J0D01*
G74*
G01*
X48744Y-24282D02*
X48744Y-23532D01*
X49444Y-23532D02*
X49444Y-24282D01*
X49094Y-24632D02*
G75*
G03X49444Y-24282I0J350D01*
G74*
G01*
X48744Y-24282D02*
G75*
G03X49094Y-24632I350J0D01*
G74*
G01*
X49094Y-23182D02*
G75*
G03X48744Y-23532I0J-350D01*
G74*
G01*
X49444Y-23532D02*
G75*
G03X49094Y-23182I-350J0D01*
G74*
G01*
X38275Y-13799D02*
X38275Y-15224D01*
X38275Y-15224D02*
X38100Y-15224D01*
X38275Y-12374D02*
X38100Y-12374D01*
X38275Y-13799D02*
X38275Y-12374D01*
X38100Y-12374D02*
X38100Y-12099D01*
X38100Y-12099D02*
X36125Y-12099D01*
X36125Y-12099D02*
X36125Y-13799D01*
X36125Y-13799D02*
X36125Y-15499D01*
X36125Y-15499D02*
X38100Y-15499D01*
X38100Y-15499D02*
X38100Y-15224D01*
X36350Y-14824D02*
X36200Y-14824D01*
X36350Y-12774D02*
X36200Y-12774D01*
X36350Y-12774D02*
X36350Y-12699D01*
X36350Y-12699D02*
X36200Y-12774D01*
X36200Y-12774D02*
X36350Y-12849D01*
X36350Y-12849D02*
X36350Y-12774D01*
X36350Y-14749D02*
X36350Y-14899D01*
X36350Y-14899D02*
X36200Y-14824D01*
X36200Y-14824D02*
X36350Y-14749D01*
G54D10*
X48976Y-26889D02*
X48976Y-26574D01*
X49094Y-27007D02*
X48976Y-26889D01*
X50236Y-25748D02*
X50236Y-26181D01*
X50236Y-25748D02*
X50118Y-25748D01*
X50236Y-27007D02*
X50236Y-26574D01*
X50236Y-27007D02*
X50118Y-27007D01*
X48976Y-25748D02*
X48976Y-26181D01*
X48976Y-25748D02*
X49094Y-25748D01*
G54D11*
X41473Y-21847D02*
X35923Y-21847D01*
X35923Y-15947D02*
X41473Y-15947D01*
X41473Y-21847D02*
X41473Y-15947D01*
X35923Y-21847D02*
X35923Y-15947D01*
G54D10*
X48503Y-21889D02*
X48503Y-20629D01*
X47244Y-21771D02*
X47244Y-20629D01*
X47244Y-21771D02*
X47362Y-21889D01*
X48503Y-20629D02*
X48385Y-20629D01*
X48503Y-21889D02*
X48385Y-21889D01*
X47244Y-20629D02*
X47362Y-20629D01*
X41515Y-27736D02*
G75*
G03X41515Y-27736I-39J0D01*
G74*
G01*
X41496Y-27736D02*
G75*
G03X41496Y-27736I-19J0D01*
G74*
G01*
X41417Y-27736D02*
X41417Y-28956D01*
X41377Y-27696D02*
X41417Y-27736D01*
X40590Y-27696D02*
X40551Y-27696D01*
X40551Y-27696D02*
X40551Y-28956D01*
X40551Y-28956D02*
X40590Y-28956D01*
X41417Y-28956D02*
X41377Y-28956D01*
G54D16*
X40476Y-14750D02*
X39976Y-14750D01*
X40476Y-12750D02*
X39976Y-12750D01*
X39726Y-13500D02*
X39726Y-13000D01*
X39726Y-14500D02*
X39726Y-14000D01*
X40726Y-14000D02*
X40726Y-14500D01*
X40726Y-13000D02*
X40726Y-13500D01*
X40726Y-14500D02*
X40476Y-14750D01*
X40726Y-13500D02*
X40476Y-13750D01*
X40476Y-13750D02*
X40726Y-14000D01*
X40476Y-12750D02*
X40726Y-13000D01*
X39726Y-13000D02*
X39976Y-12750D01*
X39726Y-14000D02*
X39976Y-13750D01*
X39976Y-13750D02*
X39726Y-13500D01*
X39976Y-14750D02*
X39726Y-14500D01*
G54D10*
X47145Y-18205D02*
X47145Y-18605D01*
X46945Y-18405D02*
X47345Y-18405D01*
G54D11*
X55584Y-7771D02*
X55584Y-20771D01*
X57584Y-20771D02*
X57584Y-7771D01*
X57584Y-7771D02*
X55584Y-7771D01*
X55584Y-20771D02*
X57584Y-20771D01*
G54D10*
X44803Y-8553D02*
X44803Y-7746D01*
X44803Y-7746D02*
X42972Y-7746D01*
X42972Y-7746D02*
X42972Y-8553D01*
X42972Y-8553D02*
X44803Y-8553D01*
X46958Y-8690D02*
X45797Y-8690D01*
X45797Y-8690D02*
X45797Y-10521D01*
X45797Y-10521D02*
X46958Y-10521D01*
X46958Y-10521D02*
X46958Y-8690D01*
X44625Y-22992D02*
X43818Y-22992D01*
X43818Y-22992D02*
X43818Y-24822D01*
X43818Y-24822D02*
X44625Y-24822D01*
X44625Y-24822D02*
X44625Y-22992D01*
X40472Y-24822D02*
X41279Y-24822D01*
X41279Y-24822D02*
X41279Y-22992D01*
X41279Y-22992D02*
X40472Y-22992D01*
X40472Y-22992D02*
X40472Y-24822D01*
X51505Y-25462D02*
X50698Y-25462D01*
X50698Y-25462D02*
X50698Y-27293D01*
X50698Y-27293D02*
X51505Y-27293D01*
X51505Y-27293D02*
X51505Y-25462D01*
X46643Y-29222D02*
X47450Y-29222D01*
X47450Y-29222D02*
X47450Y-27391D01*
X47450Y-27391D02*
X46643Y-27391D01*
X46643Y-27391D02*
X46643Y-29222D01*
X51112Y-14360D02*
X51112Y-15167D01*
X51112Y-15167D02*
X52942Y-15167D01*
X52942Y-15167D02*
X52942Y-14360D01*
X52942Y-14360D02*
X51112Y-14360D01*
X47746Y-29222D02*
X48553Y-29222D01*
X48553Y-29222D02*
X48553Y-27391D01*
X48553Y-27391D02*
X47746Y-27391D01*
X47746Y-27391D02*
X47746Y-29222D01*
X53956Y-13740D02*
X53956Y-13622D01*
X53897Y-13779D02*
X53897Y-13582D01*
X53838Y-13818D02*
X53838Y-13562D01*
X54094Y-13877D02*
X54094Y-13484D01*
X54035Y-13681D02*
X53779Y-13877D01*
X53779Y-13877D02*
X53779Y-13484D01*
X53779Y-13484D02*
X54035Y-13681D01*
X54547Y-14035D02*
G75*
G03X54547Y-14035I-39J0D01*
G74*
G01*
X54389Y-13385D02*
X53484Y-13385D01*
X54389Y-13976D02*
X53484Y-13976D01*
G54D16*
X47789Y-14956D02*
X47789Y-15456D01*
X44789Y-14956D02*
X44789Y-15456D01*
X45539Y-15706D02*
X45039Y-15706D01*
X46539Y-15706D02*
X46039Y-15706D01*
X47539Y-15706D02*
X47039Y-15706D01*
X47039Y-14706D02*
X47539Y-14706D01*
X46039Y-14706D02*
X46539Y-14706D01*
X45039Y-14706D02*
X45539Y-14706D01*
X47539Y-14706D02*
X47789Y-14956D01*
X46539Y-14706D02*
X46789Y-14956D01*
X46789Y-14956D02*
X47039Y-14706D01*
X45539Y-14706D02*
X45789Y-14956D01*
X45789Y-14956D02*
X46039Y-14706D01*
X44789Y-14956D02*
X45039Y-14706D01*
X45039Y-15706D02*
X44789Y-15456D01*
X46039Y-15706D02*
X45789Y-15456D01*
X45789Y-15456D02*
X45539Y-15706D01*
X47039Y-15706D02*
X46789Y-15456D01*
X46789Y-15456D02*
X46539Y-15706D01*
X47789Y-15456D02*
X47539Y-15706D01*
X54087Y-15188D02*
X54712Y-15188D01*
X54712Y-15188D02*
X54712Y-14338D01*
X54712Y-14338D02*
X54087Y-14338D01*
X53787Y-14338D02*
X53187Y-14338D01*
X53187Y-14338D02*
X53162Y-14338D01*
X53162Y-14338D02*
X53162Y-15188D01*
X53162Y-15188D02*
X53787Y-15188D01*
X51877Y-13256D02*
X51252Y-13256D01*
X51252Y-13256D02*
X51252Y-14106D01*
X51252Y-14106D02*
X51877Y-14106D01*
X52177Y-14106D02*
X52777Y-14106D01*
X52777Y-14106D02*
X52802Y-14106D01*
X52802Y-14106D02*
X52802Y-13256D01*
X52802Y-13256D02*
X52177Y-13256D01*
X46288Y-18882D02*
X47038Y-18882D01*
X47038Y-19582D02*
X46288Y-19582D01*
X45938Y-19232D02*
G75*
G03X46288Y-19582I350J0D01*
G74*
G01*
X46288Y-18882D02*
G75*
G03X45938Y-19232I0J-350D01*
G74*
G01*
X47388Y-19232D02*
G75*
G03X47038Y-18882I-350J0D01*
G74*
G01*
X47038Y-19582D02*
G75*
G03X47388Y-19232I0J350D01*
G74*
G01*
G54D10*
X41346Y-22781D02*
X42846Y-22781D01*
X41346Y-22081D02*
X42846Y-22081D01*
G54D16*
X43196Y-22431D02*
G75*
G03X42846Y-22081I-350J0D01*
G74*
G01*
X42846Y-22781D02*
G75*
G03X43196Y-22431I0J350D01*
G74*
G01*
X40996Y-22431D02*
G75*
G03X41346Y-22781I350J0D01*
G74*
G01*
X41346Y-22081D02*
G75*
G03X40996Y-22431I0J-350D01*
G74*
G01*
G54D10*
X43572Y-9980D02*
X43179Y-10374D01*
X44045Y-9980D02*
X44438Y-10374D01*
X44045Y-9980D02*
X43572Y-9980D01*
X44438Y-11082D02*
X44045Y-11476D01*
X43179Y-11082D02*
X43572Y-11476D01*
X44438Y-10374D02*
X44438Y-10433D01*
X43179Y-10374D02*
X43179Y-10433D01*
X43179Y-11082D02*
X43179Y-11023D01*
X44438Y-11082D02*
X44438Y-11023D01*
X44045Y-11476D02*
X43572Y-11476D01*
X44104Y-8868D02*
X44202Y-8917D01*
X44202Y-8917D02*
X44202Y-8818D01*
X44202Y-8818D02*
X44104Y-8868D01*
X44045Y-9655D02*
X44045Y-8828D01*
X43218Y-9655D02*
X43218Y-8828D01*
X57584Y-21771D02*
X57584Y-20771D01*
X57584Y-20771D02*
X55584Y-20771D01*
X55584Y-20771D02*
X55584Y-21771D01*
X55584Y-21771D02*
X55584Y-22771D01*
X55584Y-22771D02*
X57584Y-22771D01*
X57584Y-22771D02*
X57584Y-21771D01*
X56584Y-21771D02*
X57584Y-21771D01*
X56584Y-21771D02*
X55584Y-21771D01*
G54D16*
X53562Y-12583D02*
X54312Y-12583D01*
X54312Y-13283D02*
X53562Y-13283D01*
X53212Y-12933D02*
G75*
G03X53562Y-13283I350J0D01*
G74*
G01*
X53562Y-12583D02*
G75*
G03X53212Y-12933I0J-350D01*
G74*
G01*
X54662Y-12933D02*
G75*
G03X54312Y-12583I-350J0D01*
G74*
G01*
X54312Y-13283D02*
G75*
G03X54662Y-12933I0J350D01*
G74*
G01*
G54D18*
X47754Y-8309D02*
X47766Y-8321D01*
X47778Y-8357D01*
X47778Y-8380D01*
X47766Y-8416D01*
X47742Y-8440D01*
X47718Y-8452D01*
X47671Y-8464D01*
X47635Y-8464D01*
X47587Y-8452D01*
X47564Y-8440D01*
X47540Y-8416D01*
X47528Y-8380D01*
X47528Y-8357D01*
X47540Y-8321D01*
X47552Y-8309D01*
X47778Y-8071D02*
X47778Y-8214D01*
X47778Y-8142D02*
X47528Y-8142D01*
X47564Y-8166D01*
X47587Y-8190D01*
X47599Y-8214D01*
X51376Y-22777D02*
X51388Y-22789D01*
X51400Y-22825D01*
X51400Y-22849D01*
X51388Y-22885D01*
X51364Y-22908D01*
X51340Y-22920D01*
X51293Y-22932D01*
X51257Y-22932D01*
X51209Y-22920D01*
X51186Y-22908D01*
X51162Y-22885D01*
X51150Y-22849D01*
X51150Y-22825D01*
X51162Y-22789D01*
X51174Y-22777D01*
X51150Y-22694D02*
X51150Y-22527D01*
X51400Y-22635D01*
X47843Y-25228D02*
X47855Y-25240D01*
X47866Y-25276D01*
X47866Y-25300D01*
X47855Y-25335D01*
X47831Y-25359D01*
X47807Y-25371D01*
X47759Y-25383D01*
X47724Y-25383D01*
X47676Y-25371D01*
X47652Y-25359D01*
X47628Y-25335D01*
X47616Y-25300D01*
X47616Y-25276D01*
X47628Y-25240D01*
X47640Y-25228D01*
X47724Y-25085D02*
X47712Y-25109D01*
X47700Y-25121D01*
X47676Y-25133D01*
X47664Y-25133D01*
X47640Y-25121D01*
X47628Y-25109D01*
X47616Y-25085D01*
X47616Y-25038D01*
X47628Y-25014D01*
X47640Y-25002D01*
X47664Y-24990D01*
X47676Y-24990D01*
X47700Y-25002D01*
X47712Y-25014D01*
X47724Y-25038D01*
X47724Y-25085D01*
X47735Y-25109D01*
X47747Y-25121D01*
X47771Y-25133D01*
X47819Y-25133D01*
X47843Y-25121D01*
X47855Y-25109D01*
X47866Y-25085D01*
X47866Y-25038D01*
X47855Y-25014D01*
X47843Y-25002D01*
X47819Y-24990D01*
X47771Y-24990D01*
X47747Y-25002D01*
X47735Y-25014D01*
X47724Y-25038D01*
X50544Y-27620D02*
X50544Y-27739D01*
X50294Y-27739D01*
X50544Y-27406D02*
X50544Y-27548D01*
X50544Y-27477D02*
X50294Y-27477D01*
X50329Y-27501D01*
X50353Y-27525D01*
X50365Y-27548D01*
X42473Y-18663D02*
X42354Y-18747D01*
X42473Y-18806D02*
X42223Y-18806D01*
X42223Y-18711D01*
X42235Y-18687D01*
X42247Y-18675D01*
X42270Y-18663D01*
X42306Y-18663D01*
X42330Y-18675D01*
X42342Y-18687D01*
X42354Y-18711D01*
X42354Y-18806D01*
X42473Y-18425D02*
X42473Y-18568D01*
X42473Y-18497D02*
X42223Y-18497D01*
X42258Y-18520D01*
X42282Y-18544D01*
X42294Y-18568D01*
X41902Y-18663D02*
X41783Y-18747D01*
X41902Y-18806D02*
X41652Y-18806D01*
X41652Y-18711D01*
X41664Y-18687D01*
X41676Y-18675D01*
X41699Y-18663D01*
X41735Y-18663D01*
X41759Y-18675D01*
X41771Y-18687D01*
X41783Y-18711D01*
X41783Y-18806D01*
X41676Y-18568D02*
X41664Y-18556D01*
X41652Y-18532D01*
X41652Y-18473D01*
X41664Y-18449D01*
X41676Y-18437D01*
X41699Y-18425D01*
X41723Y-18425D01*
X41759Y-18437D01*
X41902Y-18580D01*
X41902Y-18425D01*
X44746Y-20238D02*
X44627Y-20321D01*
X44746Y-20381D02*
X44496Y-20381D01*
X44496Y-20286D01*
X44508Y-20262D01*
X44520Y-20250D01*
X44544Y-20238D01*
X44580Y-20238D01*
X44604Y-20250D01*
X44615Y-20262D01*
X44627Y-20286D01*
X44627Y-20381D01*
X44496Y-20155D02*
X44496Y-20000D01*
X44592Y-20083D01*
X44592Y-20048D01*
X44604Y-20024D01*
X44615Y-20012D01*
X44639Y-20000D01*
X44699Y-20000D01*
X44723Y-20012D01*
X44734Y-20024D01*
X44746Y-20048D01*
X44746Y-20119D01*
X44734Y-20143D01*
X44723Y-20155D01*
X50317Y-22856D02*
X50198Y-22939D01*
X50317Y-22999D02*
X50067Y-22999D01*
X50067Y-22904D01*
X50079Y-22880D01*
X50091Y-22868D01*
X50115Y-22856D01*
X50151Y-22856D01*
X50174Y-22868D01*
X50186Y-22880D01*
X50198Y-22904D01*
X50198Y-22999D01*
X50151Y-22642D02*
X50317Y-22642D01*
X50055Y-22701D02*
X50234Y-22761D01*
X50234Y-22606D01*
X45573Y-8575D02*
X45454Y-8658D01*
X45573Y-8717D02*
X45323Y-8717D01*
X45323Y-8622D01*
X45335Y-8598D01*
X45347Y-8587D01*
X45371Y-8575D01*
X45406Y-8575D01*
X45430Y-8587D01*
X45442Y-8598D01*
X45454Y-8622D01*
X45454Y-8717D01*
X45323Y-8348D02*
X45323Y-8467D01*
X45442Y-8479D01*
X45430Y-8467D01*
X45418Y-8444D01*
X45418Y-8384D01*
X45430Y-8360D01*
X45442Y-8348D01*
X45466Y-8337D01*
X45526Y-8337D01*
X45549Y-8348D01*
X45561Y-8360D01*
X45573Y-8384D01*
X45573Y-8444D01*
X45561Y-8467D01*
X45549Y-8479D01*
X47148Y-25327D02*
X47029Y-25410D01*
X47148Y-25469D02*
X46898Y-25469D01*
X46898Y-25374D01*
X46910Y-25350D01*
X46922Y-25339D01*
X46946Y-25327D01*
X46981Y-25327D01*
X47005Y-25339D01*
X47017Y-25350D01*
X47029Y-25374D01*
X47029Y-25469D01*
X47005Y-25184D02*
X46993Y-25208D01*
X46981Y-25219D01*
X46957Y-25231D01*
X46946Y-25231D01*
X46922Y-25219D01*
X46910Y-25208D01*
X46898Y-25184D01*
X46898Y-25136D01*
X46910Y-25112D01*
X46922Y-25100D01*
X46946Y-25089D01*
X46957Y-25089D01*
X46981Y-25100D01*
X46993Y-25112D01*
X47005Y-25136D01*
X47005Y-25184D01*
X47017Y-25208D01*
X47029Y-25219D01*
X47053Y-25231D01*
X47100Y-25231D01*
X47124Y-25219D01*
X47136Y-25208D01*
X47148Y-25184D01*
X47148Y-25136D01*
X47136Y-25112D01*
X47124Y-25100D01*
X47100Y-25089D01*
X47053Y-25089D01*
X47029Y-25100D01*
X47017Y-25112D01*
X47005Y-25136D01*
X45081Y-25336D02*
X44962Y-25420D01*
X45081Y-25479D02*
X44831Y-25479D01*
X44831Y-25384D01*
X44843Y-25360D01*
X44855Y-25348D01*
X44879Y-25336D01*
X44914Y-25336D01*
X44938Y-25348D01*
X44950Y-25360D01*
X44962Y-25384D01*
X44962Y-25479D01*
X45081Y-25217D02*
X45081Y-25170D01*
X45069Y-25146D01*
X45057Y-25134D01*
X45021Y-25110D01*
X44974Y-25098D01*
X44879Y-25098D01*
X44855Y-25110D01*
X44843Y-25122D01*
X44831Y-25146D01*
X44831Y-25194D01*
X44843Y-25217D01*
X44855Y-25229D01*
X44879Y-25241D01*
X44938Y-25241D01*
X44962Y-25229D01*
X44974Y-25217D01*
X44986Y-25194D01*
X44986Y-25146D01*
X44974Y-25122D01*
X44962Y-25110D01*
X44938Y-25098D01*
X51390Y-21420D02*
X51271Y-21503D01*
X51390Y-21563D02*
X51140Y-21563D01*
X51140Y-21468D01*
X51152Y-21444D01*
X51164Y-21432D01*
X51188Y-21420D01*
X51223Y-21420D01*
X51247Y-21432D01*
X51259Y-21444D01*
X51271Y-21468D01*
X51271Y-21563D01*
X51390Y-21182D02*
X51390Y-21325D01*
X51390Y-21253D02*
X51140Y-21253D01*
X51176Y-21277D01*
X51200Y-21301D01*
X51211Y-21325D01*
X51140Y-21027D02*
X51140Y-21003D01*
X51152Y-20980D01*
X51164Y-20968D01*
X51188Y-20956D01*
X51235Y-20944D01*
X51295Y-20944D01*
X51342Y-20956D01*
X51366Y-20968D01*
X51378Y-20980D01*
X51390Y-21003D01*
X51390Y-21027D01*
X51378Y-21051D01*
X51366Y-21063D01*
X51342Y-21075D01*
X51295Y-21087D01*
X51235Y-21087D01*
X51188Y-21075D01*
X51164Y-21063D01*
X51152Y-21051D01*
X51140Y-21027D01*
X45357Y-20239D02*
X45238Y-20322D01*
X45357Y-20382D02*
X45107Y-20382D01*
X45107Y-20287D01*
X45119Y-20263D01*
X45130Y-20251D01*
X45154Y-20239D01*
X45190Y-20239D01*
X45214Y-20251D01*
X45226Y-20263D01*
X45238Y-20287D01*
X45238Y-20382D01*
X45357Y-20001D02*
X45357Y-20144D01*
X45357Y-20072D02*
X45107Y-20072D01*
X45142Y-20096D01*
X45166Y-20120D01*
X45178Y-20144D01*
X45357Y-19763D02*
X45357Y-19906D01*
X45357Y-19834D02*
X45107Y-19834D01*
X45142Y-19858D01*
X45166Y-19882D01*
X45178Y-19906D01*
X52492Y-22896D02*
X52373Y-22980D01*
X52492Y-23039D02*
X52242Y-23039D01*
X52242Y-22944D01*
X52254Y-22920D01*
X52266Y-22908D01*
X52290Y-22896D01*
X52326Y-22896D01*
X52350Y-22908D01*
X52361Y-22920D01*
X52373Y-22944D01*
X52373Y-23039D01*
X52492Y-22658D02*
X52492Y-22801D01*
X52492Y-22730D02*
X52242Y-22730D01*
X52278Y-22754D01*
X52302Y-22777D01*
X52314Y-22801D01*
X52266Y-22563D02*
X52254Y-22551D01*
X52242Y-22527D01*
X52242Y-22468D01*
X52254Y-22444D01*
X52266Y-22432D01*
X52290Y-22420D01*
X52314Y-22420D01*
X52350Y-22432D01*
X52492Y-22575D01*
X52492Y-22420D01*
X47670Y-22887D02*
X47551Y-22970D01*
X47670Y-23029D02*
X47420Y-23029D01*
X47420Y-22934D01*
X47431Y-22910D01*
X47443Y-22898D01*
X47467Y-22887D01*
X47503Y-22887D01*
X47527Y-22898D01*
X47539Y-22910D01*
X47551Y-22934D01*
X47551Y-23029D01*
X47670Y-22648D02*
X47670Y-22791D01*
X47670Y-22720D02*
X47420Y-22720D01*
X47455Y-22744D01*
X47479Y-22768D01*
X47491Y-22791D01*
X47420Y-22565D02*
X47420Y-22410D01*
X47515Y-22494D01*
X47515Y-22458D01*
X47527Y-22434D01*
X47539Y-22422D01*
X47562Y-22410D01*
X47622Y-22410D01*
X47646Y-22422D01*
X47658Y-22434D01*
X47670Y-22458D01*
X47670Y-22529D01*
X47658Y-22553D01*
X47646Y-22565D01*
X42906Y-25367D02*
X42787Y-25450D01*
X42906Y-25510D02*
X42656Y-25510D01*
X42656Y-25415D01*
X42668Y-25391D01*
X42680Y-25379D01*
X42703Y-25367D01*
X42739Y-25367D01*
X42763Y-25379D01*
X42775Y-25391D01*
X42787Y-25415D01*
X42787Y-25510D01*
X42906Y-25129D02*
X42906Y-25272D01*
X42906Y-25200D02*
X42656Y-25200D01*
X42692Y-25224D01*
X42715Y-25248D01*
X42727Y-25272D01*
X42739Y-24915D02*
X42906Y-24915D01*
X42644Y-24974D02*
X42822Y-25034D01*
X42822Y-24879D01*
X46457Y-23080D02*
X46469Y-23045D01*
X46469Y-22985D01*
X46457Y-22961D01*
X46445Y-22950D01*
X46421Y-22938D01*
X46397Y-22938D01*
X46374Y-22950D01*
X46362Y-22961D01*
X46350Y-22985D01*
X46338Y-23033D01*
X46326Y-23057D01*
X46314Y-23069D01*
X46290Y-23080D01*
X46266Y-23080D01*
X46243Y-23069D01*
X46231Y-23057D01*
X46219Y-23033D01*
X46219Y-22973D01*
X46231Y-22938D01*
X46219Y-22759D02*
X46397Y-22759D01*
X46433Y-22771D01*
X46457Y-22795D01*
X46469Y-22830D01*
X46469Y-22854D01*
X46469Y-22509D02*
X46469Y-22652D01*
X46469Y-22580D02*
X46219Y-22580D01*
X46255Y-22604D01*
X46278Y-22628D01*
X46290Y-22652D01*
X51910Y-8414D02*
X51922Y-8378D01*
X51922Y-8318D01*
X51910Y-8294D01*
X51898Y-8283D01*
X51874Y-8271D01*
X51850Y-8271D01*
X51826Y-8283D01*
X51814Y-8294D01*
X51803Y-8318D01*
X51791Y-8366D01*
X51779Y-8390D01*
X51767Y-8402D01*
X51743Y-8414D01*
X51719Y-8414D01*
X51695Y-8402D01*
X51683Y-8390D01*
X51672Y-8366D01*
X51672Y-8306D01*
X51683Y-8271D01*
X51672Y-8187D02*
X51922Y-8128D01*
X51743Y-8080D01*
X51922Y-8033D01*
X51672Y-7973D01*
X51922Y-7747D02*
X51922Y-7890D01*
X51922Y-7818D02*
X51672Y-7818D01*
X51707Y-7842D01*
X51731Y-7866D01*
X51743Y-7890D01*
X51268Y-9030D02*
X51268Y-8982D01*
X51280Y-8958D01*
X51304Y-8935D01*
X51351Y-8923D01*
X51435Y-8923D01*
X51482Y-8935D01*
X51506Y-8958D01*
X51518Y-8982D01*
X51518Y-9030D01*
X51506Y-9054D01*
X51482Y-9077D01*
X51435Y-9089D01*
X51351Y-9089D01*
X51304Y-9077D01*
X51280Y-9054D01*
X51268Y-9030D01*
X51518Y-8815D02*
X51268Y-8815D01*
X51518Y-8673D01*
X51268Y-8673D01*
X51542Y-8613D02*
X51542Y-8423D01*
X51268Y-8315D02*
X51268Y-8268D01*
X51280Y-8244D01*
X51304Y-8220D01*
X51351Y-8208D01*
X51435Y-8208D01*
X51482Y-8220D01*
X51506Y-8244D01*
X51518Y-8268D01*
X51518Y-8315D01*
X51506Y-8339D01*
X51482Y-8363D01*
X51435Y-8375D01*
X51351Y-8375D01*
X51304Y-8363D01*
X51280Y-8339D01*
X51268Y-8315D01*
X51387Y-8018D02*
X51387Y-8101D01*
X51518Y-8101D02*
X51268Y-8101D01*
X51268Y-7982D01*
X51387Y-7804D02*
X51387Y-7887D01*
X51518Y-7887D02*
X51268Y-7887D01*
X51268Y-7768D01*
X41376Y-24097D02*
X41579Y-24097D01*
X41602Y-24086D01*
X41614Y-24074D01*
X41626Y-24050D01*
X41626Y-24002D01*
X41614Y-23978D01*
X41602Y-23967D01*
X41579Y-23955D01*
X41376Y-23955D01*
X41626Y-23705D02*
X41626Y-23847D01*
X41626Y-23776D02*
X41376Y-23776D01*
X41412Y-23800D01*
X41436Y-23824D01*
X41448Y-23847D01*
X46543Y-20150D02*
X46555Y-20162D01*
X46567Y-20198D01*
X46567Y-20222D01*
X46555Y-20258D01*
X46532Y-20281D01*
X46508Y-20293D01*
X46460Y-20305D01*
X46424Y-20305D01*
X46377Y-20293D01*
X46353Y-20281D01*
X46329Y-20258D01*
X46317Y-20222D01*
X46317Y-20198D01*
X46329Y-20162D01*
X46341Y-20150D01*
X46567Y-19912D02*
X46567Y-20055D01*
X46567Y-19984D02*
X46317Y-19984D01*
X46353Y-20008D01*
X46377Y-20031D01*
X46389Y-20055D01*
X46567Y-19674D02*
X46567Y-19817D01*
X46567Y-19746D02*
X46317Y-19746D01*
X46353Y-19769D01*
X46377Y-19793D01*
X46389Y-19817D01*
X50077Y-21420D02*
X50089Y-21432D01*
X50101Y-21468D01*
X50101Y-21491D01*
X50089Y-21527D01*
X50065Y-21551D01*
X50041Y-21563D01*
X49994Y-21575D01*
X49958Y-21575D01*
X49910Y-21563D01*
X49886Y-21551D01*
X49863Y-21527D01*
X49851Y-21491D01*
X49851Y-21468D01*
X49863Y-21432D01*
X49875Y-21420D01*
X50101Y-21182D02*
X50101Y-21325D01*
X50101Y-21253D02*
X49851Y-21253D01*
X49886Y-21277D01*
X49910Y-21301D01*
X49922Y-21325D01*
X49875Y-21087D02*
X49863Y-21075D01*
X49851Y-21051D01*
X49851Y-20991D01*
X49863Y-20968D01*
X49875Y-20956D01*
X49898Y-20944D01*
X49922Y-20944D01*
X49958Y-20956D01*
X50101Y-21099D01*
X50101Y-20944D01*
X45461Y-22787D02*
X45473Y-22799D01*
X45485Y-22835D01*
X45485Y-22859D01*
X45473Y-22894D01*
X45449Y-22918D01*
X45425Y-22930D01*
X45377Y-22942D01*
X45342Y-22942D01*
X45294Y-22930D01*
X45270Y-22918D01*
X45246Y-22894D01*
X45235Y-22859D01*
X45235Y-22835D01*
X45246Y-22799D01*
X45258Y-22787D01*
X45318Y-22573D02*
X45485Y-22573D01*
X45223Y-22632D02*
X45401Y-22692D01*
X45401Y-22537D01*
X48384Y-19904D02*
X48396Y-19916D01*
X48408Y-19952D01*
X48408Y-19976D01*
X48396Y-20011D01*
X48372Y-20035D01*
X48348Y-20047D01*
X48301Y-20059D01*
X48265Y-20059D01*
X48217Y-20047D01*
X48193Y-20035D01*
X48170Y-20011D01*
X48158Y-19976D01*
X48158Y-19952D01*
X48170Y-19916D01*
X48182Y-19904D01*
X48408Y-19666D02*
X48408Y-19809D01*
X48408Y-19738D02*
X48158Y-19738D01*
X48193Y-19761D01*
X48217Y-19785D01*
X48229Y-19809D01*
X48158Y-19583D02*
X48158Y-19428D01*
X48253Y-19511D01*
X48253Y-19476D01*
X48265Y-19452D01*
X48277Y-19440D01*
X48301Y-19428D01*
X48360Y-19428D01*
X48384Y-19440D01*
X48396Y-19452D01*
X48408Y-19476D01*
X48408Y-19547D01*
X48396Y-19571D01*
X48384Y-19583D01*
X43689Y-25268D02*
X43701Y-25280D01*
X43713Y-25316D01*
X43713Y-25340D01*
X43701Y-25376D01*
X43677Y-25399D01*
X43653Y-25411D01*
X43606Y-25423D01*
X43570Y-25423D01*
X43522Y-25411D01*
X43499Y-25399D01*
X43475Y-25376D01*
X43463Y-25340D01*
X43463Y-25316D01*
X43475Y-25280D01*
X43487Y-25268D01*
X43713Y-25030D02*
X43713Y-25173D01*
X43713Y-25102D02*
X43463Y-25102D01*
X43499Y-25126D01*
X43522Y-25149D01*
X43534Y-25173D01*
X43463Y-24804D02*
X43463Y-24923D01*
X43582Y-24935D01*
X43570Y-24923D01*
X43558Y-24899D01*
X43558Y-24840D01*
X43570Y-24816D01*
X43582Y-24804D01*
X43606Y-24792D01*
X43665Y-24792D01*
X43689Y-24804D01*
X43701Y-24816D01*
X43713Y-24840D01*
X43713Y-24899D01*
X43701Y-24923D01*
X43689Y-24935D01*
X40293Y-25249D02*
X40305Y-25261D01*
X40317Y-25296D01*
X40317Y-25320D01*
X40305Y-25356D01*
X40282Y-25380D01*
X40258Y-25392D01*
X40210Y-25404D01*
X40174Y-25404D01*
X40127Y-25392D01*
X40103Y-25380D01*
X40079Y-25356D01*
X40067Y-25320D01*
X40067Y-25296D01*
X40079Y-25261D01*
X40091Y-25249D01*
X40317Y-25011D02*
X40317Y-25154D01*
X40317Y-25082D02*
X40067Y-25082D01*
X40103Y-25106D01*
X40127Y-25130D01*
X40139Y-25154D01*
X40067Y-24796D02*
X40067Y-24844D01*
X40079Y-24868D01*
X40091Y-24880D01*
X40127Y-24904D01*
X40174Y-24915D01*
X40270Y-24915D01*
X40293Y-24904D01*
X40305Y-24892D01*
X40317Y-24868D01*
X40317Y-24820D01*
X40305Y-24796D01*
X40293Y-24785D01*
X40270Y-24773D01*
X40210Y-24773D01*
X40186Y-24785D01*
X40174Y-24796D01*
X40162Y-24820D01*
X40162Y-24868D01*
X40174Y-24892D01*
X40186Y-24904D01*
X40210Y-24915D01*
X51061Y-19904D02*
X51073Y-19916D01*
X51085Y-19952D01*
X51085Y-19976D01*
X51073Y-20011D01*
X51049Y-20035D01*
X51025Y-20047D01*
X50978Y-20059D01*
X50942Y-20059D01*
X50894Y-20047D01*
X50871Y-20035D01*
X50847Y-20011D01*
X50835Y-19976D01*
X50835Y-19952D01*
X50847Y-19916D01*
X50859Y-19904D01*
X51085Y-19666D02*
X51085Y-19809D01*
X51085Y-19738D02*
X50835Y-19738D01*
X50871Y-19761D01*
X50894Y-19785D01*
X50906Y-19809D01*
X50835Y-19583D02*
X50835Y-19416D01*
X51085Y-19523D01*
X41902Y-12733D02*
X41652Y-12733D01*
X41652Y-12674D01*
X41664Y-12638D01*
X41688Y-12614D01*
X41711Y-12602D01*
X41759Y-12590D01*
X41795Y-12590D01*
X41842Y-12602D01*
X41866Y-12614D01*
X41890Y-12638D01*
X41902Y-12674D01*
X41902Y-12733D01*
X41676Y-12495D02*
X41664Y-12483D01*
X41652Y-12459D01*
X41652Y-12400D01*
X41664Y-12376D01*
X41676Y-12364D01*
X41699Y-12352D01*
X41723Y-12352D01*
X41759Y-12364D01*
X41902Y-12507D01*
X41902Y-12352D01*
X42689Y-21168D02*
X42439Y-21168D01*
X42439Y-21109D01*
X42451Y-21073D01*
X42475Y-21049D01*
X42499Y-21037D01*
X42546Y-21025D01*
X42582Y-21025D01*
X42630Y-21037D01*
X42654Y-21049D01*
X42677Y-21073D01*
X42689Y-21109D01*
X42689Y-21168D01*
X42439Y-20942D02*
X42439Y-20787D01*
X42535Y-20871D01*
X42535Y-20835D01*
X42546Y-20811D01*
X42558Y-20799D01*
X42582Y-20787D01*
X42642Y-20787D01*
X42665Y-20799D01*
X42677Y-20811D01*
X42689Y-20835D01*
X42689Y-20906D01*
X42677Y-20930D01*
X42665Y-20942D01*
X41744Y-21877D02*
X41494Y-21877D01*
X41494Y-21818D01*
X41506Y-21782D01*
X41530Y-21758D01*
X41554Y-21746D01*
X41602Y-21735D01*
X41637Y-21735D01*
X41685Y-21746D01*
X41709Y-21758D01*
X41732Y-21782D01*
X41744Y-21818D01*
X41744Y-21877D01*
X41744Y-21627D02*
X41494Y-21627D01*
X41732Y-21520D02*
X41744Y-21485D01*
X41744Y-21425D01*
X41732Y-21401D01*
X41721Y-21389D01*
X41697Y-21377D01*
X41673Y-21377D01*
X41649Y-21389D01*
X41637Y-21401D01*
X41625Y-21425D01*
X41613Y-21473D01*
X41602Y-21496D01*
X41590Y-21508D01*
X41566Y-21520D01*
X41542Y-21520D01*
X41518Y-21508D01*
X41506Y-21496D01*
X41494Y-21473D01*
X41494Y-21413D01*
X41506Y-21377D01*
X43693Y-21109D02*
X43443Y-21109D01*
X43443Y-21050D01*
X43455Y-21014D01*
X43479Y-20990D01*
X43503Y-20978D01*
X43550Y-20966D01*
X43586Y-20966D01*
X43634Y-20978D01*
X43657Y-20990D01*
X43681Y-21014D01*
X43693Y-21050D01*
X43693Y-21109D01*
X43527Y-20752D02*
X43693Y-20752D01*
X43431Y-20812D02*
X43610Y-20871D01*
X43610Y-20716D01*
X43660Y-21782D02*
X43671Y-21794D01*
X43683Y-21830D01*
X43683Y-21854D01*
X43671Y-21890D01*
X43648Y-21913D01*
X43624Y-21925D01*
X43576Y-21937D01*
X43541Y-21937D01*
X43493Y-21925D01*
X43469Y-21913D01*
X43445Y-21890D01*
X43433Y-21854D01*
X43433Y-21830D01*
X43445Y-21794D01*
X43457Y-21782D01*
X43683Y-21675D02*
X43433Y-21675D01*
X43552Y-21675D02*
X43552Y-21532D01*
X43683Y-21532D02*
X43433Y-21532D01*
X43445Y-21282D02*
X43433Y-21306D01*
X43433Y-21342D01*
X43445Y-21378D01*
X43469Y-21401D01*
X43493Y-21413D01*
X43541Y-21425D01*
X43576Y-21425D01*
X43624Y-21413D01*
X43648Y-21401D01*
X43671Y-21378D01*
X43683Y-21342D01*
X43683Y-21318D01*
X43671Y-21282D01*
X43660Y-21270D01*
X43576Y-21270D01*
X43576Y-21318D01*
X45967Y-25647D02*
X45717Y-25647D01*
X45717Y-25587D01*
X45729Y-25551D01*
X45753Y-25528D01*
X45776Y-25516D01*
X45824Y-25504D01*
X45860Y-25504D01*
X45907Y-25516D01*
X45931Y-25528D01*
X45955Y-25551D01*
X45967Y-25587D01*
X45967Y-25647D01*
X45717Y-25289D02*
X45717Y-25337D01*
X45729Y-25361D01*
X45741Y-25373D01*
X45776Y-25397D01*
X45824Y-25409D01*
X45919Y-25409D01*
X45943Y-25397D01*
X45955Y-25385D01*
X45967Y-25361D01*
X45967Y-25313D01*
X45955Y-25289D01*
X45943Y-25278D01*
X45919Y-25266D01*
X45860Y-25266D01*
X45836Y-25278D01*
X45824Y-25289D01*
X45812Y-25313D01*
X45812Y-25361D01*
X45824Y-25385D01*
X45836Y-25397D01*
X45860Y-25409D01*
X46190Y-25568D02*
X46202Y-25532D01*
X46214Y-25520D01*
X46238Y-25508D01*
X46274Y-25508D01*
X46297Y-25520D01*
X46309Y-25532D01*
X46321Y-25556D01*
X46321Y-25651D01*
X46071Y-25651D01*
X46071Y-25568D01*
X46083Y-25544D01*
X46095Y-25532D01*
X46119Y-25520D01*
X46143Y-25520D01*
X46166Y-25532D01*
X46178Y-25544D01*
X46190Y-25568D01*
X46190Y-25651D01*
X46250Y-25413D02*
X46250Y-25294D01*
X46321Y-25437D02*
X46071Y-25354D01*
X46321Y-25270D01*
X46071Y-25223D02*
X46071Y-25080D01*
X46321Y-25151D02*
X46071Y-25151D01*
X44156Y-18973D02*
X43906Y-18973D01*
X43906Y-18914D01*
X43918Y-18878D01*
X43942Y-18854D01*
X43965Y-18842D01*
X44013Y-18831D01*
X44049Y-18831D01*
X44096Y-18842D01*
X44120Y-18854D01*
X44144Y-18878D01*
X44156Y-18914D01*
X44156Y-18973D01*
X43906Y-18747D02*
X43906Y-18581D01*
X44156Y-18688D01*
X44447Y-19210D02*
X44447Y-19329D01*
X44566Y-19341D01*
X44554Y-19329D01*
X44542Y-19305D01*
X44542Y-19246D01*
X44554Y-19222D01*
X44566Y-19210D01*
X44590Y-19198D01*
X44650Y-19198D01*
X44673Y-19210D01*
X44685Y-19222D01*
X44697Y-19246D01*
X44697Y-19305D01*
X44685Y-19329D01*
X44673Y-19341D01*
X44447Y-19127D02*
X44697Y-19043D01*
X44447Y-18960D01*
X44721Y-18936D02*
X44721Y-18746D01*
X44447Y-18639D02*
X44447Y-18591D01*
X44459Y-18567D01*
X44483Y-18543D01*
X44530Y-18532D01*
X44614Y-18532D01*
X44661Y-18543D01*
X44685Y-18567D01*
X44697Y-18591D01*
X44697Y-18639D01*
X44685Y-18663D01*
X44661Y-18686D01*
X44614Y-18698D01*
X44530Y-18698D01*
X44483Y-18686D01*
X44459Y-18663D01*
X44447Y-18639D01*
X44447Y-18424D02*
X44650Y-18424D01*
X44673Y-18413D01*
X44685Y-18401D01*
X44697Y-18377D01*
X44697Y-18329D01*
X44685Y-18305D01*
X44673Y-18293D01*
X44650Y-18282D01*
X44447Y-18282D01*
X44447Y-18198D02*
X44447Y-18055D01*
X44697Y-18127D02*
X44447Y-18127D01*
X54461Y-20716D02*
X54211Y-20716D01*
X54211Y-20656D01*
X54223Y-20620D01*
X54247Y-20596D01*
X54270Y-20585D01*
X54318Y-20573D01*
X54354Y-20573D01*
X54401Y-20585D01*
X54425Y-20596D01*
X54449Y-20620D01*
X54461Y-20656D01*
X54461Y-20716D01*
X54461Y-20454D02*
X54461Y-20406D01*
X54449Y-20382D01*
X54437Y-20370D01*
X54401Y-20346D01*
X54354Y-20335D01*
X54259Y-20335D01*
X54235Y-20346D01*
X54223Y-20358D01*
X54211Y-20382D01*
X54211Y-20430D01*
X54223Y-20454D01*
X54235Y-20466D01*
X54259Y-20477D01*
X54318Y-20477D01*
X54342Y-20466D01*
X54354Y-20454D01*
X54366Y-20430D01*
X54366Y-20382D01*
X54354Y-20358D01*
X54342Y-20346D01*
X54318Y-20335D01*
X38933Y-12775D02*
X38933Y-12858D01*
X39064Y-12858D02*
X38814Y-12858D01*
X38814Y-12739D01*
X39064Y-12513D02*
X39064Y-12656D01*
X39064Y-12584D02*
X38814Y-12584D01*
X38849Y-12608D01*
X38873Y-12632D01*
X38885Y-12656D01*
X37643Y-25796D02*
X37643Y-25974D01*
X37631Y-26010D01*
X37607Y-26034D01*
X37571Y-26046D01*
X37547Y-26046D01*
X37750Y-25819D02*
X37762Y-25807D01*
X37785Y-25796D01*
X37845Y-25796D01*
X37869Y-25807D01*
X37881Y-25819D01*
X37893Y-25843D01*
X37893Y-25867D01*
X37881Y-25903D01*
X37738Y-26046D01*
X37893Y-26046D01*
X38302Y-26036D02*
X38183Y-26036D01*
X38183Y-25786D01*
X38385Y-26036D02*
X38385Y-25869D01*
X38385Y-25786D02*
X38373Y-25798D01*
X38385Y-25810D01*
X38397Y-25798D01*
X38385Y-25786D01*
X38385Y-25810D01*
X38504Y-26036D02*
X38504Y-25786D01*
X38599Y-25786D01*
X38623Y-25798D01*
X38635Y-25810D01*
X38647Y-25833D01*
X38647Y-25869D01*
X38635Y-25893D01*
X38623Y-25905D01*
X38599Y-25917D01*
X38504Y-25917D01*
X38790Y-26036D02*
X38766Y-26024D01*
X38754Y-26012D01*
X38742Y-25988D01*
X38742Y-25917D01*
X38754Y-25893D01*
X38766Y-25881D01*
X38790Y-25869D01*
X38825Y-25869D01*
X38849Y-25881D01*
X38861Y-25893D01*
X38873Y-25917D01*
X38873Y-25988D01*
X38861Y-26012D01*
X38849Y-26024D01*
X38825Y-26036D01*
X38790Y-26036D01*
X38921Y-26060D02*
X39111Y-26060D01*
X39242Y-25786D02*
X39242Y-25964D01*
X39230Y-26000D01*
X39206Y-26024D01*
X39171Y-26036D01*
X39147Y-26036D01*
X39349Y-26024D02*
X39385Y-26036D01*
X39445Y-26036D01*
X39468Y-26024D01*
X39480Y-26012D01*
X39492Y-25988D01*
X39492Y-25964D01*
X39480Y-25940D01*
X39468Y-25929D01*
X39445Y-25917D01*
X39397Y-25905D01*
X39373Y-25893D01*
X39361Y-25881D01*
X39349Y-25857D01*
X39349Y-25833D01*
X39361Y-25810D01*
X39373Y-25798D01*
X39397Y-25786D01*
X39456Y-25786D01*
X39492Y-25798D01*
X39564Y-25786D02*
X39706Y-25786D01*
X39635Y-26036D02*
X39635Y-25786D01*
X39700Y-24996D02*
X39700Y-24806D01*
X39700Y-23028D02*
X39700Y-22838D01*
X39795Y-22933D02*
X39605Y-22933D01*
X47183Y-18036D02*
X47362Y-18036D01*
X47398Y-18047D01*
X47421Y-18071D01*
X47433Y-18107D01*
X47433Y-18131D01*
X47267Y-17809D02*
X47433Y-17809D01*
X47171Y-17869D02*
X47350Y-17928D01*
X47350Y-17774D01*
X50687Y-10073D02*
X50866Y-10073D01*
X50902Y-10085D01*
X50925Y-10109D01*
X50937Y-10144D01*
X50937Y-10168D01*
X50687Y-9847D02*
X50687Y-9894D01*
X50699Y-9918D01*
X50711Y-9930D01*
X50747Y-9954D01*
X50794Y-9966D01*
X50890Y-9966D01*
X50913Y-9954D01*
X50925Y-9942D01*
X50937Y-9918D01*
X50937Y-9871D01*
X50925Y-9847D01*
X50913Y-9835D01*
X50890Y-9823D01*
X50830Y-9823D01*
X50806Y-9835D01*
X50794Y-9847D01*
X50783Y-9871D01*
X50783Y-9918D01*
X50794Y-9942D01*
X50806Y-9954D01*
X50830Y-9966D01*
X48256Y-10460D02*
X48256Y-10579D01*
X48375Y-10591D01*
X48363Y-10579D01*
X48351Y-10555D01*
X48351Y-10496D01*
X48363Y-10472D01*
X48375Y-10460D01*
X48399Y-10448D01*
X48459Y-10448D01*
X48482Y-10460D01*
X48494Y-10472D01*
X48506Y-10496D01*
X48506Y-10555D01*
X48494Y-10579D01*
X48482Y-10591D01*
X48256Y-10377D02*
X48506Y-10293D01*
X48256Y-10210D01*
X48530Y-10186D02*
X48530Y-9996D01*
X48375Y-9936D02*
X48375Y-9853D01*
X48506Y-9817D02*
X48506Y-9936D01*
X48256Y-9936D01*
X48256Y-9817D01*
X48256Y-9734D02*
X48506Y-9567D01*
X48256Y-9567D02*
X48506Y-9734D01*
X48256Y-9508D02*
X48256Y-9365D01*
X48506Y-9436D02*
X48256Y-9436D01*
X48087Y-17012D02*
X48265Y-17012D01*
X48301Y-17024D01*
X48325Y-17048D01*
X48337Y-17083D01*
X48337Y-17107D01*
X48087Y-16917D02*
X48087Y-16750D01*
X48337Y-16857D01*
X47705Y-17429D02*
X47705Y-17548D01*
X47824Y-17560D01*
X47812Y-17548D01*
X47800Y-17524D01*
X47800Y-17464D01*
X47812Y-17441D01*
X47824Y-17429D01*
X47848Y-17417D01*
X47907Y-17417D01*
X47931Y-17429D01*
X47943Y-17441D01*
X47955Y-17464D01*
X47955Y-17524D01*
X47943Y-17548D01*
X47931Y-17560D01*
X47705Y-17345D02*
X47955Y-17262D01*
X47705Y-17179D01*
X47979Y-17155D02*
X47979Y-16964D01*
X47705Y-16857D02*
X47705Y-16810D01*
X47717Y-16786D01*
X47741Y-16762D01*
X47788Y-16750D01*
X47872Y-16750D01*
X47919Y-16762D01*
X47943Y-16786D01*
X47955Y-16810D01*
X47955Y-16857D01*
X47943Y-16881D01*
X47919Y-16905D01*
X47872Y-16917D01*
X47788Y-16917D01*
X47741Y-16905D01*
X47717Y-16881D01*
X47705Y-16857D01*
X47705Y-16643D02*
X47907Y-16643D01*
X47931Y-16631D01*
X47943Y-16619D01*
X47955Y-16595D01*
X47955Y-16548D01*
X47943Y-16524D01*
X47931Y-16512D01*
X47907Y-16500D01*
X47705Y-16500D01*
X47705Y-16417D02*
X47705Y-16274D01*
X47955Y-16345D02*
X47705Y-16345D01*
X52705Y-25319D02*
X52884Y-25319D01*
X52919Y-25331D01*
X52943Y-25355D01*
X52955Y-25390D01*
X52955Y-25414D01*
X52812Y-25164D02*
X52800Y-25188D01*
X52788Y-25200D01*
X52765Y-25212D01*
X52753Y-25212D01*
X52729Y-25200D01*
X52717Y-25188D01*
X52705Y-25164D01*
X52705Y-25117D01*
X52717Y-25093D01*
X52729Y-25081D01*
X52753Y-25069D01*
X52765Y-25069D01*
X52788Y-25081D01*
X52800Y-25093D01*
X52812Y-25117D01*
X52812Y-25164D01*
X52824Y-25188D01*
X52836Y-25200D01*
X52860Y-25212D01*
X52907Y-25212D01*
X52931Y-25200D01*
X52943Y-25188D01*
X52955Y-25164D01*
X52955Y-25117D01*
X52943Y-25093D01*
X52931Y-25081D01*
X52907Y-25069D01*
X52860Y-25069D01*
X52836Y-25081D01*
X52824Y-25093D01*
X52812Y-25117D01*
X52675Y-28255D02*
X52925Y-28171D01*
X52675Y-28088D01*
X52795Y-27921D02*
X52806Y-27886D01*
X52818Y-27874D01*
X52842Y-27862D01*
X52878Y-27862D01*
X52902Y-27874D01*
X52914Y-27886D01*
X52925Y-27909D01*
X52925Y-28005D01*
X52675Y-28005D01*
X52675Y-27921D01*
X52687Y-27898D01*
X52699Y-27886D01*
X52723Y-27874D01*
X52747Y-27874D01*
X52771Y-27886D01*
X52783Y-27898D01*
X52795Y-27921D01*
X52795Y-28005D01*
X52854Y-27767D02*
X52854Y-27648D01*
X52925Y-27790D02*
X52675Y-27707D01*
X52925Y-27624D01*
X52675Y-27576D02*
X52675Y-27433D01*
X52925Y-27505D02*
X52675Y-27505D01*
X44969Y-28843D02*
X45147Y-28843D01*
X45183Y-28855D01*
X45207Y-28878D01*
X45219Y-28914D01*
X45219Y-28938D01*
X45219Y-28712D02*
X45219Y-28664D01*
X45207Y-28640D01*
X45195Y-28628D01*
X45159Y-28605D01*
X45112Y-28593D01*
X45016Y-28593D01*
X44993Y-28605D01*
X44981Y-28616D01*
X44969Y-28640D01*
X44969Y-28688D01*
X44981Y-28712D01*
X44993Y-28724D01*
X45016Y-28736D01*
X45076Y-28736D01*
X45100Y-28724D01*
X45112Y-28712D01*
X45124Y-28688D01*
X45124Y-28640D01*
X45112Y-28616D01*
X45100Y-28605D01*
X45076Y-28593D01*
X44536Y-28777D02*
X44536Y-28896D01*
X44655Y-28908D01*
X44643Y-28896D01*
X44631Y-28872D01*
X44631Y-28813D01*
X44643Y-28789D01*
X44655Y-28777D01*
X44679Y-28765D01*
X44738Y-28765D01*
X44762Y-28777D01*
X44774Y-28789D01*
X44786Y-28813D01*
X44786Y-28872D01*
X44774Y-28896D01*
X44762Y-28908D01*
X44536Y-28693D02*
X44786Y-28610D01*
X44536Y-28527D01*
X44810Y-28503D02*
X44810Y-28313D01*
X44655Y-28170D02*
X44667Y-28134D01*
X44679Y-28122D01*
X44702Y-28110D01*
X44738Y-28110D01*
X44762Y-28122D01*
X44774Y-28134D01*
X44786Y-28158D01*
X44786Y-28253D01*
X44536Y-28253D01*
X44536Y-28170D01*
X44548Y-28146D01*
X44560Y-28134D01*
X44583Y-28122D01*
X44607Y-28122D01*
X44631Y-28134D01*
X44643Y-28146D01*
X44655Y-28170D01*
X44655Y-28253D01*
X44714Y-28015D02*
X44714Y-27896D01*
X44786Y-28039D02*
X44536Y-27955D01*
X44786Y-27872D01*
X44536Y-27824D02*
X44536Y-27682D01*
X44786Y-27753D02*
X44536Y-27753D01*
X50756Y-11688D02*
X50935Y-11688D01*
X50970Y-11700D01*
X50994Y-11724D01*
X51006Y-11760D01*
X51006Y-11783D01*
X51006Y-11438D02*
X51006Y-11581D01*
X51006Y-11510D02*
X50756Y-11510D01*
X50792Y-11533D01*
X50816Y-11557D01*
X50828Y-11581D01*
X50756Y-11283D02*
X50756Y-11260D01*
X50768Y-11236D01*
X50780Y-11224D01*
X50804Y-11212D01*
X50851Y-11200D01*
X50911Y-11200D01*
X50959Y-11212D01*
X50982Y-11224D01*
X50994Y-11236D01*
X51006Y-11260D01*
X51006Y-11283D01*
X50994Y-11307D01*
X50982Y-11319D01*
X50959Y-11331D01*
X50911Y-11343D01*
X50851Y-11343D01*
X50804Y-11331D01*
X50780Y-11319D01*
X50768Y-11307D01*
X50756Y-11283D01*
X48177Y-11813D02*
X48177Y-11932D01*
X48297Y-11944D01*
X48285Y-11932D01*
X48273Y-11908D01*
X48273Y-11849D01*
X48285Y-11825D01*
X48297Y-11813D01*
X48320Y-11801D01*
X48380Y-11801D01*
X48404Y-11813D01*
X48416Y-11825D01*
X48427Y-11849D01*
X48427Y-11908D01*
X48416Y-11932D01*
X48404Y-11944D01*
X48177Y-11730D02*
X48427Y-11646D01*
X48177Y-11563D01*
X48451Y-11539D02*
X48451Y-11349D01*
X48427Y-11289D02*
X48177Y-11289D01*
X48177Y-11194D01*
X48189Y-11170D01*
X48201Y-11158D01*
X48225Y-11146D01*
X48261Y-11146D01*
X48285Y-11158D01*
X48297Y-11170D01*
X48308Y-11194D01*
X48308Y-11289D01*
X48427Y-11039D02*
X48261Y-11039D01*
X48177Y-11039D02*
X48189Y-11051D01*
X48201Y-11039D01*
X48189Y-11027D01*
X48177Y-11039D01*
X48201Y-11039D01*
X42059Y-7960D02*
X41809Y-7960D01*
X41809Y-7864D01*
X41821Y-7841D01*
X41833Y-7829D01*
X41857Y-7817D01*
X41893Y-7817D01*
X41916Y-7829D01*
X41928Y-7841D01*
X41940Y-7864D01*
X41940Y-7960D01*
X41833Y-7722D02*
X41821Y-7710D01*
X41809Y-7686D01*
X41809Y-7626D01*
X41821Y-7602D01*
X41833Y-7591D01*
X41857Y-7579D01*
X41881Y-7579D01*
X41916Y-7591D01*
X42059Y-7733D01*
X42059Y-7579D01*
X42203Y-8252D02*
X42453Y-8169D01*
X42203Y-8086D01*
X42477Y-8062D02*
X42477Y-7871D01*
X42453Y-7812D02*
X42203Y-7812D01*
X42453Y-7693D02*
X42203Y-7693D01*
X42453Y-7550D01*
X42203Y-7550D01*
X48658Y-14915D02*
X48646Y-14939D01*
X48622Y-14963D01*
X48587Y-14998D01*
X48575Y-15022D01*
X48575Y-15046D01*
X48634Y-15034D02*
X48622Y-15058D01*
X48598Y-15082D01*
X48551Y-15094D01*
X48467Y-15094D01*
X48420Y-15082D01*
X48396Y-15058D01*
X48384Y-15034D01*
X48384Y-14986D01*
X48396Y-14963D01*
X48420Y-14939D01*
X48467Y-14927D01*
X48551Y-14927D01*
X48598Y-14939D01*
X48622Y-14963D01*
X48634Y-14986D01*
X48634Y-15034D01*
X48408Y-14832D02*
X48396Y-14820D01*
X48384Y-14796D01*
X48384Y-14736D01*
X48396Y-14713D01*
X48408Y-14701D01*
X48432Y-14689D01*
X48456Y-14689D01*
X48491Y-14701D01*
X48634Y-14844D01*
X48634Y-14689D01*
X41843Y-25367D02*
X41724Y-25450D01*
X41843Y-25510D02*
X41593Y-25510D01*
X41593Y-25415D01*
X41605Y-25391D01*
X41617Y-25379D01*
X41640Y-25367D01*
X41676Y-25367D01*
X41700Y-25379D01*
X41712Y-25391D01*
X41724Y-25415D01*
X41724Y-25510D01*
X41843Y-25129D02*
X41843Y-25272D01*
X41843Y-25200D02*
X41593Y-25200D01*
X41629Y-25224D01*
X41652Y-25248D01*
X41664Y-25272D01*
X41593Y-24903D02*
X41593Y-25022D01*
X41712Y-25034D01*
X41700Y-25022D01*
X41688Y-24998D01*
X41688Y-24938D01*
X41700Y-24915D01*
X41712Y-24903D01*
X41736Y-24891D01*
X41795Y-24891D01*
X41819Y-24903D01*
X41831Y-24915D01*
X41843Y-24938D01*
X41843Y-24998D01*
X41831Y-25022D01*
X41819Y-25034D01*
X43914Y-27591D02*
X43830Y-27472D01*
X43771Y-27591D02*
X43771Y-27341D01*
X43866Y-27341D01*
X43890Y-27353D01*
X43902Y-27365D01*
X43914Y-27388D01*
X43914Y-27424D01*
X43902Y-27448D01*
X43890Y-27460D01*
X43866Y-27472D01*
X43771Y-27472D01*
X44152Y-27591D02*
X44009Y-27591D01*
X44080Y-27591D02*
X44080Y-27341D01*
X44056Y-27377D01*
X44033Y-27400D01*
X44009Y-27412D01*
X44366Y-27341D02*
X44318Y-27341D01*
X44295Y-27353D01*
X44283Y-27365D01*
X44259Y-27400D01*
X44247Y-27448D01*
X44247Y-27543D01*
X44259Y-27567D01*
X44271Y-27579D01*
X44295Y-27591D01*
X44342Y-27591D01*
X44366Y-27579D01*
X44378Y-27567D01*
X44390Y-27543D01*
X44390Y-27484D01*
X44378Y-27460D01*
X44366Y-27448D01*
X44342Y-27436D01*
X44295Y-27436D01*
X44271Y-27448D01*
X44259Y-27460D01*
X44247Y-27484D01*
X42319Y-27611D02*
X42236Y-27491D01*
X42176Y-27611D02*
X42176Y-27361D01*
X42271Y-27361D01*
X42295Y-27372D01*
X42307Y-27384D01*
X42319Y-27408D01*
X42319Y-27444D01*
X42307Y-27468D01*
X42295Y-27480D01*
X42271Y-27491D01*
X42176Y-27491D01*
X42557Y-27611D02*
X42414Y-27611D01*
X42486Y-27611D02*
X42486Y-27361D01*
X42462Y-27396D01*
X42438Y-27420D01*
X42414Y-27432D01*
X42641Y-27361D02*
X42807Y-27361D01*
X42700Y-27611D01*
X51154Y-18172D02*
X51035Y-18255D01*
X51154Y-18315D02*
X50904Y-18315D01*
X50904Y-18220D01*
X50916Y-18196D01*
X50928Y-18184D01*
X50951Y-18172D01*
X50987Y-18172D01*
X51011Y-18184D01*
X51023Y-18196D01*
X51035Y-18220D01*
X51035Y-18315D01*
X51154Y-17934D02*
X51154Y-18077D01*
X51154Y-18005D02*
X50904Y-18005D01*
X50940Y-18029D01*
X50963Y-18053D01*
X50975Y-18077D01*
X51011Y-17791D02*
X50999Y-17815D01*
X50987Y-17827D01*
X50963Y-17839D01*
X50951Y-17839D01*
X50928Y-17827D01*
X50916Y-17815D01*
X50904Y-17791D01*
X50904Y-17743D01*
X50916Y-17720D01*
X50928Y-17708D01*
X50951Y-17696D01*
X50963Y-17696D01*
X50987Y-17708D01*
X50999Y-17720D01*
X51011Y-17743D01*
X51011Y-17791D01*
X51023Y-17815D01*
X51035Y-17827D01*
X51059Y-17839D01*
X51106Y-17839D01*
X51130Y-17827D01*
X51142Y-17815D01*
X51154Y-17791D01*
X51154Y-17743D01*
X51142Y-17720D01*
X51130Y-17708D01*
X51106Y-17696D01*
X51059Y-17696D01*
X51035Y-17708D01*
X51023Y-17720D01*
X51011Y-17743D01*
X51144Y-17089D02*
X51025Y-17173D01*
X51144Y-17232D02*
X50894Y-17232D01*
X50894Y-17137D01*
X50906Y-17113D01*
X50918Y-17101D01*
X50942Y-17089D01*
X50977Y-17089D01*
X51001Y-17101D01*
X51013Y-17113D01*
X51025Y-17137D01*
X51025Y-17232D01*
X51144Y-16851D02*
X51144Y-16994D01*
X51144Y-16923D02*
X50894Y-16923D01*
X50930Y-16946D01*
X50954Y-16970D01*
X50965Y-16994D01*
X51144Y-16732D02*
X51144Y-16685D01*
X51132Y-16661D01*
X51120Y-16649D01*
X51084Y-16625D01*
X51037Y-16613D01*
X50942Y-16613D01*
X50918Y-16625D01*
X50906Y-16637D01*
X50894Y-16661D01*
X50894Y-16708D01*
X50906Y-16732D01*
X50918Y-16744D01*
X50942Y-16756D01*
X51001Y-16756D01*
X51025Y-16744D01*
X51037Y-16732D01*
X51049Y-16708D01*
X51049Y-16661D01*
X51037Y-16637D01*
X51025Y-16625D01*
X51001Y-16613D01*
X55051Y-16007D02*
X54932Y-16090D01*
X55051Y-16150D02*
X54801Y-16150D01*
X54801Y-16054D01*
X54813Y-16030D01*
X54825Y-16019D01*
X54849Y-16007D01*
X54885Y-16007D01*
X54909Y-16019D01*
X54921Y-16030D01*
X54932Y-16054D01*
X54932Y-16150D01*
X54825Y-15911D02*
X54813Y-15900D01*
X54801Y-15876D01*
X54801Y-15816D01*
X54813Y-15792D01*
X54825Y-15780D01*
X54849Y-15769D01*
X54873Y-15769D01*
X54909Y-15780D01*
X55051Y-15923D01*
X55051Y-15769D01*
X54801Y-15614D02*
X54801Y-15590D01*
X54813Y-15566D01*
X54825Y-15554D01*
X54849Y-15542D01*
X54897Y-15530D01*
X54956Y-15530D01*
X55004Y-15542D01*
X55028Y-15554D01*
X55040Y-15566D01*
X55051Y-15590D01*
X55051Y-15614D01*
X55040Y-15638D01*
X55028Y-15650D01*
X55004Y-15661D01*
X54956Y-15673D01*
X54897Y-15673D01*
X54849Y-15661D01*
X54825Y-15650D01*
X54813Y-15638D01*
X54801Y-15614D01*
X55071Y-17089D02*
X54952Y-17173D01*
X55071Y-17232D02*
X54821Y-17232D01*
X54821Y-17137D01*
X54833Y-17113D01*
X54845Y-17101D01*
X54869Y-17089D01*
X54904Y-17089D01*
X54928Y-17101D01*
X54940Y-17113D01*
X54952Y-17137D01*
X54952Y-17232D01*
X54845Y-16994D02*
X54833Y-16982D01*
X54821Y-16958D01*
X54821Y-16899D01*
X54833Y-16875D01*
X54845Y-16863D01*
X54869Y-16851D01*
X54893Y-16851D01*
X54928Y-16863D01*
X55071Y-17006D01*
X55071Y-16851D01*
X55071Y-16613D02*
X55071Y-16756D01*
X55071Y-16685D02*
X54821Y-16685D01*
X54857Y-16708D01*
X54881Y-16732D01*
X54893Y-16756D01*
X51144Y-16007D02*
X51025Y-16090D01*
X51144Y-16150D02*
X50894Y-16150D01*
X50894Y-16054D01*
X50906Y-16030D01*
X50918Y-16019D01*
X50942Y-16007D01*
X50977Y-16007D01*
X51001Y-16019D01*
X51013Y-16030D01*
X51025Y-16054D01*
X51025Y-16150D01*
X50918Y-15911D02*
X50906Y-15900D01*
X50894Y-15876D01*
X50894Y-15816D01*
X50906Y-15792D01*
X50918Y-15780D01*
X50942Y-15769D01*
X50965Y-15769D01*
X51001Y-15780D01*
X51144Y-15923D01*
X51144Y-15769D01*
X50918Y-15673D02*
X50906Y-15661D01*
X50894Y-15638D01*
X50894Y-15578D01*
X50906Y-15554D01*
X50918Y-15542D01*
X50942Y-15530D01*
X50965Y-15530D01*
X51001Y-15542D01*
X51144Y-15685D01*
X51144Y-15530D01*
X48368Y-23019D02*
X48118Y-23019D01*
X48118Y-22959D01*
X48130Y-22923D01*
X48154Y-22900D01*
X48178Y-22888D01*
X48226Y-22876D01*
X48261Y-22876D01*
X48309Y-22888D01*
X48333Y-22900D01*
X48357Y-22923D01*
X48368Y-22959D01*
X48368Y-23019D01*
X48118Y-22721D02*
X48118Y-22697D01*
X48130Y-22673D01*
X48142Y-22662D01*
X48166Y-22650D01*
X48214Y-22638D01*
X48273Y-22638D01*
X48321Y-22650D01*
X48345Y-22662D01*
X48357Y-22673D01*
X48368Y-22697D01*
X48368Y-22721D01*
X48357Y-22745D01*
X48345Y-22757D01*
X48321Y-22769D01*
X48273Y-22781D01*
X48214Y-22781D01*
X48166Y-22769D01*
X48142Y-22757D01*
X48130Y-22745D01*
X48118Y-22721D01*
X49185Y-22999D02*
X48935Y-22999D01*
X48935Y-22939D01*
X48947Y-22904D01*
X48971Y-22880D01*
X48995Y-22868D01*
X49042Y-22856D01*
X49078Y-22856D01*
X49126Y-22868D01*
X49150Y-22880D01*
X49173Y-22904D01*
X49185Y-22939D01*
X49185Y-22999D01*
X49185Y-22618D02*
X49185Y-22761D01*
X49185Y-22689D02*
X48935Y-22689D01*
X48971Y-22713D01*
X48995Y-22737D01*
X49007Y-22761D01*
X48620Y-25236D02*
X48620Y-25093D01*
X48870Y-25165D02*
X48620Y-25165D01*
X48870Y-25010D02*
X48620Y-25010D01*
X48620Y-24915D01*
X48632Y-24891D01*
X48644Y-24879D01*
X48668Y-24867D01*
X48704Y-24867D01*
X48728Y-24879D01*
X48739Y-24891D01*
X48751Y-24915D01*
X48751Y-25010D01*
X48870Y-24629D02*
X48870Y-24772D01*
X48870Y-24701D02*
X48620Y-24701D01*
X48656Y-24724D01*
X48680Y-24748D01*
X48692Y-24772D01*
X38374Y-12534D02*
X38553Y-12534D01*
X38589Y-12546D01*
X38612Y-12569D01*
X38624Y-12605D01*
X38624Y-12629D01*
X38624Y-12284D02*
X38624Y-12426D01*
X38624Y-12355D02*
X38374Y-12355D01*
X38410Y-12379D01*
X38434Y-12403D01*
X38446Y-12426D01*
X36269Y-11941D02*
X36269Y-11691D01*
X36352Y-11870D01*
X36435Y-11691D01*
X36435Y-11941D01*
X36554Y-11941D02*
X36554Y-11775D01*
X36554Y-11691D02*
X36542Y-11703D01*
X36554Y-11715D01*
X36566Y-11703D01*
X36554Y-11691D01*
X36554Y-11715D01*
X36780Y-11929D02*
X36757Y-11941D01*
X36709Y-11941D01*
X36685Y-11929D01*
X36673Y-11917D01*
X36661Y-11894D01*
X36661Y-11822D01*
X36673Y-11798D01*
X36685Y-11786D01*
X36709Y-11775D01*
X36757Y-11775D01*
X36780Y-11786D01*
X36888Y-11941D02*
X36888Y-11775D01*
X36888Y-11822D02*
X36899Y-11798D01*
X36911Y-11786D01*
X36935Y-11775D01*
X36959Y-11775D01*
X37078Y-11941D02*
X37054Y-11929D01*
X37042Y-11917D01*
X37030Y-11894D01*
X37030Y-11822D01*
X37042Y-11798D01*
X37054Y-11786D01*
X37078Y-11775D01*
X37114Y-11775D01*
X37138Y-11786D01*
X37149Y-11798D01*
X37161Y-11822D01*
X37161Y-11894D01*
X37149Y-11917D01*
X37138Y-11929D01*
X37114Y-11941D01*
X37078Y-11941D01*
X37269Y-11691D02*
X37269Y-11894D01*
X37280Y-11917D01*
X37292Y-11929D01*
X37316Y-11941D01*
X37364Y-11941D01*
X37388Y-11929D01*
X37399Y-11917D01*
X37411Y-11894D01*
X37411Y-11691D01*
X37519Y-11929D02*
X37554Y-11941D01*
X37614Y-11941D01*
X37638Y-11929D01*
X37649Y-11917D01*
X37661Y-11894D01*
X37661Y-11870D01*
X37649Y-11846D01*
X37638Y-11834D01*
X37614Y-11822D01*
X37566Y-11810D01*
X37542Y-11798D01*
X37530Y-11786D01*
X37519Y-11763D01*
X37519Y-11739D01*
X37530Y-11715D01*
X37542Y-11703D01*
X37566Y-11691D01*
X37626Y-11691D01*
X37661Y-11703D01*
X37852Y-11810D02*
X37888Y-11822D01*
X37899Y-11834D01*
X37911Y-11858D01*
X37911Y-11894D01*
X37899Y-11917D01*
X37888Y-11929D01*
X37864Y-11941D01*
X37769Y-11941D01*
X37769Y-11691D01*
X37852Y-11691D01*
X37876Y-11703D01*
X37888Y-11715D01*
X37899Y-11739D01*
X37899Y-11763D01*
X37888Y-11786D01*
X37876Y-11798D01*
X37852Y-11810D01*
X37769Y-11810D01*
X37959Y-11965D02*
X38149Y-11965D01*
X38209Y-11941D02*
X38209Y-11775D01*
X38209Y-11691D02*
X38197Y-11703D01*
X38209Y-11715D01*
X38221Y-11703D01*
X38209Y-11691D01*
X38209Y-11715D01*
X38328Y-11775D02*
X38328Y-11941D01*
X38328Y-11798D02*
X38340Y-11786D01*
X38364Y-11775D01*
X38399Y-11775D01*
X38423Y-11786D01*
X38435Y-11810D01*
X38435Y-11941D01*
X48817Y-27513D02*
X49020Y-27513D01*
X49043Y-27501D01*
X49055Y-27489D01*
X49067Y-27465D01*
X49067Y-27418D01*
X49055Y-27394D01*
X49043Y-27382D01*
X49020Y-27370D01*
X48817Y-27370D01*
X48901Y-27144D02*
X49067Y-27144D01*
X48805Y-27203D02*
X48984Y-27263D01*
X48984Y-27108D01*
X41179Y-15713D02*
X41358Y-15713D01*
X41394Y-15725D01*
X41418Y-15748D01*
X41429Y-15784D01*
X41429Y-15808D01*
X41179Y-15618D02*
X41179Y-15463D01*
X41275Y-15546D01*
X41275Y-15510D01*
X41287Y-15487D01*
X41298Y-15475D01*
X41322Y-15463D01*
X41382Y-15463D01*
X41406Y-15475D01*
X41418Y-15487D01*
X41429Y-15510D01*
X41429Y-15582D01*
X41418Y-15606D01*
X41406Y-15618D01*
X36254Y-15589D02*
X36254Y-15791D01*
X36266Y-15815D01*
X36278Y-15827D01*
X36302Y-15839D01*
X36349Y-15839D01*
X36373Y-15827D01*
X36385Y-15815D01*
X36397Y-15791D01*
X36397Y-15589D01*
X36504Y-15827D02*
X36540Y-15839D01*
X36599Y-15839D01*
X36623Y-15827D01*
X36635Y-15815D01*
X36647Y-15791D01*
X36647Y-15767D01*
X36635Y-15744D01*
X36623Y-15732D01*
X36599Y-15720D01*
X36552Y-15708D01*
X36528Y-15696D01*
X36516Y-15684D01*
X36504Y-15660D01*
X36504Y-15636D01*
X36516Y-15613D01*
X36528Y-15601D01*
X36552Y-15589D01*
X36611Y-15589D01*
X36647Y-15601D01*
X36837Y-15708D02*
X36873Y-15720D01*
X36885Y-15732D01*
X36897Y-15756D01*
X36897Y-15791D01*
X36885Y-15815D01*
X36873Y-15827D01*
X36849Y-15839D01*
X36754Y-15839D01*
X36754Y-15589D01*
X36837Y-15589D01*
X36861Y-15601D01*
X36873Y-15613D01*
X36885Y-15636D01*
X36885Y-15660D01*
X36873Y-15684D01*
X36861Y-15696D01*
X36837Y-15708D01*
X36754Y-15708D01*
X36945Y-15863D02*
X37135Y-15863D01*
X37183Y-15767D02*
X37302Y-15767D01*
X37159Y-15839D02*
X37242Y-15589D01*
X37326Y-15839D01*
X37349Y-15863D02*
X37540Y-15863D01*
X37635Y-15839D02*
X37611Y-15827D01*
X37599Y-15815D01*
X37587Y-15791D01*
X37587Y-15720D01*
X37599Y-15696D01*
X37611Y-15684D01*
X37635Y-15672D01*
X37671Y-15672D01*
X37695Y-15684D01*
X37707Y-15696D01*
X37718Y-15720D01*
X37718Y-15791D01*
X37707Y-15815D01*
X37695Y-15827D01*
X37671Y-15839D01*
X37635Y-15839D01*
X37933Y-15672D02*
X37933Y-15839D01*
X37826Y-15672D02*
X37826Y-15803D01*
X37837Y-15827D01*
X37861Y-15839D01*
X37897Y-15839D01*
X37921Y-15827D01*
X37933Y-15815D01*
X38016Y-15672D02*
X38111Y-15672D01*
X38052Y-15589D02*
X38052Y-15803D01*
X38064Y-15827D01*
X38087Y-15839D01*
X38111Y-15839D01*
X47046Y-22306D02*
X47248Y-22306D01*
X47272Y-22294D01*
X47284Y-22282D01*
X47296Y-22258D01*
X47296Y-22211D01*
X47284Y-22187D01*
X47272Y-22175D01*
X47248Y-22163D01*
X47046Y-22163D01*
X47046Y-22068D02*
X47046Y-21913D01*
X47141Y-21997D01*
X47141Y-21961D01*
X47153Y-21937D01*
X47165Y-21925D01*
X47188Y-21913D01*
X47248Y-21913D01*
X47272Y-21925D01*
X47284Y-21937D01*
X47296Y-21961D01*
X47296Y-22032D01*
X47284Y-22056D01*
X47272Y-22068D01*
X41611Y-28091D02*
X41814Y-28091D01*
X41838Y-28079D01*
X41849Y-28067D01*
X41861Y-28044D01*
X41861Y-27996D01*
X41849Y-27972D01*
X41838Y-27960D01*
X41814Y-27948D01*
X41611Y-27948D01*
X41611Y-27710D02*
X41611Y-27829D01*
X41730Y-27841D01*
X41718Y-27829D01*
X41707Y-27805D01*
X41707Y-27746D01*
X41718Y-27722D01*
X41730Y-27710D01*
X41754Y-27698D01*
X41814Y-27698D01*
X41838Y-27710D01*
X41849Y-27722D01*
X41861Y-27746D01*
X41861Y-27805D01*
X41849Y-27829D01*
X41838Y-27841D01*
X40077Y-15171D02*
X40256Y-15171D01*
X40291Y-15183D01*
X40315Y-15207D01*
X40327Y-15243D01*
X40327Y-15267D01*
X40077Y-14933D02*
X40077Y-15052D01*
X40196Y-15064D01*
X40184Y-15052D01*
X40172Y-15029D01*
X40172Y-14969D01*
X40184Y-14945D01*
X40196Y-14933D01*
X40220Y-14921D01*
X40279Y-14921D01*
X40303Y-14933D01*
X40315Y-14945D01*
X40327Y-14969D01*
X40327Y-15029D01*
X40315Y-15052D01*
X40303Y-15064D01*
X39388Y-14267D02*
X39388Y-14386D01*
X39507Y-14398D01*
X39495Y-14386D01*
X39483Y-14363D01*
X39483Y-14303D01*
X39495Y-14279D01*
X39507Y-14267D01*
X39531Y-14255D01*
X39590Y-14255D01*
X39614Y-14267D01*
X39626Y-14279D01*
X39638Y-14303D01*
X39638Y-14363D01*
X39626Y-14386D01*
X39614Y-14398D01*
X39388Y-14184D02*
X39638Y-14101D01*
X39388Y-14017D01*
X39662Y-13994D02*
X39662Y-13803D01*
X39388Y-13744D02*
X39590Y-13744D01*
X39614Y-13732D01*
X39626Y-13720D01*
X39638Y-13696D01*
X39638Y-13648D01*
X39626Y-13625D01*
X39614Y-13613D01*
X39590Y-13601D01*
X39388Y-13601D01*
X39626Y-13494D02*
X39638Y-13458D01*
X39638Y-13398D01*
X39626Y-13375D01*
X39614Y-13363D01*
X39590Y-13351D01*
X39567Y-13351D01*
X39543Y-13363D01*
X39531Y-13375D01*
X39519Y-13398D01*
X39507Y-13446D01*
X39495Y-13470D01*
X39483Y-13482D01*
X39460Y-13494D01*
X39436Y-13494D01*
X39412Y-13482D01*
X39400Y-13470D01*
X39388Y-13446D01*
X39388Y-13386D01*
X39400Y-13351D01*
X39507Y-13160D02*
X39519Y-13125D01*
X39531Y-13113D01*
X39555Y-13101D01*
X39590Y-13101D01*
X39614Y-13113D01*
X39626Y-13125D01*
X39638Y-13148D01*
X39638Y-13244D01*
X39388Y-13244D01*
X39388Y-13160D01*
X39400Y-13136D01*
X39412Y-13125D01*
X39436Y-13113D01*
X39460Y-13113D01*
X39483Y-13125D01*
X39495Y-13136D01*
X39507Y-13160D01*
X39507Y-13244D01*
X58004Y-20696D02*
X57754Y-20696D01*
X57754Y-20601D01*
X57766Y-20577D01*
X57778Y-20565D01*
X57802Y-20553D01*
X57838Y-20553D01*
X57861Y-20565D01*
X57873Y-20577D01*
X57885Y-20601D01*
X57885Y-20696D01*
X58004Y-20315D02*
X58004Y-20458D01*
X58004Y-20386D02*
X57754Y-20386D01*
X57790Y-20410D01*
X57814Y-20434D01*
X57826Y-20458D01*
X58014Y-19195D02*
X57895Y-19279D01*
X58014Y-19338D02*
X57764Y-19338D01*
X57764Y-19243D01*
X57776Y-19219D01*
X57788Y-19207D01*
X57812Y-19195D01*
X57847Y-19195D01*
X57871Y-19207D01*
X57883Y-19219D01*
X57895Y-19243D01*
X57895Y-19338D01*
X57943Y-19100D02*
X57943Y-18981D01*
X58014Y-19124D02*
X57764Y-19041D01*
X58014Y-18957D01*
X58002Y-18886D02*
X58014Y-18850D01*
X58014Y-18791D01*
X58002Y-18767D01*
X57990Y-18755D01*
X57966Y-18743D01*
X57943Y-18743D01*
X57919Y-18755D01*
X57907Y-18767D01*
X57895Y-18791D01*
X57883Y-18838D01*
X57871Y-18862D01*
X57859Y-18874D01*
X57836Y-18886D01*
X57812Y-18886D01*
X57788Y-18874D01*
X57776Y-18862D01*
X57764Y-18838D01*
X57764Y-18779D01*
X57776Y-18743D01*
X58014Y-18636D02*
X57764Y-18636D01*
X57764Y-18541D01*
X57776Y-18517D01*
X57788Y-18505D01*
X57812Y-18493D01*
X57847Y-18493D01*
X57871Y-18505D01*
X57883Y-18517D01*
X57895Y-18541D01*
X57895Y-18636D01*
X58014Y-18386D02*
X57764Y-18386D01*
X58038Y-18326D02*
X58038Y-18136D01*
X57776Y-17945D02*
X57764Y-17969D01*
X57764Y-18005D01*
X57776Y-18041D01*
X57800Y-18064D01*
X57824Y-18076D01*
X57871Y-18088D01*
X57907Y-18088D01*
X57955Y-18076D01*
X57978Y-18064D01*
X58002Y-18041D01*
X58014Y-18005D01*
X58014Y-17981D01*
X58002Y-17945D01*
X57990Y-17933D01*
X57907Y-17933D01*
X57907Y-17981D01*
X58014Y-17826D02*
X57764Y-17826D01*
X57764Y-17731D01*
X57776Y-17707D01*
X57788Y-17695D01*
X57812Y-17683D01*
X57847Y-17683D01*
X57871Y-17695D01*
X57883Y-17707D01*
X57895Y-17731D01*
X57895Y-17826D01*
X58014Y-17576D02*
X57764Y-17576D01*
X57764Y-17410D02*
X57764Y-17362D01*
X57776Y-17338D01*
X57800Y-17314D01*
X57847Y-17302D01*
X57931Y-17302D01*
X57978Y-17314D01*
X58002Y-17338D01*
X58014Y-17362D01*
X58014Y-17410D01*
X58002Y-17433D01*
X57978Y-17457D01*
X57931Y-17469D01*
X57847Y-17469D01*
X57800Y-17457D01*
X57776Y-17433D01*
X57764Y-17410D01*
X45126Y-7994D02*
X45138Y-8006D01*
X45150Y-8042D01*
X45150Y-8065D01*
X45138Y-8101D01*
X45114Y-8125D01*
X45090Y-8137D01*
X45043Y-8149D01*
X45007Y-8149D01*
X44959Y-8137D01*
X44936Y-8125D01*
X44912Y-8101D01*
X44900Y-8065D01*
X44900Y-8042D01*
X44912Y-8006D01*
X44924Y-7994D01*
X44924Y-7899D02*
X44912Y-7887D01*
X44900Y-7863D01*
X44900Y-7803D01*
X44912Y-7780D01*
X44924Y-7768D01*
X44948Y-7756D01*
X44971Y-7756D01*
X45007Y-7768D01*
X45150Y-7911D01*
X45150Y-7756D01*
X46455Y-8329D02*
X46467Y-8340D01*
X46479Y-8376D01*
X46479Y-8400D01*
X46467Y-8436D01*
X46443Y-8460D01*
X46419Y-8471D01*
X46372Y-8483D01*
X46336Y-8483D01*
X46288Y-8471D01*
X46264Y-8460D01*
X46241Y-8436D01*
X46229Y-8400D01*
X46229Y-8376D01*
X46241Y-8340D01*
X46252Y-8329D01*
X46229Y-8245D02*
X46229Y-8090D01*
X46324Y-8174D01*
X46324Y-8138D01*
X46336Y-8114D01*
X46348Y-8102D01*
X46372Y-8090D01*
X46431Y-8090D01*
X46455Y-8102D01*
X46467Y-8114D01*
X46479Y-8138D01*
X46479Y-8210D01*
X46467Y-8233D01*
X46455Y-8245D01*
X44299Y-22738D02*
X44311Y-22750D01*
X44323Y-22786D01*
X44323Y-22809D01*
X44311Y-22845D01*
X44287Y-22869D01*
X44264Y-22881D01*
X44216Y-22893D01*
X44180Y-22893D01*
X44133Y-22881D01*
X44109Y-22869D01*
X44085Y-22845D01*
X44073Y-22809D01*
X44073Y-22786D01*
X44085Y-22750D01*
X44097Y-22738D01*
X44073Y-22512D02*
X44073Y-22631D01*
X44192Y-22643D01*
X44180Y-22631D01*
X44168Y-22607D01*
X44168Y-22548D01*
X44180Y-22524D01*
X44192Y-22512D01*
X44216Y-22500D01*
X44276Y-22500D01*
X44299Y-22512D01*
X44311Y-22524D01*
X44323Y-22548D01*
X44323Y-22607D01*
X44311Y-22631D01*
X44299Y-22643D01*
X40333Y-23949D02*
X40345Y-23961D01*
X40357Y-23996D01*
X40357Y-24020D01*
X40345Y-24056D01*
X40321Y-24080D01*
X40297Y-24092D01*
X40249Y-24103D01*
X40214Y-24103D01*
X40166Y-24092D01*
X40142Y-24080D01*
X40119Y-24056D01*
X40107Y-24020D01*
X40107Y-23996D01*
X40119Y-23961D01*
X40130Y-23949D01*
X40107Y-23734D02*
X40107Y-23782D01*
X40119Y-23806D01*
X40130Y-23818D01*
X40166Y-23842D01*
X40214Y-23853D01*
X40309Y-23853D01*
X40333Y-23842D01*
X40345Y-23830D01*
X40357Y-23806D01*
X40357Y-23758D01*
X40345Y-23734D01*
X40333Y-23722D01*
X40309Y-23711D01*
X40249Y-23711D01*
X40226Y-23722D01*
X40214Y-23734D01*
X40202Y-23758D01*
X40202Y-23806D01*
X40214Y-23830D01*
X40226Y-23842D01*
X40249Y-23853D01*
X51445Y-25208D02*
X51457Y-25220D01*
X51469Y-25256D01*
X51469Y-25280D01*
X51457Y-25316D01*
X51433Y-25339D01*
X51409Y-25351D01*
X51362Y-25363D01*
X51326Y-25363D01*
X51278Y-25351D01*
X51255Y-25339D01*
X51231Y-25316D01*
X51219Y-25280D01*
X51219Y-25256D01*
X51231Y-25220D01*
X51243Y-25208D01*
X51469Y-25089D02*
X51469Y-25042D01*
X51457Y-25018D01*
X51445Y-25006D01*
X51409Y-24982D01*
X51362Y-24970D01*
X51266Y-24970D01*
X51243Y-24982D01*
X51231Y-24994D01*
X51219Y-25018D01*
X51219Y-25066D01*
X51231Y-25089D01*
X51243Y-25101D01*
X51266Y-25113D01*
X51326Y-25113D01*
X51350Y-25101D01*
X51362Y-25089D01*
X51374Y-25066D01*
X51374Y-25018D01*
X51362Y-24994D01*
X51350Y-24982D01*
X51326Y-24970D01*
X46573Y-28467D02*
X46585Y-28479D01*
X46597Y-28515D01*
X46597Y-28539D01*
X46585Y-28574D01*
X46561Y-28598D01*
X46537Y-28610D01*
X46490Y-28622D01*
X46454Y-28622D01*
X46406Y-28610D01*
X46382Y-28598D01*
X46359Y-28574D01*
X46347Y-28539D01*
X46347Y-28515D01*
X46359Y-28479D01*
X46371Y-28467D01*
X46597Y-28229D02*
X46597Y-28372D01*
X46597Y-28301D02*
X46347Y-28301D01*
X46382Y-28324D01*
X46406Y-28348D01*
X46418Y-28372D01*
X46347Y-28074D02*
X46347Y-28051D01*
X46359Y-28027D01*
X46371Y-28015D01*
X46394Y-28003D01*
X46442Y-27991D01*
X46502Y-27991D01*
X46549Y-28003D01*
X46573Y-28015D01*
X46585Y-28027D01*
X46597Y-28051D01*
X46597Y-28074D01*
X46585Y-28098D01*
X46573Y-28110D01*
X46549Y-28122D01*
X46502Y-28134D01*
X46442Y-28134D01*
X46394Y-28122D01*
X46371Y-28110D01*
X46359Y-28098D01*
X46347Y-28074D01*
X51150Y-14137D02*
X51162Y-14148D01*
X51174Y-14184D01*
X51174Y-14208D01*
X51162Y-14244D01*
X51138Y-14268D01*
X51114Y-14279D01*
X51066Y-14291D01*
X51031Y-14291D01*
X50983Y-14279D01*
X50959Y-14268D01*
X50935Y-14244D01*
X50924Y-14208D01*
X50924Y-14184D01*
X50935Y-14148D01*
X50947Y-14137D01*
X51174Y-13898D02*
X51174Y-14041D01*
X51174Y-13970D02*
X50924Y-13970D01*
X50959Y-13994D01*
X50983Y-14018D01*
X50995Y-14041D01*
X51007Y-13684D02*
X51174Y-13684D01*
X50912Y-13744D02*
X51090Y-13803D01*
X51090Y-13648D01*
X48886Y-28467D02*
X48898Y-28479D01*
X48910Y-28515D01*
X48910Y-28539D01*
X48898Y-28574D01*
X48874Y-28598D01*
X48850Y-28610D01*
X48803Y-28622D01*
X48767Y-28622D01*
X48719Y-28610D01*
X48695Y-28598D01*
X48672Y-28574D01*
X48660Y-28539D01*
X48660Y-28515D01*
X48672Y-28479D01*
X48684Y-28467D01*
X48910Y-28229D02*
X48910Y-28372D01*
X48910Y-28301D02*
X48660Y-28301D01*
X48695Y-28324D01*
X48719Y-28348D01*
X48731Y-28372D01*
X48767Y-28086D02*
X48755Y-28110D01*
X48743Y-28122D01*
X48719Y-28134D01*
X48707Y-28134D01*
X48684Y-28122D01*
X48672Y-28110D01*
X48660Y-28086D01*
X48660Y-28039D01*
X48672Y-28015D01*
X48684Y-28003D01*
X48707Y-27991D01*
X48719Y-27991D01*
X48743Y-28003D01*
X48755Y-28015D01*
X48767Y-28039D01*
X48767Y-28086D01*
X48779Y-28110D01*
X48791Y-28122D01*
X48815Y-28134D01*
X48862Y-28134D01*
X48886Y-28122D01*
X48898Y-28110D01*
X48910Y-28086D01*
X48910Y-28039D01*
X48898Y-28015D01*
X48886Y-28003D01*
X48862Y-27991D01*
X48815Y-27991D01*
X48791Y-28003D01*
X48779Y-28015D01*
X48767Y-28039D01*
X55022Y-13865D02*
X54772Y-13865D01*
X54772Y-13806D01*
X54784Y-13770D01*
X54808Y-13746D01*
X54831Y-13734D01*
X54879Y-13722D01*
X54915Y-13722D01*
X54962Y-13734D01*
X54986Y-13746D01*
X55010Y-13770D01*
X55022Y-13806D01*
X55022Y-13865D01*
X54879Y-13579D02*
X54867Y-13603D01*
X54855Y-13615D01*
X54831Y-13627D01*
X54820Y-13627D01*
X54796Y-13615D01*
X54784Y-13603D01*
X54772Y-13579D01*
X54772Y-13532D01*
X54784Y-13508D01*
X54796Y-13496D01*
X54820Y-13484D01*
X54831Y-13484D01*
X54855Y-13496D01*
X54867Y-13508D01*
X54879Y-13532D01*
X54879Y-13579D01*
X54891Y-13603D01*
X54903Y-13615D01*
X54927Y-13627D01*
X54974Y-13627D01*
X54998Y-13615D01*
X55010Y-13603D01*
X55022Y-13579D01*
X55022Y-13532D01*
X55010Y-13508D01*
X54998Y-13496D01*
X54974Y-13484D01*
X54927Y-13484D01*
X54903Y-13496D01*
X54891Y-13508D01*
X54879Y-13532D01*
X45746Y-16373D02*
X45925Y-16373D01*
X45961Y-16385D01*
X45984Y-16409D01*
X45996Y-16445D01*
X45996Y-16468D01*
X45996Y-16123D02*
X45996Y-16266D01*
X45996Y-16195D02*
X45746Y-16195D01*
X45782Y-16218D01*
X45806Y-16242D01*
X45818Y-16266D01*
X45770Y-16028D02*
X45758Y-16016D01*
X45746Y-15992D01*
X45746Y-15933D01*
X45758Y-15909D01*
X45770Y-15897D01*
X45794Y-15885D01*
X45818Y-15885D01*
X45854Y-15897D01*
X45996Y-16040D01*
X45996Y-15885D01*
X46140Y-16665D02*
X46140Y-16784D01*
X46259Y-16795D01*
X46247Y-16784D01*
X46235Y-16760D01*
X46235Y-16700D01*
X46247Y-16676D01*
X46259Y-16665D01*
X46283Y-16653D01*
X46342Y-16653D01*
X46366Y-16665D01*
X46378Y-16676D01*
X46390Y-16700D01*
X46390Y-16760D01*
X46378Y-16784D01*
X46366Y-16795D01*
X46140Y-16581D02*
X46390Y-16498D01*
X46140Y-16415D01*
X46414Y-16391D02*
X46414Y-16200D01*
X46390Y-16141D02*
X46140Y-16141D01*
X46390Y-16022D02*
X46140Y-16022D01*
X46390Y-15879D01*
X46140Y-15879D01*
X55042Y-14805D02*
X54923Y-14888D01*
X55042Y-14948D02*
X54792Y-14948D01*
X54792Y-14853D01*
X54804Y-14829D01*
X54815Y-14817D01*
X54839Y-14805D01*
X54875Y-14805D01*
X54899Y-14817D01*
X54911Y-14829D01*
X54923Y-14853D01*
X54923Y-14948D01*
X54792Y-14591D02*
X54792Y-14638D01*
X54804Y-14662D01*
X54815Y-14674D01*
X54851Y-14698D01*
X54899Y-14710D01*
X54994Y-14710D01*
X55018Y-14698D01*
X55030Y-14686D01*
X55042Y-14662D01*
X55042Y-14614D01*
X55030Y-14591D01*
X55018Y-14579D01*
X54994Y-14567D01*
X54934Y-14567D01*
X54911Y-14579D01*
X54899Y-14591D01*
X54887Y-14614D01*
X54887Y-14662D01*
X54899Y-14686D01*
X54911Y-14698D01*
X54934Y-14710D01*
X51498Y-13024D02*
X51379Y-13108D01*
X51498Y-13167D02*
X51248Y-13167D01*
X51248Y-13072D01*
X51260Y-13048D01*
X51272Y-13036D01*
X51296Y-13024D01*
X51332Y-13024D01*
X51355Y-13036D01*
X51367Y-13048D01*
X51379Y-13072D01*
X51379Y-13167D01*
X51272Y-12929D02*
X51260Y-12917D01*
X51248Y-12893D01*
X51248Y-12834D01*
X51260Y-12810D01*
X51272Y-12798D01*
X51296Y-12786D01*
X51320Y-12786D01*
X51355Y-12798D01*
X51498Y-12941D01*
X51498Y-12786D01*
X51248Y-12703D02*
X51248Y-12548D01*
X51344Y-12632D01*
X51344Y-12596D01*
X51355Y-12572D01*
X51367Y-12560D01*
X51391Y-12548D01*
X51451Y-12548D01*
X51475Y-12560D01*
X51486Y-12572D01*
X51498Y-12596D01*
X51498Y-12667D01*
X51486Y-12691D01*
X51475Y-12703D01*
X46299Y-18789D02*
X46311Y-18753D01*
X46311Y-18694D01*
X46299Y-18670D01*
X46288Y-18658D01*
X46264Y-18646D01*
X46240Y-18646D01*
X46216Y-18658D01*
X46204Y-18670D01*
X46192Y-18694D01*
X46180Y-18742D01*
X46168Y-18765D01*
X46157Y-18777D01*
X46133Y-18789D01*
X46109Y-18789D01*
X46085Y-18777D01*
X46073Y-18765D01*
X46061Y-18742D01*
X46061Y-18682D01*
X46073Y-18646D01*
X46061Y-18468D02*
X46240Y-18468D01*
X46276Y-18480D01*
X46299Y-18503D01*
X46311Y-18539D01*
X46311Y-18563D01*
X46085Y-18361D02*
X46073Y-18349D01*
X46061Y-18325D01*
X46061Y-18265D01*
X46073Y-18242D01*
X46085Y-18230D01*
X46109Y-18218D01*
X46133Y-18218D01*
X46168Y-18230D01*
X46311Y-18372D01*
X46311Y-18218D01*
X46514Y-18649D02*
X46514Y-18768D01*
X46633Y-18780D01*
X46621Y-18768D01*
X46609Y-18744D01*
X46609Y-18685D01*
X46621Y-18661D01*
X46633Y-18649D01*
X46657Y-18637D01*
X46716Y-18637D01*
X46740Y-18649D01*
X46752Y-18661D01*
X46764Y-18685D01*
X46764Y-18744D01*
X46752Y-18768D01*
X46740Y-18780D01*
X46514Y-18566D02*
X46764Y-18482D01*
X46514Y-18399D01*
X46788Y-18375D02*
X46788Y-18185D01*
X46514Y-18078D02*
X46514Y-18030D01*
X46526Y-18006D01*
X46550Y-17982D01*
X46597Y-17971D01*
X46681Y-17971D01*
X46728Y-17982D01*
X46752Y-18006D01*
X46764Y-18030D01*
X46764Y-18078D01*
X46752Y-18101D01*
X46728Y-18125D01*
X46681Y-18137D01*
X46597Y-18137D01*
X46550Y-18125D01*
X46526Y-18101D01*
X46514Y-18078D01*
X46514Y-17863D02*
X46716Y-17863D01*
X46740Y-17851D01*
X46752Y-17840D01*
X46764Y-17816D01*
X46764Y-17768D01*
X46752Y-17744D01*
X46740Y-17732D01*
X46716Y-17721D01*
X46514Y-17721D01*
X46514Y-17637D02*
X46514Y-17494D01*
X46764Y-17566D02*
X46514Y-17566D01*
X43514Y-22716D02*
X43526Y-22681D01*
X43526Y-22621D01*
X43514Y-22597D01*
X43502Y-22585D01*
X43478Y-22573D01*
X43454Y-22573D01*
X43431Y-22585D01*
X43419Y-22597D01*
X43407Y-22621D01*
X43395Y-22669D01*
X43383Y-22693D01*
X43371Y-22704D01*
X43347Y-22716D01*
X43324Y-22716D01*
X43300Y-22704D01*
X43288Y-22693D01*
X43276Y-22669D01*
X43276Y-22609D01*
X43288Y-22573D01*
X43276Y-22395D02*
X43454Y-22395D01*
X43490Y-22407D01*
X43514Y-22431D01*
X43526Y-22466D01*
X43526Y-22490D01*
X43276Y-22157D02*
X43276Y-22276D01*
X43395Y-22288D01*
X43383Y-22276D01*
X43371Y-22252D01*
X43371Y-22193D01*
X43383Y-22169D01*
X43395Y-22157D01*
X43419Y-22145D01*
X43478Y-22145D01*
X43502Y-22157D01*
X43514Y-22169D01*
X43526Y-22193D01*
X43526Y-22252D01*
X43514Y-22276D01*
X43502Y-22288D01*
X40142Y-22520D02*
X40178Y-22532D01*
X40238Y-22532D01*
X40261Y-22520D01*
X40273Y-22508D01*
X40285Y-22484D01*
X40285Y-22460D01*
X40273Y-22437D01*
X40261Y-22425D01*
X40238Y-22413D01*
X40190Y-22401D01*
X40166Y-22389D01*
X40154Y-22377D01*
X40142Y-22353D01*
X40142Y-22329D01*
X40154Y-22306D01*
X40166Y-22294D01*
X40190Y-22282D01*
X40249Y-22282D01*
X40285Y-22294D01*
X40357Y-22282D02*
X40499Y-22282D01*
X40428Y-22532D02*
X40428Y-22282D01*
X40571Y-22460D02*
X40690Y-22460D01*
X40547Y-22532D02*
X40630Y-22282D01*
X40714Y-22532D01*
X40761Y-22282D02*
X40904Y-22282D01*
X40833Y-22532D02*
X40833Y-22282D01*
X42866Y-10760D02*
X42866Y-10879D01*
X42616Y-10879D01*
X42640Y-10688D02*
X42628Y-10676D01*
X42616Y-10653D01*
X42616Y-10593D01*
X42628Y-10569D01*
X42640Y-10557D01*
X42664Y-10545D01*
X42688Y-10545D01*
X42724Y-10557D01*
X42866Y-10700D01*
X42866Y-10545D01*
X44122Y-9432D02*
X44325Y-9432D01*
X44349Y-9420D01*
X44360Y-9408D01*
X44372Y-9384D01*
X44372Y-9337D01*
X44360Y-9313D01*
X44349Y-9301D01*
X44325Y-9289D01*
X44122Y-9289D01*
X44146Y-9182D02*
X44134Y-9170D01*
X44122Y-9146D01*
X44122Y-9087D01*
X44134Y-9063D01*
X44146Y-9051D01*
X44170Y-9039D01*
X44194Y-9039D01*
X44229Y-9051D01*
X44372Y-9194D01*
X44372Y-9039D01*
X54733Y-21974D02*
X54911Y-21974D01*
X54947Y-21985D01*
X54971Y-22009D01*
X54983Y-22045D01*
X54983Y-22069D01*
X54983Y-21724D02*
X54983Y-21866D01*
X54983Y-21795D02*
X54733Y-21795D01*
X54768Y-21819D01*
X54792Y-21843D01*
X54804Y-21866D01*
X54983Y-21485D02*
X54983Y-21628D01*
X54983Y-21557D02*
X54733Y-21557D01*
X54768Y-21581D01*
X54792Y-21604D01*
X54804Y-21628D01*
X55425Y-22337D02*
X55425Y-22479D01*
X55425Y-22408D02*
X55175Y-22408D01*
X55211Y-22432D01*
X55235Y-22456D01*
X55247Y-22479D01*
X55199Y-22241D02*
X55187Y-22229D01*
X55175Y-22206D01*
X55175Y-22146D01*
X55187Y-22122D01*
X55199Y-22110D01*
X55223Y-22099D01*
X55247Y-22099D01*
X55283Y-22110D01*
X55425Y-22253D01*
X55425Y-22099D01*
X55175Y-22027D02*
X55425Y-21944D01*
X55175Y-21860D01*
X55449Y-21837D02*
X55449Y-21646D01*
X55175Y-21539D02*
X55175Y-21491D01*
X55187Y-21468D01*
X55211Y-21444D01*
X55259Y-21432D01*
X55342Y-21432D01*
X55390Y-21444D01*
X55414Y-21468D01*
X55425Y-21491D01*
X55425Y-21539D01*
X55414Y-21563D01*
X55390Y-21587D01*
X55342Y-21599D01*
X55259Y-21599D01*
X55211Y-21587D01*
X55187Y-21563D01*
X55175Y-21539D01*
X55259Y-21218D02*
X55425Y-21218D01*
X55259Y-21325D02*
X55390Y-21325D01*
X55414Y-21313D01*
X55425Y-21289D01*
X55425Y-21253D01*
X55414Y-21229D01*
X55402Y-21218D01*
X55259Y-21134D02*
X55259Y-21039D01*
X55175Y-21099D02*
X55390Y-21099D01*
X55414Y-21087D01*
X55425Y-21063D01*
X55425Y-21039D01*
X55000Y-13218D02*
X55012Y-13183D01*
X55012Y-13123D01*
X55000Y-13099D01*
X54988Y-13087D01*
X54964Y-13075D01*
X54941Y-13075D01*
X54917Y-13087D01*
X54905Y-13099D01*
X54893Y-13123D01*
X54881Y-13171D01*
X54869Y-13194D01*
X54857Y-13206D01*
X54834Y-13218D01*
X54810Y-13218D01*
X54786Y-13206D01*
X54774Y-13194D01*
X54762Y-13171D01*
X54762Y-13111D01*
X54774Y-13075D01*
X54762Y-12897D02*
X54941Y-12897D01*
X54976Y-12909D01*
X55000Y-12933D01*
X55012Y-12968D01*
X55012Y-12992D01*
X54762Y-12671D02*
X54762Y-12718D01*
X54774Y-12742D01*
X54786Y-12754D01*
X54822Y-12778D01*
X54869Y-12790D01*
X54964Y-12790D01*
X54988Y-12778D01*
X55000Y-12766D01*
X55012Y-12742D01*
X55012Y-12694D01*
X55000Y-12671D01*
X54988Y-12659D01*
X54964Y-12647D01*
X54905Y-12647D01*
X54881Y-12659D01*
X54869Y-12671D01*
X54857Y-12694D01*
X54857Y-12742D01*
X54869Y-12766D01*
X54881Y-12778D01*
X54905Y-12790D01*
X55126Y-13614D02*
X55126Y-13733D01*
X55245Y-13745D01*
X55233Y-13733D01*
X55222Y-13710D01*
X55222Y-13650D01*
X55233Y-13626D01*
X55245Y-13614D01*
X55269Y-13602D01*
X55329Y-13602D01*
X55352Y-13614D01*
X55364Y-13626D01*
X55376Y-13650D01*
X55376Y-13710D01*
X55364Y-13733D01*
X55352Y-13745D01*
X55126Y-13531D02*
X55376Y-13448D01*
X55126Y-13364D01*
X55400Y-13340D02*
X55400Y-13150D01*
X55376Y-13090D02*
X55126Y-13090D01*
X55126Y-12995D01*
X55138Y-12971D01*
X55150Y-12960D01*
X55174Y-12948D01*
X55210Y-12948D01*
X55233Y-12960D01*
X55245Y-12971D01*
X55257Y-12995D01*
X55257Y-13090D01*
X55376Y-12840D02*
X55210Y-12840D01*
X55126Y-12840D02*
X55138Y-12852D01*
X55150Y-12840D01*
X55138Y-12829D01*
X55126Y-12840D01*
X55150Y-12840D01*
%LPC*%
G54D19*
X47677Y-9212D03*
X47677Y-10000D03*
X51299Y-24301D03*
X51299Y-23513D03*
X48129Y-25984D03*
X48129Y-26771D03*
G54D20*
X51673Y-28346D03*
X50492Y-28346D03*
G54D21*
X43070Y-19310D03*
X43070Y-20060D03*
X42086Y-20060D03*
X42086Y-19310D03*
X44330Y-20884D03*
X44330Y-21634D03*
X50216Y-23532D03*
X50216Y-24282D03*
X45196Y-9231D03*
X45196Y-9981D03*
X47047Y-26752D03*
X47047Y-26002D03*
X44980Y-26772D03*
X44980Y-26022D03*
X50590Y-21634D03*
X50590Y-20884D03*
X45393Y-21634D03*
X45393Y-20884D03*
X52401Y-24282D03*
X52401Y-23532D03*
X47263Y-24282D03*
X47263Y-23532D03*
X42480Y-26002D03*
X42480Y-26752D03*
G54D10*
G36*
X46427Y-24532D02*
X46327Y-24532D01*
X46127Y-23932D01*
X46627Y-23932D01*
X46427Y-24532D01*
X46427Y-24532D01*
G37*
G36*
X46627Y-23882D02*
X46127Y-23882D01*
X46327Y-23282D01*
X46427Y-23282D01*
X46627Y-23882D01*
X46627Y-23882D01*
G37*
G54D22*
X53926Y-9547D03*
X52176Y-9547D03*
G54D23*
X54426Y-10547D03*
X51676Y-10547D03*
G54D22*
X52176Y-12097D03*
X53926Y-12097D03*
X52551Y-11347D03*
X53551Y-11347D03*
G54D24*
X42096Y-23533D03*
X42096Y-24281D03*
X42096Y-23907D03*
X43198Y-24281D03*
X43198Y-23533D03*
G54D19*
X46456Y-21653D03*
X46456Y-20866D03*
X49291Y-21653D03*
X49291Y-20866D03*
X45393Y-23513D03*
X45393Y-24301D03*
G54D25*
X48996Y-19744D03*
X49783Y-19744D03*
G54D19*
X43622Y-25984D03*
X43622Y-26771D03*
X40344Y-25984D03*
X40344Y-26771D03*
G54D25*
X52421Y-19744D03*
X51633Y-19744D03*
G54D26*
X41801Y-14625D03*
X41801Y-13248D03*
G54D27*
X42086Y-21659D03*
X42086Y-20859D03*
X43070Y-20859D03*
X43070Y-21659D03*
X45964Y-26777D03*
X45964Y-25977D03*
X44055Y-19285D03*
X44055Y-20085D03*
G54D28*
X53887Y-19744D03*
X53887Y-18129D03*
G54D29*
X38956Y-13248D03*
X38956Y-14429D03*
G54D30*
X37017Y-22599D03*
G54D31*
X39202Y-23524D03*
X39202Y-24310D03*
G54D30*
X37017Y-25235D03*
G54D32*
X47996Y-18307D03*
X48996Y-18307D03*
X49996Y-18307D03*
X49106Y-9990D03*
X50106Y-9990D03*
X49996Y-16929D03*
X48996Y-16929D03*
X52342Y-26877D03*
X52342Y-25877D03*
X45807Y-27807D03*
X45807Y-28807D03*
X49106Y-11486D03*
X50106Y-11486D03*
G54D33*
X39242Y-9251D03*
G54D34*
X41642Y-9251D03*
G54D35*
X40492Y-11251D03*
G54D36*
X49053Y-13301D03*
X49053Y-15242D03*
X49553Y-13301D03*
X50053Y-13301D03*
X50553Y-13301D03*
X49553Y-15242D03*
X50053Y-15242D03*
X50553Y-15242D03*
G54D21*
X41417Y-26002D03*
X41417Y-26752D03*
X43562Y-28839D03*
X43562Y-28089D03*
X42480Y-28839D03*
X42480Y-28089D03*
G54D37*
X51652Y-18011D03*
X52402Y-18011D03*
X51652Y-16929D03*
X52402Y-16929D03*
X54312Y-15846D03*
X53562Y-15846D03*
X53562Y-16929D03*
X54312Y-16929D03*
X52402Y-15846D03*
X51652Y-15846D03*
G54D10*
G36*
X48217Y-23282D02*
X48317Y-23282D01*
X48517Y-23882D01*
X48017Y-23882D01*
X48217Y-23282D01*
X48217Y-23282D01*
G37*
G36*
X48017Y-23932D02*
X48517Y-23932D01*
X48317Y-24532D01*
X48217Y-24532D01*
X48017Y-23932D01*
X48017Y-23932D01*
G37*
G36*
X49044Y-23282D02*
X49144Y-23282D01*
X49344Y-23882D01*
X48844Y-23882D01*
X49044Y-23282D01*
X49044Y-23282D01*
G37*
G36*
X48844Y-23932D02*
X49344Y-23932D01*
X49144Y-24532D01*
X49044Y-24532D01*
X48844Y-23932D01*
X48844Y-23932D01*
G37*
G54D32*
X48267Y-24911D03*
G54D38*
X37775Y-13799D03*
X37775Y-14055D03*
X37775Y-14311D03*
X37775Y-13543D03*
X37775Y-13287D03*
G54D39*
X37675Y-12549D03*
X37675Y-15049D03*
G54D40*
X36725Y-13324D03*
X36725Y-14274D03*
G54D41*
X36725Y-12499D03*
X36725Y-15099D03*
G54D42*
X50000Y-25797D03*
X49803Y-25797D03*
X49606Y-25797D03*
X49409Y-25797D03*
G54D43*
X49212Y-25797D03*
X49212Y-26958D03*
G54D42*
X49409Y-26958D03*
X49606Y-26958D03*
X49803Y-26958D03*
X50000Y-26958D03*
G54D44*
X49606Y-26377D03*
G54D45*
X49299Y-26539D03*
X49299Y-26216D03*
X49913Y-26216D03*
X49913Y-26539D03*
G54D46*
X49000Y-26279D03*
X49000Y-26476D03*
X50212Y-26279D03*
X50212Y-26476D03*
G54D47*
X41023Y-20297D03*
X41023Y-19297D03*
X41023Y-18497D03*
X41023Y-17497D03*
G54D48*
X39973Y-21497D03*
X39973Y-16097D03*
G54D49*
X48257Y-20679D03*
G54D50*
X48001Y-20679D03*
X47746Y-20679D03*
X47490Y-20679D03*
X47490Y-21840D03*
X47746Y-21840D03*
X48000Y-21840D03*
X48257Y-21840D03*
G54D51*
X47874Y-21259D03*
G54D52*
X47566Y-21422D03*
X47566Y-21097D03*
X48181Y-21097D03*
X48181Y-21422D03*
G54D53*
X41279Y-27755D03*
X41082Y-27755D03*
X40885Y-27755D03*
X40688Y-27755D03*
X40688Y-28897D03*
X40885Y-28897D03*
X41082Y-28897D03*
X41279Y-28897D03*
G54D54*
X41145Y-28500D03*
X40822Y-28500D03*
X41145Y-28153D03*
X40822Y-28153D03*
G54D55*
X37696Y-27854D03*
X56594Y-27854D03*
G54D32*
X40226Y-13250D03*
X40226Y-14250D03*
X56084Y-8271D03*
X57084Y-8271D03*
X56084Y-9271D03*
X57084Y-9271D03*
X56084Y-10271D03*
G54D56*
X57084Y-10271D03*
G54D32*
X56084Y-11271D03*
X57084Y-11271D03*
X56084Y-12271D03*
X57084Y-12271D03*
X56084Y-13271D03*
X57084Y-13271D03*
X56084Y-14271D03*
X57084Y-14271D03*
X56084Y-15271D03*
X57084Y-15271D03*
X56084Y-16271D03*
X57084Y-16271D03*
X56084Y-17271D03*
X57084Y-17271D03*
X56084Y-18271D03*
X57084Y-18271D03*
X56084Y-19271D03*
X57084Y-19271D03*
X56084Y-20271D03*
X57084Y-20271D03*
G54D57*
X43208Y-17411D03*
G54D58*
X43337Y-8149D03*
X44437Y-8149D03*
G54D59*
X46377Y-10156D03*
X46377Y-9056D03*
G54D60*
X44222Y-24457D03*
X44222Y-23357D03*
X40875Y-23357D03*
X40875Y-24457D03*
X51102Y-26927D03*
X51102Y-25827D03*
X47047Y-27757D03*
X47047Y-28857D03*
G54D58*
X52577Y-14763D03*
X51477Y-14763D03*
G54D60*
X48149Y-27757D03*
X48149Y-28857D03*
G54D61*
X53537Y-13681D03*
X54337Y-13681D03*
G54D32*
X45289Y-15206D03*
X46289Y-15206D03*
X47289Y-15206D03*
G54D37*
X54312Y-14763D03*
X53562Y-14763D03*
X51652Y-13681D03*
X52402Y-13681D03*
G54D10*
G36*
X47288Y-19182D02*
X47288Y-19282D01*
X46688Y-19482D01*
X46688Y-18982D01*
X47288Y-19182D01*
X47288Y-19182D01*
G37*
G36*
X46638Y-18982D02*
X46638Y-19482D01*
X46038Y-19282D01*
X46038Y-19182D01*
X46638Y-18982D01*
X46638Y-18982D01*
G37*
G36*
X41121Y-22481D02*
X41121Y-22381D01*
X41721Y-22181D01*
X41721Y-22681D01*
X41121Y-22481D01*
X41121Y-22481D01*
G37*
G36*
X42471Y-22681D02*
X42471Y-22181D01*
X43071Y-22381D01*
X43071Y-22481D01*
X42471Y-22681D01*
X42471Y-22681D01*
G37*
G54D62*
X42096Y-22431D03*
G54D20*
X44340Y-10728D03*
X43277Y-10728D03*
G54D63*
X43336Y-9616D03*
G54D64*
X43533Y-9616D03*
X43730Y-9616D03*
X43927Y-9616D03*
X43927Y-8868D03*
X43730Y-8868D03*
X43533Y-8868D03*
X43336Y-8868D03*
G54D65*
X43474Y-9242D03*
X43789Y-9242D03*
G54D32*
X56084Y-21271D03*
X56084Y-22271D03*
X57084Y-21271D03*
X57084Y-22271D03*
G54D10*
G36*
X54562Y-12883D02*
X54562Y-12983D01*
X53962Y-13183D01*
X53962Y-12683D01*
X54562Y-12883D01*
X54562Y-12883D01*
G37*
G36*
X53912Y-12683D02*
X53912Y-13183D01*
X53312Y-12983D01*
X53312Y-12883D01*
X53912Y-12683D01*
X53912Y-12683D01*
G37*
M02*
