G04 (created by PCBNEW (2013-07-07 BZR 4022)-stable) date 08-Nov-13 3:33:41 PM*
%MOIN*%
G04 Gerber Fmt 3.4, Leading zero omitted, Abs format*
%FSLAX34Y34*%
G01*
G70*
G90*
G04 APERTURE LIST*
%ADD10C,0.00590551*%
%ADD11C,0.07*%
%ADD12C,0.08*%
%ADD13C,0.06*%
%ADD14C,0.16*%
%ADD15R,0.16X0.16*%
%ADD16O,0.2X0.13*%
%ADD17C,0.075*%
%ADD18R,0.0299213X0.0645669*%
%ADD19R,0.0322835X0.0322835*%
%ADD20C,0.0591*%
%ADD21C,0.1181*%
%ADD22R,0.0299213X0.0649606*%
%ADD23R,0.0322835X0.0324803*%
%ADD24R,0.0322835X0.0346457*%
%ADD25C,0.3*%
%ADD26R,0.06X0.06*%
%ADD27C,0.24*%
%ADD28R,0.0314961X0.0354331*%
%ADD29C,0.035*%
%ADD30C,0.01*%
%ADD31C,0.03*%
G04 APERTURE END LIST*
G54D10*
X36122Y-29429D02*
X58169Y-29429D01*
X36122Y-7381D02*
X58169Y-7381D01*
X36122Y-29429D02*
X36122Y-7381D01*
X58169Y-7381D02*
X58169Y-29429D01*
G54D11*
X53926Y-9547D03*
X52176Y-9547D03*
G54D12*
X54426Y-10547D03*
X51676Y-10547D03*
G54D11*
X52176Y-12097D03*
X53926Y-12097D03*
X52551Y-11347D03*
X53551Y-11347D03*
G54D13*
X47996Y-18307D03*
X48996Y-18307D03*
X49996Y-18307D03*
X49106Y-9990D03*
X50106Y-9990D03*
X49996Y-16929D03*
X48996Y-16929D03*
X52342Y-26877D03*
X52342Y-25877D03*
X45807Y-27807D03*
X45807Y-28807D03*
X49106Y-11486D03*
X50106Y-11486D03*
G54D14*
X39242Y-9251D03*
G54D15*
X41642Y-9251D03*
G54D16*
X40492Y-11251D03*
G54D13*
X48267Y-24911D03*
G54D17*
X36725Y-12499D03*
X36725Y-15099D03*
G54D18*
X49606Y-26377D03*
G54D19*
X49299Y-26539D03*
X49299Y-26216D03*
X49913Y-26216D03*
X49913Y-26539D03*
G54D20*
X41023Y-20297D03*
X41023Y-19297D03*
X41023Y-18497D03*
X41023Y-17497D03*
G54D21*
X39973Y-21497D03*
X39973Y-16097D03*
G54D22*
X47874Y-21259D03*
G54D23*
X47566Y-21422D03*
X47566Y-21097D03*
X48181Y-21097D03*
X48181Y-21422D03*
G54D24*
X41145Y-28500D03*
X40822Y-28500D03*
X41145Y-28153D03*
X40822Y-28153D03*
G54D25*
X37696Y-27854D03*
X56594Y-27854D03*
G54D13*
X40226Y-13250D03*
X40226Y-14250D03*
X56084Y-8271D03*
X57084Y-8271D03*
X56084Y-9271D03*
X57084Y-9271D03*
X56084Y-10271D03*
G54D26*
X57084Y-10271D03*
G54D13*
X56084Y-11271D03*
X57084Y-11271D03*
X56084Y-12271D03*
X57084Y-12271D03*
X56084Y-13271D03*
X57084Y-13271D03*
X56084Y-14271D03*
X57084Y-14271D03*
X56084Y-15271D03*
X57084Y-15271D03*
X56084Y-16271D03*
X57084Y-16271D03*
X56084Y-17271D03*
X57084Y-17271D03*
X56084Y-18271D03*
X57084Y-18271D03*
X56084Y-19271D03*
X57084Y-19271D03*
X56084Y-20271D03*
X57084Y-20271D03*
G54D27*
X43208Y-17411D03*
G54D13*
X45289Y-15206D03*
X46289Y-15206D03*
X47289Y-15206D03*
G54D28*
X43474Y-9242D03*
X43789Y-9242D03*
G54D13*
X56084Y-21271D03*
X56084Y-22271D03*
X57084Y-21271D03*
X57084Y-22271D03*
G54D29*
X43031Y-28523D03*
X41417Y-25305D03*
X44872Y-24301D03*
X45610Y-18769D03*
X45610Y-19773D03*
X46988Y-17027D03*
X41889Y-28543D03*
X43562Y-27480D03*
X49606Y-25000D03*
X42480Y-25088D03*
X50895Y-25000D03*
X55039Y-23346D03*
X53031Y-13681D03*
X42657Y-23907D03*
X52421Y-18946D03*
G54D30*
X43031Y-28523D02*
X42431Y-28523D01*
X41417Y-27509D02*
X41417Y-25305D01*
X42431Y-28523D02*
X41417Y-27509D01*
X41417Y-25305D02*
X40383Y-25305D01*
X53559Y-8271D02*
X56084Y-8271D01*
X53139Y-8690D02*
X53559Y-8271D01*
X48572Y-8690D02*
X53139Y-8690D01*
X42381Y-14881D02*
X48572Y-8690D01*
X39685Y-14881D02*
X42381Y-14881D01*
X38818Y-15748D02*
X39685Y-14881D01*
X38818Y-23740D02*
X38818Y-15748D01*
X40383Y-25305D02*
X38818Y-23740D01*
G54D31*
X45610Y-19773D02*
X45610Y-23061D01*
X44872Y-23799D02*
X44872Y-24301D01*
X45610Y-23061D02*
X44872Y-23799D01*
X45610Y-19773D02*
X45610Y-18769D01*
X49996Y-18307D02*
X49996Y-16929D01*
X49996Y-16929D02*
X49996Y-16393D01*
X46988Y-16663D02*
X46988Y-17027D01*
X47411Y-16240D02*
X46988Y-16663D01*
X49842Y-16240D02*
X47411Y-16240D01*
X49996Y-16393D02*
X49842Y-16240D01*
X41642Y-9251D02*
X41642Y-8161D01*
X56084Y-22797D02*
X56084Y-22271D01*
X56328Y-23041D02*
X56084Y-22797D01*
X57519Y-23041D02*
X56328Y-23041D01*
X57874Y-22687D02*
X57519Y-23041D01*
X57874Y-7992D02*
X57874Y-22687D01*
X57559Y-7677D02*
X57874Y-7992D01*
X42125Y-7677D02*
X57559Y-7677D01*
X41642Y-8161D02*
X42125Y-7677D01*
G54D30*
X45452Y-27283D02*
X48208Y-27283D01*
X51870Y-26564D02*
X51870Y-23602D01*
X50767Y-27667D02*
X51870Y-26564D01*
X48592Y-27667D02*
X50767Y-27667D01*
X48208Y-27283D02*
X48592Y-27667D01*
X51870Y-23602D02*
X55649Y-19901D01*
X42165Y-28818D02*
X43917Y-28818D01*
X43917Y-28818D02*
X45452Y-27283D01*
X42165Y-28818D02*
X41889Y-28543D01*
X56084Y-10271D02*
X55649Y-10785D01*
X55649Y-19901D02*
X55649Y-10785D01*
X50295Y-26889D02*
X49055Y-26889D01*
X43562Y-26811D02*
X43562Y-27480D01*
X43848Y-26525D02*
X43562Y-26811D01*
X48690Y-26525D02*
X43848Y-26525D01*
X49055Y-26889D02*
X48690Y-26525D01*
X51200Y-25984D02*
X51200Y-22972D01*
X51200Y-22972D02*
X54990Y-19183D01*
X54990Y-19183D02*
X54990Y-10366D01*
X54990Y-10366D02*
X56084Y-9271D01*
X50295Y-26889D02*
X51200Y-25984D01*
G54D31*
X49606Y-25000D02*
X49606Y-24744D01*
X49606Y-24744D02*
X49173Y-24311D01*
X50895Y-25000D02*
X49606Y-25000D01*
X45807Y-25088D02*
X42480Y-25088D01*
X49173Y-24311D02*
X46584Y-24311D01*
X46584Y-24311D02*
X45807Y-25088D01*
X49606Y-26377D02*
X49606Y-25875D01*
X41781Y-25059D02*
X41781Y-23907D01*
X42401Y-25679D02*
X41781Y-25059D01*
X49409Y-25679D02*
X42401Y-25679D01*
X49606Y-25875D02*
X49409Y-25679D01*
X45807Y-28807D02*
X52019Y-28807D01*
X55039Y-25787D02*
X55039Y-23346D01*
X52019Y-28807D02*
X55039Y-25787D01*
X40944Y-29153D02*
X44291Y-29153D01*
X44637Y-28807D02*
X45807Y-28807D01*
X44291Y-29153D02*
X44637Y-28807D01*
X40824Y-29032D02*
X40944Y-29153D01*
X40822Y-28500D02*
X40824Y-29032D01*
X52176Y-9547D02*
X52962Y-9547D01*
X52962Y-9547D02*
X53750Y-8759D01*
X52176Y-9547D02*
X50549Y-9547D01*
X50549Y-9547D02*
X50106Y-9990D01*
X57084Y-21271D02*
X57084Y-22271D01*
X52551Y-11347D02*
X52551Y-9922D01*
X52551Y-9922D02*
X52176Y-9547D01*
X52551Y-11347D02*
X52551Y-11722D01*
X52551Y-11722D02*
X52176Y-12097D01*
X53031Y-13681D02*
X53031Y-12952D01*
X53031Y-12952D02*
X52176Y-12097D01*
X47996Y-18307D02*
X45216Y-18307D01*
X45216Y-18307D02*
X44832Y-18690D01*
X50106Y-11486D02*
X50106Y-9990D01*
X36725Y-12499D02*
X36725Y-11551D01*
X37025Y-11251D02*
X39242Y-11251D01*
X36725Y-11551D02*
X37025Y-11251D01*
X40492Y-11251D02*
X39242Y-11251D01*
X39242Y-11251D02*
X39242Y-11250D01*
X40226Y-14250D02*
X39604Y-14250D01*
X39242Y-13887D02*
X39242Y-11250D01*
X39604Y-14250D02*
X39242Y-13887D01*
X39242Y-11250D02*
X39242Y-9251D01*
X44832Y-20039D02*
X44574Y-20297D01*
X41023Y-20297D02*
X44574Y-20297D01*
X44832Y-18690D02*
X44832Y-20039D01*
X47996Y-18307D02*
X47996Y-17240D01*
X48307Y-16929D02*
X48996Y-16929D01*
X47996Y-17240D02*
X48307Y-16929D01*
X53750Y-8759D02*
X55570Y-8759D01*
G54D30*
X55570Y-8759D02*
X56397Y-8759D01*
G54D31*
X56397Y-8759D02*
X56594Y-8956D01*
G54D30*
X56594Y-8956D02*
X56594Y-9781D01*
G54D31*
X56594Y-9781D02*
X57084Y-10271D01*
X39973Y-21497D02*
X39973Y-23369D01*
X40511Y-23907D02*
X41781Y-23907D01*
X41781Y-23907D02*
X42657Y-23907D01*
X39973Y-23369D02*
X40511Y-23907D01*
X47874Y-21259D02*
X47874Y-19163D01*
X47996Y-19041D02*
X47996Y-18307D01*
X47874Y-19163D02*
X47996Y-19041D01*
X43474Y-9242D02*
X43474Y-10088D01*
X43474Y-10088D02*
X42311Y-11251D01*
X42311Y-11251D02*
X40492Y-11251D01*
X41023Y-20297D02*
X39973Y-20297D01*
X39973Y-20297D02*
X39980Y-20304D01*
X39980Y-20304D02*
X39980Y-20305D01*
X39980Y-20305D02*
X39973Y-20305D01*
X39973Y-16097D02*
X39973Y-20305D01*
X39973Y-20305D02*
X39973Y-21497D01*
G54D30*
X53926Y-12097D02*
X53926Y-17441D01*
X53926Y-17441D02*
X52421Y-18946D01*
G54D10*
G36*
X55854Y-8771D02*
X55773Y-8805D01*
X55618Y-8959D01*
X55534Y-9161D01*
X55534Y-9380D01*
X55539Y-9392D01*
X54865Y-10066D01*
X54794Y-9996D01*
X54556Y-9897D01*
X54424Y-9897D01*
X54434Y-9887D01*
X54526Y-9667D01*
X54526Y-9428D01*
X54435Y-9207D01*
X54266Y-9038D01*
X54046Y-8947D01*
X53807Y-8947D01*
X53586Y-9038D01*
X53417Y-9206D01*
X53326Y-9427D01*
X53326Y-9666D01*
X53417Y-9886D01*
X53585Y-10055D01*
X53806Y-10147D01*
X53906Y-10147D01*
X53875Y-10178D01*
X53776Y-10417D01*
X53776Y-10675D01*
X53833Y-10814D01*
X53671Y-10747D01*
X53432Y-10747D01*
X53211Y-10838D01*
X53042Y-11006D01*
X53038Y-11017D01*
X52973Y-10995D01*
X52621Y-11347D01*
X52973Y-11698D01*
X53038Y-11677D01*
X53042Y-11686D01*
X53210Y-11855D01*
X53352Y-11914D01*
X53326Y-11977D01*
X53326Y-12216D01*
X53417Y-12436D01*
X53585Y-12605D01*
X53626Y-12622D01*
X53626Y-17317D01*
X52902Y-18041D01*
X52902Y-11769D01*
X52551Y-11417D01*
X52545Y-11423D01*
X52474Y-11352D01*
X52480Y-11347D01*
X52474Y-11341D01*
X52545Y-11270D01*
X52551Y-11276D01*
X52902Y-10925D01*
X52869Y-10824D01*
X52780Y-10792D01*
X52780Y-9640D01*
X52770Y-9402D01*
X52698Y-9229D01*
X52598Y-9195D01*
X52246Y-9547D01*
X52598Y-9898D01*
X52698Y-9865D01*
X52780Y-9640D01*
X52780Y-10792D01*
X52644Y-10742D01*
X52406Y-10752D01*
X52271Y-10808D01*
X52326Y-10677D01*
X52326Y-10418D01*
X52227Y-10179D01*
X52195Y-10146D01*
X52320Y-10141D01*
X52494Y-10069D01*
X52527Y-9969D01*
X52176Y-9617D01*
X52170Y-9623D01*
X52099Y-9552D01*
X52105Y-9547D01*
X51754Y-9195D01*
X51653Y-9229D01*
X51571Y-9453D01*
X51581Y-9692D01*
X51653Y-9865D01*
X51750Y-9897D01*
X51547Y-9897D01*
X51308Y-9995D01*
X51125Y-10178D01*
X51026Y-10417D01*
X51026Y-10675D01*
X51124Y-10914D01*
X51307Y-11097D01*
X51546Y-11197D01*
X51804Y-11197D01*
X51995Y-11118D01*
X51946Y-11253D01*
X51956Y-11492D01*
X51971Y-11527D01*
X51858Y-11574D01*
X51824Y-11675D01*
X52176Y-12026D01*
X52181Y-12020D01*
X52252Y-12091D01*
X52246Y-12097D01*
X52598Y-12448D01*
X52698Y-12415D01*
X52780Y-12190D01*
X52770Y-11952D01*
X52755Y-11916D01*
X52869Y-11869D01*
X52902Y-11769D01*
X52902Y-18041D01*
X52527Y-18416D01*
X52527Y-12519D01*
X52176Y-12167D01*
X52105Y-12238D01*
X52105Y-12097D01*
X51754Y-11745D01*
X51653Y-11779D01*
X51571Y-12003D01*
X51581Y-12242D01*
X51653Y-12415D01*
X51754Y-12448D01*
X52105Y-12097D01*
X52105Y-12238D01*
X51824Y-12519D01*
X51858Y-12619D01*
X52082Y-12701D01*
X52320Y-12691D01*
X52494Y-12619D01*
X52527Y-12519D01*
X52527Y-18416D01*
X52421Y-18521D01*
X52337Y-18521D01*
X52180Y-18586D01*
X52061Y-18705D01*
X51996Y-18861D01*
X51996Y-19031D01*
X52060Y-19187D01*
X52180Y-19306D01*
X52336Y-19371D01*
X52505Y-19371D01*
X52661Y-19307D01*
X52781Y-19187D01*
X52846Y-19031D01*
X52846Y-18946D01*
X54138Y-17654D01*
X54138Y-17654D01*
X54203Y-17556D01*
X54226Y-17441D01*
X54226Y-17441D01*
X54226Y-12622D01*
X54265Y-12606D01*
X54434Y-12437D01*
X54526Y-12217D01*
X54526Y-11978D01*
X54435Y-11757D01*
X54266Y-11588D01*
X54124Y-11530D01*
X54151Y-11467D01*
X54151Y-11228D01*
X54105Y-11117D01*
X54296Y-11197D01*
X54554Y-11197D01*
X54690Y-11141D01*
X54690Y-19058D01*
X50988Y-22760D01*
X50923Y-22857D01*
X50900Y-22972D01*
X50900Y-24575D01*
X50811Y-24574D01*
X50750Y-24600D01*
X50661Y-24600D01*
X50661Y-11567D01*
X50661Y-10071D01*
X50650Y-9853D01*
X50587Y-9702D01*
X50492Y-9674D01*
X50421Y-9745D01*
X50421Y-9604D01*
X50394Y-9508D01*
X50188Y-9435D01*
X49969Y-9446D01*
X49818Y-9508D01*
X49791Y-9604D01*
X50106Y-9919D01*
X50421Y-9604D01*
X50421Y-9745D01*
X50177Y-9990D01*
X50492Y-10305D01*
X50587Y-10278D01*
X50661Y-10071D01*
X50661Y-11567D01*
X50650Y-11349D01*
X50587Y-11198D01*
X50492Y-11171D01*
X50421Y-11241D01*
X50421Y-11100D01*
X50421Y-10376D01*
X50106Y-10060D01*
X50035Y-10131D01*
X50035Y-9990D01*
X49720Y-9674D01*
X49625Y-9702D01*
X49605Y-9757D01*
X49572Y-9679D01*
X49418Y-9524D01*
X49216Y-9440D01*
X48997Y-9440D01*
X48795Y-9523D01*
X48640Y-9678D01*
X48556Y-9880D01*
X48556Y-10099D01*
X48639Y-10301D01*
X48794Y-10456D01*
X48996Y-10540D01*
X49215Y-10540D01*
X49417Y-10456D01*
X49572Y-10302D01*
X49603Y-10226D01*
X49625Y-10278D01*
X49720Y-10305D01*
X50035Y-9990D01*
X50035Y-10131D01*
X49791Y-10376D01*
X49818Y-10471D01*
X50024Y-10544D01*
X50243Y-10534D01*
X50394Y-10471D01*
X50421Y-10376D01*
X50421Y-11100D01*
X50394Y-11004D01*
X50188Y-10931D01*
X49969Y-10942D01*
X49818Y-11004D01*
X49791Y-11100D01*
X50106Y-11415D01*
X50421Y-11100D01*
X50421Y-11241D01*
X50177Y-11486D01*
X50492Y-11801D01*
X50587Y-11774D01*
X50661Y-11567D01*
X50661Y-24600D01*
X50546Y-24600D01*
X50546Y-18198D01*
X50462Y-17995D01*
X50396Y-17929D01*
X50396Y-17306D01*
X50462Y-17241D01*
X50545Y-17039D01*
X50546Y-16820D01*
X50462Y-16617D01*
X50421Y-16576D01*
X50421Y-11872D01*
X50106Y-11556D01*
X50035Y-11627D01*
X50035Y-11486D01*
X49720Y-11171D01*
X49625Y-11198D01*
X49605Y-11253D01*
X49572Y-11175D01*
X49418Y-11020D01*
X49216Y-10936D01*
X48997Y-10936D01*
X48795Y-11019D01*
X48640Y-11174D01*
X48556Y-11376D01*
X48556Y-11595D01*
X48639Y-11797D01*
X48794Y-11952D01*
X48996Y-12036D01*
X49215Y-12036D01*
X49417Y-11952D01*
X49572Y-11798D01*
X49603Y-11722D01*
X49625Y-11774D01*
X49720Y-11801D01*
X50035Y-11486D01*
X50035Y-11627D01*
X49791Y-11872D01*
X49818Y-11967D01*
X50024Y-12041D01*
X50243Y-12030D01*
X50394Y-11967D01*
X50421Y-11872D01*
X50421Y-16576D01*
X50396Y-16551D01*
X50396Y-16393D01*
X50365Y-16240D01*
X50365Y-16240D01*
X50336Y-16197D01*
X50278Y-16110D01*
X50278Y-16110D01*
X50125Y-15957D01*
X49995Y-15870D01*
X49970Y-15865D01*
X49842Y-15840D01*
X47839Y-15840D01*
X47839Y-15097D01*
X47755Y-14895D01*
X47601Y-14740D01*
X47399Y-14656D01*
X47180Y-14656D01*
X46978Y-14740D01*
X46823Y-14894D01*
X46789Y-14976D01*
X46755Y-14895D01*
X46601Y-14740D01*
X46399Y-14656D01*
X46180Y-14656D01*
X45978Y-14740D01*
X45823Y-14894D01*
X45789Y-14976D01*
X45755Y-14895D01*
X45601Y-14740D01*
X45399Y-14656D01*
X45180Y-14656D01*
X44978Y-14740D01*
X44823Y-14894D01*
X44739Y-15096D01*
X44739Y-15315D01*
X44822Y-15517D01*
X44977Y-15672D01*
X45179Y-15756D01*
X45398Y-15756D01*
X45600Y-15673D01*
X45755Y-15518D01*
X45789Y-15436D01*
X45822Y-15517D01*
X45977Y-15672D01*
X46179Y-15756D01*
X46398Y-15756D01*
X46600Y-15673D01*
X46755Y-15518D01*
X46789Y-15436D01*
X46822Y-15517D01*
X46977Y-15672D01*
X47179Y-15756D01*
X47398Y-15756D01*
X47600Y-15673D01*
X47755Y-15518D01*
X47839Y-15316D01*
X47839Y-15097D01*
X47839Y-15840D01*
X47411Y-15840D01*
X47258Y-15870D01*
X47215Y-15899D01*
X47128Y-15957D01*
X46705Y-16380D01*
X46618Y-16510D01*
X46613Y-16535D01*
X46588Y-16663D01*
X46588Y-16882D01*
X46563Y-16942D01*
X46563Y-17111D01*
X46627Y-17267D01*
X46747Y-17387D01*
X46903Y-17452D01*
X47072Y-17452D01*
X47228Y-17388D01*
X47348Y-17268D01*
X47413Y-17112D01*
X47413Y-16943D01*
X47388Y-16882D01*
X47388Y-16829D01*
X47577Y-16640D01*
X48518Y-16640D01*
X48514Y-16641D01*
X48441Y-16847D01*
X48452Y-17065D01*
X48514Y-17216D01*
X48610Y-17244D01*
X48925Y-16929D01*
X48919Y-16923D01*
X48990Y-16852D01*
X48996Y-16858D01*
X49001Y-16852D01*
X49072Y-16923D01*
X49066Y-16929D01*
X49381Y-17244D01*
X49477Y-17216D01*
X49497Y-17161D01*
X49529Y-17240D01*
X49596Y-17306D01*
X49596Y-17929D01*
X49530Y-17995D01*
X49496Y-18076D01*
X49462Y-17995D01*
X49311Y-17844D01*
X49311Y-17315D01*
X48996Y-16999D01*
X48680Y-17315D01*
X48708Y-17410D01*
X48914Y-17483D01*
X49132Y-17472D01*
X49283Y-17410D01*
X49311Y-17315D01*
X49311Y-17844D01*
X49308Y-17841D01*
X49105Y-17757D01*
X48887Y-17756D01*
X48684Y-17840D01*
X48530Y-17995D01*
X48498Y-18070D01*
X48477Y-18019D01*
X48381Y-17991D01*
X48311Y-18062D01*
X48311Y-17921D01*
X48283Y-17825D01*
X48077Y-17752D01*
X47859Y-17763D01*
X47708Y-17825D01*
X47680Y-17921D01*
X47996Y-18236D01*
X48311Y-17921D01*
X48311Y-18062D01*
X48066Y-18307D01*
X48381Y-18622D01*
X48477Y-18594D01*
X48497Y-18539D01*
X48529Y-18618D01*
X48684Y-18773D01*
X48886Y-18856D01*
X49104Y-18857D01*
X49307Y-18773D01*
X49462Y-18619D01*
X49496Y-18537D01*
X49529Y-18618D01*
X49684Y-18773D01*
X49886Y-18856D01*
X50104Y-18857D01*
X50307Y-18773D01*
X50462Y-18619D01*
X50545Y-18416D01*
X50546Y-18198D01*
X50546Y-24600D01*
X49977Y-24600D01*
X49975Y-24591D01*
X49975Y-24591D01*
X49889Y-24461D01*
X49889Y-24461D01*
X49456Y-24028D01*
X49326Y-23941D01*
X49300Y-23936D01*
X49173Y-23911D01*
X48592Y-23911D01*
X48592Y-21535D01*
X48592Y-21534D01*
X48530Y-21472D01*
X48483Y-21472D01*
X48483Y-21471D01*
X48554Y-21401D01*
X48592Y-21309D01*
X48592Y-21309D01*
X48592Y-21309D01*
X48592Y-21309D01*
X48592Y-21259D01*
X48592Y-21210D01*
X48592Y-21209D01*
X48592Y-21209D01*
X48592Y-21209D01*
X48554Y-21118D01*
X48483Y-21047D01*
X48483Y-21047D01*
X48530Y-21047D01*
X48592Y-20984D01*
X48592Y-20984D01*
X48592Y-20885D01*
X48554Y-20793D01*
X48483Y-20722D01*
X48392Y-20684D01*
X48311Y-20685D01*
X48311Y-18692D01*
X47996Y-18377D01*
X47925Y-18448D01*
X47925Y-18307D01*
X47610Y-17991D01*
X47514Y-18019D01*
X47441Y-18225D01*
X47452Y-18443D01*
X47514Y-18594D01*
X47610Y-18622D01*
X47925Y-18307D01*
X47925Y-18448D01*
X47680Y-18692D01*
X47708Y-18788D01*
X47914Y-18861D01*
X48132Y-18850D01*
X48283Y-18788D01*
X48311Y-18692D01*
X48311Y-20685D01*
X48293Y-20685D01*
X48231Y-20747D01*
X48231Y-20788D01*
X48165Y-20722D01*
X48073Y-20684D01*
X48024Y-20685D01*
X47970Y-20684D01*
X47878Y-20722D01*
X47874Y-20727D01*
X47869Y-20722D01*
X47777Y-20684D01*
X47723Y-20685D01*
X47674Y-20684D01*
X47582Y-20722D01*
X47516Y-20788D01*
X47516Y-20747D01*
X47454Y-20685D01*
X47356Y-20684D01*
X47264Y-20722D01*
X47193Y-20793D01*
X47155Y-20885D01*
X47155Y-20984D01*
X47155Y-20984D01*
X47218Y-21047D01*
X47264Y-21047D01*
X47264Y-21047D01*
X47193Y-21118D01*
X47155Y-21209D01*
X47155Y-21209D01*
X47155Y-21209D01*
X47155Y-21210D01*
X47155Y-21259D01*
X47155Y-21309D01*
X47155Y-21309D01*
X47155Y-21309D01*
X47155Y-21309D01*
X47193Y-21401D01*
X47264Y-21471D01*
X47264Y-21472D01*
X47218Y-21472D01*
X47155Y-21534D01*
X47155Y-21535D01*
X47155Y-21634D01*
X47193Y-21726D01*
X47264Y-21796D01*
X47356Y-21834D01*
X47454Y-21834D01*
X47516Y-21772D01*
X47516Y-21730D01*
X47582Y-21796D01*
X47674Y-21834D01*
X47723Y-21834D01*
X47777Y-21834D01*
X47869Y-21796D01*
X47874Y-21792D01*
X47878Y-21796D01*
X47970Y-21834D01*
X48024Y-21834D01*
X48073Y-21834D01*
X48165Y-21796D01*
X48231Y-21730D01*
X48231Y-21772D01*
X48293Y-21834D01*
X48392Y-21834D01*
X48483Y-21796D01*
X48554Y-21726D01*
X48592Y-21634D01*
X48592Y-21535D01*
X48592Y-23911D01*
X46584Y-23911D01*
X46431Y-23941D01*
X46388Y-23970D01*
X46301Y-24028D01*
X45641Y-24688D01*
X45047Y-24688D01*
X45112Y-24661D01*
X45232Y-24542D01*
X45296Y-24386D01*
X45297Y-24217D01*
X45272Y-24156D01*
X45272Y-23964D01*
X45893Y-23343D01*
X45893Y-23343D01*
X45951Y-23257D01*
X45979Y-23214D01*
X45979Y-23214D01*
X46010Y-23061D01*
X46010Y-23061D01*
X46010Y-19918D01*
X46035Y-19858D01*
X46035Y-19689D01*
X46010Y-19628D01*
X46010Y-18914D01*
X46035Y-18854D01*
X46035Y-18685D01*
X45970Y-18529D01*
X45851Y-18409D01*
X45695Y-18344D01*
X45526Y-18344D01*
X45369Y-18409D01*
X45250Y-18528D01*
X45185Y-18684D01*
X45185Y-18853D01*
X45210Y-18914D01*
X45210Y-19628D01*
X45185Y-19688D01*
X45185Y-19857D01*
X45210Y-19918D01*
X45210Y-22895D01*
X44658Y-23446D01*
X44658Y-17124D01*
X44438Y-16591D01*
X44031Y-16182D01*
X43498Y-15961D01*
X42921Y-15961D01*
X42388Y-16181D01*
X41980Y-16588D01*
X41758Y-17121D01*
X41758Y-17698D01*
X41978Y-18231D01*
X42386Y-18639D01*
X42918Y-18861D01*
X43495Y-18861D01*
X44028Y-18641D01*
X44437Y-18233D01*
X44658Y-17701D01*
X44658Y-17124D01*
X44658Y-23446D01*
X44589Y-23516D01*
X44502Y-23646D01*
X44497Y-23671D01*
X44472Y-23799D01*
X44472Y-24156D01*
X44447Y-24216D01*
X44446Y-24385D01*
X44511Y-24541D01*
X44630Y-24661D01*
X44696Y-24688D01*
X42625Y-24688D01*
X42565Y-24663D01*
X42396Y-24663D01*
X42239Y-24728D01*
X42120Y-24847D01*
X42055Y-25003D01*
X42055Y-25172D01*
X42119Y-25329D01*
X42239Y-25448D01*
X42395Y-25513D01*
X42564Y-25513D01*
X42625Y-25488D01*
X45807Y-25488D01*
X45807Y-25488D01*
X45934Y-25463D01*
X45960Y-25458D01*
X45960Y-25458D01*
X46089Y-25371D01*
X46750Y-24711D01*
X47755Y-24711D01*
X47717Y-24801D01*
X47717Y-25020D01*
X47801Y-25222D01*
X47955Y-25377D01*
X48157Y-25461D01*
X48376Y-25461D01*
X48578Y-25377D01*
X48733Y-25223D01*
X48817Y-25021D01*
X48817Y-24802D01*
X48780Y-24711D01*
X49007Y-24711D01*
X49190Y-24893D01*
X49181Y-24915D01*
X49181Y-25084D01*
X49245Y-25240D01*
X49365Y-25360D01*
X49521Y-25424D01*
X49690Y-25425D01*
X49751Y-25400D01*
X50750Y-25400D01*
X50810Y-25424D01*
X50900Y-25425D01*
X50900Y-25859D01*
X50318Y-26441D01*
X50324Y-26427D01*
X50324Y-26426D01*
X50324Y-26426D01*
X50324Y-26427D01*
X50324Y-26377D01*
X50324Y-26328D01*
X50324Y-26329D01*
X50324Y-26328D01*
X50324Y-26328D01*
X50286Y-26236D01*
X50216Y-26166D01*
X50262Y-26166D01*
X50324Y-26104D01*
X50324Y-26104D01*
X50324Y-26005D01*
X50286Y-25913D01*
X50216Y-25843D01*
X50124Y-25805D01*
X50025Y-25805D01*
X49963Y-25867D01*
X49963Y-25908D01*
X49897Y-25843D01*
X49805Y-25805D01*
X49757Y-25805D01*
X49702Y-25805D01*
X49610Y-25843D01*
X49606Y-25847D01*
X49602Y-25843D01*
X49510Y-25805D01*
X49455Y-25805D01*
X49407Y-25805D01*
X49315Y-25843D01*
X49249Y-25908D01*
X49249Y-25867D01*
X49186Y-25805D01*
X49088Y-25805D01*
X48996Y-25843D01*
X48925Y-25913D01*
X48887Y-26005D01*
X48887Y-26104D01*
X48887Y-26104D01*
X48950Y-26166D01*
X48995Y-26166D01*
X48925Y-26236D01*
X48895Y-26308D01*
X48805Y-26248D01*
X48690Y-26225D01*
X43848Y-26225D01*
X43733Y-26248D01*
X43636Y-26313D01*
X43350Y-26598D01*
X43285Y-26696D01*
X43262Y-26811D01*
X43262Y-27179D01*
X43202Y-27239D01*
X43138Y-27395D01*
X43137Y-27564D01*
X43202Y-27720D01*
X43321Y-27840D01*
X43478Y-27905D01*
X43647Y-27905D01*
X43803Y-27840D01*
X43923Y-27721D01*
X43987Y-27565D01*
X43988Y-27396D01*
X43923Y-27239D01*
X43862Y-27179D01*
X43862Y-26935D01*
X43972Y-26825D01*
X48566Y-26825D01*
X48842Y-27101D01*
X48842Y-27101D01*
X48940Y-27166D01*
X49055Y-27189D01*
X50295Y-27189D01*
X50295Y-27189D01*
X50410Y-27166D01*
X50410Y-27166D01*
X50507Y-27101D01*
X51412Y-26196D01*
X51412Y-26196D01*
X51477Y-26099D01*
X51500Y-25984D01*
X51500Y-25984D01*
X51500Y-23096D01*
X55202Y-19395D01*
X55202Y-19395D01*
X55267Y-19297D01*
X55290Y-19183D01*
X55290Y-19183D01*
X55290Y-10490D01*
X55534Y-10245D01*
X55534Y-10380D01*
X55555Y-10432D01*
X55420Y-10591D01*
X55398Y-10632D01*
X55372Y-10670D01*
X55370Y-10682D01*
X55363Y-10693D01*
X55358Y-10739D01*
X55349Y-10785D01*
X55349Y-19775D01*
X51660Y-23388D01*
X51659Y-23389D01*
X51657Y-23390D01*
X51626Y-23437D01*
X51594Y-23484D01*
X51593Y-23486D01*
X51592Y-23487D01*
X51581Y-23543D01*
X51570Y-23599D01*
X51570Y-23600D01*
X51570Y-23602D01*
X51570Y-26440D01*
X50643Y-27367D01*
X48716Y-27367D01*
X48420Y-27071D01*
X48323Y-27006D01*
X48208Y-26983D01*
X45452Y-26983D01*
X45337Y-27006D01*
X45240Y-27071D01*
X43793Y-28518D01*
X43456Y-28518D01*
X43456Y-28439D01*
X43392Y-28283D01*
X43272Y-28163D01*
X43116Y-28098D01*
X42947Y-28098D01*
X42791Y-28163D01*
X42730Y-28223D01*
X42555Y-28223D01*
X41717Y-27385D01*
X41717Y-25606D01*
X41777Y-25546D01*
X41842Y-25390D01*
X41842Y-25220D01*
X41777Y-25064D01*
X41658Y-24945D01*
X41573Y-24909D01*
X41573Y-20378D01*
X41569Y-20285D01*
X41569Y-19189D01*
X41486Y-18989D01*
X41395Y-18897D01*
X41485Y-18807D01*
X41569Y-18606D01*
X41569Y-18389D01*
X41486Y-18189D01*
X41333Y-18035D01*
X41241Y-17997D01*
X41332Y-17960D01*
X41485Y-17807D01*
X41569Y-17606D01*
X41569Y-17389D01*
X41486Y-17189D01*
X41333Y-17035D01*
X41132Y-16952D01*
X40915Y-16952D01*
X40817Y-16992D01*
X40817Y-16248D01*
X40810Y-15914D01*
X40695Y-15635D01*
X40569Y-15572D01*
X40044Y-16097D01*
X40569Y-16622D01*
X40695Y-16560D01*
X40817Y-16248D01*
X40817Y-16992D01*
X40715Y-17034D01*
X40561Y-17188D01*
X40498Y-17338D01*
X40498Y-16693D01*
X39973Y-16168D01*
X39448Y-16693D01*
X39511Y-16819D01*
X39822Y-16941D01*
X40156Y-16934D01*
X40436Y-16819D01*
X40498Y-16693D01*
X40498Y-17338D01*
X40478Y-17388D01*
X40478Y-17605D01*
X40560Y-17806D01*
X40714Y-17959D01*
X40805Y-17997D01*
X40715Y-18034D01*
X40561Y-18188D01*
X40478Y-18388D01*
X40478Y-18605D01*
X40560Y-18806D01*
X40652Y-18897D01*
X40561Y-18988D01*
X40478Y-19188D01*
X40478Y-19405D01*
X40560Y-19606D01*
X40714Y-19759D01*
X40799Y-19795D01*
X40738Y-19820D01*
X40711Y-19914D01*
X41023Y-20226D01*
X41335Y-19914D01*
X41308Y-19820D01*
X41243Y-19796D01*
X41332Y-19760D01*
X41485Y-19607D01*
X41569Y-19406D01*
X41569Y-19189D01*
X41569Y-20285D01*
X41562Y-20161D01*
X41501Y-20012D01*
X41406Y-19985D01*
X41094Y-20297D01*
X41406Y-20609D01*
X41501Y-20582D01*
X41573Y-20378D01*
X41573Y-24909D01*
X41502Y-24880D01*
X41335Y-24880D01*
X41335Y-20680D01*
X41023Y-20368D01*
X40952Y-20439D01*
X40952Y-20297D01*
X40640Y-19985D01*
X40546Y-20012D01*
X40473Y-20216D01*
X40484Y-20433D01*
X40546Y-20582D01*
X40640Y-20609D01*
X40952Y-20297D01*
X40952Y-20439D01*
X40711Y-20680D01*
X40738Y-20775D01*
X40942Y-20847D01*
X41159Y-20836D01*
X41308Y-20775D01*
X41335Y-20680D01*
X41335Y-24880D01*
X41333Y-24880D01*
X41176Y-24944D01*
X41116Y-25005D01*
X40817Y-25005D01*
X40817Y-21648D01*
X40810Y-21314D01*
X40695Y-21035D01*
X40569Y-20972D01*
X40498Y-21043D01*
X40498Y-20901D01*
X40436Y-20776D01*
X40124Y-20654D01*
X39790Y-20660D01*
X39511Y-20776D01*
X39448Y-20901D01*
X39973Y-21426D01*
X40498Y-20901D01*
X40498Y-21043D01*
X40044Y-21497D01*
X40569Y-22022D01*
X40695Y-21960D01*
X40817Y-21648D01*
X40817Y-25005D01*
X40508Y-25005D01*
X40498Y-24995D01*
X40498Y-22093D01*
X39973Y-21568D01*
X39902Y-21639D01*
X39902Y-21497D01*
X39377Y-20972D01*
X39252Y-21035D01*
X39130Y-21346D01*
X39136Y-21680D01*
X39252Y-21960D01*
X39377Y-22022D01*
X39902Y-21497D01*
X39902Y-21639D01*
X39448Y-22093D01*
X39511Y-22219D01*
X39822Y-22341D01*
X40156Y-22334D01*
X40436Y-22219D01*
X40498Y-22093D01*
X40498Y-24995D01*
X39118Y-23615D01*
X39118Y-15872D01*
X39185Y-15806D01*
X39130Y-15946D01*
X39136Y-16280D01*
X39252Y-16560D01*
X39377Y-16622D01*
X39902Y-16097D01*
X39897Y-16092D01*
X39968Y-16021D01*
X39973Y-16026D01*
X40498Y-15501D01*
X40436Y-15376D01*
X40124Y-15254D01*
X39790Y-15260D01*
X39688Y-15302D01*
X39809Y-15181D01*
X42381Y-15181D01*
X42381Y-15181D01*
X42496Y-15159D01*
X42496Y-15159D01*
X42594Y-15094D01*
X48697Y-8990D01*
X51939Y-8990D01*
X51858Y-9024D01*
X51824Y-9125D01*
X52176Y-9476D01*
X52527Y-9125D01*
X52494Y-9024D01*
X52401Y-8990D01*
X53139Y-8990D01*
X53139Y-8990D01*
X53254Y-8968D01*
X53254Y-8968D01*
X53351Y-8903D01*
X53683Y-8571D01*
X55613Y-8571D01*
X55618Y-8582D01*
X55772Y-8737D01*
X55854Y-8771D01*
X55854Y-8771D01*
G37*
G54D30*
X55854Y-8771D02*
X55773Y-8805D01*
X55618Y-8959D01*
X55534Y-9161D01*
X55534Y-9380D01*
X55539Y-9392D01*
X54865Y-10066D01*
X54794Y-9996D01*
X54556Y-9897D01*
X54424Y-9897D01*
X54434Y-9887D01*
X54526Y-9667D01*
X54526Y-9428D01*
X54435Y-9207D01*
X54266Y-9038D01*
X54046Y-8947D01*
X53807Y-8947D01*
X53586Y-9038D01*
X53417Y-9206D01*
X53326Y-9427D01*
X53326Y-9666D01*
X53417Y-9886D01*
X53585Y-10055D01*
X53806Y-10147D01*
X53906Y-10147D01*
X53875Y-10178D01*
X53776Y-10417D01*
X53776Y-10675D01*
X53833Y-10814D01*
X53671Y-10747D01*
X53432Y-10747D01*
X53211Y-10838D01*
X53042Y-11006D01*
X53038Y-11017D01*
X52973Y-10995D01*
X52621Y-11347D01*
X52973Y-11698D01*
X53038Y-11677D01*
X53042Y-11686D01*
X53210Y-11855D01*
X53352Y-11914D01*
X53326Y-11977D01*
X53326Y-12216D01*
X53417Y-12436D01*
X53585Y-12605D01*
X53626Y-12622D01*
X53626Y-17317D01*
X52902Y-18041D01*
X52902Y-11769D01*
X52551Y-11417D01*
X52545Y-11423D01*
X52474Y-11352D01*
X52480Y-11347D01*
X52474Y-11341D01*
X52545Y-11270D01*
X52551Y-11276D01*
X52902Y-10925D01*
X52869Y-10824D01*
X52780Y-10792D01*
X52780Y-9640D01*
X52770Y-9402D01*
X52698Y-9229D01*
X52598Y-9195D01*
X52246Y-9547D01*
X52598Y-9898D01*
X52698Y-9865D01*
X52780Y-9640D01*
X52780Y-10792D01*
X52644Y-10742D01*
X52406Y-10752D01*
X52271Y-10808D01*
X52326Y-10677D01*
X52326Y-10418D01*
X52227Y-10179D01*
X52195Y-10146D01*
X52320Y-10141D01*
X52494Y-10069D01*
X52527Y-9969D01*
X52176Y-9617D01*
X52170Y-9623D01*
X52099Y-9552D01*
X52105Y-9547D01*
X51754Y-9195D01*
X51653Y-9229D01*
X51571Y-9453D01*
X51581Y-9692D01*
X51653Y-9865D01*
X51750Y-9897D01*
X51547Y-9897D01*
X51308Y-9995D01*
X51125Y-10178D01*
X51026Y-10417D01*
X51026Y-10675D01*
X51124Y-10914D01*
X51307Y-11097D01*
X51546Y-11197D01*
X51804Y-11197D01*
X51995Y-11118D01*
X51946Y-11253D01*
X51956Y-11492D01*
X51971Y-11527D01*
X51858Y-11574D01*
X51824Y-11675D01*
X52176Y-12026D01*
X52181Y-12020D01*
X52252Y-12091D01*
X52246Y-12097D01*
X52598Y-12448D01*
X52698Y-12415D01*
X52780Y-12190D01*
X52770Y-11952D01*
X52755Y-11916D01*
X52869Y-11869D01*
X52902Y-11769D01*
X52902Y-18041D01*
X52527Y-18416D01*
X52527Y-12519D01*
X52176Y-12167D01*
X52105Y-12238D01*
X52105Y-12097D01*
X51754Y-11745D01*
X51653Y-11779D01*
X51571Y-12003D01*
X51581Y-12242D01*
X51653Y-12415D01*
X51754Y-12448D01*
X52105Y-12097D01*
X52105Y-12238D01*
X51824Y-12519D01*
X51858Y-12619D01*
X52082Y-12701D01*
X52320Y-12691D01*
X52494Y-12619D01*
X52527Y-12519D01*
X52527Y-18416D01*
X52421Y-18521D01*
X52337Y-18521D01*
X52180Y-18586D01*
X52061Y-18705D01*
X51996Y-18861D01*
X51996Y-19031D01*
X52060Y-19187D01*
X52180Y-19306D01*
X52336Y-19371D01*
X52505Y-19371D01*
X52661Y-19307D01*
X52781Y-19187D01*
X52846Y-19031D01*
X52846Y-18946D01*
X54138Y-17654D01*
X54138Y-17654D01*
X54203Y-17556D01*
X54226Y-17441D01*
X54226Y-17441D01*
X54226Y-12622D01*
X54265Y-12606D01*
X54434Y-12437D01*
X54526Y-12217D01*
X54526Y-11978D01*
X54435Y-11757D01*
X54266Y-11588D01*
X54124Y-11530D01*
X54151Y-11467D01*
X54151Y-11228D01*
X54105Y-11117D01*
X54296Y-11197D01*
X54554Y-11197D01*
X54690Y-11141D01*
X54690Y-19058D01*
X50988Y-22760D01*
X50923Y-22857D01*
X50900Y-22972D01*
X50900Y-24575D01*
X50811Y-24574D01*
X50750Y-24600D01*
X50661Y-24600D01*
X50661Y-11567D01*
X50661Y-10071D01*
X50650Y-9853D01*
X50587Y-9702D01*
X50492Y-9674D01*
X50421Y-9745D01*
X50421Y-9604D01*
X50394Y-9508D01*
X50188Y-9435D01*
X49969Y-9446D01*
X49818Y-9508D01*
X49791Y-9604D01*
X50106Y-9919D01*
X50421Y-9604D01*
X50421Y-9745D01*
X50177Y-9990D01*
X50492Y-10305D01*
X50587Y-10278D01*
X50661Y-10071D01*
X50661Y-11567D01*
X50650Y-11349D01*
X50587Y-11198D01*
X50492Y-11171D01*
X50421Y-11241D01*
X50421Y-11100D01*
X50421Y-10376D01*
X50106Y-10060D01*
X50035Y-10131D01*
X50035Y-9990D01*
X49720Y-9674D01*
X49625Y-9702D01*
X49605Y-9757D01*
X49572Y-9679D01*
X49418Y-9524D01*
X49216Y-9440D01*
X48997Y-9440D01*
X48795Y-9523D01*
X48640Y-9678D01*
X48556Y-9880D01*
X48556Y-10099D01*
X48639Y-10301D01*
X48794Y-10456D01*
X48996Y-10540D01*
X49215Y-10540D01*
X49417Y-10456D01*
X49572Y-10302D01*
X49603Y-10226D01*
X49625Y-10278D01*
X49720Y-10305D01*
X50035Y-9990D01*
X50035Y-10131D01*
X49791Y-10376D01*
X49818Y-10471D01*
X50024Y-10544D01*
X50243Y-10534D01*
X50394Y-10471D01*
X50421Y-10376D01*
X50421Y-11100D01*
X50394Y-11004D01*
X50188Y-10931D01*
X49969Y-10942D01*
X49818Y-11004D01*
X49791Y-11100D01*
X50106Y-11415D01*
X50421Y-11100D01*
X50421Y-11241D01*
X50177Y-11486D01*
X50492Y-11801D01*
X50587Y-11774D01*
X50661Y-11567D01*
X50661Y-24600D01*
X50546Y-24600D01*
X50546Y-18198D01*
X50462Y-17995D01*
X50396Y-17929D01*
X50396Y-17306D01*
X50462Y-17241D01*
X50545Y-17039D01*
X50546Y-16820D01*
X50462Y-16617D01*
X50421Y-16576D01*
X50421Y-11872D01*
X50106Y-11556D01*
X50035Y-11627D01*
X50035Y-11486D01*
X49720Y-11171D01*
X49625Y-11198D01*
X49605Y-11253D01*
X49572Y-11175D01*
X49418Y-11020D01*
X49216Y-10936D01*
X48997Y-10936D01*
X48795Y-11019D01*
X48640Y-11174D01*
X48556Y-11376D01*
X48556Y-11595D01*
X48639Y-11797D01*
X48794Y-11952D01*
X48996Y-12036D01*
X49215Y-12036D01*
X49417Y-11952D01*
X49572Y-11798D01*
X49603Y-11722D01*
X49625Y-11774D01*
X49720Y-11801D01*
X50035Y-11486D01*
X50035Y-11627D01*
X49791Y-11872D01*
X49818Y-11967D01*
X50024Y-12041D01*
X50243Y-12030D01*
X50394Y-11967D01*
X50421Y-11872D01*
X50421Y-16576D01*
X50396Y-16551D01*
X50396Y-16393D01*
X50365Y-16240D01*
X50365Y-16240D01*
X50336Y-16197D01*
X50278Y-16110D01*
X50278Y-16110D01*
X50125Y-15957D01*
X49995Y-15870D01*
X49970Y-15865D01*
X49842Y-15840D01*
X47839Y-15840D01*
X47839Y-15097D01*
X47755Y-14895D01*
X47601Y-14740D01*
X47399Y-14656D01*
X47180Y-14656D01*
X46978Y-14740D01*
X46823Y-14894D01*
X46789Y-14976D01*
X46755Y-14895D01*
X46601Y-14740D01*
X46399Y-14656D01*
X46180Y-14656D01*
X45978Y-14740D01*
X45823Y-14894D01*
X45789Y-14976D01*
X45755Y-14895D01*
X45601Y-14740D01*
X45399Y-14656D01*
X45180Y-14656D01*
X44978Y-14740D01*
X44823Y-14894D01*
X44739Y-15096D01*
X44739Y-15315D01*
X44822Y-15517D01*
X44977Y-15672D01*
X45179Y-15756D01*
X45398Y-15756D01*
X45600Y-15673D01*
X45755Y-15518D01*
X45789Y-15436D01*
X45822Y-15517D01*
X45977Y-15672D01*
X46179Y-15756D01*
X46398Y-15756D01*
X46600Y-15673D01*
X46755Y-15518D01*
X46789Y-15436D01*
X46822Y-15517D01*
X46977Y-15672D01*
X47179Y-15756D01*
X47398Y-15756D01*
X47600Y-15673D01*
X47755Y-15518D01*
X47839Y-15316D01*
X47839Y-15097D01*
X47839Y-15840D01*
X47411Y-15840D01*
X47258Y-15870D01*
X47215Y-15899D01*
X47128Y-15957D01*
X46705Y-16380D01*
X46618Y-16510D01*
X46613Y-16535D01*
X46588Y-16663D01*
X46588Y-16882D01*
X46563Y-16942D01*
X46563Y-17111D01*
X46627Y-17267D01*
X46747Y-17387D01*
X46903Y-17452D01*
X47072Y-17452D01*
X47228Y-17388D01*
X47348Y-17268D01*
X47413Y-17112D01*
X47413Y-16943D01*
X47388Y-16882D01*
X47388Y-16829D01*
X47577Y-16640D01*
X48518Y-16640D01*
X48514Y-16641D01*
X48441Y-16847D01*
X48452Y-17065D01*
X48514Y-17216D01*
X48610Y-17244D01*
X48925Y-16929D01*
X48919Y-16923D01*
X48990Y-16852D01*
X48996Y-16858D01*
X49001Y-16852D01*
X49072Y-16923D01*
X49066Y-16929D01*
X49381Y-17244D01*
X49477Y-17216D01*
X49497Y-17161D01*
X49529Y-17240D01*
X49596Y-17306D01*
X49596Y-17929D01*
X49530Y-17995D01*
X49496Y-18076D01*
X49462Y-17995D01*
X49311Y-17844D01*
X49311Y-17315D01*
X48996Y-16999D01*
X48680Y-17315D01*
X48708Y-17410D01*
X48914Y-17483D01*
X49132Y-17472D01*
X49283Y-17410D01*
X49311Y-17315D01*
X49311Y-17844D01*
X49308Y-17841D01*
X49105Y-17757D01*
X48887Y-17756D01*
X48684Y-17840D01*
X48530Y-17995D01*
X48498Y-18070D01*
X48477Y-18019D01*
X48381Y-17991D01*
X48311Y-18062D01*
X48311Y-17921D01*
X48283Y-17825D01*
X48077Y-17752D01*
X47859Y-17763D01*
X47708Y-17825D01*
X47680Y-17921D01*
X47996Y-18236D01*
X48311Y-17921D01*
X48311Y-18062D01*
X48066Y-18307D01*
X48381Y-18622D01*
X48477Y-18594D01*
X48497Y-18539D01*
X48529Y-18618D01*
X48684Y-18773D01*
X48886Y-18856D01*
X49104Y-18857D01*
X49307Y-18773D01*
X49462Y-18619D01*
X49496Y-18537D01*
X49529Y-18618D01*
X49684Y-18773D01*
X49886Y-18856D01*
X50104Y-18857D01*
X50307Y-18773D01*
X50462Y-18619D01*
X50545Y-18416D01*
X50546Y-18198D01*
X50546Y-24600D01*
X49977Y-24600D01*
X49975Y-24591D01*
X49975Y-24591D01*
X49889Y-24461D01*
X49889Y-24461D01*
X49456Y-24028D01*
X49326Y-23941D01*
X49300Y-23936D01*
X49173Y-23911D01*
X48592Y-23911D01*
X48592Y-21535D01*
X48592Y-21534D01*
X48530Y-21472D01*
X48483Y-21472D01*
X48483Y-21471D01*
X48554Y-21401D01*
X48592Y-21309D01*
X48592Y-21309D01*
X48592Y-21309D01*
X48592Y-21309D01*
X48592Y-21259D01*
X48592Y-21210D01*
X48592Y-21209D01*
X48592Y-21209D01*
X48592Y-21209D01*
X48554Y-21118D01*
X48483Y-21047D01*
X48483Y-21047D01*
X48530Y-21047D01*
X48592Y-20984D01*
X48592Y-20984D01*
X48592Y-20885D01*
X48554Y-20793D01*
X48483Y-20722D01*
X48392Y-20684D01*
X48311Y-20685D01*
X48311Y-18692D01*
X47996Y-18377D01*
X47925Y-18448D01*
X47925Y-18307D01*
X47610Y-17991D01*
X47514Y-18019D01*
X47441Y-18225D01*
X47452Y-18443D01*
X47514Y-18594D01*
X47610Y-18622D01*
X47925Y-18307D01*
X47925Y-18448D01*
X47680Y-18692D01*
X47708Y-18788D01*
X47914Y-18861D01*
X48132Y-18850D01*
X48283Y-18788D01*
X48311Y-18692D01*
X48311Y-20685D01*
X48293Y-20685D01*
X48231Y-20747D01*
X48231Y-20788D01*
X48165Y-20722D01*
X48073Y-20684D01*
X48024Y-20685D01*
X47970Y-20684D01*
X47878Y-20722D01*
X47874Y-20727D01*
X47869Y-20722D01*
X47777Y-20684D01*
X47723Y-20685D01*
X47674Y-20684D01*
X47582Y-20722D01*
X47516Y-20788D01*
X47516Y-20747D01*
X47454Y-20685D01*
X47356Y-20684D01*
X47264Y-20722D01*
X47193Y-20793D01*
X47155Y-20885D01*
X47155Y-20984D01*
X47155Y-20984D01*
X47218Y-21047D01*
X47264Y-21047D01*
X47264Y-21047D01*
X47193Y-21118D01*
X47155Y-21209D01*
X47155Y-21209D01*
X47155Y-21209D01*
X47155Y-21210D01*
X47155Y-21259D01*
X47155Y-21309D01*
X47155Y-21309D01*
X47155Y-21309D01*
X47155Y-21309D01*
X47193Y-21401D01*
X47264Y-21471D01*
X47264Y-21472D01*
X47218Y-21472D01*
X47155Y-21534D01*
X47155Y-21535D01*
X47155Y-21634D01*
X47193Y-21726D01*
X47264Y-21796D01*
X47356Y-21834D01*
X47454Y-21834D01*
X47516Y-21772D01*
X47516Y-21730D01*
X47582Y-21796D01*
X47674Y-21834D01*
X47723Y-21834D01*
X47777Y-21834D01*
X47869Y-21796D01*
X47874Y-21792D01*
X47878Y-21796D01*
X47970Y-21834D01*
X48024Y-21834D01*
X48073Y-21834D01*
X48165Y-21796D01*
X48231Y-21730D01*
X48231Y-21772D01*
X48293Y-21834D01*
X48392Y-21834D01*
X48483Y-21796D01*
X48554Y-21726D01*
X48592Y-21634D01*
X48592Y-21535D01*
X48592Y-23911D01*
X46584Y-23911D01*
X46431Y-23941D01*
X46388Y-23970D01*
X46301Y-24028D01*
X45641Y-24688D01*
X45047Y-24688D01*
X45112Y-24661D01*
X45232Y-24542D01*
X45296Y-24386D01*
X45297Y-24217D01*
X45272Y-24156D01*
X45272Y-23964D01*
X45893Y-23343D01*
X45893Y-23343D01*
X45951Y-23257D01*
X45979Y-23214D01*
X45979Y-23214D01*
X46010Y-23061D01*
X46010Y-23061D01*
X46010Y-19918D01*
X46035Y-19858D01*
X46035Y-19689D01*
X46010Y-19628D01*
X46010Y-18914D01*
X46035Y-18854D01*
X46035Y-18685D01*
X45970Y-18529D01*
X45851Y-18409D01*
X45695Y-18344D01*
X45526Y-18344D01*
X45369Y-18409D01*
X45250Y-18528D01*
X45185Y-18684D01*
X45185Y-18853D01*
X45210Y-18914D01*
X45210Y-19628D01*
X45185Y-19688D01*
X45185Y-19857D01*
X45210Y-19918D01*
X45210Y-22895D01*
X44658Y-23446D01*
X44658Y-17124D01*
X44438Y-16591D01*
X44031Y-16182D01*
X43498Y-15961D01*
X42921Y-15961D01*
X42388Y-16181D01*
X41980Y-16588D01*
X41758Y-17121D01*
X41758Y-17698D01*
X41978Y-18231D01*
X42386Y-18639D01*
X42918Y-18861D01*
X43495Y-18861D01*
X44028Y-18641D01*
X44437Y-18233D01*
X44658Y-17701D01*
X44658Y-17124D01*
X44658Y-23446D01*
X44589Y-23516D01*
X44502Y-23646D01*
X44497Y-23671D01*
X44472Y-23799D01*
X44472Y-24156D01*
X44447Y-24216D01*
X44446Y-24385D01*
X44511Y-24541D01*
X44630Y-24661D01*
X44696Y-24688D01*
X42625Y-24688D01*
X42565Y-24663D01*
X42396Y-24663D01*
X42239Y-24728D01*
X42120Y-24847D01*
X42055Y-25003D01*
X42055Y-25172D01*
X42119Y-25329D01*
X42239Y-25448D01*
X42395Y-25513D01*
X42564Y-25513D01*
X42625Y-25488D01*
X45807Y-25488D01*
X45807Y-25488D01*
X45934Y-25463D01*
X45960Y-25458D01*
X45960Y-25458D01*
X46089Y-25371D01*
X46750Y-24711D01*
X47755Y-24711D01*
X47717Y-24801D01*
X47717Y-25020D01*
X47801Y-25222D01*
X47955Y-25377D01*
X48157Y-25461D01*
X48376Y-25461D01*
X48578Y-25377D01*
X48733Y-25223D01*
X48817Y-25021D01*
X48817Y-24802D01*
X48780Y-24711D01*
X49007Y-24711D01*
X49190Y-24893D01*
X49181Y-24915D01*
X49181Y-25084D01*
X49245Y-25240D01*
X49365Y-25360D01*
X49521Y-25424D01*
X49690Y-25425D01*
X49751Y-25400D01*
X50750Y-25400D01*
X50810Y-25424D01*
X50900Y-25425D01*
X50900Y-25859D01*
X50318Y-26441D01*
X50324Y-26427D01*
X50324Y-26426D01*
X50324Y-26426D01*
X50324Y-26427D01*
X50324Y-26377D01*
X50324Y-26328D01*
X50324Y-26329D01*
X50324Y-26328D01*
X50324Y-26328D01*
X50286Y-26236D01*
X50216Y-26166D01*
X50262Y-26166D01*
X50324Y-26104D01*
X50324Y-26104D01*
X50324Y-26005D01*
X50286Y-25913D01*
X50216Y-25843D01*
X50124Y-25805D01*
X50025Y-25805D01*
X49963Y-25867D01*
X49963Y-25908D01*
X49897Y-25843D01*
X49805Y-25805D01*
X49757Y-25805D01*
X49702Y-25805D01*
X49610Y-25843D01*
X49606Y-25847D01*
X49602Y-25843D01*
X49510Y-25805D01*
X49455Y-25805D01*
X49407Y-25805D01*
X49315Y-25843D01*
X49249Y-25908D01*
X49249Y-25867D01*
X49186Y-25805D01*
X49088Y-25805D01*
X48996Y-25843D01*
X48925Y-25913D01*
X48887Y-26005D01*
X48887Y-26104D01*
X48887Y-26104D01*
X48950Y-26166D01*
X48995Y-26166D01*
X48925Y-26236D01*
X48895Y-26308D01*
X48805Y-26248D01*
X48690Y-26225D01*
X43848Y-26225D01*
X43733Y-26248D01*
X43636Y-26313D01*
X43350Y-26598D01*
X43285Y-26696D01*
X43262Y-26811D01*
X43262Y-27179D01*
X43202Y-27239D01*
X43138Y-27395D01*
X43137Y-27564D01*
X43202Y-27720D01*
X43321Y-27840D01*
X43478Y-27905D01*
X43647Y-27905D01*
X43803Y-27840D01*
X43923Y-27721D01*
X43987Y-27565D01*
X43988Y-27396D01*
X43923Y-27239D01*
X43862Y-27179D01*
X43862Y-26935D01*
X43972Y-26825D01*
X48566Y-26825D01*
X48842Y-27101D01*
X48842Y-27101D01*
X48940Y-27166D01*
X49055Y-27189D01*
X50295Y-27189D01*
X50295Y-27189D01*
X50410Y-27166D01*
X50410Y-27166D01*
X50507Y-27101D01*
X51412Y-26196D01*
X51412Y-26196D01*
X51477Y-26099D01*
X51500Y-25984D01*
X51500Y-25984D01*
X51500Y-23096D01*
X55202Y-19395D01*
X55202Y-19395D01*
X55267Y-19297D01*
X55290Y-19183D01*
X55290Y-19183D01*
X55290Y-10490D01*
X55534Y-10245D01*
X55534Y-10380D01*
X55555Y-10432D01*
X55420Y-10591D01*
X55398Y-10632D01*
X55372Y-10670D01*
X55370Y-10682D01*
X55363Y-10693D01*
X55358Y-10739D01*
X55349Y-10785D01*
X55349Y-19775D01*
X51660Y-23388D01*
X51659Y-23389D01*
X51657Y-23390D01*
X51626Y-23437D01*
X51594Y-23484D01*
X51593Y-23486D01*
X51592Y-23487D01*
X51581Y-23543D01*
X51570Y-23599D01*
X51570Y-23600D01*
X51570Y-23602D01*
X51570Y-26440D01*
X50643Y-27367D01*
X48716Y-27367D01*
X48420Y-27071D01*
X48323Y-27006D01*
X48208Y-26983D01*
X45452Y-26983D01*
X45337Y-27006D01*
X45240Y-27071D01*
X43793Y-28518D01*
X43456Y-28518D01*
X43456Y-28439D01*
X43392Y-28283D01*
X43272Y-28163D01*
X43116Y-28098D01*
X42947Y-28098D01*
X42791Y-28163D01*
X42730Y-28223D01*
X42555Y-28223D01*
X41717Y-27385D01*
X41717Y-25606D01*
X41777Y-25546D01*
X41842Y-25390D01*
X41842Y-25220D01*
X41777Y-25064D01*
X41658Y-24945D01*
X41573Y-24909D01*
X41573Y-20378D01*
X41569Y-20285D01*
X41569Y-19189D01*
X41486Y-18989D01*
X41395Y-18897D01*
X41485Y-18807D01*
X41569Y-18606D01*
X41569Y-18389D01*
X41486Y-18189D01*
X41333Y-18035D01*
X41241Y-17997D01*
X41332Y-17960D01*
X41485Y-17807D01*
X41569Y-17606D01*
X41569Y-17389D01*
X41486Y-17189D01*
X41333Y-17035D01*
X41132Y-16952D01*
X40915Y-16952D01*
X40817Y-16992D01*
X40817Y-16248D01*
X40810Y-15914D01*
X40695Y-15635D01*
X40569Y-15572D01*
X40044Y-16097D01*
X40569Y-16622D01*
X40695Y-16560D01*
X40817Y-16248D01*
X40817Y-16992D01*
X40715Y-17034D01*
X40561Y-17188D01*
X40498Y-17338D01*
X40498Y-16693D01*
X39973Y-16168D01*
X39448Y-16693D01*
X39511Y-16819D01*
X39822Y-16941D01*
X40156Y-16934D01*
X40436Y-16819D01*
X40498Y-16693D01*
X40498Y-17338D01*
X40478Y-17388D01*
X40478Y-17605D01*
X40560Y-17806D01*
X40714Y-17959D01*
X40805Y-17997D01*
X40715Y-18034D01*
X40561Y-18188D01*
X40478Y-18388D01*
X40478Y-18605D01*
X40560Y-18806D01*
X40652Y-18897D01*
X40561Y-18988D01*
X40478Y-19188D01*
X40478Y-19405D01*
X40560Y-19606D01*
X40714Y-19759D01*
X40799Y-19795D01*
X40738Y-19820D01*
X40711Y-19914D01*
X41023Y-20226D01*
X41335Y-19914D01*
X41308Y-19820D01*
X41243Y-19796D01*
X41332Y-19760D01*
X41485Y-19607D01*
X41569Y-19406D01*
X41569Y-19189D01*
X41569Y-20285D01*
X41562Y-20161D01*
X41501Y-20012D01*
X41406Y-19985D01*
X41094Y-20297D01*
X41406Y-20609D01*
X41501Y-20582D01*
X41573Y-20378D01*
X41573Y-24909D01*
X41502Y-24880D01*
X41335Y-24880D01*
X41335Y-20680D01*
X41023Y-20368D01*
X40952Y-20439D01*
X40952Y-20297D01*
X40640Y-19985D01*
X40546Y-20012D01*
X40473Y-20216D01*
X40484Y-20433D01*
X40546Y-20582D01*
X40640Y-20609D01*
X40952Y-20297D01*
X40952Y-20439D01*
X40711Y-20680D01*
X40738Y-20775D01*
X40942Y-20847D01*
X41159Y-20836D01*
X41308Y-20775D01*
X41335Y-20680D01*
X41335Y-24880D01*
X41333Y-24880D01*
X41176Y-24944D01*
X41116Y-25005D01*
X40817Y-25005D01*
X40817Y-21648D01*
X40810Y-21314D01*
X40695Y-21035D01*
X40569Y-20972D01*
X40498Y-21043D01*
X40498Y-20901D01*
X40436Y-20776D01*
X40124Y-20654D01*
X39790Y-20660D01*
X39511Y-20776D01*
X39448Y-20901D01*
X39973Y-21426D01*
X40498Y-20901D01*
X40498Y-21043D01*
X40044Y-21497D01*
X40569Y-22022D01*
X40695Y-21960D01*
X40817Y-21648D01*
X40817Y-25005D01*
X40508Y-25005D01*
X40498Y-24995D01*
X40498Y-22093D01*
X39973Y-21568D01*
X39902Y-21639D01*
X39902Y-21497D01*
X39377Y-20972D01*
X39252Y-21035D01*
X39130Y-21346D01*
X39136Y-21680D01*
X39252Y-21960D01*
X39377Y-22022D01*
X39902Y-21497D01*
X39902Y-21639D01*
X39448Y-22093D01*
X39511Y-22219D01*
X39822Y-22341D01*
X40156Y-22334D01*
X40436Y-22219D01*
X40498Y-22093D01*
X40498Y-24995D01*
X39118Y-23615D01*
X39118Y-15872D01*
X39185Y-15806D01*
X39130Y-15946D01*
X39136Y-16280D01*
X39252Y-16560D01*
X39377Y-16622D01*
X39902Y-16097D01*
X39897Y-16092D01*
X39968Y-16021D01*
X39973Y-16026D01*
X40498Y-15501D01*
X40436Y-15376D01*
X40124Y-15254D01*
X39790Y-15260D01*
X39688Y-15302D01*
X39809Y-15181D01*
X42381Y-15181D01*
X42381Y-15181D01*
X42496Y-15159D01*
X42496Y-15159D01*
X42594Y-15094D01*
X48697Y-8990D01*
X51939Y-8990D01*
X51858Y-9024D01*
X51824Y-9125D01*
X52176Y-9476D01*
X52527Y-9125D01*
X52494Y-9024D01*
X52401Y-8990D01*
X53139Y-8990D01*
X53139Y-8990D01*
X53254Y-8968D01*
X53254Y-8968D01*
X53351Y-8903D01*
X53683Y-8571D01*
X55613Y-8571D01*
X55618Y-8582D01*
X55772Y-8737D01*
X55854Y-8771D01*
G54D10*
G36*
X56756Y-9721D02*
X56734Y-9721D01*
X56642Y-9759D01*
X56572Y-9830D01*
X56534Y-9922D01*
X56534Y-9943D01*
X56396Y-9805D01*
X56314Y-9771D01*
X56395Y-9738D01*
X56550Y-9583D01*
X56584Y-9501D01*
X56618Y-9582D01*
X56756Y-9721D01*
X56756Y-9721D01*
G37*
G54D30*
X56756Y-9721D02*
X56734Y-9721D01*
X56642Y-9759D01*
X56572Y-9830D01*
X56534Y-9922D01*
X56534Y-9943D01*
X56396Y-9805D01*
X56314Y-9771D01*
X56395Y-9738D01*
X56550Y-9583D01*
X56584Y-9501D01*
X56618Y-9582D01*
X56756Y-9721D01*
G54D10*
G36*
X56854Y-8771D02*
X56773Y-8805D01*
X56618Y-8959D01*
X56584Y-9041D01*
X56551Y-8960D01*
X56396Y-8805D01*
X56314Y-8771D01*
X56395Y-8738D01*
X56550Y-8583D01*
X56584Y-8501D01*
X56618Y-8582D01*
X56772Y-8737D01*
X56854Y-8771D01*
X56854Y-8771D01*
G37*
G54D30*
X56854Y-8771D02*
X56773Y-8805D01*
X56618Y-8959D01*
X56584Y-9041D01*
X56551Y-8960D01*
X56396Y-8805D01*
X56314Y-8771D01*
X56395Y-8738D01*
X56550Y-8583D01*
X56584Y-8501D01*
X56618Y-8582D01*
X56772Y-8737D01*
X56854Y-8771D01*
G54D10*
G36*
X57142Y-10321D02*
X57134Y-10321D01*
X57134Y-10329D01*
X57034Y-10329D01*
X57034Y-10321D01*
X57026Y-10321D01*
X57026Y-10221D01*
X57034Y-10221D01*
X57034Y-10213D01*
X57134Y-10213D01*
X57134Y-10221D01*
X57142Y-10221D01*
X57142Y-10321D01*
X57142Y-10321D01*
G37*
G54D30*
X57142Y-10321D02*
X57134Y-10321D01*
X57134Y-10329D01*
X57034Y-10329D01*
X57034Y-10321D01*
X57026Y-10321D01*
X57026Y-10221D01*
X57034Y-10221D01*
X57034Y-10213D01*
X57134Y-10213D01*
X57134Y-10221D01*
X57142Y-10221D01*
X57142Y-10321D01*
G54D10*
G36*
X57160Y-22277D02*
X57090Y-22347D01*
X57084Y-22342D01*
X57079Y-22347D01*
X57008Y-22277D01*
X57013Y-22271D01*
X56698Y-21956D01*
X56603Y-21983D01*
X56583Y-22039D01*
X56551Y-21960D01*
X56396Y-21805D01*
X56314Y-21771D01*
X56395Y-21738D01*
X56550Y-21583D01*
X56582Y-21507D01*
X56603Y-21559D01*
X56698Y-21586D01*
X57013Y-21271D01*
X56698Y-20956D01*
X56603Y-20983D01*
X56583Y-21039D01*
X56551Y-20960D01*
X56396Y-20805D01*
X56314Y-20771D01*
X56395Y-20738D01*
X56550Y-20583D01*
X56584Y-20501D01*
X56618Y-20582D01*
X56772Y-20737D01*
X56848Y-20769D01*
X56796Y-20790D01*
X56769Y-20885D01*
X57084Y-21200D01*
X57090Y-21195D01*
X57160Y-21266D01*
X57155Y-21271D01*
X57160Y-21277D01*
X57090Y-21347D01*
X57084Y-21342D01*
X56769Y-21657D01*
X56796Y-21752D01*
X56845Y-21770D01*
X56796Y-21790D01*
X56769Y-21885D01*
X57084Y-22200D01*
X57090Y-22195D01*
X57160Y-22266D01*
X57155Y-22271D01*
X57160Y-22277D01*
X57160Y-22277D01*
G37*
G54D30*
X57160Y-22277D02*
X57090Y-22347D01*
X57084Y-22342D01*
X57079Y-22347D01*
X57008Y-22277D01*
X57013Y-22271D01*
X56698Y-21956D01*
X56603Y-21983D01*
X56583Y-22039D01*
X56551Y-21960D01*
X56396Y-21805D01*
X56314Y-21771D01*
X56395Y-21738D01*
X56550Y-21583D01*
X56582Y-21507D01*
X56603Y-21559D01*
X56698Y-21586D01*
X57013Y-21271D01*
X56698Y-20956D01*
X56603Y-20983D01*
X56583Y-21039D01*
X56551Y-20960D01*
X56396Y-20805D01*
X56314Y-20771D01*
X56395Y-20738D01*
X56550Y-20583D01*
X56584Y-20501D01*
X56618Y-20582D01*
X56772Y-20737D01*
X56848Y-20769D01*
X56796Y-20790D01*
X56769Y-20885D01*
X57084Y-21200D01*
X57090Y-21195D01*
X57160Y-21266D01*
X57155Y-21271D01*
X57160Y-21277D01*
X57090Y-21347D01*
X57084Y-21342D01*
X56769Y-21657D01*
X56796Y-21752D01*
X56845Y-21770D01*
X56796Y-21790D01*
X56769Y-21885D01*
X57084Y-22200D01*
X57090Y-22195D01*
X57160Y-22266D01*
X57155Y-22271D01*
X57160Y-22277D01*
G54D10*
G36*
X57889Y-26674D02*
X57587Y-26371D01*
X56944Y-26104D01*
X56247Y-26104D01*
X55604Y-26369D01*
X55111Y-26861D01*
X54844Y-27504D01*
X54844Y-28200D01*
X55110Y-28844D01*
X55414Y-29149D01*
X52897Y-29149D01*
X52897Y-25959D01*
X52886Y-25741D01*
X52823Y-25590D01*
X52728Y-25562D01*
X52413Y-25877D01*
X52728Y-26193D01*
X52823Y-26165D01*
X52897Y-25959D01*
X52897Y-29149D01*
X46361Y-29149D01*
X46220Y-29149D01*
X46192Y-29122D01*
X46288Y-29094D01*
X46361Y-28888D01*
X46350Y-28670D01*
X46288Y-28519D01*
X46192Y-28491D01*
X45877Y-28807D01*
X45883Y-28812D01*
X45812Y-28883D01*
X45807Y-28877D01*
X45801Y-28883D01*
X45736Y-28818D01*
X45730Y-28812D01*
X45736Y-28807D01*
X45421Y-28491D01*
X45325Y-28519D01*
X45252Y-28725D01*
X45263Y-28943D01*
X45325Y-29094D01*
X45421Y-29122D01*
X45393Y-29149D01*
X38876Y-29149D01*
X39179Y-28846D01*
X39446Y-28203D01*
X39447Y-27507D01*
X39181Y-26864D01*
X38689Y-26371D01*
X38046Y-26104D01*
X37354Y-26104D01*
X37354Y-15198D01*
X37354Y-12598D01*
X37345Y-12350D01*
X37268Y-12166D01*
X37165Y-12129D01*
X36796Y-12499D01*
X37165Y-12868D01*
X37268Y-12832D01*
X37354Y-12598D01*
X37354Y-15198D01*
X37345Y-14950D01*
X37268Y-14766D01*
X37165Y-14729D01*
X36796Y-15099D01*
X37165Y-15468D01*
X37268Y-15432D01*
X37354Y-15198D01*
X37354Y-26104D01*
X37350Y-26104D01*
X36706Y-26369D01*
X36401Y-26674D01*
X36401Y-15645D01*
X36625Y-15728D01*
X36874Y-15718D01*
X37058Y-15642D01*
X37095Y-15539D01*
X36725Y-15169D01*
X36720Y-15175D01*
X36649Y-15104D01*
X36654Y-15099D01*
X36649Y-15093D01*
X36720Y-15022D01*
X36725Y-15028D01*
X37095Y-14658D01*
X37058Y-14555D01*
X36825Y-14469D01*
X36576Y-14479D01*
X36401Y-14552D01*
X36401Y-13045D01*
X36625Y-13128D01*
X36874Y-13118D01*
X37058Y-13042D01*
X37095Y-12939D01*
X36725Y-12569D01*
X36720Y-12575D01*
X36649Y-12504D01*
X36654Y-12499D01*
X36649Y-12493D01*
X36720Y-12422D01*
X36725Y-12428D01*
X37095Y-12058D01*
X37058Y-11955D01*
X36825Y-11869D01*
X36576Y-11879D01*
X36401Y-11952D01*
X36401Y-7661D01*
X41576Y-7661D01*
X41359Y-7878D01*
X41272Y-8007D01*
X41267Y-8033D01*
X41242Y-8161D01*
X41242Y-8201D01*
X40792Y-8201D01*
X40700Y-8239D01*
X40630Y-8310D01*
X40592Y-8402D01*
X40592Y-8501D01*
X40592Y-10101D01*
X40630Y-10193D01*
X40700Y-10263D01*
X40792Y-10301D01*
X40891Y-10302D01*
X42491Y-10302D01*
X42583Y-10264D01*
X42653Y-10193D01*
X42692Y-10101D01*
X42692Y-10002D01*
X42692Y-8402D01*
X42654Y-8310D01*
X42583Y-8240D01*
X42492Y-8202D01*
X42392Y-8201D01*
X42166Y-8201D01*
X42291Y-8077D01*
X53329Y-8077D01*
X53015Y-8390D01*
X48572Y-8390D01*
X48458Y-8413D01*
X48360Y-8478D01*
X44196Y-12642D01*
X44196Y-9369D01*
X44196Y-9114D01*
X44196Y-9015D01*
X44158Y-8923D01*
X44088Y-8852D01*
X43996Y-8814D01*
X43901Y-8814D01*
X43839Y-8877D01*
X43839Y-8918D01*
X43773Y-8852D01*
X43681Y-8814D01*
X43631Y-8814D01*
X43582Y-8814D01*
X43490Y-8852D01*
X43424Y-8918D01*
X43424Y-8877D01*
X43361Y-8814D01*
X43267Y-8814D01*
X43175Y-8852D01*
X43105Y-8923D01*
X43066Y-9015D01*
X43066Y-9114D01*
X43066Y-9129D01*
X43129Y-9192D01*
X43424Y-9192D01*
X43424Y-9172D01*
X43444Y-9192D01*
X43524Y-9192D01*
X43739Y-9192D01*
X43819Y-9192D01*
X43839Y-9172D01*
X43839Y-9192D01*
X44134Y-9192D01*
X44196Y-9129D01*
X44196Y-9114D01*
X44196Y-9369D01*
X44196Y-9354D01*
X44134Y-9292D01*
X43839Y-9292D01*
X43839Y-9312D01*
X43819Y-9292D01*
X43739Y-9292D01*
X43524Y-9292D01*
X43444Y-9292D01*
X43424Y-9312D01*
X43424Y-9292D01*
X43129Y-9292D01*
X43066Y-9354D01*
X43066Y-9369D01*
X43066Y-9469D01*
X43105Y-9561D01*
X43175Y-9631D01*
X43267Y-9669D01*
X43361Y-9669D01*
X43424Y-9606D01*
X43424Y-9565D01*
X43490Y-9631D01*
X43582Y-9669D01*
X43631Y-9669D01*
X43681Y-9669D01*
X43773Y-9631D01*
X43839Y-9565D01*
X43839Y-9606D01*
X43901Y-9669D01*
X43996Y-9669D01*
X44088Y-9631D01*
X44158Y-9561D01*
X44196Y-9469D01*
X44196Y-9369D01*
X44196Y-12642D01*
X42257Y-14581D01*
X41721Y-14581D01*
X41721Y-11441D01*
X41721Y-11062D01*
X41692Y-10953D01*
X41513Y-10650D01*
X41232Y-10439D01*
X40892Y-10351D01*
X40542Y-10351D01*
X40542Y-11201D01*
X41678Y-11201D01*
X41721Y-11062D01*
X41721Y-11441D01*
X41678Y-11301D01*
X40542Y-11301D01*
X40542Y-12151D01*
X40892Y-12151D01*
X41232Y-12064D01*
X41513Y-11853D01*
X41692Y-11550D01*
X41721Y-11441D01*
X41721Y-14581D01*
X40781Y-14581D01*
X40628Y-14581D01*
X40612Y-14565D01*
X40707Y-14537D01*
X40781Y-14331D01*
X40776Y-14238D01*
X40776Y-13141D01*
X40692Y-12938D01*
X40538Y-12784D01*
X40442Y-12744D01*
X40442Y-12151D01*
X40442Y-11301D01*
X40442Y-11201D01*
X40442Y-10351D01*
X40293Y-10351D01*
X40293Y-9452D01*
X40290Y-9035D01*
X40136Y-8663D01*
X39989Y-8575D01*
X39918Y-8646D01*
X39918Y-8504D01*
X39830Y-8357D01*
X39443Y-8200D01*
X39025Y-8203D01*
X38653Y-8357D01*
X38565Y-8504D01*
X39242Y-9181D01*
X39918Y-8504D01*
X39918Y-8646D01*
X39312Y-9251D01*
X39989Y-9928D01*
X40136Y-9840D01*
X40293Y-9452D01*
X40293Y-10351D01*
X40092Y-10351D01*
X39918Y-10396D01*
X39918Y-9999D01*
X39242Y-9322D01*
X39171Y-9393D01*
X39171Y-9251D01*
X38494Y-8575D01*
X38347Y-8663D01*
X38190Y-9050D01*
X38193Y-9468D01*
X38347Y-9840D01*
X38494Y-9928D01*
X39171Y-9251D01*
X39171Y-9393D01*
X38565Y-9999D01*
X38653Y-10146D01*
X39041Y-10303D01*
X39458Y-10300D01*
X39830Y-10146D01*
X39918Y-9999D01*
X39918Y-10396D01*
X39751Y-10439D01*
X39470Y-10650D01*
X39291Y-10953D01*
X39262Y-11062D01*
X39306Y-11201D01*
X40442Y-11201D01*
X40442Y-11301D01*
X39306Y-11301D01*
X39262Y-11441D01*
X39291Y-11550D01*
X39470Y-11853D01*
X39751Y-12064D01*
X40092Y-12151D01*
X40442Y-12151D01*
X40442Y-12744D01*
X40336Y-12700D01*
X40117Y-12699D01*
X39915Y-12783D01*
X39760Y-12938D01*
X39676Y-13140D01*
X39676Y-13358D01*
X39759Y-13561D01*
X39914Y-13715D01*
X39990Y-13747D01*
X39938Y-13768D01*
X39911Y-13864D01*
X40226Y-14179D01*
X40541Y-13864D01*
X40514Y-13768D01*
X40458Y-13749D01*
X40537Y-13716D01*
X40692Y-13561D01*
X40776Y-13359D01*
X40776Y-13141D01*
X40776Y-14238D01*
X40770Y-14113D01*
X40707Y-13962D01*
X40612Y-13934D01*
X40297Y-14250D01*
X40302Y-14255D01*
X40231Y-14326D01*
X40226Y-14320D01*
X40220Y-14326D01*
X40155Y-14261D01*
X40150Y-14255D01*
X40155Y-14250D01*
X39840Y-13934D01*
X39745Y-13962D01*
X39671Y-14168D01*
X39682Y-14386D01*
X39745Y-14537D01*
X39840Y-14565D01*
X39823Y-14581D01*
X39685Y-14581D01*
X39570Y-14604D01*
X39472Y-14669D01*
X38606Y-15535D01*
X38541Y-15633D01*
X38518Y-15748D01*
X38518Y-23740D01*
X38541Y-23854D01*
X38606Y-23952D01*
X40171Y-25517D01*
X40171Y-25517D01*
X40269Y-25582D01*
X40383Y-25605D01*
X40383Y-25605D01*
X41116Y-25605D01*
X41117Y-25606D01*
X41117Y-27509D01*
X41140Y-27624D01*
X41205Y-27721D01*
X41235Y-27752D01*
X41195Y-27792D01*
X41195Y-27838D01*
X41125Y-27768D01*
X41033Y-27730D01*
X40984Y-27730D01*
X40934Y-27730D01*
X40842Y-27768D01*
X40772Y-27838D01*
X40772Y-27792D01*
X40710Y-27730D01*
X40611Y-27730D01*
X40519Y-27768D01*
X40449Y-27838D01*
X40411Y-27930D01*
X40411Y-28029D01*
X40411Y-28041D01*
X40473Y-28103D01*
X40547Y-28103D01*
X40519Y-28114D01*
X40449Y-28184D01*
X40419Y-28258D01*
X40411Y-28266D01*
X40411Y-28277D01*
X40411Y-28326D01*
X40411Y-28376D01*
X40411Y-28387D01*
X40419Y-28395D01*
X40449Y-28468D01*
X40519Y-28538D01*
X40547Y-28550D01*
X40473Y-28550D01*
X40411Y-28612D01*
X40411Y-28623D01*
X40411Y-28723D01*
X40449Y-28815D01*
X40519Y-28885D01*
X40611Y-28923D01*
X40710Y-28923D01*
X40772Y-28860D01*
X40772Y-28815D01*
X40842Y-28885D01*
X40934Y-28923D01*
X40984Y-28923D01*
X41033Y-28923D01*
X41125Y-28885D01*
X41195Y-28815D01*
X41195Y-28860D01*
X41258Y-28923D01*
X41356Y-28923D01*
X41448Y-28885D01*
X41518Y-28815D01*
X41531Y-28785D01*
X41648Y-28903D01*
X41804Y-28968D01*
X41890Y-28968D01*
X41953Y-29031D01*
X41953Y-29031D01*
X42050Y-29096D01*
X42165Y-29118D01*
X43917Y-29118D01*
X43917Y-29118D01*
X44032Y-29096D01*
X44032Y-29096D01*
X44129Y-29031D01*
X45257Y-27903D01*
X45256Y-27916D01*
X45340Y-28118D01*
X45495Y-28273D01*
X45570Y-28304D01*
X45519Y-28325D01*
X45491Y-28421D01*
X45807Y-28736D01*
X46122Y-28421D01*
X46094Y-28325D01*
X46039Y-28306D01*
X46118Y-28273D01*
X46273Y-28119D01*
X46356Y-27916D01*
X46357Y-27698D01*
X46309Y-27583D01*
X48084Y-27583D01*
X48380Y-27879D01*
X48380Y-27879D01*
X48477Y-27944D01*
X48592Y-27967D01*
X50767Y-27967D01*
X50767Y-27967D01*
X50882Y-27944D01*
X50882Y-27944D01*
X50979Y-27879D01*
X51815Y-27043D01*
X51875Y-27189D01*
X52030Y-27343D01*
X52232Y-27427D01*
X52451Y-27428D01*
X52653Y-27344D01*
X52808Y-27189D01*
X52892Y-26987D01*
X52892Y-26769D01*
X52809Y-26566D01*
X52654Y-26411D01*
X52578Y-26380D01*
X52630Y-26359D01*
X52657Y-26263D01*
X52342Y-25948D01*
X52336Y-25954D01*
X52266Y-25883D01*
X52271Y-25877D01*
X52266Y-25872D01*
X52336Y-25801D01*
X52342Y-25807D01*
X52657Y-25492D01*
X52630Y-25396D01*
X52424Y-25323D01*
X52205Y-25334D01*
X52170Y-25348D01*
X52170Y-23728D01*
X55550Y-20418D01*
X55618Y-20582D01*
X55772Y-20737D01*
X55854Y-20771D01*
X55773Y-20805D01*
X55618Y-20959D01*
X55534Y-21161D01*
X55534Y-21380D01*
X55618Y-21582D01*
X55772Y-21737D01*
X55854Y-21771D01*
X55773Y-21805D01*
X55618Y-21959D01*
X55534Y-22161D01*
X55534Y-22380D01*
X55618Y-22582D01*
X55684Y-22649D01*
X55684Y-22797D01*
X55710Y-22924D01*
X55715Y-22950D01*
X55801Y-23080D01*
X56045Y-23324D01*
X56045Y-23324D01*
X56132Y-23382D01*
X56175Y-23410D01*
X56175Y-23410D01*
X56328Y-23441D01*
X57519Y-23441D01*
X57519Y-23441D01*
X57647Y-23415D01*
X57672Y-23410D01*
X57672Y-23410D01*
X57802Y-23324D01*
X57889Y-23236D01*
X57889Y-26674D01*
X57889Y-26674D01*
G37*
G54D30*
X57889Y-26674D02*
X57587Y-26371D01*
X56944Y-26104D01*
X56247Y-26104D01*
X55604Y-26369D01*
X55111Y-26861D01*
X54844Y-27504D01*
X54844Y-28200D01*
X55110Y-28844D01*
X55414Y-29149D01*
X52897Y-29149D01*
X52897Y-25959D01*
X52886Y-25741D01*
X52823Y-25590D01*
X52728Y-25562D01*
X52413Y-25877D01*
X52728Y-26193D01*
X52823Y-26165D01*
X52897Y-25959D01*
X52897Y-29149D01*
X46361Y-29149D01*
X46220Y-29149D01*
X46192Y-29122D01*
X46288Y-29094D01*
X46361Y-28888D01*
X46350Y-28670D01*
X46288Y-28519D01*
X46192Y-28491D01*
X45877Y-28807D01*
X45883Y-28812D01*
X45812Y-28883D01*
X45807Y-28877D01*
X45801Y-28883D01*
X45736Y-28818D01*
X45730Y-28812D01*
X45736Y-28807D01*
X45421Y-28491D01*
X45325Y-28519D01*
X45252Y-28725D01*
X45263Y-28943D01*
X45325Y-29094D01*
X45421Y-29122D01*
X45393Y-29149D01*
X38876Y-29149D01*
X39179Y-28846D01*
X39446Y-28203D01*
X39447Y-27507D01*
X39181Y-26864D01*
X38689Y-26371D01*
X38046Y-26104D01*
X37354Y-26104D01*
X37354Y-15198D01*
X37354Y-12598D01*
X37345Y-12350D01*
X37268Y-12166D01*
X37165Y-12129D01*
X36796Y-12499D01*
X37165Y-12868D01*
X37268Y-12832D01*
X37354Y-12598D01*
X37354Y-15198D01*
X37345Y-14950D01*
X37268Y-14766D01*
X37165Y-14729D01*
X36796Y-15099D01*
X37165Y-15468D01*
X37268Y-15432D01*
X37354Y-15198D01*
X37354Y-26104D01*
X37350Y-26104D01*
X36706Y-26369D01*
X36401Y-26674D01*
X36401Y-15645D01*
X36625Y-15728D01*
X36874Y-15718D01*
X37058Y-15642D01*
X37095Y-15539D01*
X36725Y-15169D01*
X36720Y-15175D01*
X36649Y-15104D01*
X36654Y-15099D01*
X36649Y-15093D01*
X36720Y-15022D01*
X36725Y-15028D01*
X37095Y-14658D01*
X37058Y-14555D01*
X36825Y-14469D01*
X36576Y-14479D01*
X36401Y-14552D01*
X36401Y-13045D01*
X36625Y-13128D01*
X36874Y-13118D01*
X37058Y-13042D01*
X37095Y-12939D01*
X36725Y-12569D01*
X36720Y-12575D01*
X36649Y-12504D01*
X36654Y-12499D01*
X36649Y-12493D01*
X36720Y-12422D01*
X36725Y-12428D01*
X37095Y-12058D01*
X37058Y-11955D01*
X36825Y-11869D01*
X36576Y-11879D01*
X36401Y-11952D01*
X36401Y-7661D01*
X41576Y-7661D01*
X41359Y-7878D01*
X41272Y-8007D01*
X41267Y-8033D01*
X41242Y-8161D01*
X41242Y-8201D01*
X40792Y-8201D01*
X40700Y-8239D01*
X40630Y-8310D01*
X40592Y-8402D01*
X40592Y-8501D01*
X40592Y-10101D01*
X40630Y-10193D01*
X40700Y-10263D01*
X40792Y-10301D01*
X40891Y-10302D01*
X42491Y-10302D01*
X42583Y-10264D01*
X42653Y-10193D01*
X42692Y-10101D01*
X42692Y-10002D01*
X42692Y-8402D01*
X42654Y-8310D01*
X42583Y-8240D01*
X42492Y-8202D01*
X42392Y-8201D01*
X42166Y-8201D01*
X42291Y-8077D01*
X53329Y-8077D01*
X53015Y-8390D01*
X48572Y-8390D01*
X48458Y-8413D01*
X48360Y-8478D01*
X44196Y-12642D01*
X44196Y-9369D01*
X44196Y-9114D01*
X44196Y-9015D01*
X44158Y-8923D01*
X44088Y-8852D01*
X43996Y-8814D01*
X43901Y-8814D01*
X43839Y-8877D01*
X43839Y-8918D01*
X43773Y-8852D01*
X43681Y-8814D01*
X43631Y-8814D01*
X43582Y-8814D01*
X43490Y-8852D01*
X43424Y-8918D01*
X43424Y-8877D01*
X43361Y-8814D01*
X43267Y-8814D01*
X43175Y-8852D01*
X43105Y-8923D01*
X43066Y-9015D01*
X43066Y-9114D01*
X43066Y-9129D01*
X43129Y-9192D01*
X43424Y-9192D01*
X43424Y-9172D01*
X43444Y-9192D01*
X43524Y-9192D01*
X43739Y-9192D01*
X43819Y-9192D01*
X43839Y-9172D01*
X43839Y-9192D01*
X44134Y-9192D01*
X44196Y-9129D01*
X44196Y-9114D01*
X44196Y-9369D01*
X44196Y-9354D01*
X44134Y-9292D01*
X43839Y-9292D01*
X43839Y-9312D01*
X43819Y-9292D01*
X43739Y-9292D01*
X43524Y-9292D01*
X43444Y-9292D01*
X43424Y-9312D01*
X43424Y-9292D01*
X43129Y-9292D01*
X43066Y-9354D01*
X43066Y-9369D01*
X43066Y-9469D01*
X43105Y-9561D01*
X43175Y-9631D01*
X43267Y-9669D01*
X43361Y-9669D01*
X43424Y-9606D01*
X43424Y-9565D01*
X43490Y-9631D01*
X43582Y-9669D01*
X43631Y-9669D01*
X43681Y-9669D01*
X43773Y-9631D01*
X43839Y-9565D01*
X43839Y-9606D01*
X43901Y-9669D01*
X43996Y-9669D01*
X44088Y-9631D01*
X44158Y-9561D01*
X44196Y-9469D01*
X44196Y-9369D01*
X44196Y-12642D01*
X42257Y-14581D01*
X41721Y-14581D01*
X41721Y-11441D01*
X41721Y-11062D01*
X41692Y-10953D01*
X41513Y-10650D01*
X41232Y-10439D01*
X40892Y-10351D01*
X40542Y-10351D01*
X40542Y-11201D01*
X41678Y-11201D01*
X41721Y-11062D01*
X41721Y-11441D01*
X41678Y-11301D01*
X40542Y-11301D01*
X40542Y-12151D01*
X40892Y-12151D01*
X41232Y-12064D01*
X41513Y-11853D01*
X41692Y-11550D01*
X41721Y-11441D01*
X41721Y-14581D01*
X40781Y-14581D01*
X40628Y-14581D01*
X40612Y-14565D01*
X40707Y-14537D01*
X40781Y-14331D01*
X40776Y-14238D01*
X40776Y-13141D01*
X40692Y-12938D01*
X40538Y-12784D01*
X40442Y-12744D01*
X40442Y-12151D01*
X40442Y-11301D01*
X40442Y-11201D01*
X40442Y-10351D01*
X40293Y-10351D01*
X40293Y-9452D01*
X40290Y-9035D01*
X40136Y-8663D01*
X39989Y-8575D01*
X39918Y-8646D01*
X39918Y-8504D01*
X39830Y-8357D01*
X39443Y-8200D01*
X39025Y-8203D01*
X38653Y-8357D01*
X38565Y-8504D01*
X39242Y-9181D01*
X39918Y-8504D01*
X39918Y-8646D01*
X39312Y-9251D01*
X39989Y-9928D01*
X40136Y-9840D01*
X40293Y-9452D01*
X40293Y-10351D01*
X40092Y-10351D01*
X39918Y-10396D01*
X39918Y-9999D01*
X39242Y-9322D01*
X39171Y-9393D01*
X39171Y-9251D01*
X38494Y-8575D01*
X38347Y-8663D01*
X38190Y-9050D01*
X38193Y-9468D01*
X38347Y-9840D01*
X38494Y-9928D01*
X39171Y-9251D01*
X39171Y-9393D01*
X38565Y-9999D01*
X38653Y-10146D01*
X39041Y-10303D01*
X39458Y-10300D01*
X39830Y-10146D01*
X39918Y-9999D01*
X39918Y-10396D01*
X39751Y-10439D01*
X39470Y-10650D01*
X39291Y-10953D01*
X39262Y-11062D01*
X39306Y-11201D01*
X40442Y-11201D01*
X40442Y-11301D01*
X39306Y-11301D01*
X39262Y-11441D01*
X39291Y-11550D01*
X39470Y-11853D01*
X39751Y-12064D01*
X40092Y-12151D01*
X40442Y-12151D01*
X40442Y-12744D01*
X40336Y-12700D01*
X40117Y-12699D01*
X39915Y-12783D01*
X39760Y-12938D01*
X39676Y-13140D01*
X39676Y-13358D01*
X39759Y-13561D01*
X39914Y-13715D01*
X39990Y-13747D01*
X39938Y-13768D01*
X39911Y-13864D01*
X40226Y-14179D01*
X40541Y-13864D01*
X40514Y-13768D01*
X40458Y-13749D01*
X40537Y-13716D01*
X40692Y-13561D01*
X40776Y-13359D01*
X40776Y-13141D01*
X40776Y-14238D01*
X40770Y-14113D01*
X40707Y-13962D01*
X40612Y-13934D01*
X40297Y-14250D01*
X40302Y-14255D01*
X40231Y-14326D01*
X40226Y-14320D01*
X40220Y-14326D01*
X40155Y-14261D01*
X40150Y-14255D01*
X40155Y-14250D01*
X39840Y-13934D01*
X39745Y-13962D01*
X39671Y-14168D01*
X39682Y-14386D01*
X39745Y-14537D01*
X39840Y-14565D01*
X39823Y-14581D01*
X39685Y-14581D01*
X39570Y-14604D01*
X39472Y-14669D01*
X38606Y-15535D01*
X38541Y-15633D01*
X38518Y-15748D01*
X38518Y-23740D01*
X38541Y-23854D01*
X38606Y-23952D01*
X40171Y-25517D01*
X40171Y-25517D01*
X40269Y-25582D01*
X40383Y-25605D01*
X40383Y-25605D01*
X41116Y-25605D01*
X41117Y-25606D01*
X41117Y-27509D01*
X41140Y-27624D01*
X41205Y-27721D01*
X41235Y-27752D01*
X41195Y-27792D01*
X41195Y-27838D01*
X41125Y-27768D01*
X41033Y-27730D01*
X40984Y-27730D01*
X40934Y-27730D01*
X40842Y-27768D01*
X40772Y-27838D01*
X40772Y-27792D01*
X40710Y-27730D01*
X40611Y-27730D01*
X40519Y-27768D01*
X40449Y-27838D01*
X40411Y-27930D01*
X40411Y-28029D01*
X40411Y-28041D01*
X40473Y-28103D01*
X40547Y-28103D01*
X40519Y-28114D01*
X40449Y-28184D01*
X40419Y-28258D01*
X40411Y-28266D01*
X40411Y-28277D01*
X40411Y-28326D01*
X40411Y-28376D01*
X40411Y-28387D01*
X40419Y-28395D01*
X40449Y-28468D01*
X40519Y-28538D01*
X40547Y-28550D01*
X40473Y-28550D01*
X40411Y-28612D01*
X40411Y-28623D01*
X40411Y-28723D01*
X40449Y-28815D01*
X40519Y-28885D01*
X40611Y-28923D01*
X40710Y-28923D01*
X40772Y-28860D01*
X40772Y-28815D01*
X40842Y-28885D01*
X40934Y-28923D01*
X40984Y-28923D01*
X41033Y-28923D01*
X41125Y-28885D01*
X41195Y-28815D01*
X41195Y-28860D01*
X41258Y-28923D01*
X41356Y-28923D01*
X41448Y-28885D01*
X41518Y-28815D01*
X41531Y-28785D01*
X41648Y-28903D01*
X41804Y-28968D01*
X41890Y-28968D01*
X41953Y-29031D01*
X41953Y-29031D01*
X42050Y-29096D01*
X42165Y-29118D01*
X43917Y-29118D01*
X43917Y-29118D01*
X44032Y-29096D01*
X44032Y-29096D01*
X44129Y-29031D01*
X45257Y-27903D01*
X45256Y-27916D01*
X45340Y-28118D01*
X45495Y-28273D01*
X45570Y-28304D01*
X45519Y-28325D01*
X45491Y-28421D01*
X45807Y-28736D01*
X46122Y-28421D01*
X46094Y-28325D01*
X46039Y-28306D01*
X46118Y-28273D01*
X46273Y-28119D01*
X46356Y-27916D01*
X46357Y-27698D01*
X46309Y-27583D01*
X48084Y-27583D01*
X48380Y-27879D01*
X48380Y-27879D01*
X48477Y-27944D01*
X48592Y-27967D01*
X50767Y-27967D01*
X50767Y-27967D01*
X50882Y-27944D01*
X50882Y-27944D01*
X50979Y-27879D01*
X51815Y-27043D01*
X51875Y-27189D01*
X52030Y-27343D01*
X52232Y-27427D01*
X52451Y-27428D01*
X52653Y-27344D01*
X52808Y-27189D01*
X52892Y-26987D01*
X52892Y-26769D01*
X52809Y-26566D01*
X52654Y-26411D01*
X52578Y-26380D01*
X52630Y-26359D01*
X52657Y-26263D01*
X52342Y-25948D01*
X52336Y-25954D01*
X52266Y-25883D01*
X52271Y-25877D01*
X52266Y-25872D01*
X52336Y-25801D01*
X52342Y-25807D01*
X52657Y-25492D01*
X52630Y-25396D01*
X52424Y-25323D01*
X52205Y-25334D01*
X52170Y-25348D01*
X52170Y-23728D01*
X55550Y-20418D01*
X55618Y-20582D01*
X55772Y-20737D01*
X55854Y-20771D01*
X55773Y-20805D01*
X55618Y-20959D01*
X55534Y-21161D01*
X55534Y-21380D01*
X55618Y-21582D01*
X55772Y-21737D01*
X55854Y-21771D01*
X55773Y-21805D01*
X55618Y-21959D01*
X55534Y-22161D01*
X55534Y-22380D01*
X55618Y-22582D01*
X55684Y-22649D01*
X55684Y-22797D01*
X55710Y-22924D01*
X55715Y-22950D01*
X55801Y-23080D01*
X56045Y-23324D01*
X56045Y-23324D01*
X56132Y-23382D01*
X56175Y-23410D01*
X56175Y-23410D01*
X56328Y-23441D01*
X57519Y-23441D01*
X57519Y-23441D01*
X57647Y-23415D01*
X57672Y-23410D01*
X57672Y-23410D01*
X57802Y-23324D01*
X57889Y-23236D01*
X57889Y-26674D01*
M02*
