G04 (created by PCBNEW (2013-07-07 BZR 4022)-stable) date 08-Nov-13 3:33:42 PM*
%MOIN*%
G04 Gerber Fmt 3.4, Leading zero omitted, Abs format*
%FSLAX34Y34*%
G01*
G70*
G90*
G04 APERTURE LIST*
%ADD10C,0.00590551*%
%ADD11C,0.008*%
%ADD12C,0.00787402*%
%ADD13C,0.00984252*%
%ADD14C,0.07*%
%ADD15C,0.08*%
%ADD16C,0.06*%
%ADD17C,0.16*%
%ADD18R,0.16X0.16*%
%ADD19O,0.2X0.13*%
%ADD20C,0.075*%
%ADD21R,0.03X0.0646457*%
%ADD22R,0.0323622X0.0323622*%
%ADD23C,0.0591*%
%ADD24C,0.1181*%
%ADD25R,0.03X0.0650394*%
%ADD26R,0.0323622X0.0325591*%
%ADD27R,0.0322835X0.0346457*%
%ADD28C,0.3*%
%ADD29R,0.06X0.06*%
%ADD30C,0.24*%
%ADD31R,0.0315748X0.0355118*%
G04 APERTURE END LIST*
G54D10*
G54D11*
X55634Y-23694D02*
X55367Y-23694D01*
X55443Y-23694D02*
X55405Y-23713D01*
X55386Y-23732D01*
X55367Y-23770D01*
X55367Y-23808D01*
X55615Y-24094D02*
X55634Y-24056D01*
X55634Y-23980D01*
X55615Y-23942D01*
X55577Y-23923D01*
X55424Y-23923D01*
X55386Y-23942D01*
X55367Y-23980D01*
X55367Y-24056D01*
X55386Y-24094D01*
X55424Y-24113D01*
X55462Y-24113D01*
X55501Y-23923D01*
X55367Y-24246D02*
X55634Y-24342D01*
X55367Y-24437D01*
X55272Y-24875D02*
X55253Y-24894D01*
X55234Y-24932D01*
X55234Y-25027D01*
X55253Y-25065D01*
X55272Y-25085D01*
X55310Y-25104D01*
X55348Y-25104D01*
X55405Y-25085D01*
X55634Y-24856D01*
X55634Y-25104D01*
G54D10*
X36122Y-29429D02*
X58169Y-29429D01*
X36122Y-7381D02*
X58169Y-7381D01*
X36122Y-29429D02*
X36122Y-7381D01*
G54D12*
X55009Y-23612D02*
X53159Y-23612D01*
X55009Y-28100D02*
X55009Y-23612D01*
X53159Y-28100D02*
X55009Y-28100D01*
X53159Y-23612D02*
X53159Y-28100D01*
X54344Y-23806D02*
X54659Y-23896D01*
X54434Y-23986D01*
X54659Y-24076D01*
X54344Y-24166D01*
X54344Y-24301D02*
X54659Y-24413D01*
X54344Y-24526D02*
X54659Y-24413D01*
X54772Y-24368D01*
X54794Y-24346D01*
X54817Y-24301D01*
X54659Y-24773D02*
X54637Y-24728D01*
X54614Y-24706D01*
X54569Y-24683D01*
X54434Y-24683D01*
X54389Y-24706D01*
X54367Y-24728D01*
X54344Y-24773D01*
X54344Y-24841D01*
X54367Y-24886D01*
X54389Y-24908D01*
X54434Y-24931D01*
X54569Y-24931D01*
X54614Y-24908D01*
X54637Y-24886D01*
X54659Y-24841D01*
X54659Y-24773D01*
X54659Y-25201D02*
X54637Y-25156D01*
X54592Y-25133D01*
X54187Y-25133D01*
X54344Y-25583D02*
X54659Y-25583D01*
X54344Y-25381D02*
X54592Y-25381D01*
X54637Y-25403D01*
X54659Y-25448D01*
X54659Y-25516D01*
X54637Y-25561D01*
X54614Y-25583D01*
X54659Y-25808D02*
X54344Y-25808D01*
X54389Y-25808D02*
X54367Y-25830D01*
X54344Y-25875D01*
X54344Y-25943D01*
X54367Y-25988D01*
X54412Y-26010D01*
X54659Y-26010D01*
X54412Y-26010D02*
X54367Y-26033D01*
X54344Y-26078D01*
X54344Y-26145D01*
X54367Y-26190D01*
X54412Y-26213D01*
X54659Y-26213D01*
X54614Y-26438D02*
X54637Y-26460D01*
X54659Y-26438D01*
X54637Y-26415D01*
X54614Y-26438D01*
X54659Y-26438D01*
X54637Y-26865D02*
X54659Y-26820D01*
X54659Y-26730D01*
X54637Y-26685D01*
X54614Y-26663D01*
X54569Y-26640D01*
X54434Y-26640D01*
X54389Y-26663D01*
X54367Y-26685D01*
X54344Y-26730D01*
X54344Y-26820D01*
X54367Y-26865D01*
X54659Y-27135D02*
X54637Y-27090D01*
X54614Y-27068D01*
X54569Y-27045D01*
X54434Y-27045D01*
X54389Y-27068D01*
X54367Y-27090D01*
X54344Y-27135D01*
X54344Y-27203D01*
X54367Y-27248D01*
X54389Y-27270D01*
X54434Y-27293D01*
X54569Y-27293D01*
X54614Y-27270D01*
X54637Y-27248D01*
X54659Y-27203D01*
X54659Y-27135D01*
X54659Y-27495D02*
X54344Y-27495D01*
X54389Y-27495D02*
X54367Y-27518D01*
X54344Y-27563D01*
X54344Y-27630D01*
X54367Y-27675D01*
X54412Y-27698D01*
X54659Y-27698D01*
X54412Y-27698D02*
X54367Y-27720D01*
X54344Y-27765D01*
X54344Y-27833D01*
X54367Y-27878D01*
X54412Y-27900D01*
X54659Y-27900D01*
G54D13*
X53969Y-23809D02*
X53378Y-23809D01*
X53378Y-24034D01*
X53406Y-24090D01*
X53435Y-24118D01*
X53491Y-24146D01*
X53575Y-24146D01*
X53631Y-24118D01*
X53660Y-24090D01*
X53688Y-24034D01*
X53688Y-23809D01*
X53969Y-24399D02*
X53575Y-24399D01*
X53378Y-24399D02*
X53406Y-24371D01*
X53435Y-24399D01*
X53406Y-24427D01*
X53378Y-24399D01*
X53435Y-24399D01*
X53744Y-24680D02*
X53744Y-25130D01*
X53969Y-25411D02*
X53378Y-25411D01*
X53378Y-25636D01*
X53406Y-25693D01*
X53435Y-25721D01*
X53491Y-25749D01*
X53575Y-25749D01*
X53631Y-25721D01*
X53660Y-25693D01*
X53688Y-25636D01*
X53688Y-25411D01*
X53969Y-26086D02*
X53941Y-26030D01*
X53913Y-26002D01*
X53856Y-25974D01*
X53688Y-25974D01*
X53631Y-26002D01*
X53603Y-26030D01*
X53575Y-26086D01*
X53575Y-26171D01*
X53603Y-26227D01*
X53631Y-26255D01*
X53688Y-26283D01*
X53856Y-26283D01*
X53913Y-26255D01*
X53941Y-26227D01*
X53969Y-26171D01*
X53969Y-26086D01*
X53575Y-26480D02*
X53969Y-26593D01*
X53688Y-26705D01*
X53969Y-26818D01*
X53575Y-26930D01*
X53941Y-27380D02*
X53969Y-27324D01*
X53969Y-27211D01*
X53941Y-27155D01*
X53884Y-27127D01*
X53660Y-27127D01*
X53603Y-27155D01*
X53575Y-27211D01*
X53575Y-27324D01*
X53603Y-27380D01*
X53660Y-27408D01*
X53716Y-27408D01*
X53772Y-27127D01*
X53969Y-27661D02*
X53575Y-27661D01*
X53688Y-27661D02*
X53631Y-27689D01*
X53603Y-27717D01*
X53575Y-27774D01*
X53575Y-27830D01*
G54D10*
X58169Y-7381D02*
X58169Y-29429D01*
%LPC*%
G54D14*
X53926Y-9547D03*
X52176Y-9547D03*
G54D15*
X54426Y-10547D03*
X51676Y-10547D03*
G54D14*
X52176Y-12097D03*
X53926Y-12097D03*
X52551Y-11347D03*
X53551Y-11347D03*
G54D16*
X47996Y-18307D03*
X48996Y-18307D03*
X49996Y-18307D03*
X49106Y-9990D03*
X50106Y-9990D03*
X49996Y-16929D03*
X48996Y-16929D03*
X52342Y-26877D03*
X52342Y-25877D03*
X45807Y-27807D03*
X45807Y-28807D03*
X49106Y-11486D03*
X50106Y-11486D03*
G54D17*
X39242Y-9251D03*
G54D18*
X41642Y-9251D03*
G54D19*
X40492Y-11251D03*
G54D16*
X48267Y-24911D03*
G54D20*
X36725Y-12499D03*
X36725Y-15099D03*
G54D21*
X49606Y-26377D03*
G54D22*
X49299Y-26539D03*
X49299Y-26216D03*
X49913Y-26216D03*
X49913Y-26539D03*
G54D23*
X41023Y-20297D03*
X41023Y-19297D03*
X41023Y-18497D03*
X41023Y-17497D03*
G54D24*
X39973Y-21497D03*
X39973Y-16097D03*
G54D25*
X47874Y-21259D03*
G54D26*
X47566Y-21422D03*
X47566Y-21097D03*
X48181Y-21097D03*
X48181Y-21422D03*
G54D27*
X41145Y-28500D03*
X40822Y-28500D03*
X41145Y-28153D03*
X40822Y-28153D03*
G54D28*
X37696Y-27854D03*
X56594Y-27854D03*
G54D16*
X40226Y-13250D03*
X40226Y-14250D03*
X56084Y-8271D03*
X57084Y-8271D03*
X56084Y-9271D03*
X57084Y-9271D03*
X56084Y-10271D03*
G54D29*
X57084Y-10271D03*
G54D16*
X56084Y-11271D03*
X57084Y-11271D03*
X56084Y-12271D03*
X57084Y-12271D03*
X56084Y-13271D03*
X57084Y-13271D03*
X56084Y-14271D03*
X57084Y-14271D03*
X56084Y-15271D03*
X57084Y-15271D03*
X56084Y-16271D03*
X57084Y-16271D03*
X56084Y-17271D03*
X57084Y-17271D03*
X56084Y-18271D03*
X57084Y-18271D03*
X56084Y-19271D03*
X57084Y-19271D03*
X56084Y-20271D03*
X57084Y-20271D03*
G54D30*
X43208Y-17411D03*
G54D16*
X45289Y-15206D03*
X46289Y-15206D03*
X47289Y-15206D03*
G54D31*
X43474Y-9242D03*
X43789Y-9242D03*
G54D16*
X56084Y-21271D03*
X56084Y-22271D03*
X57084Y-21271D03*
X57084Y-22271D03*
M02*
